<?xml version="1.0" encoding="utf-8"?>
<!-- Generator: Adobe Illustrator 21.0.2, SVG Export Plug-In . SVG Version: 6.00 Build 0)  -->
<svg version="1.1" xmlns="http://www.w3.org/2000/svg" xmlns:xlink="http://www.w3.org/1999/xlink" x="0px" y="0px"
	 viewBox="0 0 329.4 70.9" style="enable-background:new 0 0 329.4 70.9;" xml:space="preserve">
<style type="text/css">
	.st0{fill:#FFFFFF;}
	.st1{fill:none;stroke:#FFFBF7;stroke-miterlimit:10;}
</style>
<g id="_x37__x2C_2">
	<g>
		<path class="st0" d="M299,61.9h-5.8c-0.5,0-0.9,0.4-0.9,0.9v5.8c0,0.5,0.4,0.9,0.9,0.9h5.8c0.5,0,0.9-0.4,0.9-0.9v-5.8
			C299.9,62.3,299.5,61.9,299,61.9"/>
	</g>
</g>
<g id="_x37__x2C_1">
	<g>
		<path class="st0" d="M289.9,61.9h-5.8c-0.5,0-0.9,0.4-0.9,0.9v5.8c0,0.5,0.4,0.9,0.9,0.9h5.8c0.5,0,0.9-0.4,0.9-0.9v-5.8
			C290.8,62.3,290.4,61.9,289.9,61.9"/>
	</g>
</g>
<g id="_x36__x2C_2">
	<g>
		<path class="st0" d="M308.2,52.8h-5.8c-0.5,0-0.9,0.4-0.9,0.9v5.8c0,0.5,0.4,0.9,0.9,0.9h5.8c0.5,0,0.9-0.4,0.9-0.9v-5.8
			C309,53.2,308.7,52.8,308.2,52.8"/>
	</g>
</g>
<g id="_x36__x2C_1">
	<g>
		<path class="st0" d="M299,52.8h-5.8c-0.5,0-0.9,0.4-0.9,0.9v5.8c0,0.5,0.4,0.9,0.9,0.9h5.8c0.5,0,0.9-0.4,0.9-0.9v-5.8
			C299.9,53.2,299.5,52.8,299,52.8"/>
	</g>
</g>
<g id="_x35__x2C_2">
	<g>
		<path class="st0" d="M317.3,43.6h-5.8c-0.5,0-0.9,0.4-0.9,0.9v5.8c0,0.5,0.4,0.9,0.9,0.9h5.8c0.5,0,0.9-0.4,0.9-0.9v-5.8
			C318.2,44,317.8,43.6,317.3,43.6"/>
	</g>
</g>
<g id="_x35__x2C_1">
	<g>
		<path class="st0" d="M308.2,43.6h-5.8c-0.5,0-0.9,0.4-0.9,0.9v5.8c0,0.5,0.4,0.9,0.9,0.9h5.8c0.5,0,0.9-0.4,0.9-0.9v-5.8
			C309,44,308.7,43.6,308.2,43.6"/>
	</g>
</g>
<g id="_x34__x2C_2">
	<g>
		<path class="st0" d="M326.5,34.5h-5.8c-0.5,0-0.9,0.4-0.9,0.9v5.8c0,0.5,0.4,0.9,0.9,0.9h5.8c0.5,0,0.9-0.4,0.9-0.9v-5.8
			C327.3,34.9,326.9,34.5,326.5,34.5"/>
	</g>
</g>
<g id="_x34__x2C_1">
	<g>
		<path class="st0" d="M317.3,34.5h-5.8c-0.5,0-0.9,0.4-0.9,0.9v5.8c0,0.5,0.4,0.9,0.9,0.9h5.8c0.5,0,0.9-0.4,0.9-0.9v-5.8
			C318.2,34.9,317.8,34.5,317.3,34.5"/>
	</g>
</g>
<g id="_x33__x2C_2">
	<g>
		<path class="st0" d="M317.3,25.3h-5.8c-0.5,0-0.9,0.4-0.9,0.9V32c0,0.5,0.4,0.9,0.9,0.9h5.8c0.5,0,0.9-0.4,0.9-0.9v-5.8
			C318.2,25.7,317.8,25.3,317.3,25.3"/>
	</g>
</g>
<g id="_x33__x2C_1">
	<g>
		<path class="st0" d="M308.2,25.3h-5.8c-0.5,0-0.9,0.4-0.9,0.9V32c0,0.5,0.4,0.9,0.9,0.9h5.8c0.5,0,0.9-0.4,0.9-0.9v-5.8
			C309,25.7,308.7,25.3,308.2,25.3"/>
	</g>
</g>
<g id="_x32__x2C_2">
	<g>
		<path class="st0" d="M308.2,16.2h-5.8c-0.5,0-0.9,0.4-0.9,0.9v5.8c0,0.5,0.4,0.9,0.9,0.9h5.8c0.5,0,0.9-0.4,0.9-0.9V17
			C309,16.6,308.7,16.2,308.2,16.2"/>
	</g>
</g>
<g id="_x32__x2C_1">
	<g>
		<path class="st0" d="M299,16.2h-5.8c-0.5,0-0.9,0.4-0.9,0.9v5.8c0,0.5,0.4,0.9,0.9,0.9h5.8c0.5,0,0.9-0.4,0.9-0.9V17
			C299.9,16.6,299.5,16.2,299,16.2"/>
	</g>
</g>
<g id="_x31__x2C_2">
	<g>
		<path class="st0" d="M299,7h-5.8c-0.5,0-0.9,0.4-0.9,0.9v5.8c0,0.5,0.4,0.9,0.9,0.9h5.8c0.5,0,0.9-0.4,0.9-0.9V7.9
			C299.9,7.4,299.5,7,299,7"/>
	</g>
</g>
<g id="_x31__x2C_1">
	<g>
		<path class="st0" d="M289.9,7h-5.8c-0.5,0-0.9,0.4-0.9,0.9v5.8c0,0.5,0.4,0.9,0.9,0.9h5.8c0.5,0,0.9-0.4,0.9-0.9V7.9
			C290.8,7.4,290.4,7,289.9,7"/>
	</g>
</g>
<g id="Globalmethane_1_">
	<path id="Globalmethane" class="st0" d="M14.7,1c5.4,0,8.7,2.7,10.7,5.8l-4.6,2.5c-1.2-1.8-3.4-3.4-6.1-3.4c-4.7,0-8.1,3.6-8.1,8.5
		s3.4,8.5,8.1,8.5c2.3,0,4.4-1,5.5-2v-3.1h-6.8V13h12.3v9.9c-2.6,2.9-6.3,4.9-11,4.9C7.2,27.7,1,22.5,1,14.3C1,6.2,7.2,1,14.7,1z"/>
</g>
<g id="gLobalmethane_1_">
	<path id="gLobalmethane" class="st0" d="M29.8,1.4h4.9v25.8h-4.9L29.8,1.4z"/>
</g>
<g id="glObalmethane_1_">
	<path id="glObalmethane" class="st0" d="M38.2,17.9c0-5.3,3.7-9.8,9.9-9.8s9.9,4.5,9.9,9.8s-3.7,9.8-9.9,9.8S38.2,23.2,38.2,17.9z
		 M52.8,17.9c0-2.9-1.7-5.4-4.8-5.4s-4.8,2.5-4.8,5.4s1.7,5.5,4.8,5.5S52.8,20.8,52.8,17.9z"/>
</g>
<g id="gloBalmethane_1_">
	<path id="gloBalmethane" class="st0" d="M61.4,1.4h4.9v9.5C67.8,9,69.9,8,72.1,8c4.8,0,8.3,3.7,8.3,9.8c0,6.2-3.6,9.8-8.3,9.8
		c-2.2,0-4.3-1-5.8-2.9v2.4h-4.9V1.4z M70.5,23.3c2.9,0,4.8-2.2,4.8-5.4s-1.9-5.5-4.8-5.5c-1.6,0-3.4,0.9-4.2,2.2v6.6
		C67.1,22.4,68.9,23.3,70.5,23.3z"/>
</g>
<g id="globAlmethane_1_">
	<path id="globAlmethane" class="st0" d="M95.1,25.3c-1.3,1.5-3.5,2.4-5.9,2.4c-3,0-6.5-2-6.5-6.2c0-4.4,3.5-6,6.5-6
		c2.5,0,4.7,0.8,5.9,2.3v-2.6c0-1.9-1.6-3.1-4.1-3.1c-2,0-3.9,0.7-5.5,2.2L83.7,11c2.3-2,5.2-2.9,8.2-2.9c4.3,0,8.2,1.7,8.2,7.1
		v12.1h-4.9L95.1,25.3L95.1,25.3z M95.1,20.4c-0.8-1.1-2.4-1.6-3.9-1.6c-1.9,0-3.5,1-3.5,2.8c0,1.7,1.6,2.7,3.5,2.7
		c1.6,0,3.1-0.5,3.9-1.6V20.4z"/>
</g>
<g id="globaLmethane_1_">
	<path id="globaLmethane" class="st0" d="M104.6,1.4h4.9v25.8h-4.9V1.4z"/>
</g>
<g id="globalMethane_1_">
	<path id="globalMethane" class="st0" d="M146.5,9.2l-7.3,18.1h-2.4l-7.3-18.1v18.1H124V1.4h7.7L138,17l6.3-15.6h7.7v25.8h-5.5V9.2z
		"/>
</g>
<g id="globalmEthane_1_">
	<path id="globalmEthane" class="st0" d="M165.2,8.1c5.6,0,9.4,4.2,9.4,10.3v1.1h-13.9c0.3,2.4,2.2,4.3,5.4,4.3c1.7,0,3.8-0.7,5-1.9
		l2.2,3.2c-1.9,1.7-4.8,2.6-7.7,2.6c-5.7,0-10-3.8-10-9.8C155.6,12.4,159.6,8.1,165.2,8.1z M160.6,16.1h9.2
		c-0.1-1.8-1.4-4.1-4.6-4.1C162.2,12,160.9,14.3,160.6,16.1z"/>
</g>
<g id="globalmeThane_1_">
	<path id="globalmeThane" class="st0" d="M178.9,22.6v-9.7h-3.1V8.5h3.1V3.4h4.9v5.1h3.8v4.3h-3.8v8.4c0,1.2,0.6,2,1.7,2
		c0.7,0,1.4-0.3,1.7-0.5l1,3.7c-0.7,0.7-2,1.2-4.1,1.2C180.8,27.7,178.9,25.9,178.9,22.6z"/>
</g>
<g id="globalmetHane_1_">
	<path id="globalmetHane" class="st0" d="M203.4,15.8c0-2.6-1.4-3.4-3.5-3.4c-1.9,0-3.4,1.1-4.3,2.2v12.6h-4.9V1.4h4.9V11
		c1.2-1.4,3.5-2.9,6.6-2.9c4.1,0,6.1,2.2,6.1,5.9v13.3h-4.9L203.4,15.8L203.4,15.8z"/>
</g>
<g id="globalmethAne">
	<path id="globalmetAne" class="st0" d="M224.2,25.3c-1.3,1.5-3.5,2.4-5.9,2.4c-3,0-6.5-2-6.5-6.2c0-4.4,3.5-6,6.5-6
		c2.5,0,4.7,0.8,5.9,2.3v-2.6c0-1.9-1.6-3.1-4.1-3.1c-2,0-3.9,0.7-5.5,2.2l-1.9-3.3c2.3-2,5.2-2.9,8.2-2.9c4.3,0,8.2,1.7,8.2,7.1
		v12.1h-4.9V25.3z M224.2,20.4c-0.8-1.1-2.4-1.6-3.9-1.6c-1.9,0-3.5,1-3.5,2.8c0,1.7,1.6,2.7,3.5,2.7c1.6,0,3.1-0.5,3.9-1.6V20.4z"
		/>
</g>
<g id="globalmethaNe_1_">
	<path id="globalmethaNe" class="st0" d="M246.4,15.9c0-2.6-1.4-3.5-3.4-3.5c-1.9,0-3.4,1.1-4.3,2.2v12.6h-4.9V8.5h4.9V11
		c1.2-1.4,3.5-2.9,6.5-2.9c4.1,0,6.1,2.3,6.1,6v13.2h-4.9L246.4,15.9L246.4,15.9z"/>
</g>
<g id="globalmethanE_1_">
	<path id="globalmethanE" class="st0" d="M264.5,8.1c5.6,0,9.4,4.2,9.4,10.3v1.1H260c0.3,2.4,2.2,4.3,5.4,4.3c1.7,0,3.8-0.7,5-1.9
		l2.2,3.2c-1.9,1.7-4.8,2.6-7.7,2.6c-5.7,0-10-3.8-10-9.8C254.8,12.4,258.8,8.1,264.5,8.1z M259.9,16.1h9.2
		c-0.1-1.8-1.4-4.1-4.6-4.1C261.4,12,260.1,14.3,259.9,16.1z"/>
</g>
<g id="Challenge">
	<g>
		<path class="st0" d="M1,52.2c0-9.8,7.4-16.5,17-16.5c7,0,11.1,3.8,13.4,7.8l-5.8,2.9c-1.3-2.6-4.2-4.6-7.5-4.6
			c-5.8,0-10,4.5-10,10.5s4.2,10.5,10,10.5c3.3,0,6.2-2,7.5-4.6l5.8,2.8c-2.3,4-6.3,7.8-13.4,7.8C8.4,68.7,1,62,1,52.2"/>
	</g>
</g>
<g id="cHallenge">
	<g>
		<polygon class="st0" points="57.3,54.7 42.2,54.7 42.2,68.1 35.4,68.1 35.4,36.2 42.2,36.2 42.2,48.7 57.3,48.7 57.3,36.2 
			64.1,36.2 64.1,68.1 57.3,68.1 		"/>
	</g>
</g>
<g id="chaLlenge">
	<g>
		<polygon class="st0" points="103.2,36.2 110,36.2 110,62.1 123.5,62.1 123.5,68.1 103.2,68.1 		"/>
	</g>
</g>
<g id="chalLenge">
	<g>
		<polygon class="st0" points="128.2,36.2 135,36.2 135,62.1 148.5,62.1 148.5,68.1 128.2,68.1 		"/>
	</g>
</g>
<g id="challEnge">
	<g>
		<polygon class="st0" points="153.2,36.2 175.8,36.2 175.8,42.2 160,42.2 160,48.9 175.5,48.9 175.5,54.9 160,54.9 160,62.1 
			175.8,62.1 175.8,68.1 153.2,68.1 		"/>
	</g>
</g>
<g id="challeNge">
	<g>
		<polygon class="st0" points="188,47.3 188,68.1 181.2,68.1 181.2,36.2 188.1,36.2 202.9,56.2 202.9,36.2 209.7,36.2 209.7,68.1 
			203.2,68.1 		"/>
	</g>
</g>
<g id="challenGe">
	<g>
		<g>
			<path class="st0" d="M231.5,35.6c6.7,0,10.8,3.4,13.2,7.1l-5.6,3.1c-1.4-2.3-4.2-4.2-7.6-4.2c-5.8,0-10,4.5-10,10.5
				s4.2,10.5,10,10.5c2.8,0,5.5-1.2,6.8-2.4v-3.8h-8.4v-5.9h15.2v12.3c-3.3,3.6-7.8,6-13.6,6c-9.3,0-17-6.5-17-16.6
				C214.5,42.1,222.2,35.6,231.5,35.6"/>
		</g>
	</g>
</g>
<g id="challengE">
	<g>
		<polygon class="st0" points="250.5,36.2 273.1,36.2 273.1,42.2 257.3,42.2 257.3,48.9 272.8,48.9 272.8,54.9 257.3,54.9 
			257.3,62.1 273.1,62.1 273.1,68.1 250.5,68.1 		"/>
	</g>
</g>
<g id="flame">
	<g>
		<g>
			<path class="st1" d="M70,55.2c-1.5,4-1.7,13.7,11,15.9c-1.6-1.5-2.1-3.5-2-4.6c0.6-4.5,5-6.1,6.1-15.5c6,4.9,8.1,10.9,8,14.9
				c0,1-0.5,2.3-0.9,3.2c7.8-4.9,6.4-16.2,4.9-19.6c-5-11.2-14.5-16.1-24.3-16.7C83.8,40.2,73,47.2,70,55.2"/>
		</g>
		<g>
			<path class="st0" d="M74.9,62.3c-0.2,1.8,1.7,6.7,6.4,8.9c-1.8-1.5-1.6-3.9-1.5-5c0.6-4.5,4.6-5.1,5.7-14.5
				c5.5,4.9,7.5,10.4,7.4,14.5c0,1.1-0.2,2.2-0.8,3.1c3.2-3.6,4-9.6,3.2-12.5c-1.9-7.7-6.7-11.5-12.4-15.7
				C84,48.1,75.4,56.7,74.9,62.3"/>
		</g>
	</g>
</g>
</svg>
