<?xml version="1.0" encoding="utf-8"?>
<!-- Generator: Adobe Illustrator 21.0.2, SVG Export Plug-In . SVG Version: 6.00 Build 0)  -->
<svg version="1.1" id="Layer_1" xmlns="http://www.w3.org/2000/svg" xmlns:xlink="http://www.w3.org/1999/xlink" x="0px" y="0px"
	 viewBox="0 0 102.5 102.5" style="enable-background:new 0 0 102.5 102.5;" xml:space="preserve">
<style type="text/css">
	.st0{fill:#5267AE;}
	.st1{fill:#1A84B8;}
	.st2{fill:#00539A;}
</style>
<g>
	<g>
		<path class="st0" d="M42.5,83.9h-8c-0.7,0-1.2,0.6-1.2,1.2v8c0,0.7,0.6,1.2,1.2,1.2h8c0.7,0,1.2-0.6,1.2-1.2v-8
			C43.8,84.5,43.2,83.9,42.5,83.9"/>
	</g>
	<g>
		<path class="st1" d="M30,83.9h-8c-0.7,0-1.2,0.6-1.2,1.2v8c0,0.7,0.6,1.2,1.2,1.2h8c0.7,0,1.2-0.6,1.2-1.2v-8
			C31.2,84.5,30.7,83.9,30,83.9"/>
	</g>
	<g>
		<path class="st1" d="M55.3,71.3h-8c-0.7,0-1.2,0.6-1.2,1.2v8c0,0.7,0.6,1.2,1.2,1.2h8c0.7,0,1.2-0.6,1.2-1.2v-8
			C56.4,71.9,55.9,71.3,55.3,71.3"/>
	</g>
	<g>
		<path class="st2" d="M42.5,71.3h-8c-0.7,0-1.2,0.6-1.2,1.2v8c0,0.7,0.6,1.2,1.2,1.2h8c0.7,0,1.2-0.6,1.2-1.2v-8
			C43.8,71.9,43.2,71.3,42.5,71.3"/>
	</g>
	<g>
		<path class="st0" d="M67.8,58.6h-8c-0.7,0-1.2,0.6-1.2,1.2v8c0,0.7,0.6,1.2,1.2,1.2h8c0.7,0,1.2-0.6,1.2-1.2v-8
			C69.1,59.2,68.5,58.6,67.8,58.6"/>
	</g>
	<g>
		<path class="st1" d="M55.3,58.6h-8c-0.7,0-1.2,0.6-1.2,1.2v8c0,0.7,0.6,1.2,1.2,1.2h8c0.7,0,1.2-0.6,1.2-1.2v-8
			C56.4,59.2,55.9,58.6,55.3,58.6"/>
	</g>
	<g>
		<path class="st1" d="M80.5,46.1h-8c-0.7,0-1.2,0.6-1.2,1.2v8c0,0.7,0.6,1.2,1.2,1.2h8c0.7,0,1.2-0.6,1.2-1.2v-8
			C81.6,46.6,81.1,46.1,80.5,46.1"/>
	</g>
	<g>
		<path class="st2" d="M67.8,46.1h-8c-0.7,0-1.2,0.6-1.2,1.2v8c0,0.7,0.6,1.2,1.2,1.2h8c0.7,0,1.2-0.6,1.2-1.2v-8
			C69.1,46.6,68.5,46.1,67.8,46.1"/>
	</g>
	<g>
		<path class="st0" d="M67.8,33.4h-8c-0.7,0-1.2,0.6-1.2,1.2v8c0,0.7,0.6,1.2,1.2,1.2h8c0.7,0,1.2-0.6,1.2-1.2v-8
			C69.1,33.9,68.5,33.4,67.8,33.4"/>
	</g>
	<g>
		<path class="st1" d="M55.3,33.4h-8c-0.7,0-1.2,0.6-1.2,1.2v8c0,0.7,0.6,1.2,1.2,1.2h8c0.7,0,1.2-0.6,1.2-1.2v-8
			C56.4,33.9,55.9,33.4,55.3,33.4"/>
	</g>
	<g>
		<path class="st1" d="M55.3,20.8h-8c-0.7,0-1.2,0.6-1.2,1.2v8c0,0.7,0.6,1.2,1.2,1.2h8c0.7,0,1.2-0.6,1.2-1.2v-8.1
			C56.4,21.3,55.9,20.8,55.3,20.8"/>
	</g>
	<g>
		<path class="st2" d="M42.5,20.8h-8c-0.7,0-1.2,0.6-1.2,1.2v8c0,0.7,0.6,1.2,1.2,1.2h8c0.7,0,1.2-0.6,1.2-1.2v-8.1
			C43.8,21.3,43.2,20.8,42.5,20.8"/>
	</g>
	<g>
		<path class="st0" d="M42.5,8.1h-8c-0.7,0-1.2,0.6-1.2,1.2v8c0,0.7,0.6,1.2,1.2,1.2h8c0.7,0,1.2-0.6,1.2-1.2v-8
			C43.8,8.6,43.2,8.1,42.5,8.1"/>
	</g>
	<g>
		<path class="st1" d="M30,8.1h-8c-0.7,0-1.2,0.6-1.2,1.2v8c0,0.7,0.6,1.2,1.2,1.2h8c0.7,0,1.2-0.6,1.2-1.2v-8
			C31.2,8.6,30.7,8.1,30,8.1"/>
	</g>
</g>
</svg>
