<?xml version="1.0" encoding="UTF-8"?><svg id="Layer_2" xmlns="http://www.w3.org/2000/svg" xmlns:xlink="http://www.w3.org/1999/xlink" viewBox="0 0 232.44 122.11"><defs><style>.cls-1{fill:#fff;}.cls-2{clip-path:url(#clippath-2);}.cls-3{clip-path:url(#clippath-6);}.cls-4{clip-path:url(#clippath-7);}.cls-5{clip-path:url(#clippath-1);}.cls-6{clip-path:url(#clippath-4);}.cls-7{stroke:#fff;stroke-miterlimit:10;stroke-width:2px;}.cls-7,.cls-8{fill:none;}.cls-9{clip-path:url(#clippath-9);}.cls-10{clip-path:url(#clippath);}.cls-11{clip-path:url(#clippath-3);}.cls-12{clip-path:url(#clippath-8);}.cls-13{clip-path:url(#clippath-5);}</style><clipPath id="clippath"><rect class="cls-8" x="0" y="0" width="232.44" height="122.11"/></clipPath><clipPath id="clippath-1"><path class="cls-8" d="m9.37,28.95l52.58,15.6L19.26,16.9c-3.79,3.59-7.11,7.63-9.88,12.05"/></clipPath><clipPath id="clippath-2"><path class="cls-8" d="m1.54,75.27c.98,4.34,2.43,8.57,4.33,12.6l47.63-17.2L1.54,75.27Z"/></clipPath><clipPath id="clippath-3"><path class="cls-8" d="m.05,59.85C.05,60.44,0,61.03,0,61.62c0,4.08.4,8.14,1.2,12.14l52.28-10.16L.05,59.85h0Z"/></clipPath><clipPath id="clippath-4"><path class="cls-8" d="m19.75,16.43l47.46,23.41L32.74,7.19c-4.71,2.51-9.07,5.61-12.98,9.24"/></clipPath><clipPath id="clippath-5"><path class="cls-8" d="m2.75,43.37l55.07,6.89L8.97,29.6c-2.63,4.32-4.72,8.94-6.22,13.77"/></clipPath><clipPath id="clippath-6"><path class="cls-8" d="m49.48,1.2l30.56,32.92L65.43.13C64.18.05,62.91,0,61.63,0c-4.08,0-8.15.4-12.15,1.2"/></clipPath><clipPath id="clippath-7"><path class="cls-8" d="m33.39,6.85l39.94,29.46L48.56,1.4c-5.28,1.14-10.38,2.97-15.17,5.45"/></clipPath><clipPath id="clippath-8"><path class="cls-8" d="m.08,58.63H.08l54.88-1.94L2.49,44.29C1.12,48.96.31,53.77.08,58.63"/></clipPath><clipPath id="clippath-9"><path class="cls-8" d="m58.2,52.46c-3.34,9.28-3.75,31.93,24.82,37.01-4.16-2.54-12.66-8.6-13.9-20.33-.8-16.01,20.9-33.71,18.17-49.39,25.03,18.06,28.56,34.36,28.37,43.85-.87,13.87-6.67,18.9-7.55,21.28,17.53-11.42,14.31-37.89,10.93-45.73C107.8,13.01,86.45,1.56,64.29.1c24.88,17.54.57,33.85-6.09,52.36"/></clipPath></defs><g id="Layer_1-2"><g class="cls-10"><path class="cls-1" d="m143.43,82.62c-2.01.64-4.09.98-6.2,1.01-3.51,0-5.91-.88-7.53-2.42-1.68-1.6-2.55-3.91-2.55-6.46.03-6.25,4.69-9.42,10.48-9.42,2.42,0,4.25.43,5.18.88l-.96,3.86c-1.01-.45-2.24-.77-4.25-.77-2.95,0-5.41,1.54-5.41,5.19,0,3.35,2.16,5.29,5.08,5.29.51.03,1.02-.03,1.52-.16v-3.09h-2.4v-3.72h7.02v9.81Z"/><rect class="cls-1" x="146.36" y="64.53" width="4.81" height="18.91"/><path class="cls-1" d="m160.44,83.73c-3.91,0-6.94-2.47-6.94-6.73s2.74-6.94,7.21-6.94c4.1,0,6.81,2.77,6.81,6.7,0,4.76-3.4,6.97-7.05,6.97h-.03Zm.13-3.38c1.31,0,2-1.36,2-3.46,0-1.8-.58-3.46-2-3.46-1.59,0-2.13,1.73-2.13,3.46,0,1.97.64,3.46,2.1,3.46h.03Z"/><path class="cls-1" d="m169.81,64.54h4.81v7.16h.05c.74-.98,2.05-1.63,3.72-1.63,3.09,0,5.37,2.56,5.35,6.57,0,4.73-2.98,7.1-6.01,7.1-1.38,0-2.85-.51-3.72-1.97h-.05l-.19,1.68h-4.08c.05-.85.1-2.52.1-4.12v-14.79Zm4.81,13.22c0,.22.02.45.05.67.18.9.97,1.56,1.89,1.57,1.41,0,2.31-1.08,2.31-3.14,0-1.78-.72-3.11-2.31-3.11-.94,0-1.74.69-1.89,1.62-.03.21-.05.42-.05.64v1.75Z"/><path class="cls-1" d="m197.67,80.25c-.02,1.07.05,2.14.22,3.19h-4.33l-.24-1.14h-.11c-.91,1.04-2.21,1.44-3.61,1.44-2.69,0-4.33-1.94-4.33-4.12,0-3.51,3.17-5.08,7.61-5.08v-.1c0-.53-.4-1.12-2.16-1.12-1.3.02-2.57.35-3.72.96l-.82-3c1.68-.83,3.54-1.24,5.41-1.2,4.49,0,6.06,2.5,6.06,5.77v4.41Zm-4.65-2.79c-1.97,0-3.06.53-3.06,1.7,0,.83.53,1.25,1.36,1.25.74-.02,1.4-.5,1.65-1.2.05-.23.06-.46.05-.69v-1.06Z"/><rect class="cls-1" x="200.6" y="64.53" width="4.82" height="18.91"/><path class="cls-1" d="m20.55,103.83c-.08-2.02-.1-4.42-.1-7.21h-.08c-.56,2.37-1.31,5.05-1.89,7.02l-1.78,6.25h-3.74l-1.49-6.25c-.48-1.92-1.01-4.58-1.44-7.02h-.05c-.1,2.52-.19,5.18-.26,7.21l-.29,6.44h-4.41l1.12-17.94h6.46l1.17,4.84c.5,1.97,1.04,4.36,1.41,6.54h.08c.5-2.18,1.08-4.71,1.62-6.6l1.36-4.79h6.29l.9,17.93h-4.64l-.23-6.43Z"/><path class="cls-1" d="m31.58,105.4c.16,1.04,1.68,1.62,3.38,1.62,1.21.02,2.41-.15,3.57-.51l.61,3.19c-1.56.57-3.22.85-4.89.83-4.6,0-7.21-2.52-7.21-6.68,0-3.03,1.97-6.97,6.79-6.97,4.23,0,6.04,3.11,6.04,6.71,0,.61-.06,1.21-.18,1.8h-8.09Zm3.86-3.24c0-.74-.36-2.13-1.86-2.13-1.41,0-1.97,1.31-2.05,2.13h3.91Z"/><path class="cls-1" d="m47.28,93.45v3.72h2.71v3.51h-2.71v3.75c0,1.54.36,2.16,1.52,2.16.38.03.77-.01,1.14-.1v3.64c-.92.27-1.88.39-2.84.36-1.2.04-2.38-.39-3.27-1.2-.8-.8-1.22-2.08-1.22-4.07v-4.55h-1.62v-3.51h1.62v-2.45l4.68-1.28Z"/><path class="cls-1" d="m52.2,91.35h4.81v7.21h.05c.87-1.06,2.17-1.68,3.54-1.67,2.95,0,4.6,2.1,4.6,5.8v7.57h-4.81v-7.04c0-1.54-.5-2.47-1.7-2.47-.69-.02-1.32.39-1.57,1.03-.07.25-.11.51-.11.77v7.72h-4.81v-18.91Z"/><path class="cls-1" d="m79.79,107.08c-.02,1.07.05,2.14.22,3.19h-4.33l-.24-1.14h-.1c-.9,1.03-2.21,1.44-3.61,1.44-2.69,0-4.33-1.94-4.33-4.12,0-3.51,3.17-5.08,7.61-5.08v-.11c0-.53-.4-1.11-2.16-1.11-1.29.03-2.56.35-3.7.96l-.85-3.04c1.68-.83,3.54-1.24,5.41-1.2,4.49,0,6.06,2.5,6.06,5.77l.02,4.44Zm-4.65-2.79c-1.97,0-3.06.53-3.06,1.7,0,.83.53,1.25,1.36,1.25.74-.02,1.4-.49,1.65-1.2.05-.23.06-.46.05-.69v-1.06Z"/><path class="cls-1" d="m82.71,101.65c0-1.75-.05-3.24-.1-4.47h4.15l.21,1.68h.08c.91-1.26,2.38-2,3.94-1.97,3.06,0,4.73,2.08,4.73,5.67v7.72h-4.82v-7.13c0-1.52-.5-2.39-1.67-2.39-.71,0-1.35.46-1.57,1.14-.1.31-.15.63-.13.96v7.42h-4.82v-8.62Z"/><path class="cls-1" d="m102.56,105.4c.16,1.04,1.68,1.62,3.38,1.62,1.21.02,2.41-.15,3.57-.51l.61,3.19c-1.57.58-3.22.86-4.89.83-4.6,0-7.21-2.52-7.21-6.68,0-3.03,1.97-6.97,6.78-6.97,4.23,0,6.04,3.11,6.04,6.71,0,.61-.06,1.21-.18,1.8h-8.08Zm3.86-3.24c0-.74-.36-2.13-1.86-2.13-1.41,0-1.97,1.31-2.05,2.13h3.91Z"/><rect class="cls-1" x="117.11" y="92.34" width="4.81" height="17.93"/><path class="cls-1" d="m124.77,101.65c0-1.75-.05-3.24-.1-4.47h4.15l.21,1.68h.08c.91-1.26,2.38-1.99,3.93-1.97,3.06,0,4.73,2.08,4.73,5.67v7.72h-4.81v-7.13c0-1.52-.5-2.39-1.68-2.39-.72,0-1.35.46-1.57,1.14-.1.31-.15.63-.13.96v7.42h-4.81v-8.62Z"/><path class="cls-1" d="m142.44,95.82c-1.49,0-2.42-1.01-2.42-2.26,0-1.33.96-2.29,2.45-2.29s2.42.96,2.45,2.29c0,1.25-.96,2.26-2.45,2.26h-.03Zm-2.26,1.36h4.81v13.09h-4.81v-13.09Z"/><path class="cls-1" d="m153.21,93.45v3.72h2.71v3.51h-2.71v3.75c0,1.54.36,2.16,1.52,2.16.38.03.77-.01,1.14-.1v3.64c-.92.27-1.88.39-2.84.36-1.2.04-2.38-.39-3.27-1.2-.8-.78-1.21-2.04-1.21-4.03v-4.59h-1.62v-3.51h1.62v-2.45l4.67-1.28Z"/><path class="cls-1" d="m160.39,95.82c-1.49,0-2.42-1.01-2.42-2.26,0-1.33.96-2.29,2.45-2.29s2.42.96,2.45,2.29c0,1.25-.96,2.26-2.45,2.26h-.03Zm-2.26,1.36h4.81v13.09h-4.81v-13.09Z"/><path class="cls-1" d="m177.55,107.08c-.02,1.07.05,2.14.21,3.19h-4.34l-.24-1.14h-.11c-.91,1.03-2.21,1.44-3.61,1.44-2.69,0-4.33-1.94-4.33-4.12,0-3.51,3.17-5.08,7.61-5.08v-.11c0-.53-.4-1.11-2.16-1.11-1.29.03-2.56.35-3.7.96l-.83-3.04c1.68-.83,3.54-1.24,5.41-1.2,4.5,0,6.06,2.5,6.06,5.77l.02,4.44Zm-4.65-2.79c-1.96,0-3.06.53-3.06,1.7,0,.83.54,1.25,1.36,1.25.74-.02,1.4-.49,1.65-1.2.04-.23.06-.46.05-.69v-1.06Z"/><path class="cls-1" d="m185.5,93.45v3.72h2.7v3.51h-2.71v3.75c0,1.54.36,2.16,1.52,2.16.38.03.77-.01,1.14-.1v3.64c-.92.27-1.88.39-2.84.36-1.2.04-2.38-.39-3.27-1.2-.8-.8-1.22-2.08-1.22-4.07v-4.55h-1.62v-3.51h1.62v-2.45l4.7-1.28Z"/><path class="cls-1" d="m192.69,95.82c-1.49,0-2.42-1.01-2.42-2.26,0-1.33.96-2.29,2.44-2.29s2.42.96,2.45,2.29c0,1.25-.96,2.26-2.45,2.26h-.03Zm-2.26,1.36h4.82v13.09h-4.82v-13.09Z"/><path class="cls-1" d="m202.16,97.18l1.41,5.56c.27,1.03.45,2.05.61,3.08h.08c.16-1.06.32-1.99.58-3.08l1.31-5.56h5.03l-4.76,13.09h-4.81l-4.65-13.09h5.21Z"/><path class="cls-1" d="m216.1,105.4c.16,1.04,1.67,1.62,3.37,1.62,1.21.02,2.41-.15,3.57-.51l.61,3.19c-1.57.58-3.22.85-4.89.83-4.6,0-7.21-2.52-7.21-6.68,0-3.03,1.97-6.97,6.78-6.97,4.23,0,6.04,3.11,6.04,6.71,0,.61-.06,1.21-.18,1.8h-8.08Zm3.86-3.24c0-.74-.36-2.13-1.86-2.13-1.41,0-1.97,1.31-2.05,2.13h3.91Z"/></g><g class="cls-5"><rect class="cls-1" x="9.31" y="16.74" width="52.75" height="27.97" transform="translate(-.19 .22) rotate(-.35)"/></g><g class="cls-2"><rect class="cls-1" x="1.48" y="70.51" width="52.06" height="17.51" transform="translate(-.47 .16) rotate(-.34)"/></g><g class="cls-11"><rect class="cls-1" x="-.03" y="59.69" width="53.57" height="14.23" transform="translate(-.41 .16) rotate(-.35)"/></g><g class="cls-6"><rect class="cls-1" x="19.65" y="7.05" width="47.66" height="32.93" transform="translate(-.14 .26) rotate(-.34)"/></g><g class="cls-13"><rect class="cls-1" x="2.69" y="29.44" width="55.2" height="20.99" transform="translate(-.24 .18) rotate(-.34)"/></g><g class="cls-3"><rect class="cls-1" x="49.38" y="-.09" width="30.76" height="34.31" transform="translate(-.1 .4) rotate(-.35)"/></g><g class="cls-4"><rect class="cls-1" x="33.28" y="1.28" width="40.15" height="35.14" transform="translate(-.11 .33) rotate(-.35)"/></g><g class="cls-12"><rect class="cls-1" x=".04" y="44.12" width="54.97" height="14.68" transform="translate(-.31 .17) rotate(-.35)"/></g><g class="cls-9"><rect class="cls-1" x="44.18" y="7.7" width="91.72" height="74.17" transform="translate(42.23 133.26) rotate(-88.06)"/></g><path class="cls-7" d="m74.57,84.87c4.94,3,4.81,2.75,7.23,3.36-1.5-2.25-1.69-6.72-1.37-9.12,1.25-9.55,9.46-10.76,11.61-30.84,11.24,10.46,15.43,22.19,15.26,30.84,0,2.32-.76,4.55-1.83,6.61,3.1-1.73,7.79-7.03,7.79-7.39"/></g></svg>