<?xml version="1.0" encoding="UTF-8"?><svg id="Layer_2" xmlns="http://www.w3.org/2000/svg" xmlns:xlink="http://www.w3.org/1999/xlink" viewBox="0 0 232.44 133.59"><defs><style>.cls-1{fill:url(#linear-gradient-2);}.cls-2{fill:url(#linear-gradient-6);}.cls-3{clip-path:url(#clippath-2);}.cls-4{clip-path:url(#clippath-6);}.cls-5{clip-path:url(#clippath-7);}.cls-6{clip-path:url(#clippath-1);}.cls-7{clip-path:url(#clippath-4);}.cls-8{fill:url(#radial-gradient);}.cls-9{fill:url(#linear-gradient-5);}.cls-10{clip-path:url(#clippath-9);}.cls-11{clip-path:url(#clippath);}.cls-12{fill:none;}.cls-13{clip-path:url(#clippath-3);}.cls-14{fill:url(#linear-gradient-7);}.cls-15{clip-path:url(#clippath-8);}.cls-16{fill:url(#linear-gradient-9);}.cls-17{fill:url(#linear-gradient-3);}.cls-18{clip-path:url(#clippath-5);}.cls-19{fill:url(#linear-gradient);}.cls-20{clip-path:url(#clippath-10);}.cls-21{fill:#007ac2;}.cls-22{fill:url(#linear-gradient-4);}.cls-23{fill:url(#linear-gradient-8);}</style><clipPath id="clippath"><rect class="cls-12" x="0" y="0" width="232.44" height="122.11"/></clipPath><clipPath id="clippath-1"><path class="cls-12" d="m9.37,28.95l52.58,15.6L19.26,16.9c-3.79,3.59-7.11,7.63-9.88,12.05"/></clipPath><linearGradient id="linear-gradient" x1="-53.32" y1="-235.95" x2="-51.71" y2="-235.95" gradientTransform="translate(19032.1 -4151.41) rotate(-90) scale(80.51)" gradientUnits="userSpaceOnUse"><stop offset="0" stop-color="#fff"/><stop offset=".18" stop-color="#fff"/><stop offset=".27" stop-color="#f4fcfe"/><stop offset=".43" stop-color="#d6f3fd"/><stop offset=".64" stop-color="#a6e4fa"/><stop offset=".9" stop-color="#64d0f7"/><stop offset=".99" stop-color="#49c8f5"/><stop offset="1" stop-color="#49c8f5"/></linearGradient><clipPath id="clippath-2"><path class="cls-12" d="m1.54,75.27c.98,4.34,2.43,8.57,4.33,12.6l47.63-17.2L1.54,75.27Z"/></clipPath><linearGradient id="linear-gradient-2" x1="-53.33" y1="-235.98" x2="-51.72" y2="-235.98" gradientTransform="translate(19026.83 -4152.78) rotate(-90) scale(80.51)" xlink:href="#linear-gradient"/><clipPath id="clippath-3"><path class="cls-12" d="m.05,59.85C.05,60.44,0,61.03,0,61.62c0,4.08.4,8.14,1.2,12.14l52.28-10.16L.05,59.85h0Z"/></clipPath><linearGradient id="linear-gradient-3" x1="-53.33" y1="-235.96" x2="-51.72" y2="-235.96" gradientTransform="translate(19024.32 -4152.42) rotate(-90) scale(80.51)" xlink:href="#linear-gradient"/><clipPath id="clippath-4"><path class="cls-12" d="m19.75,16.43l47.46,23.41L32.74,7.19c-4.71,2.51-9.07,5.61-12.98,9.24"/></clipPath><linearGradient id="linear-gradient-4" x1="-53.33" y1="-235.91" x2="-51.72" y2="-235.91" gradientTransform="translate(19036.51 -4153.08) rotate(-90) scale(80.51)" xlink:href="#linear-gradient"/><clipPath id="clippath-5"><path class="cls-12" d="m2.75,43.37l55.07,6.89L8.97,29.6c-2.63,4.32-4.72,8.94-6.22,13.77"/></clipPath><linearGradient id="linear-gradient-5" x1="-53.33" y1="-235.95" x2="-51.72" y2="-235.95" gradientTransform="translate(19027.03 -4152.87) rotate(-90) scale(80.51)" xlink:href="#linear-gradient"/><clipPath id="clippath-6"><path class="cls-12" d="m49.48,1.2l30.56,32.92L65.43.13C64.18.05,62.91,0,61.63,0c-4.08,0-8.15.4-12.15,1.2"/></clipPath><linearGradient id="linear-gradient-6" x1="-53.32" y1="-235.81" x2="-51.71" y2="-235.81" gradientTransform="translate(19050.13 -4151.72) rotate(-90) scale(80.51)" xlink:href="#linear-gradient"/><clipPath id="clippath-7"><path class="cls-12" d="m33.39,6.85l39.94,29.46L48.56,1.4c-5.28,1.14-10.38,2.97-15.17,5.45"/></clipPath><linearGradient id="linear-gradient-7" x1="-53.32" y1="-235.86" x2="-51.71" y2="-235.86" gradientTransform="translate(19043.03 -4151.76) rotate(-90) scale(80.51)" xlink:href="#linear-gradient"/><clipPath id="clippath-8"><path class="cls-12" d="m.08,58.63H.08l54.88-1.94L2.49,44.29C1.12,48.96.31,53.77.08,58.63"/></clipPath><linearGradient id="linear-gradient-8" x1="-53.32" y1="-235.95" x2="-51.71" y2="-235.95" gradientTransform="translate(19026 -4152.16) rotate(-90) scale(80.52)" xlink:href="#linear-gradient"/><clipPath id="clippath-9"><path class="cls-12" d="m58.2,52.46c-3.34,9.28-3.75,31.93,24.82,37.01-3.49-3.57-4.79-8.11-4.45-10.64,1.38-10.48,11.29-14.14,13.65-36.19,13.45,11.47,18.19,25.32,18,34.81-.04,2.24-1.08,5.27-2.1,7.42,17.53-11.42,14.31-37.89,10.93-45.73C107.8,13.01,86.45,1.56,64.29.1c24.88,17.54.57,33.85-6.09,52.36"/></clipPath><radialGradient id="radial-gradient" cx="-57.23" cy="-235.12" fx="-57.23" fy="-235.12" r="1.61" gradientTransform="translate(2658.04 10769.57) scale(45.62)" gradientUnits="userSpaceOnUse"><stop offset="0" stop-color="#97daf8"/><stop offset=".1" stop-color="#97daf8"/><stop offset=".5" stop-color="#00bdf2"/><stop offset=".81" stop-color="#006ab6"/><stop offset="1" stop-color="#006ab6"/></radialGradient><clipPath id="clippath-10"><path class="cls-12" d="m69.12,69.14c-.38,4.18,3.91,15.54,14.33,20.76-3.97-3.57-3.69-9.11-3.35-11.75,1.37-10.48,10.39-11.81,12.74-33.86,12.34,11.49,16.95,24.36,16.75,33.86,0,2.55-.62,5.06-1.8,7.32,7.26-8.43,8.96-22.35,7.31-29.18-4.35-18.04-15.14-26.86-27.83-36.55,2.4,16.28-16.98,36.23-18.17,49.39"/></clipPath><linearGradient id="linear-gradient-9" x1="-62.25" y1="-235" x2="-60.64" y2="-235" gradientTransform="translate(7184.81 -1789.51) rotate(-90) scale(30.18)" gradientUnits="userSpaceOnUse"><stop offset="0" stop-color="#fff"/><stop offset=".1" stop-color="#fef0dc"/><stop offset=".26" stop-color="#fdddac"/><stop offset=".42" stop-color="#fccd85"/><stop offset=".57" stop-color="#fcc067"/><stop offset=".72" stop-color="#fbb751"/><stop offset=".87" stop-color="#fbb244"/><stop offset="1" stop-color="#fbb040"/></linearGradient></defs><g id="Layer_1-2"><g id="trad_1_paths"><g class="cls-11"><path class="cls-21" d="m143.43,82.62c-2.01.64-4.09.98-6.2,1.01-3.51,0-5.91-.88-7.53-2.42-1.68-1.6-2.55-3.91-2.55-6.46.03-6.25,4.69-9.42,10.48-9.42,2.42,0,4.25.43,5.18.88l-.96,3.86c-1.01-.45-2.24-.77-4.25-.77-2.95,0-5.41,1.54-5.41,5.19,0,3.35,2.16,5.29,5.08,5.29.51.03,1.02-.03,1.52-.16v-3.09h-2.4v-3.72h7.02v9.81Z"/><rect class="cls-21" x="146.36" y="64.53" width="4.81" height="18.91"/><path class="cls-21" d="m160.44,83.73c-3.91,0-6.94-2.47-6.94-6.73s2.74-6.94,7.21-6.94c4.1,0,6.81,2.77,6.81,6.7,0,4.76-3.4,6.97-7.05,6.97h-.03Zm.13-3.38c1.31,0,2-1.36,2-3.46,0-1.8-.58-3.46-2-3.46-1.59,0-2.13,1.73-2.13,3.46,0,1.97.64,3.46,2.1,3.46h.03Z"/><path class="cls-21" d="m169.81,64.54h4.81v7.16h.05c.74-.98,2.05-1.63,3.72-1.63,3.09,0,5.37,2.56,5.35,6.57,0,4.73-2.98,7.1-6.01,7.1-1.38,0-2.85-.51-3.72-1.97h-.05l-.19,1.68h-4.08c.05-.85.1-2.52.1-4.12v-14.79Zm4.81,13.22c0,.22.02.45.05.67.18.9.97,1.56,1.89,1.57,1.41,0,2.31-1.08,2.31-3.14,0-1.78-.72-3.11-2.31-3.11-.94,0-1.74.69-1.89,1.62-.03.21-.05.42-.05.64v1.75Z"/><path class="cls-21" d="m197.67,80.25c-.02,1.07.05,2.14.22,3.19h-4.33l-.24-1.14h-.11c-.91,1.04-2.21,1.44-3.61,1.44-2.69,0-4.33-1.94-4.33-4.12,0-3.51,3.17-5.08,7.61-5.08v-.1c0-.53-.4-1.12-2.16-1.12-1.3.02-2.57.35-3.72.96l-.82-3c1.68-.83,3.54-1.24,5.41-1.2,4.49,0,6.06,2.5,6.06,5.77v4.41Zm-4.65-2.79c-1.97,0-3.06.53-3.06,1.7,0,.83.53,1.25,1.36,1.25.74-.02,1.4-.5,1.65-1.2.05-.23.06-.46.05-.69v-1.06Z"/><rect class="cls-21" x="200.6" y="64.53" width="4.82" height="18.91"/><path class="cls-21" d="m20.55,103.83c-.08-2.02-.1-4.42-.1-7.21h-.08c-.56,2.37-1.31,5.05-1.89,7.02l-1.78,6.25h-3.74l-1.49-6.25c-.48-1.92-1.01-4.58-1.44-7.02h-.05c-.1,2.52-.19,5.18-.26,7.21l-.29,6.44h-4.41l1.12-17.94h6.46l1.17,4.84c.5,1.97,1.04,4.36,1.41,6.54h.08c.5-2.18,1.08-4.71,1.62-6.6l1.36-4.79h6.29l.9,17.93h-4.64l-.23-6.43Z"/><path class="cls-21" d="m31.58,105.4c.16,1.04,1.68,1.62,3.38,1.62,1.21.02,2.41-.15,3.57-.51l.61,3.19c-1.56.57-3.22.85-4.89.83-4.6,0-7.21-2.52-7.21-6.68,0-3.03,1.97-6.97,6.79-6.97,4.23,0,6.04,3.11,6.04,6.71,0,.61-.06,1.21-.18,1.8h-8.09Zm3.86-3.24c0-.74-.36-2.13-1.86-2.13-1.41,0-1.97,1.31-2.05,2.13h3.91Z"/><path class="cls-21" d="m47.28,93.45v3.72h2.71v3.51h-2.71v3.75c0,1.54.36,2.16,1.52,2.16.38.03.77-.01,1.14-.1v3.64c-.92.27-1.88.39-2.84.36-1.2.04-2.38-.39-3.27-1.2-.8-.8-1.22-2.08-1.22-4.07v-4.55h-1.62v-3.51h1.62v-2.45l4.68-1.28Z"/><path class="cls-21" d="m52.2,91.35h4.81v7.21h.05c.87-1.06,2.17-1.68,3.54-1.67,2.95,0,4.6,2.1,4.6,5.8v7.57h-4.81v-7.04c0-1.54-.5-2.47-1.7-2.47-.69-.02-1.32.39-1.57,1.03-.07.25-.11.51-.11.77v7.72h-4.81v-18.91Z"/><path class="cls-21" d="m79.79,107.08c-.02,1.07.05,2.14.22,3.19h-4.33l-.24-1.14h-.1c-.9,1.03-2.21,1.44-3.61,1.44-2.69,0-4.33-1.94-4.33-4.12,0-3.51,3.17-5.08,7.61-5.08v-.11c0-.53-.4-1.11-2.16-1.11-1.29.03-2.56.35-3.7.96l-.85-3.04c1.68-.83,3.54-1.24,5.41-1.2,4.49,0,6.06,2.5,6.06,5.77l.02,4.44Zm-4.65-2.79c-1.97,0-3.06.53-3.06,1.7,0,.83.53,1.25,1.36,1.25.74-.02,1.4-.49,1.65-1.2.05-.23.06-.46.05-.69v-1.06Z"/><path class="cls-21" d="m82.71,101.65c0-1.75-.05-3.24-.1-4.47h4.15l.21,1.68h.08c.91-1.26,2.38-2,3.94-1.97,3.06,0,4.73,2.08,4.73,5.67v7.72h-4.82v-7.13c0-1.52-.5-2.39-1.67-2.39-.71,0-1.35.46-1.57,1.14-.1.31-.15.63-.13.96v7.42h-4.82v-8.62Z"/><path class="cls-21" d="m102.56,105.4c.16,1.04,1.68,1.62,3.38,1.62,1.21.02,2.41-.15,3.57-.51l.61,3.19c-1.57.58-3.22.86-4.89.83-4.6,0-7.21-2.52-7.21-6.68,0-3.03,1.97-6.97,6.78-6.97,4.23,0,6.04,3.11,6.04,6.71,0,.61-.06,1.21-.18,1.8h-8.08Zm3.86-3.24c0-.74-.36-2.13-1.86-2.13-1.41,0-1.97,1.31-2.05,2.13h3.91Z"/><rect class="cls-21" x="117.11" y="92.34" width="4.81" height="17.93"/><path class="cls-21" d="m124.77,101.65c0-1.75-.05-3.24-.1-4.47h4.15l.21,1.68h.08c.91-1.26,2.38-1.99,3.93-1.97,3.06,0,4.73,2.08,4.73,5.67v7.72h-4.81v-7.13c0-1.52-.5-2.39-1.68-2.39-.72,0-1.35.46-1.57,1.14-.1.31-.15.63-.13.96v7.42h-4.81v-8.62Z"/><path class="cls-21" d="m142.44,95.82c-1.49,0-2.42-1.01-2.42-2.26,0-1.33.96-2.29,2.45-2.29s2.42.96,2.45,2.29c0,1.25-.96,2.26-2.45,2.26h-.03Zm-2.26,1.36h4.81v13.09h-4.81v-13.09Z"/><path class="cls-21" d="m153.21,93.45v3.72h2.71v3.51h-2.71v3.75c0,1.54.36,2.16,1.52,2.16.38.03.77-.01,1.14-.1v3.64c-.92.27-1.88.39-2.84.36-1.2.04-2.38-.39-3.27-1.2-.8-.78-1.21-2.04-1.21-4.03v-4.59h-1.62v-3.51h1.62v-2.45l4.67-1.28Z"/><path class="cls-21" d="m160.39,95.82c-1.49,0-2.42-1.01-2.42-2.26,0-1.33.96-2.29,2.45-2.29s2.42.96,2.45,2.29c0,1.25-.96,2.26-2.45,2.26h-.03Zm-2.26,1.36h4.81v13.09h-4.81v-13.09Z"/><path class="cls-21" d="m177.55,107.08c-.02,1.07.05,2.14.21,3.19h-4.34l-.24-1.14h-.11c-.91,1.03-2.21,1.44-3.61,1.44-2.69,0-4.33-1.94-4.33-4.12,0-3.51,3.17-5.08,7.61-5.08v-.11c0-.53-.4-1.11-2.16-1.11-1.29.03-2.56.35-3.7.96l-.83-3.04c1.68-.83,3.54-1.24,5.41-1.2,4.5,0,6.06,2.5,6.06,5.77l.02,4.44Zm-4.65-2.79c-1.96,0-3.06.53-3.06,1.7,0,.83.54,1.25,1.36,1.25.74-.02,1.4-.49,1.65-1.2.04-.23.06-.46.05-.69v-1.06Z"/><path class="cls-21" d="m185.5,93.45v3.72h2.7v3.51h-2.71v3.75c0,1.54.36,2.16,1.52,2.16.38.03.77-.01,1.14-.1v3.64c-.92.27-1.88.39-2.84.36-1.2.04-2.38-.39-3.27-1.2-.8-.8-1.22-2.08-1.22-4.07v-4.55h-1.62v-3.51h1.62v-2.45l4.7-1.28Z"/><path class="cls-21" d="m192.69,95.82c-1.49,0-2.42-1.01-2.42-2.26,0-1.33.96-2.29,2.44-2.29s2.42.96,2.45,2.29c0,1.25-.96,2.26-2.45,2.26h-.03Zm-2.26,1.36h4.82v13.09h-4.82v-13.09Z"/><path class="cls-21" d="m202.16,97.18l1.41,5.56c.27,1.03.45,2.05.61,3.08h.08c.16-1.06.32-1.99.58-3.08l1.31-5.56h5.03l-4.76,13.09h-4.81l-4.65-13.09h5.21Z"/><path class="cls-21" d="m216.1,105.4c.16,1.04,1.67,1.62,3.37,1.62,1.21.02,2.41-.15,3.57-.51l.61,3.19c-1.57.58-3.22.85-4.89.83-4.6,0-7.21-2.52-7.21-6.68,0-3.03,1.97-6.97,6.78-6.97,4.23,0,6.04,3.11,6.04,6.71,0,.61-.06,1.21-.18,1.8h-8.08Zm3.86-3.24c0-.74-.36-2.13-1.86-2.13-1.41,0-1.97,1.31-2.05,2.13h3.91Z"/></g><g class="cls-6"><rect class="cls-19" x="9.31" y="16.74" width="52.75" height="27.97" transform="translate(-.19 .22) rotate(-.35)"/></g><g class="cls-3"><rect class="cls-1" x="1.48" y="70.51" width="52.06" height="17.51" transform="translate(-.47 .16) rotate(-.34)"/></g><g class="cls-13"><rect class="cls-17" x="-.03" y="59.69" width="53.57" height="14.23" transform="translate(-.41 .16) rotate(-.35)"/></g><g class="cls-7"><rect class="cls-22" x="19.65" y="7.05" width="47.66" height="32.93" transform="translate(-.14 .26) rotate(-.34)"/></g><g class="cls-18"><rect class="cls-9" x="2.69" y="29.44" width="55.2" height="20.99" transform="translate(-.24 .18) rotate(-.34)"/></g><g class="cls-4"><rect class="cls-2" x="49.38" y="-.09" width="30.76" height="34.31" transform="translate(-.1 .4) rotate(-.35)"/></g><g class="cls-5"><rect class="cls-14" x="33.28" y="1.28" width="40.15" height="35.14" transform="translate(-.11 .33) rotate(-.35)"/></g><g class="cls-15"><rect class="cls-23" x=".04" y="44.12" width="54.97" height="14.68" transform="translate(-.31 .17) rotate(-.35)"/></g><g class="cls-10"><rect class="cls-8" x="44.18" y="7.7" width="91.72" height="74.17" transform="translate(42.23 133.26) rotate(-88.06)"/></g><g class="cls-20"><rect class="cls-16" x="68.74" y="19.74" width="48.03" height="70.16"/></g><path d="m10.46,130.34h-5.35v-9.67h1.6v8.32h3.75v1.36Z"/><path d="m17.53,127.31h-4.71c.02.64.21,1.13.59,1.48.38.35.89.52,1.55.52.74,0,1.41-.22,2.03-.66v1.26c-.63.4-1.46.59-2.5.59s-1.81-.31-2.39-.94-.87-1.51-.87-2.65c0-1.07.32-1.95.95-2.63.64-.68,1.43-1.01,2.37-1.01s1.67.3,2.19.91c.52.61.78,1.45.78,2.53v.6Zm-1.51-1.11c0-.56-.14-1-.4-1.31s-.62-.47-1.08-.47-.83.16-1.14.49-.5.76-.58,1.29h3.2Z"/><path d="m24.32,130.34h-1.52v-1.08h-.03c-.48.83-1.18,1.24-2.1,1.24-.68,0-1.21-.18-1.6-.55-.38-.37-.58-.86-.58-1.46,0-1.3.75-2.06,2.25-2.28l2.05-.29c0-.98-.47-1.48-1.4-1.48-.82,0-1.56.28-2.23.85v-1.37c.73-.43,1.57-.65,2.52-.65,1.74,0,2.62.86,2.62,2.58v4.49Zm-1.51-3.39l-1.45.2c-.45.06-.79.17-1.02.33-.23.16-.34.44-.34.84,0,.29.1.53.31.72.21.19.49.28.84.28.48,0,.87-.17,1.18-.5.31-.33.47-.76.47-1.26v-.6Z"/><path d="m32.51,130.34h-1.56v-1.17h-.03c-.5.89-1.28,1.33-2.33,1.33-.85,0-1.53-.31-2.04-.93s-.77-1.46-.77-2.53c0-1.14.28-2.06.85-2.75.56-.69,1.32-1.03,2.26-1.03s1.61.37,2.03,1.12h.03v-4.28h1.56v10.22Zm-1.54-3.16v-.9c0-.49-.16-.91-.48-1.25-.32-.34-.73-.51-1.22-.51-.58,0-1.04.22-1.38.65-.33.44-.5,1.04-.5,1.81,0,.7.16,1.26.48,1.66.32.41.75.61,1.3.61s.97-.2,1.3-.59c.33-.39.5-.89.5-1.49Z"/><path d="m35.34,121.98c-.26,0-.48-.08-.66-.25-.18-.17-.27-.38-.27-.63s.09-.47.27-.64.4-.26.66-.26.49.08.67.26c.18.17.28.38.28.64s-.09.45-.28.62c-.18.17-.41.26-.67.26Zm.78,8.36h-1.56v-6.91h1.56v6.91Z"/><path d="m44.31,130.34h-1.56v-3.89c0-1.29-.46-1.94-1.37-1.94-.48,0-.87.18-1.18.54s-.47.81-.47,1.35v3.94h-1.57v-6.91h1.57v1.15h.03c.52-.87,1.26-1.31,2.24-1.31.75,0,1.32.24,1.72.73.4.49.59,1.19.59,2.11v4.22Z"/><path d="m52.5,129.78c0,2.54-1.27,3.8-3.82,3.8-.9,0-1.68-.15-2.35-.45v-1.43c.76.43,1.47.65,2.15.65,1.64,0,2.46-.81,2.46-2.42v-.75h-.03c-.52.88-1.29,1.32-2.33,1.32-.84,0-1.52-.31-2.03-.92-.52-.61-.77-1.44-.77-2.47,0-1.17.28-2.11.83-2.8s1.31-1.04,2.28-1.04c.91,0,1.59.37,2.03,1.12h.03v-.96h1.56v6.35Zm-1.55-2.61v-.9c0-.49-.16-.9-.48-1.24-.32-.34-.72-.52-1.2-.52-.59,0-1.06.22-1.39.66s-.5,1.05-.5,1.84c0,.68.16,1.22.48,1.63s.75.61,1.28.61.98-.19,1.31-.58c.34-.39.51-.89.51-1.49Z"/><path d="m68.66,130.34h-1.56v-3.76c0-.72-.1-1.25-.31-1.57-.2-.32-.55-.49-1.04-.49-.41,0-.76.2-1.04.61-.29.41-.43.9-.43,1.47v3.74h-1.57v-3.89c0-1.29-.45-1.93-1.36-1.93-.42,0-.77.19-1.04.58s-.41.89-.41,1.5v3.74h-1.56v-6.91h1.56v1.09h.03c.5-.84,1.23-1.25,2.18-1.25.48,0,.89.13,1.25.39s.6.61.73,1.04c.51-.95,1.28-1.43,2.29-1.43,1.52,0,2.28.94,2.28,2.81v4.26Z"/><path d="m76.42,127.31h-4.71c.02.64.21,1.13.59,1.48.38.35.89.52,1.55.52.74,0,1.41-.22,2.03-.66v1.26c-.63.4-1.46.59-2.5.59s-1.81-.31-2.39-.94-.87-1.51-.87-2.65c0-1.07.32-1.95.95-2.63.64-.68,1.43-1.01,2.37-1.01s1.67.3,2.19.91c.52.61.78,1.45.78,2.53v.6Zm-1.51-1.11c0-.56-.14-1-.4-1.31s-.62-.47-1.08-.47-.83.16-1.14.49-.5.76-.58,1.29h3.2Z"/><path d="m81.55,130.26c-.31.15-.71.23-1.21.23-1.34,0-2.01-.64-2.01-1.93v-3.9h-1.15v-1.23h1.15v-1.6l1.56-.45v2.04h1.65v1.23h-1.65v3.45c0,.41.07.7.22.88.15.17.4.26.74.26.27,0,.49-.08.69-.23v1.24Z"/><path d="m89.04,130.34h-1.56v-3.78c0-1.37-.46-2.05-1.37-2.05-.46,0-.85.2-1.16.59-.31.4-.47.9-.47,1.52v3.72h-1.57v-10.22h1.57v4.46h.03c.52-.87,1.27-1.31,2.24-1.31,1.53,0,2.3.94,2.3,2.81v4.26Z"/><path d="m96.24,130.34h-1.52v-1.08h-.03c-.48.83-1.18,1.24-2.1,1.24-.68,0-1.21-.18-1.6-.55-.38-.37-.58-.86-.58-1.46,0-1.3.75-2.06,2.25-2.28l2.05-.29c0-.98-.47-1.48-1.4-1.48-.82,0-1.56.28-2.23.85v-1.37c.73-.43,1.57-.65,2.52-.65,1.74,0,2.62.86,2.62,2.58v4.49Zm-1.51-3.39l-1.45.2c-.45.06-.79.17-1.02.33-.23.16-.34.44-.34.84,0,.29.1.53.31.72.21.19.49.28.84.28.48,0,.87-.17,1.18-.5.31-.33.47-.76.47-1.26v-.6Z"/><path d="m104.3,130.34h-1.56v-3.89c0-1.29-.46-1.94-1.37-1.94-.48,0-.87.18-1.18.54s-.47.81-.47,1.35v3.94h-1.57v-6.91h1.57v1.15h.03c.52-.87,1.26-1.31,2.24-1.31.75,0,1.32.24,1.72.73.4.49.59,1.19.59,2.11v4.22Z"/><path d="m112.05,127.31h-4.71c.02.64.21,1.13.59,1.48.38.35.89.52,1.55.52.74,0,1.41-.22,2.03-.66v1.26c-.63.4-1.46.59-2.5.59s-1.81-.31-2.39-.94c-.58-.63-.87-1.51-.87-2.65,0-1.07.32-1.95.95-2.63.64-.68,1.43-1.01,2.37-1.01s1.67.3,2.19.91c.52.61.78,1.45.78,2.53v.6Zm-1.51-1.11c0-.56-.14-1-.4-1.31s-.62-.47-1.08-.47-.83.16-1.14.49-.5.76-.58,1.29h3.2Z"/><path d="m122.64,130.34h-1.52v-1.08h-.03c-.48.83-1.18,1.24-2.1,1.24-.68,0-1.21-.18-1.6-.55-.38-.37-.58-.86-.58-1.46,0-1.3.75-2.06,2.25-2.28l2.05-.29c0-.98-.47-1.48-1.4-1.48-.82,0-1.56.28-2.23.85v-1.37c.73-.43,1.57-.65,2.52-.65,1.75,0,2.62.86,2.62,2.58v4.49Zm-1.51-3.39l-1.45.2c-.45.06-.79.17-1.01.33-.23.16-.34.44-.34.84,0,.29.1.53.31.72.21.19.49.28.84.28.48,0,.87-.17,1.18-.5.31-.33.47-.76.47-1.26v-.6Z"/><path d="m129.5,130.02c-.55.32-1.21.48-1.96.48-1.03,0-1.85-.32-2.48-.96-.63-.64-.94-1.47-.94-2.49,0-1.14.34-2.05,1.01-2.74s1.58-1.04,2.71-1.04c.63,0,1.18.11,1.67.33v1.46c-.48-.36-.99-.54-1.54-.54-.66,0-1.2.22-1.62.67-.42.45-.63,1.03-.63,1.76s.2,1.28.6,1.69c.4.41.93.62,1.6.62.56,0,1.09-.2,1.59-.6v1.36Z"/><path d="m134.69,130.26c-.31.15-.71.23-1.21.23-1.34,0-2.01-.64-2.01-1.93v-3.9h-1.15v-1.23h1.15v-1.6l1.56-.45v2.04h1.65v1.23h-1.65v3.45c0,.41.07.7.22.88.15.17.4.26.74.26.27,0,.49-.08.69-.23v1.24Z"/><path d="m136.83,121.98c-.26,0-.48-.08-.66-.25-.18-.17-.27-.38-.27-.63s.09-.47.27-.64c.18-.17.4-.26.66-.26s.49.08.67.26.28.38.28.64-.09.45-.28.62-.41.26-.67.26Zm.78,8.36h-1.56v-6.91h1.56v6.91Z"/><path d="m142.71,130.5c-1.07,0-1.92-.32-2.55-.97-.64-.64-.95-1.5-.95-2.57,0-1.16.33-2.07.99-2.72.66-.65,1.56-.98,2.68-.98s1.92.32,2.52.95.9,1.51.9,2.64-.33,1.98-.97,2.65-1.52.99-2.62.99Zm.07-5.98c-.61,0-1.09.21-1.45.64-.36.43-.53,1.02-.53,1.77s.18,1.29.54,1.71.84.62,1.44.62,1.09-.21,1.42-.61c.33-.41.5-.99.5-1.75s-.17-1.35-.5-1.76c-.33-.41-.8-.62-1.42-.62Z"/><path d="m154.05,130.34h-1.57v-3.89c0-1.29-.46-1.94-1.37-1.94-.48,0-.87.18-1.18.54-.31.36-.47.81-.47,1.35v3.94h-1.57v-6.91h1.57v1.15h.03c.52-.87,1.26-1.31,2.24-1.31.75,0,1.32.24,1.72.73.4.49.59,1.19.59,2.11v4.22Z"/><path d="m159.32,130.12v-1.45c.58.45,1.23.67,1.94.67.94,0,1.42-.28,1.42-.84,0-.16-.04-.29-.12-.4-.08-.11-.19-.21-.33-.29-.14-.08-.3-.16-.49-.23s-.39-.14-.62-.23c-.28-.11-.54-.23-.77-.36-.23-.13-.42-.27-.57-.43-.15-.16-.26-.34-.34-.54-.08-.2-.11-.44-.11-.71,0-.33.08-.63.24-.88.16-.25.37-.47.63-.64.27-.17.57-.3.9-.39.34-.09.69-.13,1.05-.13.64,0,1.21.1,1.71.29v1.37c-.49-.33-1.04-.5-1.67-.5-.2,0-.38.02-.54.06-.16.04-.3.1-.41.17-.11.07-.2.16-.26.26-.06.1-.09.21-.09.33,0,.15.03.27.09.38.06.1.16.19.28.27.12.08.27.15.44.22.17.07.37.14.6.21.3.12.56.25.8.37s.44.27.6.43c.17.16.29.34.38.55s.13.46.13.75c0,.35-.08.66-.24.92-.16.26-.38.48-.65.65-.27.17-.58.3-.93.38-.35.08-.73.12-1.12.12-.76,0-1.41-.12-1.96-.38Z"/><path d="m166.49,121.98c-.26,0-.48-.08-.66-.25-.18-.17-.27-.38-.27-.63s.09-.47.27-.64c.18-.17.4-.26.66-.26s.49.08.67.26c.18.17.28.38.28.64s-.09.45-.28.62c-.18.17-.41.26-.67.26Zm.78,8.36h-1.56v-6.91h1.56v6.91Z"/><path d="m175.47,130.34h-1.57v-3.89c0-1.29-.46-1.94-1.37-1.94-.48,0-.87.18-1.18.54-.31.36-.47.81-.47,1.35v3.94h-1.57v-6.91h1.57v1.15h.03c.52-.87,1.26-1.31,2.24-1.31.75,0,1.32.24,1.72.73.4.49.59,1.19.59,2.11v4.22Z"/><path d="m182.32,130.02c-.55.32-1.21.48-1.96.48-1.03,0-1.85-.32-2.48-.96-.63-.64-.94-1.47-.94-2.49,0-1.14.34-2.05,1.02-2.74s1.58-1.04,2.71-1.04c.63,0,1.19.11,1.67.33v1.46c-.48-.36-.99-.54-1.54-.54-.66,0-1.2.22-1.63.67s-.63,1.03-.63,1.76.2,1.28.6,1.69c.4.41.93.62,1.6.62.56,0,1.09-.2,1.59-.6v1.36Z"/><path d="m189.72,127.31h-4.71c.02.64.21,1.13.59,1.48.38.35.89.52,1.55.52.74,0,1.41-.22,2.03-.66v1.26c-.63.4-1.46.59-2.5.59s-1.81-.31-2.39-.94c-.58-.63-.87-1.51-.87-2.65,0-1.07.32-1.95.95-2.63.64-.68,1.43-1.01,2.37-1.01s1.67.3,2.19.91c.52.61.78,1.45.78,2.53v.6Zm-1.51-1.11c0-.56-.14-1-.4-1.31s-.62-.47-1.08-.47-.83.16-1.14.49-.5.76-.58,1.29h3.2Z"/><path d="m200.72,130.34h-6.07v-.75c0-.31.04-.59.13-.86.09-.27.2-.52.34-.76.14-.24.31-.46.51-.67s.4-.41.62-.61c.22-.2.45-.38.67-.57.23-.18.45-.37.67-.55.21-.18.4-.35.57-.52.17-.17.32-.34.44-.52s.22-.37.28-.57.1-.42.1-.65c0-.26-.04-.48-.12-.67-.08-.19-.19-.35-.33-.48-.14-.13-.31-.22-.5-.29s-.4-.1-.63-.1c-.4,0-.8.09-1.21.28-.41.18-.8.46-1.18.83v-1.5c.2-.15.4-.28.6-.39.2-.11.41-.2.63-.28s.44-.13.68-.17.49-.05.76-.05c.44,0,.83.06,1.19.17.36.11.66.28.91.51.25.22.45.5.58.83.14.33.21.72.21,1.15,0,.39-.05.74-.15,1.05s-.23.6-.41.87c-.18.27-.39.53-.64.77-.25.24-.53.49-.84.75-.26.21-.52.42-.78.62-.26.2-.49.4-.7.59-.21.19-.38.38-.5.57-.13.19-.19.38-.19.58v.03h4.36v1.34Z"/><path d="m205.38,130.5c-1.01,0-1.79-.41-2.36-1.23-.56-.82-.85-2.01-.85-3.57,0-1.71.29-3,.88-3.88s1.44-1.32,2.55-1.32c2.13,0,3.19,1.65,3.19,4.96,0,1.64-.3,2.88-.9,3.75-.6.86-1.44,1.29-2.52,1.29Zm.16-8.75c-1.17,0-1.76,1.29-1.76,3.88,0,2.42.58,3.63,1.73,3.63s1.7-1.23,1.7-3.69-.56-3.82-1.67-3.82Z"/><path d="m213.05,130.5c-1.01,0-1.79-.41-2.36-1.23-.56-.82-.85-2.01-.85-3.57,0-1.71.29-3,.88-3.88.59-.88,1.44-1.32,2.55-1.32,2.13,0,3.19,1.65,3.19,4.96,0,1.64-.3,2.88-.9,3.75-.6.86-1.44,1.29-2.52,1.29Zm.16-8.75c-1.17,0-1.76,1.29-1.76,3.88,0,2.42.58,3.63,1.73,3.63s1.7-1.23,1.7-3.69-.56-3.82-1.67-3.82Z"/><path d="m223.24,120.67v6.25h1.44v1.3h-1.44v2.12h-1.52v-2.12h-4.38v-1.31c.4-.45.8-.93,1.22-1.45s.82-1.05,1.2-1.59c.38-.54.74-1.08,1.07-1.63.33-.54.6-1.07.83-1.56h1.58Zm-1.52,6.25v-4.06c-.49.88-.97,1.65-1.45,2.31s-.93,1.24-1.35,1.75h2.8Z"/></g></g></svg>