<?xml version="1.0" encoding="utf-8"?><svg xmlns="http://www.w3.org/2000/svg" xmlns:xlink="http://www.w3.org/1999/xlink" width="1858" height="1293" preserveAspectRatio="xMidYMid" viewBox="0 0 1858 1293" style="z-index:1;margin-right:-2px;display:block;background-repeat-y:initial;background-repeat-x:initial;background-color:rgb(241, 242, 243);animation-play-state:paused" ><g transform="translate(929,646.5) scale(1,1) translate(-929,-646.5)" style="transform:matrix(1, 0, 0, 1, 0, 0);animation-play-state:paused" ><g id="bk-0.3653186826125925" style="animation-play-state:paused" ><path d="M 882 816 L 702 794 L 840 951 Z" stroke="#75bef4" fill="#75bef4" style="animation-play-state:paused" ></path>
<path d="M 702 794 L 680 970 L 840 951 Z" stroke="#75bef4" fill="#75bef4" style="animation-play-state:paused" ></path>
<path d="M 882 816 L 706 635 L 702 794 Z" stroke="#74bbf4" fill="#74bbf4" style="animation-play-state:paused" ></path>
<path d="M 877 1161 L 1028 955 L 840 951 Z" stroke="#78c3f3" fill="#78c3f3" style="animation-play-state:paused" ></path>
<path d="M 840 951 L 1028 955 L 882 816 Z" stroke="#77c1f3" fill="#77c1f3" style="animation-play-state:paused" ></path>
<path d="M 1022 603 L 834 591 L 882 816 Z" stroke="#74bcf4" fill="#74bcf4" style="animation-play-state:paused" ></path>
<path d="M 882 816 L 834 591 L 706 635 Z" stroke="#73bbf4" fill="#73bbf4" style="animation-play-state:paused" ></path>
<path d="M 1028 955 L 1056 800 L 882 816 Z" stroke="#77c1f3" fill="#77c1f3" style="animation-play-state:paused" ></path>
<path d="M 508 631 L 497 780 L 702 794 Z" stroke="#72b8f4" fill="#72b8f4" style="animation-play-state:paused" ></path>
<path d="M 702 794 L 500 954 L 680 970 Z" stroke="#74bcf4" fill="#74bcf4" style="animation-play-state:paused" ></path>
<path d="M 497 780 L 500 954 L 702 794 Z" stroke="#73baf4" fill="#73baf4" style="animation-play-state:paused" ></path>
<path d="M 525 1179 L 708 1164 L 680 970 Z" stroke="#76bff4" fill="#76bff4" style="animation-play-state:paused" ></path>
<path d="M 680 970 L 708 1164 L 840 951 Z" stroke="#76c0f3" fill="#76c0f3" style="animation-play-state:paused" ></path>
<path d="M 708 1164 L 877 1161 L 840 951 Z" stroke="#78c2f3" fill="#78c2f3" style="animation-play-state:paused" ></path>
<path d="M 663 410 L 508 631 L 706 635 Z" stroke="#71b6f4" fill="#71b6f4" style="animation-play-state:paused" ></path>
<path d="M 706 635 L 508 631 L 702 794 Z" stroke="#72b8f4" fill="#72b8f4" style="animation-play-state:paused" ></path>
<path d="M 1056 800 L 1022 603 L 882 816 Z" stroke="#75bff4" fill="#75bff4" style="animation-play-state:paused" ></path>
<path d="M 500 954 L 525 1179 L 680 970 Z" stroke="#74bdf4" fill="#74bdf4" style="animation-play-state:paused" ></path>
<path d="M 708 1164 L 698 1364 L 877 1161 Z" stroke="#78c3f3" fill="#78c3f3" style="animation-play-state:paused" ></path>
<path d="M 1036 1325 L 1056 1163 L 877 1161 Z" stroke="#7ac7f3" fill="#7ac7f3" style="animation-play-state:paused" ></path>
<path d="M 877 1161 L 1056 1163 L 1028 955 Z" stroke="#79c5f3" fill="#79c5f3" style="animation-play-state:paused" ></path>
<path d="M 1028 955 L 1215 971 L 1056 800 Z" stroke="#79c4f3" fill="#79c4f3" style="animation-play-state:paused" ></path>
<path d="M 1197 1136 L 1215 971 L 1028 955 Z" stroke="#7ac7f3" fill="#7ac7f3" style="animation-play-state:paused" ></path>
<path d="M 1056 800 L 1227 601 L 1022 603 Z" stroke="#75bff4" fill="#75bff4" style="animation-play-state:paused" ></path>
<path d="M 309 802 L 356 1004 L 500 954 Z" stroke="#72b8f4" fill="#72b8f4" style="animation-play-state:paused" ></path>
<path d="M 500 954 L 356 1004 L 525 1179 Z" stroke="#73bbf4" fill="#73bbf4" style="animation-play-state:paused" ></path>
<path d="M 309 802 L 500 954 L 497 780 Z" stroke="#72b7f4" fill="#72b7f4" style="animation-play-state:paused" ></path>
<path d="M 844 410 L 663 410 L 834 591 Z" stroke="#71b6f4" fill="#71b6f4" style="animation-play-state:paused" ></path>
<path d="M 834 591 L 663 410 L 706 635 Z" stroke="#72b7f4" fill="#72b7f4" style="animation-play-state:paused" ></path>
<path d="M 1056 419 L 844 410 L 834 591 Z" stroke="#72b8f4" fill="#72b8f4" style="animation-play-state:paused" ></path>
<path d="M 309 611 L 497 780 L 508 631 Z" stroke="#70b5f4" fill="#70b5f4" style="animation-play-state:paused" ></path>
<path d="M 309 611 L 309 802 L 497 780 Z" stroke="#70b5f5" fill="#70b5f5" style="animation-play-state:paused" ></path>
<path d="M 1215 971 L 1247 814 L 1056 800 Z" stroke="#79c4f3" fill="#79c4f3" style="animation-play-state:paused" ></path>
<path d="M 1022 603 L 1056 419 L 834 591 Z" stroke="#73baf4" fill="#73baf4" style="animation-play-state:paused" ></path>
<path d="M 510 1327 L 698 1364 L 525 1179 Z" stroke="#76c0f3" fill="#76c0f3" style="animation-play-state:paused" ></path>
<path d="M 525 1179 L 698 1364 L 708 1164 Z" stroke="#77c1f3" fill="#77c1f3" style="animation-play-state:paused" ></path>
<path d="M 698 1364 L 897 1357 L 877 1161 Z" stroke="#79c5f3" fill="#79c5f3" style="animation-play-state:paused" ></path>
<path d="M 707 251 L 516 449 L 663 410 Z" stroke="#6fb2f5" fill="#6fb2f5" style="animation-play-state:paused" ></path>
<path d="M 663 410 L 516 449 L 508 631 Z" stroke="#70b4f5" fill="#70b4f5" style="animation-play-state:paused" ></path>
<path d="M 897 1357 L 1036 1325 L 877 1161 Z" stroke="#7ac7f3" fill="#7ac7f3" style="animation-play-state:paused" ></path>
<path d="M 1056 1163 L 1197 1136 L 1028 955 Z" stroke="#7ac7f3" fill="#7ac7f3" style="animation-play-state:paused" ></path>
<path d="M 1245 1338 L 1197 1136 L 1056 1163 Z" stroke="#7bcaf2" fill="#7bcaf2" style="animation-play-state:paused" ></path>
<path d="M 1423 976 L 1377 781 L 1247 814 Z" stroke="#7ac7f3" fill="#7ac7f3" style="animation-play-state:paused" ></path>
<path d="M 1239 423 L 1056 419 L 1022 603 Z" stroke="#73bbf4" fill="#73bbf4" style="animation-play-state:paused" ></path>
<path d="M 1247 814 L 1227 601 L 1056 800 Z" stroke="#77c2f3" fill="#77c2f3" style="animation-play-state:paused" ></path>
<path d="M 516 449 L 309 611 L 508 631 Z" stroke="#6fb3f5" fill="#6fb3f5" style="animation-play-state:paused" ></path>
<path d="M 301 1140 L 510 1327 L 525 1179 Z" stroke="#74bdf4" fill="#74bdf4" style="animation-play-state:paused" ></path>
<path d="M 132 974 L 301 1140 L 356 1004 Z" stroke="#72b7f4" fill="#72b7f4" style="animation-play-state:paused" ></path>
<path d="M 356 1004 L 301 1140 L 525 1179 Z" stroke="#73baf4" fill="#73baf4" style="animation-play-state:paused" ></path>
<path d="M 154 804 L 356 1004 L 309 802 Z" stroke="#71b5f4" fill="#71b5f4" style="animation-play-state:paused" ></path>
<path d="M 1056 419 L 890 268 L 844 410 Z" stroke="#71b6f4" fill="#71b6f4" style="animation-play-state:paused" ></path>
<path d="M 844 410 L 707 251 L 663 410 Z" stroke="#6fb3f5" fill="#6fb3f5" style="animation-play-state:paused" ></path>
<path d="M 1423 976 L 1247 814 L 1215 971 Z" stroke="#7ac7f3" fill="#7ac7f3" style="animation-play-state:paused" ></path>
<path d="M 1247 814 L 1377 781 L 1227 601 Z" stroke="#78c3f3" fill="#78c3f3" style="animation-play-state:paused" ></path>
<path d="M 890 268 L 707 251 L 844 410 Z" stroke="#6fb3f5" fill="#6fb3f5" style="animation-play-state:paused" ></path>
<path d="M 516 449 L 330 428 L 309 611 Z" stroke="#6eb1f5" fill="#6eb1f5" style="animation-play-state:paused" ></path>
<path d="M 158 641 L 154 804 L 309 802 Z" stroke="#6fb2f5" fill="#6fb2f5" style="animation-play-state:paused" ></path>
<path d="M 1416 446 L 1239 423 L 1227 601 Z" stroke="#75bdf4" fill="#75bdf4" style="animation-play-state:paused" ></path>
<path d="M 1227 601 L 1239 423 L 1022 603 Z" stroke="#74bdf4" fill="#74bdf4" style="animation-play-state:paused" ></path>
<path d="M 1056 419 L 1059 268 L 890 268 Z" stroke="#71b6f4" fill="#71b6f4" style="animation-play-state:paused" ></path>
<path d="M 332 249 L 330 428 L 516 449 Z" stroke="#6daff6" fill="#6daff6" style="animation-play-state:paused" ></path>
<path d="M 309 611 L 158 641 L 309 802 Z" stroke="#6fb2f5" fill="#6fb2f5" style="animation-play-state:paused" ></path>
<path d="M 154 804 L 132 974 L 356 1004 Z" stroke="#70b5f4" fill="#70b5f4" style="animation-play-state:paused" ></path>
<path d="M 301 1140 L 343 1360 L 510 1327 Z" stroke="#74bcf4" fill="#74bcf4" style="animation-play-state:paused" ></path>
<path d="M 1036 1325 L 1245 1338 L 1056 1163 Z" stroke="#7bcaf2" fill="#7bcaf2" style="animation-play-state:paused" ></path>
<path d="M 1197 1136 L 1423 976 L 1215 971 Z" stroke="#7bc9f2" fill="#7bc9f2" style="animation-play-state:paused" ></path>
<path d="M 1219 1499 L 1245 1338 L 1036 1325 Z" stroke="#7cccf2" fill="#7cccf2" style="animation-play-state:paused" ></path>
<path d="M 1431 1183 L 1423 976 L 1197 1136 Z" stroke="#7ccbf2" fill="#7ccbf2" style="animation-play-state:paused" ></path>
<path d="M 153 1167 L 343 1360 L 301 1140 Z" stroke="#73b9f4" fill="#73b9f4" style="animation-play-state:paused" ></path>
<path d="M 526 1538 L 711 1525 L 698 1364 Z" stroke="#78c3f3" fill="#78c3f3" style="animation-play-state:paused" ></path>
<path d="M 698 1364 L 711 1525 L 897 1357 Z" stroke="#79c5f3" fill="#79c5f3" style="animation-play-state:paused" ></path>
<path d="M 150 464 L 158 641 L 309 611 Z" stroke="#6daff5" fill="#6daff5" style="animation-play-state:paused" ></path>
<path d="M 154 804 L -72 957 L 132 974 Z" stroke="#6fb2f5" fill="#6fb2f5" style="animation-play-state:paused" ></path>
<path d="M 1239 423 L 1059 268 L 1056 419 Z" stroke="#72b8f4" fill="#72b8f4" style="animation-play-state:paused" ></path>
<path d="M 683 72 L 504 248 L 707 251 Z" stroke="#6daef6" fill="#6daef6" style="animation-play-state:paused" ></path>
<path d="M 526 1538 L 698 1364 L 510 1327 Z" stroke="#77c1f3" fill="#77c1f3" style="animation-play-state:paused" ></path>
<path d="M 897 1357 L 1042 1525 L 1036 1325 Z" stroke="#7bc9f2" fill="#7bc9f2" style="animation-play-state:paused" ></path>
<path d="M 711 1525 L 888 1546 L 897 1357 Z" stroke="#7ac7f3" fill="#7ac7f3" style="animation-play-state:paused" ></path>
<path d="M 132 974 L 153 1167 L 301 1140 Z" stroke="#71b6f4" fill="#71b6f4" style="animation-play-state:paused" ></path>
<path d="M 1589 808 L 1428 635 L 1377 781 Z" stroke="#79c5f3" fill="#79c5f3" style="animation-play-state:paused" ></path>
<path d="M 1377 781 L 1428 635 L 1227 601 Z" stroke="#78c2f3" fill="#78c2f3" style="animation-play-state:paused" ></path>
<path d="M 683 72 L 707 251 L 834 45 Z" stroke="#6daef6" fill="#6daef6" style="animation-play-state:paused" ></path>
<path d="M 707 251 L 504 248 L 516 449 Z" stroke="#6eb0f5" fill="#6eb0f5" style="animation-play-state:paused" ></path>
<path d="M 888 1546 L 1042 1525 L 897 1357 Z" stroke="#7bc9f2" fill="#7bc9f2" style="animation-play-state:paused" ></path>
<path d="M 328 1527 L 526 1538 L 343 1360 Z" stroke="#75bef4" fill="#75bef4" style="animation-play-state:paused" ></path>
<path d="M 343 1360 L 526 1538 L 510 1327 Z" stroke="#75bff4" fill="#75bff4" style="animation-play-state:paused" ></path>
<path d="M 870 1700 L 1039 1681 L 888 1546 Z" stroke="#7bcaf2" fill="#7bcaf2" style="animation-play-state:paused" ></path>
<path d="M 1415 1322 L 1431 1183 L 1245 1338 Z" stroke="#7ecff1" fill="#7ecff1" style="animation-play-state:paused" ></path>
<path d="M 1245 1338 L 1431 1183 L 1197 1136 Z" stroke="#7cccf2" fill="#7cccf2" style="animation-play-state:paused" ></path>
<path d="M 1423 976 L 1589 808 L 1377 781 Z" stroke="#7ac8f3" fill="#7ac8f3" style="animation-play-state:paused" ></path>
<path d="M 168 269 L 150 464 L 330 428 Z" stroke="#6cacf6" fill="#6cacf6" style="animation-play-state:paused" ></path>
<path d="M 330 428 L 150 464 L 309 611 Z" stroke="#6daff5" fill="#6daff5" style="animation-play-state:paused" ></path>
<path d="M -77 768 L -72 957 L 154 804 Z" stroke="#6eb0f5" fill="#6eb0f5" style="animation-play-state:paused" ></path>
<path d="M 504 248 L 332 249 L 516 449 Z" stroke="#6daef6" fill="#6daef6" style="animation-play-state:paused" ></path>
<path d="M 1039 1681 L 1219 1499 L 1042 1525 Z" stroke="#7dcdf2" fill="#7dcdf2" style="animation-play-state:paused" ></path>
<path d="M 1042 1525 L 1219 1499 L 1036 1325 Z" stroke="#7cccf2" fill="#7cccf2" style="animation-play-state:paused" ></path>
<path d="M 1416 446 L 1258 271 L 1239 423 Z" stroke="#73bbf4" fill="#73bbf4" style="animation-play-state:paused" ></path>
<path d="M 1239 423 L 1258 271 L 1059 268 Z" stroke="#72b8f4" fill="#72b8f4" style="animation-play-state:paused" ></path>
<path d="M 834 45 L 707 251 L 890 268 Z" stroke="#6eb1f5" fill="#6eb1f5" style="animation-play-state:paused" ></path>
<path d="M 1428 635 L 1416 446 L 1227 601 Z" stroke="#76c0f3" fill="#76c0f3" style="animation-play-state:paused" ></path>
<path d="M 1415 1518 L 1415 1322 L 1245 1338 Z" stroke="#7fd0f1" fill="#7fd0f1" style="animation-play-state:paused" ></path>
<path d="M -33 1355 L 182 1354 L 153 1167 Z" stroke="#71b6f4" fill="#71b6f4" style="animation-play-state:paused" ></path>
<path d="M 153 1167 L 182 1354 L 343 1360 Z" stroke="#73b9f4" fill="#73b9f4" style="animation-play-state:paused" ></path>
<path d="M 182 1354 L 328 1527 L 343 1360 Z" stroke="#73bbf4" fill="#73bbf4" style="animation-play-state:paused" ></path>
<path d="M 834 45 L 890 268 L 1071 93 Z" stroke="#6eb1f5" fill="#6eb1f5" style="animation-play-state:paused" ></path>
<path d="M 504 248 L 355 91 L 332 249 Z" stroke="#6cabf6" fill="#6cabf6" style="animation-play-state:paused" ></path>
<path d="M 1071 93 L 890 268 L 1059 268 Z" stroke="#6fb3f5" fill="#6fb3f5" style="animation-play-state:paused" ></path>
<path d="M 1600 997 L 1589 808 L 1423 976 Z" stroke="#7bcbf2" fill="#7bcbf2" style="animation-play-state:paused" ></path>
<path d="M 1428 635 L 1581 430 L 1416 446 Z" stroke="#76c0f3" fill="#76c0f3" style="animation-play-state:paused" ></path>
<path d="M 1563 1133 L 1423 976 L 1431 1183 Z" stroke="#7dcdf2" fill="#7dcdf2" style="animation-play-state:paused" ></path>
<path d="M 1258 271 L 1071 93 L 1059 268 Z" stroke="#70b5f5" fill="#70b5f5" style="animation-play-state:paused" ></path>
<path d="M 1582 1316 L 1563 1133 L 1431 1183 Z" stroke="#7fd0f1" fill="#7fd0f1" style="animation-play-state:paused" ></path>
<path d="M 1563 1133 L 1600 997 L 1423 976 Z" stroke="#7dcdf2" fill="#7dcdf2" style="animation-play-state:paused" ></path>
<path d="M 888 1546 L 1039 1681 L 1042 1525 Z" stroke="#7bcbf2" fill="#7bcbf2" style="animation-play-state:paused" ></path>
<path d="M 1415 1518 L 1582 1316 L 1415 1322 Z" stroke="#80d2f1" fill="#80d2f1" style="animation-play-state:paused" ></path>
<path d="M 870 1700 L 888 1546 L 711 1525 Z" stroke="#7ac7f3" fill="#7ac7f3" style="animation-play-state:paused" ></path>
<path d="M 708 1721 L 711 1525 L 526 1538 Z" stroke="#79c4f3" fill="#79c4f3" style="animation-play-state:paused" ></path>
<path d="M 519 1711 L 708 1721 L 526 1538 Z" stroke="#78c3f3" fill="#78c3f3" style="animation-play-state:paused" ></path>
<path d="M -77 768 L 154 804 L 158 641 Z" stroke="#6eb0f5" fill="#6eb0f5" style="animation-play-state:paused" ></path>
<path d="M 132 974 L -29 1152 L 153 1167 Z" stroke="#70b4f5" fill="#70b4f5" style="animation-play-state:paused" ></path>
<path d="M -25 607 L -77 768 L 158 641 Z" stroke="#6daef6" fill="#6daef6" style="animation-play-state:paused" ></path>
<path d="M 708 1721 L 870 1700 L 711 1525 Z" stroke="#7ac6f3" fill="#7ac6f3" style="animation-play-state:paused" ></path>
<path d="M 651 -140 L 498 67 L 683 72 Z" stroke="#6baaf6" fill="#6baaf6" style="animation-play-state:paused" ></path>
<path d="M 683 72 L 498 67 L 504 248 Z" stroke="#6cacf6" fill="#6cacf6" style="animation-play-state:paused" ></path>
<path d="M -54 413 L -25 607 L 150 464 Z" stroke="#6cabf6" fill="#6cabf6" style="animation-play-state:paused" ></path>
<path d="M 150 464 L -25 607 L 158 641 Z" stroke="#6dadf6" fill="#6dadf6" style="animation-play-state:paused" ></path>
<path d="M 168 269 L 330 428 L 332 249 Z" stroke="#6cacf6" fill="#6cacf6" style="animation-play-state:paused" ></path>
<path d="M 355 91 L 168 269 L 332 249 Z" stroke="#6baaf6" fill="#6baaf6" style="animation-play-state:paused" ></path>
<path d="M 1770 810 L 1603 629 L 1589 808 Z" stroke="#7ac8f3" fill="#7ac8f3" style="animation-play-state:paused" ></path>
<path d="M 1589 808 L 1603 629 L 1428 635 Z" stroke="#79c5f3" fill="#79c5f3" style="animation-play-state:paused" ></path>
<path d="M -72 957 L -29 1152 L 132 974 Z" stroke="#6fb2f5" fill="#6fb2f5" style="animation-play-state:paused" ></path>
<path d="M 328 1527 L 519 1711 L 526 1538 Z" stroke="#76c0f3" fill="#76c0f3" style="animation-play-state:paused" ></path>
<path d="M 1416 446 L 1399 241 L 1258 271 Z" stroke="#73baf4" fill="#73baf4" style="animation-play-state:paused" ></path>
<path d="M 1258 271 L 1218 72 L 1071 93 Z" stroke="#70b4f5" fill="#70b4f5" style="animation-play-state:paused" ></path>
<path d="M 1581 430 L 1399 241 L 1416 446 Z" stroke="#74bcf4" fill="#74bcf4" style="animation-play-state:paused" ></path>
<path d="M 498 67 L 355 91 L 504 248 Z" stroke="#6cabf6" fill="#6cabf6" style="animation-play-state:paused" ></path>
<path d="M 1415 1518 L 1245 1338 L 1219 1499 Z" stroke="#7fcff1" fill="#7fcff1" style="animation-play-state:paused" ></path>
<path d="M 1415 1322 L 1582 1316 L 1431 1183 Z" stroke="#7fd0f1" fill="#7fd0f1" style="animation-play-state:paused" ></path>
<path d="M 1755 1120 L 1778 980 L 1600 997 Z" stroke="#7ecff1" fill="#7ecff1" style="animation-play-state:paused" ></path>
<path d="M -33 1355 L 121 1506 L 182 1354 Z" stroke="#72b7f4" fill="#72b7f4" style="animation-play-state:paused" ></path>
<path d="M 182 1354 L 121 1506 L 328 1527 Z" stroke="#73baf4" fill="#73baf4" style="animation-play-state:paused" ></path>
<path d="M 328 1527 L 339 1713 L 519 1711 Z" stroke="#75bff4" fill="#75bff4" style="animation-play-state:paused" ></path>
<path d="M 1603 629 L 1581 430 L 1428 635 Z" stroke="#77c2f3" fill="#77c2f3" style="animation-play-state:paused" ></path>
<path d="M 1229 1713 L 1415 1518 L 1219 1499 Z" stroke="#7fd0f1" fill="#7fd0f1" style="animation-play-state:paused" ></path>
<path d="M 1399 241 L 1218 72 L 1258 271 Z" stroke="#71b6f4" fill="#71b6f4" style="animation-play-state:paused" ></path>
<path d="M 1043 -92 L 840 -127 L 834 45 Z" stroke="#6cacf6" fill="#6cacf6" style="animation-play-state:paused" ></path>
<path d="M 1433 87 L 1218 72 L 1399 241 Z" stroke="#70b5f4" fill="#70b5f4" style="animation-play-state:paused" ></path>
<path d="M -29 1152 L -33 1355 L 153 1167 Z" stroke="#70b4f5" fill="#70b4f5" style="animation-play-state:paused" ></path>
<path d="M -206 1361 L -33 1355 L -29 1152 Z" stroke="#6fb3f5" fill="#6fb3f5" style="animation-play-state:paused" ></path>
<path d="M 870 1700 L 1229 1713 L 1039 1681 Z" stroke="#7cccf2" fill="#7cccf2" style="animation-play-state:paused" ></path>
<path d="M 1039 1681 L 1229 1713 L 1219 1499 Z" stroke="#7ecef1" fill="#7ecef1" style="animation-play-state:paused" ></path>
<path d="M 121 1681 L 339 1713 L 328 1527 Z" stroke="#74bcf4" fill="#74bcf4" style="animation-play-state:paused" ></path>
<path d="M 519 1711 L 339 1713 L 708 1721 Z" stroke="#77c1f3" fill="#77c1f3" style="animation-play-state:paused" ></path>
<path d="M 708 1721 L -180 1727 L 870 1700 Z" stroke="#76c0f3" fill="#76c0f3" style="animation-play-state:paused" ></path>
<path d="M -31 267 L 150 464 L 168 269 Z" stroke="#6ba9f6" fill="#6ba9f6" style="animation-play-state:paused" ></path>
<path d="M -31 267 L -54 413 L 150 464 Z" stroke="#6ba9f6" fill="#6ba9f6" style="animation-play-state:paused" ></path>
<path d="M -25 607 L -207 630 L -77 768 Z" stroke="#6cacf6" fill="#6cacf6" style="animation-play-state:paused" ></path>
<path d="M -228 783 L -176 992 L -72 957 Z" stroke="#6daef6" fill="#6daef6" style="animation-play-state:paused" ></path>
<path d="M -228 783 L -72 957 L -77 768 Z" stroke="#6dadf6" fill="#6dadf6" style="animation-play-state:paused" ></path>
<path d="M -72 957 L -176 992 L -29 1152 Z" stroke="#6eb0f5" fill="#6eb0f5" style="animation-play-state:paused" ></path>
<path d="M 1043 -92 L 834 45 L 1071 93 Z" stroke="#6daef6" fill="#6daef6" style="animation-play-state:paused" ></path>
<path d="M 834 45 L 840 -127 L 683 72 Z" stroke="#6cacf6" fill="#6cacf6" style="animation-play-state:paused" ></path>
<path d="M 498 67 L 316 -109 L 355 91 Z" stroke="#69a8f7" fill="#69a8f7" style="animation-play-state:paused" ></path>
<path d="M 1755 1120 L 1600 997 L 1563 1133 Z" stroke="#7ecff1" fill="#7ecff1" style="animation-play-state:paused" ></path>
<path d="M 1600 997 L 1778 980 L 1589 808 Z" stroke="#7cccf2" fill="#7cccf2" style="animation-play-state:paused" ></path>
<path d="M 1603 629 L 1759 435 L 1581 430 Z" stroke="#77c1f3" fill="#77c1f3" style="animation-play-state:paused" ></path>
<path d="M 1778 980 L 1770 810 L 1589 808 Z" stroke="#7ccbf2" fill="#7ccbf2" style="animation-play-state:paused" ></path>
<path d="M -54 413 L -207 630 L -25 607 Z" stroke="#6baaf6" fill="#6baaf6" style="animation-play-state:paused" ></path>
<path d="M 1582 1316 L 1755 1120 L 1563 1133 Z" stroke="#7fd1f1" fill="#7fd1f1" style="animation-play-state:paused" ></path>
<path d="M 1760 1321 L 1755 1120 L 1582 1316 Z" stroke="#80d3f1" fill="#80d3f1" style="animation-play-state:paused" ></path>
<path d="M 840 -127 L 651 -140 L 683 72 Z" stroke="#6baaf6" fill="#6baaf6" style="animation-play-state:paused" ></path>
<path d="M 133 66 L -31 267 L 168 269 Z" stroke="#69a7f7" fill="#69a7f7" style="animation-play-state:paused" ></path>
<path d="M -54 413 L -222 416 L -207 630 Z" stroke="#6aa8f7" fill="#6aa8f7" style="animation-play-state:paused" ></path>
<path d="M 133 66 L 168 269 L 355 91 Z" stroke="#6aa8f7" fill="#6aa8f7" style="animation-play-state:paused" ></path>
<path d="M 1218 72 L 1043 -92 L 1071 93 Z" stroke="#6eb0f5" fill="#6eb0f5" style="animation-play-state:paused" ></path>
<path d="M 1613 273 L 1399 241 L 1581 430 Z" stroke="#73bbf4" fill="#73bbf4" style="animation-play-state:paused" ></path>
<path d="M 1613 273 L 1433 87 L 1399 241 Z" stroke="#72b8f4" fill="#72b8f4" style="animation-play-state:paused" ></path>
<path d="M 1218 72 L 1191 -147 L 1043 -92 Z" stroke="#6daef6" fill="#6daef6" style="animation-play-state:paused" ></path>
<path d="M 1759 435 L 1613 273 L 1581 430 Z" stroke="#75bef4" fill="#75bef4" style="animation-play-state:paused" ></path>
<path d="M 651 -140 L 508 -103 L 498 67 Z" stroke="#6aa8f7" fill="#6aa8f7" style="animation-play-state:paused" ></path>
<path d="M 1770 810 L 1765 604 L 1603 629 Z" stroke="#7ac7f3" fill="#7ac7f3" style="animation-play-state:paused" ></path>
<path d="M -207 630 L -228 783 L -77 768 Z" stroke="#6cabf6" fill="#6cabf6" style="animation-play-state:paused" ></path>
<path d="M -413 1145 L -212 1166 L -176 992 Z" stroke="#6daef6" fill="#6daef6" style="animation-play-state:paused" ></path>
<path d="M -176 992 L -212 1166 L -29 1152 Z" stroke="#6eb0f5" fill="#6eb0f5" style="animation-play-state:paused" ></path>
<path d="M -39 1513 L 121 1681 L 121 1506 Z" stroke="#72b7f4" fill="#72b7f4" style="animation-play-state:paused" ></path>
<path d="M 121 1506 L 121 1681 L 328 1527 Z" stroke="#73baf4" fill="#73baf4" style="animation-play-state:paused" ></path>
<path d="M 1229 1713 L 1407 1706 L 1415 1518 Z" stroke="#80d2f1" fill="#80d2f1" style="animation-play-state:paused" ></path>
<path d="M 1415 1518 L 1603 1528 L 1582 1316 Z" stroke="#81d4f1" fill="#81d4f1" style="animation-play-state:paused" ></path>
<path d="M 316 -109 L 133 66 L 355 91 Z" stroke="#68a6f7" fill="#68a6f7" style="animation-play-state:paused" ></path>
<path d="M -39 1513 L 121 1506 L -33 1355 Z" stroke="#71b6f4" fill="#71b6f4" style="animation-play-state:paused" ></path>
<path d="M -206 1361 L -39 1513 L -33 1355 Z" stroke="#6fb3f5" fill="#6fb3f5" style="animation-play-state:paused" ></path>
<path d="M 1407 1706 L 1603 1528 L 1415 1518 Z" stroke="#81d4f1" fill="#81d4f1" style="animation-play-state:paused" ></path>
<path d="M 347 -281 L 316 -109 L 508 -103 Z" stroke="#67a4f7" fill="#67a4f7" style="animation-play-state:paused" ></path>
<path d="M 508 -103 L 316 -109 L 498 67 Z" stroke="#69a7f7" fill="#69a7f7" style="animation-play-state:paused" ></path>
<path d="M 1765 604 L 1759 435 L 1603 629 Z" stroke="#78c3f3" fill="#78c3f3" style="animation-play-state:paused" ></path>
<path d="M 1388 -111 L 1218 72 L 1433 87 Z" stroke="#6fb2f5" fill="#6fb2f5" style="animation-play-state:paused" ></path>
<path d="M 1388 -111 L 1191 -147 L 1218 72 Z" stroke="#6daff5" fill="#6daff5" style="animation-play-state:paused" ></path>
<path d="M 864 -283 L 695 -264 L 840 -127 Z" stroke="#69a7f7" fill="#69a7f7" style="animation-play-state:paused" ></path>
<path d="M 840 -127 L 695 -264 L 651 -140 Z" stroke="#69a7f7" fill="#69a7f7" style="animation-play-state:paused" ></path>
<path d="M 1603 1528 L 1760 1321 L 1582 1316 Z" stroke="#81d5f0" fill="#81d5f0" style="animation-play-state:paused" ></path>
<path d="M 1755 1120 L 1929 1144 L 1778 980 Z" stroke="#7fd1f1" fill="#7fd1f1" style="animation-play-state:paused" ></path>
<path d="M 1778 980 L 1979 816 L 1770 810 Z" stroke="#7cccf2" fill="#7cccf2" style="animation-play-state:paused" ></path>
<path d="M -212 1166 L -206 1361 L -29 1152 Z" stroke="#6eb1f5" fill="#6eb1f5" style="animation-play-state:paused" ></path>
<path d="M -39 1513 L -42 1701 L 121 1681 Z" stroke="#71b6f4" fill="#71b6f4" style="animation-play-state:paused" ></path>
<path d="M -216 1512 L -206 1361 L -387 1357 Z" stroke="#6eb0f5" fill="#6eb0f5" style="animation-play-state:paused" ></path>
<path d="M -212 246 L -54 413 L -31 267 Z" stroke="#68a6f7" fill="#68a6f7" style="animation-play-state:paused" ></path>
<path d="M -212 246 L -222 416 L -54 413 Z" stroke="#68a6f7" fill="#68a6f7" style="animation-play-state:paused" ></path>
<path d="M -207 630 L -401 613 L -228 783 Z" stroke="#6aa9f6" fill="#6aa9f6" style="animation-play-state:paused" ></path>
<path d="M 1783 247 L 1621 110 L 1613 273 Z" stroke="#73b9f4" fill="#73b9f4" style="animation-play-state:paused" ></path>
<path d="M 1613 273 L 1621 110 L 1433 87 Z" stroke="#72b7f4" fill="#72b7f4" style="animation-play-state:paused" ></path>
<path d="M 864 -283 L 840 -127 L 1043 -92 Z" stroke="#6ba9f6" fill="#6ba9f6" style="animation-play-state:paused" ></path>
<path d="M 651 -140 L 474 -322 L 508 -103 Z" stroke="#68a5f7" fill="#68a5f7" style="animation-play-state:paused" ></path>
<path d="M 1030 -320 L 864 -283 L 1043 -92 Z" stroke="#6aa9f7" fill="#6aa9f7" style="animation-play-state:paused" ></path>
<path d="M -40 -108 L -47 47 L 133 66 Z" stroke="#66a2f8" fill="#66a2f8" style="animation-play-state:paused" ></path>
<path d="M 133 66 L -47 47 L -31 267 Z" stroke="#68a5f7" fill="#68a5f7" style="animation-play-state:paused" ></path>
<path d="M 146 -97 L 133 66 L 316 -109 Z" stroke="#67a4f7" fill="#67a4f7" style="animation-play-state:paused" ></path>
<path d="M 1597 -96 L 1388 -111 L 1433 87 Z" stroke="#6eb1f5" fill="#6eb1f5" style="animation-play-state:paused" ></path>
<path d="M 1191 -147 L 1030 -320 L 1043 -92 Z" stroke="#6cabf6" fill="#6cabf6" style="animation-play-state:paused" ></path>
<path d="M -216 1512 L -42 1701 L -39 1513 Z" stroke="#70b4f5" fill="#70b4f5" style="animation-play-state:paused" ></path>
<path d="M 121 1681 L -42 1701 L 339 1713 Z" stroke="#73b9f4" fill="#73b9f4" style="animation-play-state:paused" ></path>
<path d="M 159 -268 L 146 -97 L 316 -109 Z" stroke="#66a2f8" fill="#66a2f8" style="animation-play-state:paused" ></path>
<path d="M 1759 435 L 1783 247 L 1613 273 Z" stroke="#74bdf4" fill="#74bdf4" style="animation-play-state:paused" ></path>
<path d="M 1919 214 L 1783 247 L 1759 435 Z" stroke="#74bdf4" fill="#74bdf4" style="animation-play-state:paused" ></path>
<path d="M 1963 443 L 1759 435 L 1765 604 Z" stroke="#78c3f3" fill="#78c3f3" style="animation-play-state:paused" ></path>
<path d="M -187 105 L -212 246 L -31 267 Z" stroke="#67a4f7" fill="#67a4f7" style="animation-play-state:paused" ></path>
<path d="M 1966 1341 L 1929 1144 L 1760 1321 Z" stroke="#82d6f0" fill="#82d6f0" style="animation-play-state:paused" ></path>
<path d="M 1760 1321 L 1929 1144 L 1755 1120 Z" stroke="#80d4f1" fill="#80d4f1" style="animation-play-state:paused" ></path>
<path d="M 1770 810 L 1974 630 L 1765 604 Z" stroke="#7ac8f3" fill="#7ac8f3" style="animation-play-state:paused" ></path>
<path d="M 1407 1706 L 1610 1721 L 1603 1528 Z" stroke="#82d6f0" fill="#82d6f0" style="animation-play-state:paused" ></path>
<path d="M 1603 1528 L 1790 1531 L 1760 1321 Z" stroke="#82d7f0" fill="#82d7f0" style="animation-play-state:paused" ></path>
<path d="M 1229 1713 L 1610 1721 L 1407 1706 Z" stroke="#80d4f1" fill="#80d4f1" style="animation-play-state:paused" ></path>
<path d="M 870 1700 L 1610 1721 L 1229 1713 Z" stroke="#7fd0f1" fill="#7fd0f1" style="animation-play-state:paused" ></path>
<path d="M -180 1727 L 1610 1721 L 870 1700 Z" stroke="#7ac7f3" fill="#7ac7f3" style="animation-play-state:paused" ></path>
<path d="M -387 1357 L -206 1361 L -212 1166 Z" stroke="#6daff5" fill="#6daff5" style="animation-play-state:paused" ></path>
<path d="M -206 1361 L -216 1512 L -39 1513 Z" stroke="#6fb2f5" fill="#6fb2f5" style="animation-play-state:paused" ></path>
<path d="M 1929 1144 L 1985 985 L 1778 980 Z" stroke="#7fd1f1" fill="#7fd1f1" style="animation-play-state:paused" ></path>
<path d="M -222 416 L -401 613 L -207 630 Z" stroke="#69a7f7" fill="#69a7f7" style="animation-play-state:paused" ></path>
<path d="M -228 783 L -433 945 L -176 992 Z" stroke="#6cabf6" fill="#6cabf6" style="animation-play-state:paused" ></path>
<path d="M -388 442 L -401 613 L -222 416 Z" stroke="#68a5f7" fill="#68a5f7" style="animation-play-state:paused" ></path>
<path d="M 1985 985 L 1979 816 L 1778 980 Z" stroke="#7ecef1" fill="#7ecef1" style="animation-play-state:paused" ></path>
<path d="M 1773 1681 L 1790 1531 L 1603 1528 Z" stroke="#83d9f0" fill="#83d9f0" style="animation-play-state:paused" ></path>
<path d="M 1213 -305 L 1030 -320 L 1191 -147 Z" stroke="#6ba9f6" fill="#6ba9f6" style="animation-play-state:paused" ></path>
<path d="M 864 -283 L 1030 -320 L 695 -264 Z" stroke="#68a6f7" fill="#68a6f7" style="animation-play-state:paused" ></path>
<path d="M -431 787 L -433 945 L -228 783 Z" stroke="#6ba9f6" fill="#6ba9f6" style="animation-play-state:paused" ></path>
<path d="M -401 613 L -431 787 L -228 783 Z" stroke="#6aa8f7" fill="#6aa8f7" style="animation-play-state:paused" ></path>
<path d="M 1979 816 L 1974 630 L 1770 810 Z" stroke="#7bcaf2" fill="#7bcaf2" style="animation-play-state:paused" ></path>
<path d="M 695 -264 L 474 -322 L 651 -140 Z" stroke="#68a4f7" fill="#68a4f7" style="animation-play-state:paused" ></path>
<path d="M 1030 -320 L 474 -322 L 695 -264 Z" stroke="#68a4f7" fill="#68a4f7" style="animation-play-state:paused" ></path>
<path d="M -433 945 L -413 1145 L -176 992 Z" stroke="#6cacf6" fill="#6cacf6" style="animation-play-state:paused" ></path>
<path d="M 474 -322 L 347 -281 L 508 -103 Z" stroke="#67a3f8" fill="#67a3f8" style="animation-play-state:paused" ></path>
<path d="M -47 47 L -187 105 L -31 267 Z" stroke="#67a3f7" fill="#67a3f7" style="animation-play-state:paused" ></path>
<path d="M -372 279 L -388 442 L -222 416 Z" stroke="#67a4f7" fill="#67a4f7" style="animation-play-state:paused" ></path>
<path d="M -201 -110 L -187 105 L -47 47 Z" stroke="#65a0f8" fill="#65a0f8" style="animation-play-state:paused" ></path>
<path d="M -40 -108 L 133 66 L 146 -97 Z" stroke="#66a2f8" fill="#66a2f8" style="animation-play-state:paused" ></path>
<path d="M 1411 -308 L 1213 -305 L 1191 -147 Z" stroke="#6caaf6" fill="#6caaf6" style="animation-play-state:paused" ></path>
<path d="M 1030 -320 L 1213 -305 L 474 -322 Z" stroke="#68a6f7" fill="#68a6f7" style="animation-play-state:paused" ></path>
<path d="M 1411 -308 L 1191 -147 L 1388 -111 Z" stroke="#6cadf6" fill="#6cadf6" style="animation-play-state:paused" ></path>
<path d="M -25 -281 L -40 -108 L 146 -97 Z" stroke="#659ff8" fill="#659ff8" style="animation-play-state:paused" ></path>
<path d="M -413 1145 L -387 1357 L -212 1166 Z" stroke="#6dadf6" fill="#6dadf6" style="animation-play-state:paused" ></path>
<path d="M 2152 425 L 1963 443 L 1974 630 Z" stroke="#79c4f3" fill="#79c4f3" style="animation-play-state:paused" ></path>
<path d="M 1974 630 L 1963 443 L 1765 604 Z" stroke="#79c5f3" fill="#79c5f3" style="animation-play-state:paused" ></path>
<path d="M 1799 87 L 1597 -96 L 1621 110 Z" stroke="#70b5f4" fill="#70b5f4" style="animation-play-state:paused" ></path>
<path d="M -372 279 L -222 416 L -212 246 Z" stroke="#67a3f7" fill="#67a3f7" style="animation-play-state:paused" ></path>
<path d="M -401 613 L -388 442 L -431 787 Z" stroke="#68a6f7" fill="#68a6f7" style="animation-play-state:paused" ></path>
<path d="M 1919 1498 L 1966 1341 L 1760 1321 Z" stroke="#83d9f0" fill="#83d9f0" style="animation-play-state:paused" ></path>
<path d="M 2107 1129 L 2111 951 L 1985 985 Z" stroke="#80d2f1" fill="#80d2f1" style="animation-play-state:paused" ></path>
<path d="M 1799 87 L 1621 110 L 1783 247 Z" stroke="#72b8f4" fill="#72b8f4" style="animation-play-state:paused" ></path>
<path d="M 1621 110 L 1597 -96 L 1433 87 Z" stroke="#70b4f5" fill="#70b4f5" style="animation-play-state:paused" ></path>
<path d="M 1919 214 L 1799 87 L 1783 247 Z" stroke="#73baf4" fill="#73baf4" style="animation-play-state:paused" ></path>
<path d="M 1610 1721 L 1773 1681 L 1603 1528 Z" stroke="#83d8f0" fill="#83d8f0" style="animation-play-state:paused" ></path>
<path d="M 1790 1531 L 1919 1498 L 1760 1321 Z" stroke="#83d9f0" fill="#83d9f0" style="animation-play-state:paused" ></path>
<path d="M -400 70 L -212 246 L -187 105 Z" stroke="#66a1f8" fill="#66a1f8" style="animation-play-state:paused" ></path>
<path d="M -400 70 L -372 279 L -212 246 Z" stroke="#66a1f8" fill="#66a1f8" style="animation-play-state:paused" ></path>
<path d="M -371 1736 L -180 1727 L -216 1512 Z" stroke="#6eb1f5" fill="#6eb1f5" style="animation-play-state:paused" ></path>
<path d="M -216 1512 L -180 1727 L -42 1701 Z" stroke="#6fb3f5" fill="#6fb3f5" style="animation-play-state:paused" ></path>
<path d="M -42 1701 L -180 1727 L 339 1713 Z" stroke="#72b7f4" fill="#72b7f4" style="animation-play-state:paused" ></path>
<path d="M 339 1713 L -180 1727 L 708 1721 Z" stroke="#74bcf4" fill="#74bcf4" style="animation-play-state:paused" ></path>
<path d="M 474 -322 L 159 -268 L 347 -281 Z" stroke="#65a0f8" fill="#65a0f8" style="animation-play-state:paused" ></path>
<path d="M 347 -281 L 159 -268 L 316 -109 Z" stroke="#66a1f8" fill="#66a1f8" style="animation-play-state:paused" ></path>
<path d="M 1947 1703 L 1919 1498 L 1790 1531 Z" stroke="#86dcef" fill="#86dcef" style="animation-play-state:paused" ></path>
<path d="M 1963 443 L 1919 214 L 1759 435 Z" stroke="#76bff4" fill="#76bff4" style="animation-play-state:paused" ></path>
<path d="M 1799 87 L 1752 -128 L 1597 -96 Z" stroke="#6fb3f5" fill="#6fb3f5" style="animation-play-state:paused" ></path>
<path d="M 1614 -277 L 1411 -308 L 1388 -111 Z" stroke="#6cacf6" fill="#6cacf6" style="animation-play-state:paused" ></path>
<path d="M 2107 1129 L 1985 985 L 1929 1144 Z" stroke="#80d3f1" fill="#80d3f1" style="animation-play-state:paused" ></path>
<path d="M 1985 985 L 2111 951 L 1979 816 Z" stroke="#7ecff1" fill="#7ecff1" style="animation-play-state:paused" ></path>
<path d="M 1979 816 L 2151 803 L 1974 630 Z" stroke="#7bcbf2" fill="#7bcbf2" style="animation-play-state:paused" ></path>
<path d="M 2121 220 L 1967 108 L 1919 214 Z" stroke="#73bbf4" fill="#73bbf4" style="animation-play-state:paused" ></path>
<path d="M 2107 1129 L 1929 1144 L 1966 1341 Z" stroke="#82d6f0" fill="#82d6f0" style="animation-play-state:paused" ></path>
<path d="M -413 1145 L -433 1509 L -387 1357 Z" stroke="#6cadf6" fill="#6cadf6" style="animation-play-state:paused" ></path>
<path d="M -387 1357 L -433 1509 L -216 1512 Z" stroke="#6daff6" fill="#6daff6" style="animation-play-state:paused" ></path>
<path d="M -433 945 L -433 1509 L -413 1145 Z" stroke="#6cabf6" fill="#6cabf6" style="animation-play-state:paused" ></path>
<path d="M 2111 951 L 2151 803 L 1979 816 Z" stroke="#7dcef2" fill="#7dcef2" style="animation-play-state:paused" ></path>
<path d="M 2144 1355 L 2107 1129 L 1966 1341 Z" stroke="#83d8f0" fill="#83d8f0" style="animation-play-state:paused" ></path>
<path d="M 2111 951 L 2284 963 L 2151 803 Z" stroke="#7fcff1" fill="#7fcff1" style="animation-play-state:paused" ></path>
<path d="M -188 -259 L -201 -110 L -40 -108 Z" stroke="#649df8" fill="#649df8" style="animation-play-state:paused" ></path>
<path d="M -40 -108 L -201 -110 L -47 47 Z" stroke="#659ff8" fill="#659ff8" style="animation-play-state:paused" ></path>
<path d="M 1969 -90 L 1752 -128 L 1799 87 Z" stroke="#70b4f5" fill="#70b4f5" style="animation-play-state:paused" ></path>
<path d="M 1597 -96 L 1614 -277 L 1388 -111 Z" stroke="#6daff6" fill="#6daff6" style="animation-play-state:paused" ></path>
<path d="M 2343 811 L 2154 653 L 2151 803 Z" stroke="#7cccf2" fill="#7cccf2" style="animation-play-state:paused" ></path>
<path d="M 2151 803 L 2154 653 L 1974 630 Z" stroke="#7bc9f2" fill="#7bc9f2" style="animation-play-state:paused" ></path>
<path d="M 1919 214 L 1967 108 L 1799 87 Z" stroke="#73b9f4" fill="#73b9f4" style="animation-play-state:paused" ></path>
<path d="M 1752 -128 L 1614 -277 L 1597 -96 Z" stroke="#6daff5" fill="#6daff5" style="animation-play-state:paused" ></path>
<path d="M 474 -322 L -25 -281 L 159 -268 Z" stroke="#659ff8" fill="#659ff8" style="animation-play-state:paused" ></path>
<path d="M 159 -268 L -25 -281 L 146 -97 Z" stroke="#659ff8" fill="#659ff8" style="animation-play-state:paused" ></path>
<path d="M 1773 1681 L 1947 1703 L 1790 1531 Z" stroke="#86dbef" fill="#86dbef" style="animation-play-state:paused" ></path>
<path d="M 2112 1515 L 2144 1355 L 1966 1341 Z" stroke="#85dbef" fill="#85dbef" style="animation-play-state:paused" ></path>
<path d="M 1610 1721 L 1947 1703 L 1773 1681 Z" stroke="#85dbef" fill="#85dbef" style="animation-play-state:paused" ></path>
<path d="M 2121 220 L 1919 214 L 1963 443 Z" stroke="#75bef4" fill="#75bef4" style="animation-play-state:paused" ></path>
<path d="M 2154 653 L 2152 425 L 1974 630 Z" stroke="#7ac6f3" fill="#7ac6f3" style="animation-play-state:paused" ></path>
<path d="M -428 -137 L -400 70 L -201 -110 Z" stroke="#639cf9" fill="#639cf9" style="animation-play-state:paused" ></path>
<path d="M -201 -110 L -400 70 L -187 105 Z" stroke="#659ef8" fill="#659ef8" style="animation-play-state:paused" ></path>
<path d="M -372 279 L -400 70 L -388 442 Z" stroke="#66a1f8" fill="#66a1f8" style="animation-play-state:paused" ></path>
<path d="M -388 442 L -428 -137 L -431 787 Z" stroke="#66a2f8" fill="#66a2f8" style="animation-play-state:paused" ></path>
<path d="M 2112 1515 L 1966 1341 L 1919 1498 Z" stroke="#86dbef" fill="#86dbef" style="animation-play-state:paused" ></path>
<path d="M 2278 1135 L 2284 963 L 2111 951 Z" stroke="#80d3f1" fill="#80d3f1" style="animation-play-state:paused" ></path>
<path d="M -433 1509 L -371 1736 L -216 1512 Z" stroke="#6daff5" fill="#6daff5" style="animation-play-state:paused" ></path>
<path d="M 2152 425 L 2121 220 L 1963 443 Z" stroke="#76c0f3" fill="#76c0f3" style="animation-play-state:paused" ></path>
<path d="M 1971 -278 L 1773 -293 L 1752 -128 Z" stroke="#6daef6" fill="#6daef6" style="animation-play-state:paused" ></path>
<path d="M 1752 -128 L 1773 -293 L 1614 -277 Z" stroke="#6daef6" fill="#6daef6" style="animation-play-state:paused" ></path>
<path d="M 1947 1703 L 2112 1515 L 1919 1498 Z" stroke="#86ddef" fill="#86ddef" style="animation-play-state:paused" ></path>
<path d="M -25 -281 L -188 -259 L -40 -108 Z" stroke="#639cf9" fill="#639cf9" style="animation-play-state:paused" ></path>
<path d="M 2278 1135 L 2107 1129 L 2144 1355 Z" stroke="#83d7f0" fill="#83d7f0" style="animation-play-state:paused" ></path>
<path d="M 2278 1135 L 2111 951 L 2107 1129 Z" stroke="#80d4f1" fill="#80d4f1" style="animation-play-state:paused" ></path>
<path d="M 2154 653 L 2321 433 L 2152 425 Z" stroke="#79c5f3" fill="#79c5f3" style="animation-play-state:paused" ></path>
<path d="M 2342 95 L 2133 54 L 2121 220 Z" stroke="#73b9f4" fill="#73b9f4" style="animation-play-state:paused" ></path>
<path d="M 1969 -90 L 1799 87 L 1967 108 Z" stroke="#71b6f4" fill="#71b6f4" style="animation-play-state:paused" ></path>
<path d="M 1614 -277 L 1773 -293 L 1411 -308 Z" stroke="#6cacf6" fill="#6cacf6" style="animation-play-state:paused" ></path>
<path d="M 1411 -308 L 1773 -293 L 1213 -305 Z" stroke="#6cabf6" fill="#6cabf6" style="animation-play-state:paused" ></path>
<path d="M 2133 54 L 1969 -90 L 1967 108 Z" stroke="#71b6f4" fill="#71b6f4" style="animation-play-state:paused" ></path>
<path d="M 2314 1332 L 2278 1135 L 2144 1355 Z" stroke="#84daf0" fill="#84daf0" style="animation-play-state:paused" ></path>
<path d="M 2278 1135 L 2343 811 L 2284 963 Z" stroke="#80d2f1" fill="#80d2f1" style="animation-play-state:paused" ></path>
<path d="M 2284 963 L 2343 811 L 2151 803 Z" stroke="#7ecef1" fill="#7ecef1" style="animation-play-state:paused" ></path>
<path d="M -188 -259 L -428 -137 L -201 -110 Z" stroke="#629bf9" fill="#629bf9" style="animation-play-state:paused" ></path>
<path d="M -400 70 L -428 -137 L -388 442 Z" stroke="#649ef8" fill="#649ef8" style="animation-play-state:paused" ></path>
<path d="M -431 787 L -428 -137 L -433 945 Z" stroke="#67a4f7" fill="#67a4f7" style="animation-play-state:paused" ></path>
<path d="M 1947 1703 L 2126 1680 L 2112 1515 Z" stroke="#87e0ef" fill="#87e0ef" style="animation-play-state:paused" ></path>
<path d="M 2112 1515 L 2314 1332 L 2144 1355 Z" stroke="#86dcef" fill="#86dcef" style="animation-play-state:paused" ></path>
<path d="M 2319 1699 L 2126 1680 L 1947 1703 Z" stroke="#88e2ee" fill="#88e2ee" style="animation-play-state:paused" ></path>
<path d="M 2344 290 L 2121 220 L 2152 425 Z" stroke="#75bff4" fill="#75bff4" style="animation-play-state:paused" ></path>
<path d="M 2121 220 L 2133 54 L 1967 108 Z" stroke="#73b9f4" fill="#73b9f4" style="animation-play-state:paused" ></path>
<path d="M 2343 811 L 2344 646 L 2154 653 Z" stroke="#7bcaf2" fill="#7bcaf2" style="animation-play-state:paused" ></path>
<path d="M 2314 1530 L 2314 1332 L 2112 1515 Z" stroke="#87deef" fill="#87deef" style="animation-play-state:paused" ></path>
<path d="M 2278 1135 L 2314 1332 L 2343 811 Z" stroke="#81d5f0" fill="#81d5f0" style="animation-play-state:paused" ></path>
<path d="M 2343 811 L 2314 1530 L 2344 646 Z" stroke="#80d2f1" fill="#80d2f1" style="animation-play-state:paused" ></path>
<path d="M 2344 646 L 2321 433 L 2154 653 Z" stroke="#7ac7f3" fill="#7ac7f3" style="animation-play-state:paused" ></path>
<path d="M 2123 -120 L 1969 -90 L 2133 54 Z" stroke="#70b4f5" fill="#70b4f5" style="animation-play-state:paused" ></path>
<path d="M 2123 -120 L 1971 -278 L 1969 -90 Z" stroke="#6eb1f5" fill="#6eb1f5" style="animation-play-state:paused" ></path>
<path d="M 1969 -90 L 1971 -278 L 1752 -128 Z" stroke="#6eb1f5" fill="#6eb1f5" style="animation-play-state:paused" ></path>
<path d="M 2344 646 L 2344 290 L 2321 433 Z" stroke="#79c3f3" fill="#79c3f3" style="animation-play-state:paused" ></path>
<path d="M 2321 433 L 2344 290 L 2152 425 Z" stroke="#77c1f3" fill="#77c1f3" style="animation-play-state:paused" ></path>
<path d="M 2285 -114 L 2123 -120 L 2133 54 Z" stroke="#70b4f5" fill="#70b4f5" style="animation-play-state:paused" ></path>
<path d="M 2126 1680 L 2314 1530 L 2112 1515 Z" stroke="#88e1ef" fill="#88e1ef" style="animation-play-state:paused" ></path>
<path d="M 2314 1332 L 2314 1530 L 2343 811 Z" stroke="#83d9f0" fill="#83d9f0" style="animation-play-state:paused" ></path>
<path d="M -25 -281 L -423 -299 L -188 -259 Z" stroke="#6299f9" fill="#6299f9" style="animation-play-state:paused" ></path>
<path d="M -188 -259 L -423 -299 L -428 -137 Z" stroke="#6198f9" fill="#6198f9" style="animation-play-state:paused" ></path>
<path d="M 474 -322 L -423 -299 L -25 -281 Z" stroke="#639cf9" fill="#639cf9" style="animation-play-state:paused" ></path>
<path d="M 1213 -305 L -423 -299 L 474 -322 Z" stroke="#66a1f8" fill="#66a1f8" style="animation-play-state:paused" ></path>
<path d="M 2344 290 L 2342 95 L 2121 220 Z" stroke="#74bcf4" fill="#74bcf4" style="animation-play-state:paused" ></path>
<path d="M 2123 -120 L 2143 -295 L 1971 -278 Z" stroke="#6daff5" fill="#6daff5" style="animation-play-state:paused" ></path>
<path d="M 1610 1721 L 2319 1699 L 1947 1703 Z" stroke="#87deef" fill="#87deef" style="animation-play-state:paused" ></path>
<path d="M 2126 1680 L 2319 1699 L 2314 1530 Z" stroke="#89e3ee" fill="#89e3ee" style="animation-play-state:paused" ></path>
<path d="M 2314 1530 L 2319 1699 L 2344 646 Z" stroke="#85daef" fill="#85daef" style="animation-play-state:paused" ></path>
<path d="M 2285 -114 L 2143 -295 L 2123 -120 Z" stroke="#6eb1f5" fill="#6eb1f5" style="animation-play-state:paused" ></path>
<path d="M 1971 -278 L 2143 -295 L 1773 -293 Z" stroke="#6dadf6" fill="#6dadf6" style="animation-play-state:paused" ></path>
<path d="M 1773 -293 L 2288 -306 L 1213 -305 Z" stroke="#6cacf6" fill="#6cacf6" style="animation-play-state:paused" ></path>
<path d="M 2342 95 L 2285 -114 L 2133 54 Z" stroke="#71b6f4" fill="#71b6f4" style="animation-play-state:paused" ></path>
<path d="M 2342 95 L 2288 -306 L 2285 -114 Z" stroke="#6fb3f5" fill="#6fb3f5" style="animation-play-state:paused" ></path>
<path d="M 2285 -114 L 2288 -306 L 2143 -295 Z" stroke="#6daff5" fill="#6daff5" style="animation-play-state:paused" ></path>
<path d="M 2143 -295 L 2288 -306 L 1773 -293 Z" stroke="#6dadf6" fill="#6dadf6" style="animation-play-state:paused" ></path></g>
<style type="text/css" style="animation-play-state:paused" >#bk-0.3653186826125925 path { stroke-width: 1 }</style></g></svg>