<?xml version="1.0" encoding="utf-8"?>
<!-- Generator: Adobe Illustrator 24.2.1, SVG Export Plug-In . SVG Version: 6.00 Build 0)  -->
<svg version="1.1" id="Layer_1" xmlns="http://www.w3.org/2000/svg" xmlns:xlink="http://www.w3.org/1999/xlink" x="0px" y="0px"
	 viewBox="0 0 644.7 338.7" style="enable-background:new 0 0 644.7 338.7;" xml:space="preserve">
<style type="text/css">
	.st0{clip-path:url(#SVGID_2_);fill:#FFFFFF;}
	.st1{clip-path:url(#SVGID_4_);fill:#FFFFFF;}
	.st2{clip-path:url(#SVGID_6_);fill:#FFFFFF;}
	.st3{clip-path:url(#SVGID_8_);fill:#FFFFFF;}
	.st4{clip-path:url(#SVGID_10_);fill:#FFFFFF;}
	.st5{clip-path:url(#SVGID_12_);fill:#FFFFFF;}
	.st6{clip-path:url(#SVGID_14_);fill:#FFFFFF;}
	.st7{clip-path:url(#SVGID_16_);fill:#FFFFFF;}
	.st8{clip-path:url(#SVGID_18_);fill:#FFFFFF;}
	.st9{clip-path:url(#SVGID_20_);fill:#FFFFFF;}
	.st10{clip-path:url(#SVGID_22_);fill:#FFFFFF;}
	.st11{clip-path:url(#SVGID_24_);fill:#FFFFFF;}
	.st12{clip-path:url(#SVGID_26_);fill:#FFFFFF;}
	.st13{clip-path:url(#SVGID_28_);fill:#FFFFFF;}
	.st14{clip-path:url(#SVGID_30_);fill:#FFFFFF;}
	.st15{clip-path:url(#SVGID_32_);fill:#FFFFFF;}
	.st16{clip-path:url(#SVGID_34_);fill:#FFFFFF;}
	.st17{clip-path:url(#SVGID_36_);fill:#FFFFFF;}
	.st18{clip-path:url(#SVGID_38_);fill:#FFFFFF;}
	.st19{clip-path:url(#SVGID_40_);fill:#FFFFFF;}
	.st20{clip-path:url(#SVGID_42_);fill:#FFFFFF;}
	.st21{clip-path:url(#SVGID_44_);fill:#FFFFFF;}
	.st22{clip-path:url(#SVGID_46_);fill:#FFFFFF;}
	.st23{clip-path:url(#SVGID_48_);fill:url(#SVGID_49_);}
	.st24{clip-path:url(#SVGID_51_);fill:url(#SVGID_52_);}
	.st25{clip-path:url(#SVGID_54_);fill:url(#SVGID_55_);}
	.st26{clip-path:url(#SVGID_57_);fill:url(#SVGID_58_);}
	.st27{clip-path:url(#SVGID_60_);fill:url(#SVGID_61_);}
	.st28{clip-path:url(#SVGID_63_);fill:url(#SVGID_64_);}
	.st29{clip-path:url(#SVGID_66_);fill:url(#SVGID_67_);}
	.st30{clip-path:url(#SVGID_69_);fill:url(#SVGID_70_);}
	.st31{clip-path:url(#SVGID_72_);fill:url(#SVGID_73_);}
	.st32{clip-path:url(#SVGID_75_);fill:url(#SVGID_76_);}
</style>
<g>
	<g>
		<g>
			<defs>
				<rect id="SVGID_1_" width="644.7" height="338.7"/>
			</defs>
			<clipPath id="SVGID_2_">
				<use xlink:href="#SVGID_1_"  style="overflow:visible;"/>
			</clipPath>
			<path class="st0" d="M397.8,229.2c-3.8,1.3-10.7,2.8-17.2,2.8c-9.7,0-16.4-2.4-20.9-6.7c-4.7-4.4-7.1-10.9-7.1-17.9
				c0.1-17.3,13-26.1,29.1-26.1c6.7,0,11.8,1.2,14.4,2.4l-2.7,10.7c-2.8-1.3-6.2-2.1-11.8-2.1c-8.2,0-15,4.3-15,14.4
				c0,9.3,6,14.7,14.1,14.7c1.8,0,3.5-0.1,4.2-0.4v-8.6h-6.6v-10.3h19.5V229.2z"/>
		</g>
		<g>
			<defs>
				<rect id="SVGID_3_" width="644.7" height="338.7"/>
			</defs>
			<clipPath id="SVGID_4_">
				<use xlink:href="#SVGID_3_"  style="overflow:visible;"/>
			</clipPath>
			<rect x="406" y="179" class="st1" width="13.4" height="52.5"/>
		</g>
		<g>
			<defs>
				<rect id="SVGID_5_" width="644.7" height="338.7"/>
			</defs>
			<clipPath id="SVGID_6_">
				<use xlink:href="#SVGID_5_"  style="overflow:visible;"/>
			</clipPath>
			<path class="st2" d="M445,232.2c-10.9,0-19.3-6.9-19.3-18.7c0-11.6,7.6-19.3,20-19.3c11.4,0,18.9,7.7,18.9,18.6
				C464.6,226.1,455.2,232.2,445,232.2L445,232.2z M445.4,222.9c3.6,0,5.5-3.8,5.5-9.6c0-5-1.6-9.6-5.5-9.6c-4.4,0-5.9,4.8-5.9,9.6
				C439.4,218.7,441.2,222.9,445.4,222.9L445.4,222.9z"/>
		</g>
		<g>
			<defs>
				<rect id="SVGID_7_" width="644.7" height="338.7"/>
			</defs>
			<clipPath id="SVGID_8_">
				<use xlink:href="#SVGID_7_"  style="overflow:visible;"/>
			</clipPath>
			<path class="st3" d="M471,179h13.4v19.8h0.2c2.1-2.7,5.7-4.5,10.3-4.5c8.6,0,14.9,7.1,14.8,18.2c0,13.1-8.3,19.7-16.7,19.7
				c-3.8,0-7.9-1.4-10.3-5.5h-0.1l-0.5,4.7h-11.3c0.1-2.4,0.3-7,0.3-11.4L471,179L471,179z M484.3,215.6c0,0.7,0.1,1.3,0.2,1.8
				c0.5,2.4,2.6,4.4,5.2,4.4c3.9,0,6.4-3,6.4-8.7c0-4.9-2-8.6-6.4-8.6c-2.6,0-4.8,1.9-5.2,4.5c-0.1,0.6-0.2,1.2-0.2,1.8V215.6z"/>
		</g>
		<g>
			<defs>
				<rect id="SVGID_9_" width="644.7" height="338.7"/>
			</defs>
			<clipPath id="SVGID_10_">
				<use xlink:href="#SVGID_9_"  style="overflow:visible;"/>
			</clipPath>
			<path class="st4" d="M548.3,222.6c0,3.6,0.2,7,0.6,8.9h-12l-0.7-3.2h-0.3c-2.5,2.9-6.1,4-10,4c-7.4,0-12-5.4-12-11.4
				c0-9.7,8.8-14.1,21.1-14.1v-0.3c0-1.5-1.1-3.1-6-3.1c-3.8,0-7.8,1.3-10.3,2.7l-2.3-8.3c2.3-1.3,7.5-3.3,15-3.3
				c12.5,0,16.8,6.9,16.8,16v12.1H548.3z M535.4,214.8c-5.5,0-8.5,1.5-8.5,4.7c0,2.3,1.5,3.5,3.8,3.5c1.9,0,3.9-1.3,4.6-3.3
				c0.2-0.6,0.2-1.3,0.2-1.9L535.4,214.8L535.4,214.8z"/>
		</g>
		<g>
			<defs>
				<rect id="SVGID_11_" width="644.7" height="338.7"/>
			</defs>
			<clipPath id="SVGID_12_">
				<use xlink:href="#SVGID_11_"  style="overflow:visible;"/>
			</clipPath>
			<rect x="556.4" y="179" class="st5" width="13.4" height="52.5"/>
		</g>
		<g>
			<defs>
				<rect id="SVGID_13_" width="644.7" height="338.7"/>
			</defs>
			<clipPath id="SVGID_14_">
				<use xlink:href="#SVGID_13_"  style="overflow:visible;"/>
			</clipPath>
			<path class="st6" d="M57,288c-0.2-5.6-0.3-12.2-0.3-20h-0.2c-1.5,6.6-3.6,14-5.2,19.5l-4.9,17.3H35.9l-4.1-17.3
				c-1.3-5.3-2.8-12.7-4-19.5h-0.2c-0.3,7-0.5,14.4-0.7,20l-0.8,17.9H13.9l3.1-49.7h17.9l3.2,13.4c1.4,5.5,2.9,12.1,3.9,18.2h0.2
				c1.4-6.1,3-13.1,4.5-18.3l3.8-13.3H68l2.5,49.7H57.6L57,288z"/>
		</g>
		<g>
			<defs>
				<rect id="SVGID_15_" width="644.7" height="338.7"/>
			</defs>
			<clipPath id="SVGID_16_">
				<use xlink:href="#SVGID_15_"  style="overflow:visible;"/>
			</clipPath>
			<path class="st7" d="M87.6,292.3c0.4,2.9,4.6,4.5,9.4,4.5c3.4,0,6.6-0.4,9.9-1.4l1.7,8.8c-4.4,1.7-9.1,2.3-13.6,2.3
				c-12.8,0-20-7-20-18.5c0-8.4,5.5-19.3,18.8-19.3c11.7,0,16.7,8.6,16.7,18.6c0,2.1-0.3,4.1-0.5,5H87.6z M98.3,283.3
				c0-2.1-1-5.9-5.2-5.9c-3.9,0-5.5,3.6-5.7,5.9H98.3z"/>
		</g>
		<g>
			<defs>
				<rect id="SVGID_17_" width="644.7" height="338.7"/>
			</defs>
			<clipPath id="SVGID_18_">
				<use xlink:href="#SVGID_17_"  style="overflow:visible;"/>
			</clipPath>
			<path class="st8" d="M131.1,259.2v10.3h7.5v9.7h-7.5v10.4c0,4.3,1,6,4.2,6c1.5,0,2.1,0,3.2-0.3v10.1c-1.5,0.6-4.5,1-7.9,1
				c-3.9,0-7.2-1.4-9.1-3.3c-2.2-2.2-3.4-5.8-3.4-11.3v-12.7h-4.5v-9.7h4.5v-6.8L131.1,259.2z"/>
		</g>
		<g>
			<defs>
				<rect id="SVGID_19_" width="644.7" height="338.7"/>
			</defs>
			<clipPath id="SVGID_20_">
				<use xlink:href="#SVGID_19_"  style="overflow:visible;"/>
			</clipPath>
			<path class="st9" d="M144.8,253.4h13.4v20h0.2c1.2-1.5,2.7-2.6,4.3-3.4s3.6-1.3,5.5-1.3c8.2,0,12.8,5.8,12.8,16.1v21h-13.4v-19.6
				c0-4.3-1.4-6.9-4.7-6.9c-2.5,0-3.7,1.5-4.4,2.9c-0.2,0.6-0.3,1.6-0.3,2.1v21.4h-13.4L144.8,253.4L144.8,253.4z"/>
		</g>
		<g>
			<defs>
				<rect id="SVGID_21_" width="644.7" height="338.7"/>
			</defs>
			<clipPath id="SVGID_22_">
				<use xlink:href="#SVGID_21_"  style="overflow:visible;"/>
			</clipPath>
			<path class="st10" d="M221.3,297c0,3.6,0.2,7,0.6,8.9h-12l-0.7-3.2h-0.3c-2.5,2.9-6.1,4-10,4c-7.4,0-12-5.4-12-11.4
				c0-9.7,8.8-14.1,21.1-14.1v-0.3c0-1.5-1.1-3.1-6-3.1c-3.8,0-7.8,1.3-10.3,2.7l-2.3-8.3c2.3-1.3,7.5-3.3,15-3.3
				c12.5,0,16.8,6.9,16.8,16L221.3,297L221.3,297z M208.4,289.2c-5.5,0-8.5,1.5-8.5,4.7c0,2.3,1.5,3.5,3.8,3.5
				c1.9,0,3.9-1.3,4.6-3.3c0.1-0.6,0.1-1.3,0.1-1.9L208.4,289.2L208.4,289.2z"/>
		</g>
		<g>
			<defs>
				<rect id="SVGID_23_" width="644.7" height="338.7"/>
			</defs>
			<clipPath id="SVGID_24_">
				<use xlink:href="#SVGID_23_"  style="overflow:visible;"/>
			</clipPath>
			<path class="st11" d="M229.4,281.9c0-4.9-0.1-9-0.3-12.4h11.5l0.6,4.6h0.2c1.3-1.9,4.9-5.5,10.9-5.5c8.5,0,13.1,5.8,13.1,15.7
				v21.4H252v-19.8c0-4.2-1.4-6.6-4.6-6.6c-2.6,0-3.8,1.8-4.4,3.2c-0.3,0.7-0.4,1.7-0.4,2.7v20.6h-13.4v-23.9H229.4z"/>
		</g>
		<g>
			<defs>
				<rect id="SVGID_25_" width="644.7" height="338.7"/>
			</defs>
			<clipPath id="SVGID_26_">
				<use xlink:href="#SVGID_25_"  style="overflow:visible;"/>
			</clipPath>
			<path class="st12" d="M284.5,292.3c0.4,2.9,4.6,4.5,9.4,4.5c3.4,0,6.6-0.4,9.9-1.4l1.7,8.8c-4.3,1.7-9.1,2.3-13.6,2.3
				c-12.8,0-20-7-20-18.5c0-8.4,5.5-19.3,18.8-19.3c11.7,0,16.7,8.6,16.7,18.6c0,2.1-0.3,4.1-0.5,5H284.5z M295.2,283.3
				c0-2.1-1-5.9-5.2-5.9c-3.9,0-5.5,3.6-5.7,5.9H295.2z"/>
		</g>
		<g>
			<defs>
				<rect id="SVGID_27_" width="644.7" height="338.7"/>
			</defs>
			<clipPath id="SVGID_28_">
				<use xlink:href="#SVGID_27_"  style="overflow:visible;"/>
			</clipPath>
			<rect x="324.8" y="256.1" class="st13" width="13.4" height="49.7"/>
		</g>
		<g>
			<defs>
				<rect id="SVGID_29_" width="644.7" height="338.7"/>
			</defs>
			<clipPath id="SVGID_30_">
				<use xlink:href="#SVGID_29_"  style="overflow:visible;"/>
			</clipPath>
			<path class="st14" d="M346.1,281.9c0-4.9-0.1-9-0.3-12.4h11.5l0.6,4.6h0.2c1.3-1.9,4.9-5.5,10.9-5.5c8.5,0,13.1,5.8,13.1,15.7
				v21.4h-13.4v-19.8c0-4.2-1.4-6.6-4.6-6.6c-2.6,0-3.8,1.8-4.4,3.2c-0.3,0.7-0.4,1.7-0.4,2.7v20.6h-13.4v-23.9H346.1z"/>
		</g>
		<g>
			<defs>
				<rect id="SVGID_31_" width="644.7" height="338.7"/>
			</defs>
			<clipPath id="SVGID_32_">
				<use xlink:href="#SVGID_31_"  style="overflow:visible;"/>
			</clipPath>
			<path class="st15" d="M395.1,265.8c-4.1,0-6.7-2.8-6.7-6.3c0-3.7,2.7-6.3,6.8-6.3c4.1,0,6.7,2.7,6.8,6.3
				C401.9,263,399.3,265.8,395.1,265.8L395.1,265.8z M388.8,269.5h13.4v36.3h-13.4V269.5z"/>
		</g>
		<g>
			<defs>
				<rect id="SVGID_33_" width="644.7" height="338.7"/>
			</defs>
			<clipPath id="SVGID_34_">
				<use xlink:href="#SVGID_33_"  style="overflow:visible;"/>
			</clipPath>
			<path class="st16" d="M424.9,259.2v10.3h7.5v9.7h-7.5v10.4c0,4.3,1,6,4.2,6c1.5,0,2.1,0,3.2-0.3v10.1c-1.6,0.6-4.5,1-7.9,1
				c-3.9,0-7.2-1.4-9.1-3.3c-2.2-2.2-3.4-5.8-3.4-11.3v-12.7h-4.5v-9.7h4.5v-6.8L424.9,259.2z"/>
		</g>
		<g>
			<defs>
				<rect id="SVGID_35_" width="644.7" height="338.7"/>
			</defs>
			<clipPath id="SVGID_36_">
				<use xlink:href="#SVGID_35_"  style="overflow:visible;"/>
			</clipPath>
			<path class="st17" d="M444.9,265.8c-4.1,0-6.7-2.8-6.7-6.3c0-3.7,2.7-6.3,6.8-6.3c4.1,0,6.7,2.7,6.8,6.3
				C451.7,263,449.1,265.8,444.9,265.8L444.9,265.8z M438.6,269.5H452v36.3h-13.4V269.5z"/>
		</g>
		<g>
			<defs>
				<rect id="SVGID_37_" width="644.7" height="338.7"/>
			</defs>
			<clipPath id="SVGID_38_">
				<use xlink:href="#SVGID_37_"  style="overflow:visible;"/>
			</clipPath>
			<path class="st18" d="M492.5,297c0,3.6,0.2,7,0.6,8.9h-12l-0.7-3.2h-0.3c-2.5,2.9-6.1,4-10,4c-7.4,0-12-5.4-12-11.4
				c0-9.7,8.8-14.1,21.1-14.1v-0.3c0-1.5-1.1-3.1-6-3.1c-3.8,0-7.8,1.3-10.3,2.7l-2.3-8.3c2.3-1.3,7.5-3.3,15-3.3
				c12.5,0,16.8,6.9,16.8,16L492.5,297L492.5,297z M479.5,289.2c-5.5,0-8.5,1.5-8.5,4.7c0,2.3,1.5,3.5,3.8,3.5
				c1.9,0,3.9-1.3,4.6-3.3c0.1-0.6,0.1-1.3,0.1-1.9V289.2z"/>
		</g>
		<g>
			<defs>
				<rect id="SVGID_39_" width="644.7" height="338.7"/>
			</defs>
			<clipPath id="SVGID_40_">
				<use xlink:href="#SVGID_39_"  style="overflow:visible;"/>
			</clipPath>
			<path class="st19" d="M514.5,259.2v10.3h7.5v9.7h-7.5v10.4c0,4.3,1,6,4.2,6c1.5,0,2.1,0,3.2-0.3v10.1c-1.5,0.6-4.5,1-7.9,1
				c-3.9,0-7.2-1.4-9.1-3.3c-2.2-2.2-3.4-5.8-3.4-11.3v-12.7H497v-9.7h4.5v-6.8L514.5,259.2z"/>
		</g>
		<g>
			<defs>
				<rect id="SVGID_41_" width="644.7" height="338.7"/>
			</defs>
			<clipPath id="SVGID_42_">
				<use xlink:href="#SVGID_41_"  style="overflow:visible;"/>
			</clipPath>
			<path class="st20" d="M534.4,265.8c-4.1,0-6.7-2.8-6.7-6.3c0-3.7,2.7-6.3,6.8-6.3s6.7,2.7,6.8,6.3
				C541.3,263,538.7,265.8,534.4,265.8L534.4,265.8z M528.2,269.5h13.4v36.3h-13.4V269.5z"/>
		</g>
		<g>
			<defs>
				<rect id="SVGID_43_" width="644.7" height="338.7"/>
			</defs>
			<clipPath id="SVGID_44_">
				<use xlink:href="#SVGID_43_"  style="overflow:visible;"/>
			</clipPath>
			<path class="st21" d="M560.7,269.5l3.9,15.4c0.7,2.9,1.3,5.7,1.7,8.6h0.2c0.4-2.9,0.9-5.5,1.6-8.6l3.6-15.4h13.9l-13.2,36.3H559
				l-12.9-36.3H560.7z"/>
		</g>
		<g>
			<defs>
				<rect id="SVGID_45_" width="644.7" height="338.7"/>
			</defs>
			<clipPath id="SVGID_46_">
				<use xlink:href="#SVGID_45_"  style="overflow:visible;"/>
			</clipPath>
			<path class="st22" d="M599.4,292.3c0.4,2.9,4.6,4.5,9.4,4.5c3.4,0,6.6-0.4,9.9-1.4l1.7,8.8c-4.4,1.7-9.1,2.3-13.6,2.3
				c-12.8,0-20-7-20-18.5c0-8.4,5.5-19.3,18.8-19.3c11.7,0,16.7,8.6,16.7,18.6c0,2.1-0.3,4.1-0.5,5H599.4z M610.1,283.3
				c0-2.1-1-5.9-5.2-5.9c-3.9,0-5.5,3.6-5.7,5.9H610.1z"/>
		</g>
	</g>
	<g>
		<g>
			<defs>
				<path id="SVGID_47_" d="M26,80.3l145.8,43.3L53.4,46.9C42.9,56.8,33.7,68,26,80.3"/>
			</defs>
			<clipPath id="SVGID_48_">
				<use xlink:href="#SVGID_47_"  style="overflow:visible;"/>
			</clipPath>
			
				<linearGradient id="SVGID_49_" gradientUnits="userSpaceOnUse" x1="-644.87" y1="148.9856" x2="-640.4709" y2="148.9856" gradientTransform="matrix(-0.4934 -81.9013 81.9013 -0.4934 -12419.5029 -52351.1094)">
				<stop  offset="0" style="stop-color:#FFFFFF"/>
				<stop  offset="0.1758" style="stop-color:#FFFFFF"/>
				<stop  offset="0.2823" style="stop-color:#F0F9FE"/>
				<stop  offset="0.4703" style="stop-color:#D2EEFC"/>
				<stop  offset="0.7175" style="stop-color:#9DDCF9"/>
				<stop  offset="0.9939" style="stop-color:#49C8F5"/>
				<stop  offset="1" style="stop-color:#49C8F5"/>
			</linearGradient>
			<polygon class="st23" points="26,124.5 25.6,46.9 171.9,46 172.3,123.6 			"/>
		</g>
	</g>
	<g>
		<g>
			<defs>
				<path id="SVGID_50_" d="M4.3,208.8c2.8,12.2,6.8,23.9,12,34.9L148.4,196L4.3,208.8z"/>
			</defs>
			<clipPath id="SVGID_51_">
				<use xlink:href="#SVGID_50_"  style="overflow:visible;"/>
			</clipPath>
			
				<linearGradient id="SVGID_52_" gradientUnits="userSpaceOnUse" x1="-644.8694" y1="148.7639" x2="-640.4677" y2="148.7639" gradientTransform="matrix(-0.4934 -81.9013 81.9013 -0.4934 -12424.7529 -52351.1094)">
				<stop  offset="0" style="stop-color:#FFFFFF"/>
				<stop  offset="0.1758" style="stop-color:#FFFFFF"/>
				<stop  offset="0.2823" style="stop-color:#F0F9FE"/>
				<stop  offset="0.4703" style="stop-color:#D2EEFC"/>
				<stop  offset="0.7175" style="stop-color:#9DDCF9"/>
				<stop  offset="0.9939" style="stop-color:#49C8F5"/>
				<stop  offset="1" style="stop-color:#49C8F5"/>
			</linearGradient>
			<polygon class="st24" points="4.3,244.6 4,196 148.4,195.1 148.6,243.7 			"/>
		</g>
	</g>
	<g>
		<g>
			<defs>
				<path id="SVGID_53_" d="M0.1,166c0,1.6-0.1,3.3-0.1,4.9c0,11.5,1.2,22.8,3.3,33.7l145-28.2L0.1,166L0.1,166z"/>
			</defs>
			<clipPath id="SVGID_54_">
				<use xlink:href="#SVGID_53_"  style="overflow:visible;"/>
			</clipPath>
			
				<linearGradient id="SVGID_55_" gradientUnits="userSpaceOnUse" x1="-644.874" y1="148.7444" x2="-640.4858" y2="148.7444" gradientTransform="matrix(-0.4933 -81.8968 81.8968 -0.4933 -12424.3721 -52349.207)">
				<stop  offset="0" style="stop-color:#FFFFFF"/>
				<stop  offset="0.1758" style="stop-color:#FFFFFF"/>
				<stop  offset="0.2823" style="stop-color:#F0F9FE"/>
				<stop  offset="0.4703" style="stop-color:#D2EEFC"/>
				<stop  offset="0.7175" style="stop-color:#9DDCF9"/>
				<stop  offset="0.9939" style="stop-color:#49C8F5"/>
				<stop  offset="1" style="stop-color:#49C8F5"/>
			</linearGradient>
			<polygon class="st25" points="0,205.5 -0.2,166 148.4,165.1 148.6,204.6 			"/>
		</g>
	</g>
	<g>
		<g>
			<defs>
				<path id="SVGID_56_" d="M54.8,45.6l131.6,64.9L90.8,19.9C77.7,26.9,65.6,35.6,54.8,45.6"/>
			</defs>
			<clipPath id="SVGID_57_">
				<use xlink:href="#SVGID_56_"  style="overflow:visible;"/>
			</clipPath>
			
				<linearGradient id="SVGID_58_" gradientUnits="userSpaceOnUse" x1="-644.8732" y1="149.1911" x2="-640.4725" y2="149.1911" gradientTransform="matrix(-0.4934 -81.9013 81.9013 -0.4934 -12414.5654 -52351.1094)">
				<stop  offset="0" style="stop-color:#FFFFFF"/>
				<stop  offset="0.1758" style="stop-color:#FFFFFF"/>
				<stop  offset="0.2823" style="stop-color:#F0F9FE"/>
				<stop  offset="0.4703" style="stop-color:#D2EEFC"/>
				<stop  offset="0.7175" style="stop-color:#9DDCF9"/>
				<stop  offset="0.9939" style="stop-color:#49C8F5"/>
				<stop  offset="1" style="stop-color:#49C8F5"/>
			</linearGradient>
			<polygon class="st26" points="54.8,111.3 54.2,19.9 186.4,19.1 187,110.5 			"/>
		</g>
	</g>
	<g>
		<g>
			<defs>
				<path id="SVGID_59_" d="M7.6,120.3l152.8,19.1L24.9,82.1C17.6,94,11.8,106.8,7.6,120.3"/>
			</defs>
			<clipPath id="SVGID_60_">
				<use xlink:href="#SVGID_59_"  style="overflow:visible;"/>
			</clipPath>
			
				<linearGradient id="SVGID_61_" gradientUnits="userSpaceOnUse" x1="-644.8617" y1="148.8403" x2="-640.4636" y2="148.8403" gradientTransform="matrix(-0.4934 -81.8983 81.8983 -0.4934 -12422.2568 -52348.6133)">
				<stop  offset="0" style="stop-color:#FFFFFF"/>
				<stop  offset="0.1758" style="stop-color:#FFFFFF"/>
				<stop  offset="0.2823" style="stop-color:#F0F9FE"/>
				<stop  offset="0.4703" style="stop-color:#D2EEFC"/>
				<stop  offset="0.7175" style="stop-color:#9DDCF9"/>
				<stop  offset="0.9939" style="stop-color:#49C8F5"/>
				<stop  offset="1" style="stop-color:#49C8F5"/>
			</linearGradient>
			<polygon class="st27" points="7.6,140.3 7.3,82.1 160.4,81.2 160.7,139.4 			"/>
		</g>
	</g>
	<g>
		<g>
			<defs>
				<path id="SVGID_62_" d="M137.2,3.3L222,94.7L181.5,0.4C178,0.2,174.5,0,171,0C159.4,0,148.1,1.2,137.2,3.3"/>
			</defs>
			<clipPath id="SVGID_63_">
				<use xlink:href="#SVGID_62_"  style="overflow:visible;"/>
			</clipPath>
			
				<linearGradient id="SVGID_64_" gradientUnits="userSpaceOnUse" x1="-644.8706" y1="149.7481" x2="-640.4718" y2="149.7481" gradientTransform="matrix(-0.4934 -81.9013 81.9013 -0.4934 -12401.0654 -52351.2344)">
				<stop  offset="0" style="stop-color:#FFFFFF"/>
				<stop  offset="0.1758" style="stop-color:#FFFFFF"/>
				<stop  offset="0.2823" style="stop-color:#F0F9FE"/>
				<stop  offset="0.4703" style="stop-color:#D2EEFC"/>
				<stop  offset="0.7175" style="stop-color:#9DDCF9"/>
				<stop  offset="0.9939" style="stop-color:#49C8F5"/>
				<stop  offset="1" style="stop-color:#49C8F5"/>
			</linearGradient>
			<polygon class="st28" points="137.2,95.2 136.7,0 222,-0.5 222.6,94.7 			"/>
		</g>
	</g>
	<g>
		<g>
			<defs>
				<path id="SVGID_65_" d="M92.6,19l110.8,81.7L134.7,3.9C119.9,7.1,105.7,12.2,92.6,19"/>
			</defs>
			<clipPath id="SVGID_66_">
				<use xlink:href="#SVGID_65_"  style="overflow:visible;"/>
			</clipPath>
			
				<linearGradient id="SVGID_67_" gradientUnits="userSpaceOnUse" x1="-644.8708" y1="149.4503" x2="-640.4707" y2="149.4503" gradientTransform="matrix(-0.4934 -81.9013 81.9013 -0.4934 -12408.3154 -52351.1719)">
				<stop  offset="0" style="stop-color:#FFFFFF"/>
				<stop  offset="0.1758" style="stop-color:#FFFFFF"/>
				<stop  offset="0.2823" style="stop-color:#F0F9FE"/>
				<stop  offset="0.4703" style="stop-color:#D2EEFC"/>
				<stop  offset="0.7175" style="stop-color:#9DDCF9"/>
				<stop  offset="0.9939" style="stop-color:#49C8F5"/>
				<stop  offset="1" style="stop-color:#49C8F5"/>
			</linearGradient>
			<polygon class="st29" points="92.6,101.4 92,3.9 203.4,3.2 204,100.7 			"/>
		</g>
	</g>
	<g>
		<g>
			<defs>
				<path id="SVGID_68_" d="M0.2,162.6L0.2,162.6l152.2-5.3L6.9,122.8C3.2,135.5,0.9,148.9,0.2,162.6"/>
			</defs>
			<clipPath id="SVGID_69_">
				<use xlink:href="#SVGID_68_"  style="overflow:visible;"/>
			</clipPath>
			
				<linearGradient id="SVGID_70_" gradientUnits="userSpaceOnUse" x1="-644.8608" y1="148.7634" x2="-640.4712" y2="148.7634" gradientTransform="matrix(-0.4934 -81.9056 81.9056 -0.4934 -12424.9092 -52353.6797)">
				<stop  offset="0" style="stop-color:#FFFFFF"/>
				<stop  offset="0.1758" style="stop-color:#FFFFFF"/>
				<stop  offset="0.2823" style="stop-color:#F0F9FE"/>
				<stop  offset="0.4703" style="stop-color:#D2EEFC"/>
				<stop  offset="0.7175" style="stop-color:#9DDCF9"/>
				<stop  offset="0.9939" style="stop-color:#49C8F5"/>
				<stop  offset="1" style="stop-color:#49C8F5"/>
			</linearGradient>
			<polygon class="st30" points="0.2,163.6 0,122.8 152.4,121.9 152.7,162.7 			"/>
		</g>
	</g>
	<g>
		<g>
			<defs>
				<path id="SVGID_71_" d="M161.4,145.5c-9.3,25.8-10.4,88.6,68.8,102.6c-9.7-9.9-13.3-22.5-12.4-29.5
					c3.8-29.1,31.3-39.2,37.9-100.4c37.3,31.8,50.4,70.2,49.9,96.6c-0.1,6.2-3,14.6-5.8,20.6c48.6-31.7,39.7-105.1,30.3-126.8
					C299,36.1,239.8,4.3,178.3,0.3C247.4,48.9,179.9,94.2,161.4,145.5"/>
			</defs>
			<clipPath id="SVGID_72_">
				<use xlink:href="#SVGID_71_"  style="overflow:visible;"/>
			</clipPath>
			
				<radialGradient id="SVGID_73_" cx="-649.9532" cy="158.0019" r="4.3965" gradientTransform="matrix(1.5723 -46.3871 46.3871 1.5723 -6069.5928 -30154.4063)" gradientUnits="userSpaceOnUse">
				<stop  offset="0" style="stop-color:#97DAF8"/>
				<stop  offset="0.103" style="stop-color:#97DAF8"/>
				<stop  offset="0.497" style="stop-color:#00BDF2"/>
				<stop  offset="0.8061" style="stop-color:#006AB6"/>
				<stop  offset="1" style="stop-color:#006AB6"/>
			</radialGradient>
			<polygon class="st31" points="142.6,247.9 151.3,-6.4 356.9,0.6 348.3,254.8 			"/>
		</g>
	</g>
	<g>
		<g>
			<defs>
				<path id="SVGID_74_" d="M191.7,191.8c-1.1,11.6,10.8,43.1,39.8,57.6c-11-9.9-10.2-25.3-9.3-32.6c3.8-29.1,28.8-32.8,35.4-93.9
					c34.2,31.9,47,67.6,46.5,93.9c-0.1,6.8-1.5,13.9-5,20.3c20.1-23.4,24.9-62,20.3-80.9c-12.1-50.1-42-74.5-77.2-101.4
					C248.8,99.9,195,155.3,191.7,191.8"/>
			</defs>
			<clipPath id="SVGID_75_">
				<use xlink:href="#SVGID_74_"  style="overflow:visible;"/>
			</clipPath>
			
				<linearGradient id="SVGID_76_" gradientUnits="userSpaceOnUse" x1="-658.9921" y1="166.3843" x2="-654.593" y2="166.3843" gradientTransform="matrix(0 -30.6982 30.6982 0 -4850.3979 -19982.5098)">
				<stop  offset="0" style="stop-color:#FFFFFF"/>
				<stop  offset="1.265216e-02" style="stop-color:#FFFBF7"/>
				<stop  offset="0.1604" style="stop-color:#FFE6C4"/>
				<stop  offset="0.309" style="stop-color:#FFD59C"/>
				<stop  offset="0.4555" style="stop-color:#FEC77D"/>
				<stop  offset="0.5992" style="stop-color:#FDBD64"/>
				<stop  offset="0.7395" style="stop-color:#FCB650"/>
				<stop  offset="0.875" style="stop-color:#FCB144"/>
				<stop  offset="1" style="stop-color:#FBB040"/>
			</linearGradient>
			<rect x="190.7" y="54.8" class="st32" width="133.2" height="194.6"/>
		</g>
	</g>
</g>
</svg>
