<?xml version="1.0" encoding="utf-8"?>
<!-- Generator: Adobe Illustrator 24.2.1, SVG Export Plug-In . SVG Version: 6.00 Build 0)  -->
<svg version="1.1" id="Layer_1" xmlns="http://www.w3.org/2000/svg" xmlns:xlink="http://www.w3.org/1999/xlink" x="0px" y="0px"
	 viewBox="0 0 922.8 581.7" style="enable-background:new 0 0 922.8 581.7;" xml:space="preserve">
<style type="text/css">
	.st0{clip-path:url(#SVGID_2_);}
	.st1{fill:#231F20;}
	.st2{clip-path:url(#SVGID_4_);}
	.st3{fill:url(#SVGID_5_);}
	.st4{clip-path:url(#SVGID_7_);}
	.st5{fill:url(#SVGID_8_);}
	.st6{clip-path:url(#SVGID_10_);}
	.st7{fill:url(#SVGID_11_);}
	.st8{clip-path:url(#SVGID_13_);}
	.st9{fill:url(#SVGID_14_);}
	.st10{clip-path:url(#SVGID_16_);}
	.st11{fill:url(#SVGID_17_);}
	.st12{clip-path:url(#SVGID_19_);}
	.st13{fill:url(#SVGID_20_);}
	.st14{clip-path:url(#SVGID_22_);}
	.st15{fill:url(#SVGID_23_);}
	.st16{clip-path:url(#SVGID_25_);}
	.st17{fill:url(#SVGID_26_);}
	.st18{clip-path:url(#SVGID_28_);}
	.st19{fill:url(#SVGID_29_);}
	.st20{clip-path:url(#SVGID_31_);}
	.st21{fill:url(#SVGID_32_);}
	.st22{fill:none;stroke:#7BBCE7;stroke-width:3;stroke-miterlimit:10;}
</style>
<g>
	<defs>
		<rect id="SVGID_1_" x="0.3" y="9.4" width="947" height="497.5"/>
	</defs>
	<clipPath id="SVGID_2_">
		<use xlink:href="#SVGID_1_"  style="overflow:visible;"/>
	</clipPath>
	<g class="st0">
		<path class="st1" d="M584.7,346c-8.2,2.6-16.7,4-25.3,4.1c-14.3,0-24.1-3.6-30.7-9.9c-6.8-6.5-10.4-15.9-10.4-26.3
			c0.1-25.5,19.1-38.4,42.7-38.4c9.9,0,17.3,1.7,21.1,3.6l-3.9,15.7c-4.1-1.8-9.1-3.1-17.3-3.1c-12,0-22,6.3-22,21.1
			c0,13.7,8.8,21.6,20.7,21.6c2.1,0.1,4.2-0.1,6.2-0.7v-12.6h-9.8V306h28.6L584.7,346z"/>
		<rect x="596.6" y="272.3" class="st1" width="19.6" height="77.1"/>
		<path class="st1" d="M654,350.5c-15.9,0-28.3-10.1-28.3-27.4c0-17,11.2-28.3,29.4-28.3c16.7,0,27.8,11.3,27.8,27.3
			c0,19.4-13.9,28.4-28.7,28.4L654,350.5z M654.5,336.8c5.3,0,8.1-5.5,8.1-14.1c0-7.3-2.4-14.1-8.1-14.1c-6.5,0-8.7,7-8.7,14.1
			C645.9,330.7,648.5,336.8,654.5,336.8L654.5,336.8z"/>
		<path class="st1" d="M692.2,272.3h19.6v29.2h0.2c3-4,8.3-6.6,15.2-6.6c12.6,0,21.9,10.4,21.8,26.8c0,19.3-12.1,28.9-24.5,28.9
			c-5.6,0-11.6-2.1-15.2-8h-0.2l-0.8,6.8h-16.6c0.2-3.5,0.4-10.3,0.4-16.8L692.2,272.3z M711.8,326.2c0,0.9,0.1,1.8,0.2,2.7
			c0.7,3.7,4,6.3,7.7,6.4c5.7,0,9.4-4.4,9.4-12.8c0-7.3-2.9-12.7-9.4-12.7c-3.8,0-7.1,2.8-7.7,6.6c-0.1,0.9-0.2,1.7-0.2,2.6V326.2z"
			/>
		<path class="st1" d="M805.7,336.3c-0.1,4.4,0.2,8.7,0.9,13H789l-1-4.7h-0.4c-3.7,4.2-9,5.9-14.7,5.9c-10.9,0-17.6-7.9-17.6-16.8
			c0-14.3,12.9-20.7,31-20.7v-0.4c0-2.2-1.6-4.5-8.8-4.5c-5.3,0.1-10.5,1.4-15.2,3.9l-3.3-12.2c6.8-3.4,14.4-5.1,22-4.9
			c18.3,0,24.7,10.2,24.7,23.5L805.7,336.3z M786.7,324.9c-8,0-12.5,2.2-12.5,6.9c0,3.4,2.2,5.1,5.5,5.1c3-0.1,5.7-2,6.7-4.9
			c0.2-0.9,0.3-1.9,0.2-2.8V324.9z"/>
		<rect x="817.6" y="272.3" class="st1" width="19.6" height="77.1"/>
		<path class="st1" d="M84.1,432.4c-0.3-8.2-0.4-18-0.4-29.4h-0.3c-2.3,9.7-5.3,20.6-7.7,28.6l-7.3,25.5H53.2l-6.1-25.5
			c-1.9-7.8-4.1-18.7-5.9-28.6H41c-0.4,10.3-0.8,21.1-1.1,29.4l-1.2,26.2h-18l4.6-73.1h26.3l4.8,19.7c2.1,8,4.2,17.8,5.7,26.7h0.3
			c2.1-8.9,4.4-19.2,6.6-26.9l5.5-19.5h25.6l3.7,73H85L84.1,432.4z"/>
		<path class="st1" d="M129,438.8c0.6,4.2,6.8,6.6,13.8,6.6c4.9,0.1,9.8-0.7,14.5-2.1l2.5,13c-6.4,2.4-13.1,3.5-20,3.4
			c-18.8,0-29.4-10.3-29.4-27.2c0-12.3,8-28.4,27.6-28.4c17.2,0,24.6,12.7,24.6,27.3c0,2.5-0.2,4.9-0.8,7.3L129,438.8z M144.7,425.6
			c0-3-1.5-8.7-7.6-8.7c-5.7,0-8,5.3-8.3,8.7H144.7z"/>
		<path class="st1" d="M193,390.1v15.2H204v14.3H193v15.3c0,6.3,1.5,8.8,6.2,8.8c1.6,0.1,3.1,0,4.7-0.4v14.8
			c-3.8,1.1-7.7,1.6-11.6,1.5c-4.9,0.2-9.7-1.6-13.4-4.9c-3.3-3.3-5-8.5-5-16.6v-18.5h-6.6v-14.3h6.6v-10L193,390.1z"/>
		<path class="st1" d="M213,381.6h19.6V411h0.2c3.5-4.3,8.8-6.8,14.4-6.8c12,0,18.7,8.6,18.7,23.6v30.8h-19.6v-28.7
			c0-6.3-2.1-10.1-6.9-10.1c-2.8-0.1-5.4,1.6-6.4,4.2c-0.3,1-0.5,2.1-0.4,3.1v31.4H213V381.6z"/>
		<path class="st1" d="M325.4,445.6c-0.1,4.4,0.2,8.7,0.9,13h-17.6l-1-4.7h-0.4c-3.7,4.2-9,5.9-14.7,5.9c-10.9,0-17.6-7.9-17.6-16.8
			c0-14.3,12.9-20.7,31-20.7v-0.4c0-2.2-1.6-4.5-8.8-4.5c-5.2,0.1-10.4,1.5-15,3.9l-3.5-12.4c6.8-3.4,14.4-5,22-4.9
			c18.3,0,24.7,10.2,24.7,23.5L325.4,445.6z M306.4,434.3c-8,0-12.5,2.2-12.5,6.9c0,3.4,2.2,5.1,5.5,5.1c3-0.1,5.7-2,6.7-4.9
			c0.2-0.9,0.3-1.9,0.2-2.8L306.4,434.3z"/>
		<path class="st1" d="M337.3,423.5c0-7.1-0.2-13.2-0.4-18.2h16.9l0.9,6.8h0.3c3.7-5.1,9.7-8.1,16-8c12.5,0,19.3,8.5,19.3,23.1v31.4
			h-19.6v-29.1c0-6.2-2.1-9.8-6.8-9.8c-2.9,0-5.5,1.9-6.4,4.7c-0.4,1.3-0.6,2.6-0.5,3.9v30.2h-19.6V423.5z"/>
		<path class="st1" d="M418.2,438.8c0.7,4.2,6.8,6.6,13.8,6.6c4.9,0.1,9.8-0.7,14.5-2.1l2.5,13c-6.4,2.3-13.1,3.5-19.9,3.4
			c-18.7,0-29.4-10.3-29.4-27.2c0-12.3,8-28.4,27.6-28.4c17.2,0,24.6,12.7,24.6,27.3c0,2.5-0.2,4.9-0.8,7.3L418.2,438.8z
			 M433.9,425.6c0-3-1.5-8.7-7.6-8.7c-5.8,0-8,5.3-8.4,8.7H433.9z"/>
		<rect x="477.5" y="385.6" class="st1" width="19.6" height="73.1"/>
		<path class="st1" d="M508.7,423.5c0-7.1-0.2-13.2-0.4-18.2h16.9l0.9,6.8h0.3c3.7-5.1,9.7-8.1,16-8c12.5,0,19.3,8.5,19.3,23.1v31.4
			h-19.6v-29.1c0-6.2-2.1-9.8-6.8-9.8c-2.9,0-5.5,1.9-6.4,4.7c-0.4,1.3-0.6,2.6-0.5,3.9v30.2h-19.6V423.5z"/>
		<path class="st1" d="M580.7,399.8c-6.1,0-9.9-4.1-9.9-9.2c0-5.4,3.9-9.3,10-9.3s9.9,3.9,10,9.3c0,5.1-3.9,9.2-10,9.2H580.7z
			 M571.5,405.3h19.6v53.3h-19.6V405.3z"/>
		<path class="st1" d="M624.5,390.1v15.2h11.1v14.3h-11.1v15.3c0,6.3,1.5,8.8,6.2,8.8c1.6,0.1,3.1,0,4.7-0.4v14.8
			c-3.8,1.1-7.7,1.6-11.6,1.5c-4.9,0.2-9.7-1.6-13.3-4.9c-3.3-3.2-4.9-8.3-4.9-16.4v-18.7h-6.6v-14.3h6.6v-10L624.5,390.1z"/>
		<path class="st1" d="M653.9,399.8c-6.1,0-9.9-4.1-9.9-9.2c0-5.4,3.9-9.3,10-9.3s9.9,3.9,10,9.3c0,5.1-3.9,9.2-10,9.2H653.9z
			 M644.6,405.3h19.6v53.3h-19.6V405.3z"/>
		<path class="st1" d="M723.7,445.6c-0.1,4.3,0.2,8.7,0.9,13h-17.7l-1-4.7h-0.4c-3.7,4.2-9,5.9-14.7,5.9c-10.9,0-17.6-7.9-17.6-16.8
			c0-14.3,12.9-20.7,31-20.7v-0.4c0-2.2-1.6-4.5-8.8-4.5c-5.2,0.1-10.4,1.5-15,3.9l-3.4-12.4c6.8-3.4,14.4-5,22-4.9
			c18.3,0,24.7,10.2,24.7,23.5L723.7,445.6z M704.7,434.3c-8,0-12.5,2.2-12.5,6.9c0,3.4,2.2,5.1,5.5,5.1c3-0.1,5.7-2,6.7-4.9
			c0.2-0.9,0.2-1.9,0.2-2.8L704.7,434.3z"/>
		<path class="st1" d="M756.1,390.1v15.2h11v14.3H756v15.3c0,6.3,1.5,8.8,6.2,8.8c1.6,0.1,3.1,0,4.6-0.4v14.8
			c-3.8,1.1-7.7,1.6-11.6,1.5c-4.9,0.2-9.7-1.6-13.3-4.9c-3.3-3.3-5-8.5-5-16.6v-18.5h-6.6v-14.3h6.6v-10L756.1,390.1z"/>
		<path class="st1" d="M785.4,399.8c-6.1,0-9.9-4.1-9.9-9.2c0-5.4,3.9-9.3,10-9.3s9.9,3.9,10,9.3c0,5.1-3.9,9.2-10,9.2H785.4z
			 M776.2,405.3h19.6v53.3h-19.6V405.3z"/>
		<path class="st1" d="M824,405.3l5.7,22.7c1.1,4.2,1.8,8.3,2.5,12.6h0.3c0.7-4.3,1.3-8.1,2.4-12.6l5.3-22.7h20.5l-19.4,53.3h-19.6
			l-19-53.3H824z"/>
		<path class="st1" d="M880.8,438.8c0.6,4.2,6.8,6.6,13.8,6.6c4.9,0.1,9.8-0.6,14.5-2.1l2.5,13c-6.4,2.3-13.1,3.5-19.9,3.4
			c-18.8,0-29.4-10.3-29.4-27.2c0-12.3,8-28.4,27.6-28.4c17.2,0,24.6,12.7,24.6,27.3c0,2.5-0.2,4.9-0.8,7.3L880.8,438.8z
			 M896.5,425.6c0-3-1.5-8.7-7.6-8.7c-5.7,0-8,5.3-8.4,8.7H896.5z"/>
	</g>
</g>
<g>
	<defs>
		<path id="SVGID_3_" d="M38.5,127.3l214.1,63.5h0L78.8,78.3C63.4,92.8,49.8,109.3,38.5,127.3"/>
	</defs>
	<clipPath id="SVGID_4_">
		<use xlink:href="#SVGID_3_"  style="overflow:visible;"/>
	</clipPath>
	<g class="st2">
		
			<linearGradient id="SVGID_5_" gradientUnits="userSpaceOnUse" x1="134.7605" y1="35.1052" x2="136.2305" y2="35.1052" gradientTransform="matrix(-2.2013 -360.3533 360.3533 -2.2013 -12205.2471 49223.3477)">
			<stop  offset="0" style="stop-color:#FFFFFF"/>
			<stop  offset="0.18" style="stop-color:#FFFFFF"/>
			<stop  offset="0.27" style="stop-color:#F4FBFD"/>
			<stop  offset="0.43" style="stop-color:#D7F0F9"/>
			<stop  offset="0.64" style="stop-color:#A9E0F6"/>
			<stop  offset="0.9" style="stop-color:#67CEF4"/>
			<stop  offset="0.99" style="stop-color:#50C8F4"/>
			<stop  offset="1" style="stop-color:#50C8F4"/>
		</linearGradient>
		<polygon class="st3" points="37.9,78.3 252.7,76.9 253.4,190.9 38.6,192.2 		"/>
	</g>
</g>
<g>
	<defs>
		<path id="SVGID_6_" d="M6.6,316.1c4,17.7,9.9,34.9,17.6,51.3l194-70.1l0,0L6.6,316.1z"/>
	</defs>
	<clipPath id="SVGID_7_">
		<use xlink:href="#SVGID_6_"  style="overflow:visible;"/>
	</clipPath>
	<g class="st4">
		
			<linearGradient id="SVGID_8_" gradientUnits="userSpaceOnUse" x1="134.7621" y1="35.0771" x2="136.2321" y2="35.0771" gradientTransform="matrix(-2.1433 -361.1736 361.1736 -2.1433 -12266.1533 49331.2461)">
			<stop  offset="0" style="stop-color:#FFFFFF"/>
			<stop  offset="0.18" style="stop-color:#FFFFFF"/>
			<stop  offset="0.27" style="stop-color:#F4FBFD"/>
			<stop  offset="0.43" style="stop-color:#D7F0F9"/>
			<stop  offset="0.64" style="stop-color:#A9E0F6"/>
			<stop  offset="0.9" style="stop-color:#67CEF4"/>
			<stop  offset="0.99" style="stop-color:#50C8F4"/>
			<stop  offset="1" style="stop-color:#50C8F4"/>
		</linearGradient>
		<polygon class="st5" points="6.2,297.3 218.3,296 218.7,367.4 6.6,368.6 		"/>
	</g>
</g>
<g>
	<defs>
		<path id="SVGID_9_" d="M0.5,253.3c0,2.4-0.2,4.8-0.2,7.2c0,16.6,1.6,33.2,4.9,49.5l213-41.4L1.1,253.3L0.5,253.3z"/>
	</defs>
	<clipPath id="SVGID_10_">
		<use xlink:href="#SVGID_9_"  style="overflow:visible;"/>
	</clipPath>
	<g class="st6">
		
			<linearGradient id="SVGID_11_" gradientUnits="userSpaceOnUse" x1="134.7589" y1="35.0703" x2="136.2289" y2="35.0703" gradientTransform="matrix(-2.1963 -359.5333 359.5333 -2.1963 -12201.8262 49111.7031)">
			<stop  offset="0" style="stop-color:#FFFFFF"/>
			<stop  offset="0.18" style="stop-color:#FFFFFF"/>
			<stop  offset="0.27" style="stop-color:#F4FBFD"/>
			<stop  offset="0.43" style="stop-color:#D7F0F9"/>
			<stop  offset="0.64" style="stop-color:#A9E0F6"/>
			<stop  offset="0.9" style="stop-color:#67CEF4"/>
			<stop  offset="0.99" style="stop-color:#50C8F4"/>
			<stop  offset="1" style="stop-color:#50C8F4"/>
		</linearGradient>
		<polygon class="st7" points="0,253.3 218.2,251.9 218.6,309.9 0.4,311.2 		"/>
	</g>
</g>
<g>
	<defs>
		<path id="SVGID_12_" d="M80.9,76.3L80.9,76.3l193.4,95.4l-140.4-133C114.6,48.9,96.8,61.5,80.9,76.3"/>
	</defs>
	<clipPath id="SVGID_13_">
		<use xlink:href="#SVGID_12_"  style="overflow:visible;"/>
	</clipPath>
	<g class="st8">
		
			<linearGradient id="SVGID_14_" gradientUnits="userSpaceOnUse" x1="134.7605" y1="35.1338" x2="136.2305" y2="35.1338" gradientTransform="matrix(-2.1384 -360.3536 360.3536 -2.1384 -12192.0625 49220.0469)">
			<stop  offset="0" style="stop-color:#FFFFFF"/>
			<stop  offset="0.18" style="stop-color:#FFFFFF"/>
			<stop  offset="0.27" style="stop-color:#F4FBFD"/>
			<stop  offset="0.43" style="stop-color:#D7F0F9"/>
			<stop  offset="0.64" style="stop-color:#A9E0F6"/>
			<stop  offset="0.9" style="stop-color:#67CEF4"/>
			<stop  offset="0.99" style="stop-color:#50C8F4"/>
			<stop  offset="1" style="stop-color:#50C8F4"/>
		</linearGradient>
		<polygon class="st9" points="80,38.7 274.2,37.5 275,171.7 80.8,172.8 		"/>
	</g>
</g>
<g>
	<defs>
		<path id="SVGID_15_" d="M11.6,186.1l224.4,28.1L36.9,130C26.1,147.6,17.6,166.4,11.6,186.1"/>
	</defs>
	<clipPath id="SVGID_16_">
		<use xlink:href="#SVGID_15_"  style="overflow:visible;"/>
	</clipPath>
	<g class="st10">
		
			<linearGradient id="SVGID_17_" gradientUnits="userSpaceOnUse" x1="134.7605" y1="35.0858" x2="136.2305" y2="35.0858" gradientTransform="matrix(-2.1384 -360.3536 360.3536 -2.1384 -12228.9326 49219.5898)">
			<stop  offset="0" style="stop-color:#FFFFFF"/>
			<stop  offset="0.18" style="stop-color:#FFFFFF"/>
			<stop  offset="0.27" style="stop-color:#F4FBFD"/>
			<stop  offset="0.43" style="stop-color:#D7F0F9"/>
			<stop  offset="0.64" style="stop-color:#A9E0F6"/>
			<stop  offset="0.9" style="stop-color:#67CEF4"/>
			<stop  offset="0.99" style="stop-color:#50C8F4"/>
			<stop  offset="1" style="stop-color:#50C8F4"/>
		</linearGradient>
		<polygon class="st11" points="11.1,130 235.9,128.7 236.4,214.2 11.6,215.5 		"/>
	</g>
</g>
<g>
	<defs>
		<path id="SVGID_18_" d="M201.9,14.3l124.5,134.1l0,0L266.9,9.9c-5.1-0.3-10.3-0.5-15.5-0.5C234.8,9.4,218.2,11,201.9,14.3"/>
	</defs>
	<clipPath id="SVGID_19_">
		<use xlink:href="#SVGID_18_"  style="overflow:visible;"/>
	</clipPath>
	<g class="st12">
		
			<linearGradient id="SVGID_20_" gradientUnits="userSpaceOnUse" x1="134.7605" y1="35.2107" x2="136.2305" y2="35.2107" gradientTransform="matrix(-2.2013 -360.3533 360.3533 -2.2013 -12124.3516 49222.7461)">
			<stop  offset="0" style="stop-color:#FFFFFF"/>
			<stop  offset="0.18" style="stop-color:#FFFFFF"/>
			<stop  offset="0.27" style="stop-color:#F4FBFD"/>
			<stop  offset="0.43" style="stop-color:#D7F0F9"/>
			<stop  offset="0.64" style="stop-color:#A9E0F6"/>
			<stop  offset="0.9" style="stop-color:#67CEF4"/>
			<stop  offset="0.99" style="stop-color:#50C8F4"/>
			<stop  offset="1" style="stop-color:#50C8F4"/>
		</linearGradient>
		<polygon class="st13" points="201.1,9.4 326.4,8.6 327.3,148.4 201.9,149.2 		"/>
	</g>
</g>
<g>
	<defs>
		<path id="SVGID_21_" d="M136.4,37.3l162.7,120l0,0L198.2,15.1C176.7,19.7,155.9,27.2,136.4,37.3"/>
	</defs>
	<clipPath id="SVGID_22_">
		<use xlink:href="#SVGID_21_"  style="overflow:visible;"/>
	</clipPath>
	<g class="st14">
		
			<linearGradient id="SVGID_23_" gradientUnits="userSpaceOnUse" x1="134.7605" y1="35.1695" x2="136.2305" y2="35.1695" gradientTransform="matrix(-2.2013 -360.3533 360.3533 -2.2013 -12156.0146 49222.793)">
			<stop  offset="0" style="stop-color:#FFFFFF"/>
			<stop  offset="0.18" style="stop-color:#FFFFFF"/>
			<stop  offset="0.27" style="stop-color:#F4FBFD"/>
			<stop  offset="0.43" style="stop-color:#D7F0F9"/>
			<stop  offset="0.64" style="stop-color:#A9E0F6"/>
			<stop  offset="0.9" style="stop-color:#67CEF4"/>
			<stop  offset="0.99" style="stop-color:#50C8F4"/>
			<stop  offset="1" style="stop-color:#50C8F4"/>
		</linearGradient>
		<polygon class="st15" points="135.5,15.1 299.1,14.1 299.9,157.3 136.4,158.3 		"/>
	</g>
</g>
<g>
	<defs>
		<path id="SVGID_24_" d="M0.7,248v0.3l223.6-7.9L10.5,189.8C4.9,208.7,1.6,228.3,0.7,248"/>
	</defs>
	<clipPath id="SVGID_25_">
		<use xlink:href="#SVGID_24_"  style="overflow:visible;"/>
	</clipPath>
	<g class="st16">
		
			<linearGradient id="SVGID_26_" gradientUnits="userSpaceOnUse" x1="134.759" y1="35.0648" x2="136.229" y2="35.0648" gradientTransform="matrix(-2.1965 -359.5733 359.5733 -2.1965 -12197.668 49118.1367)">
			<stop  offset="0" style="stop-color:#FFFFFF"/>
			<stop  offset="0.18" style="stop-color:#FFFFFF"/>
			<stop  offset="0.27" style="stop-color:#F4FBFD"/>
			<stop  offset="0.43" style="stop-color:#D7F0F9"/>
			<stop  offset="0.64" style="stop-color:#A9E0F6"/>
			<stop  offset="0.9" style="stop-color:#67CEF4"/>
			<stop  offset="0.99" style="stop-color:#50C8F4"/>
			<stop  offset="1" style="stop-color:#50C8F4"/>
		</linearGradient>
		<polygon class="st17" points="0.3,189.8 224.2,188.5 224.6,248.2 0.7,249.6 		"/>
	</g>
</g>
<g>
	<defs>
		<path id="SVGID_27_" d="M237.5,223.1c-13.6,37.8-15.3,130.1,101.1,150.8c-14.2-14.5-19.5-33-18.1-43.3
			c5.6-42.7,46-57.6,55.6-147.5c54.8,46.7,74.1,103.1,73.3,141.8c-0.2,9.1-4.4,21.5-8.5,30.2c71.4-46.5,58.3-154.4,44.5-186.3
			c-45.8-106.4-132.8-153.1-223-159C363.6,81.3,264.6,147.7,237.5,223.1"/>
	</defs>
	<clipPath id="SVGID_28_">
		<use xlink:href="#SVGID_27_"  style="overflow:visible;"/>
	</clipPath>
	<g class="st18">
		
			<radialGradient id="SVGID_29_" cx="134.9391" cy="35.5129" r="1.47" gradientTransform="matrix(6.9128 -204.083 204.083 6.9128 -7823.8237 27660.2227)" gradientUnits="userSpaceOnUse">
			<stop  offset="0" style="stop-color:#99DAF8"/>
			<stop  offset="0.1" style="stop-color:#99DAF8"/>
			<stop  offset="0.5" style="stop-color:#1FBCEE"/>
			<stop  offset="0.81" style="stop-color:#0F6BB5"/>
			<stop  offset="1" style="stop-color:#0F6BB5"/>
		</radialGradient>
		<polygon class="st19" points="209.9,373.5 222.5,0 524.5,10.2 511.9,383.7 		"/>
	</g>
</g>
<g>
	<defs>
		<path id="SVGID_30_" d="M356,89.8c9.8,66.3-69.2,147.6-74,201.2l0,0c-1.5,17,15.9,63.3,58.4,84.6c-16.2-14.5-15-37.1-13.6-47.9
			c5.6-42.7,42.3-48.1,51.9-137.9c50.3,46.8,69,99.3,68.3,137.9c0,10.4-2.5,20.6-7.3,29.8c29.6-34.3,36.5-91.1,29.8-118.9
			C451.6,165.2,407.6,129.3,356,89.8L356,89.8z"/>
	</defs>
	<clipPath id="SVGID_31_">
		<use xlink:href="#SVGID_30_"  style="overflow:visible;"/>
	</clipPath>
	<g class="st20">
		
			<linearGradient id="SVGID_32_" gradientUnits="userSpaceOnUse" x1="134.864" y1="35.8285" x2="136.334" y2="35.8285" gradientTransform="matrix(0 -135.08 135.08 0 -4461.4678 18589.8203)">
			<stop  offset="0" style="stop-color:#FFFFFF"/>
			<stop  offset="0.1" style="stop-color:#FEF0DD"/>
			<stop  offset="0.26" style="stop-color:#FEDDAC"/>
			<stop  offset="0.42" style="stop-color:#FDCE86"/>
			<stop  offset="0.57" style="stop-color:#FCC068"/>
			<stop  offset="0.72" style="stop-color:#FBB752"/>
			<stop  offset="0.87" style="stop-color:#FCB345"/>
			<stop  offset="1" style="stop-color:#FBB042"/>
		</linearGradient>
		<rect x="280.4" y="89.8" class="st21" width="195.7" height="285.8"/>
	</g>
</g>
<path class="st1" d="M30.2,506.4c4.8-0.8,9.6-1.1,14.4-1.1c7.4,0,12.8,1.7,16.3,4.8c3.2,2.8,5.1,7,5.1,12.1s-1.6,9.4-4.5,12.4
	c-4,4.2-10.4,6.4-17.7,6.4c-2,0.1-4-0.1-6-0.5v23.3h-7.5L30.2,506.4z M37.7,534.4c2,0.5,4.1,0.7,6.2,0.6c9,0,14.6-4.4,14.6-12.4
	c0-7.7-5.4-11.4-13.7-11.4c-2.4-0.1-4.7,0.1-7.1,0.6V534.4z"/>
<path class="st1" d="M74.4,535c0-4.9-0.1-9.1-0.3-13h6.6l0.3,8.2h0.3c1.9-5.6,6.5-9.1,11.5-9.1c0.7,0,1.4,0.1,2.1,0.3v7.2
	c-0.8-0.2-1.7-0.3-2.6-0.3c-5.3,0-9.1,4-10.2,9.7c-0.2,1.2-0.3,2.3-0.3,3.5v22.2h-7.5V535z"/>
<path class="st1" d="M139.4,542.5c0,15.4-10.7,22.1-20.8,22.1c-11.3,0-20-8.3-20-21.4c0-14,9.1-22.1,20.7-22.1
	C131.3,521.1,139.4,529.8,139.4,542.5z M106.3,543c0,9.1,5.3,16,12.7,16c7.2,0,12.7-6.8,12.7-16.2c0-7.1-3.5-16-12.5-16
	S106.3,535,106.3,543L106.3,543z"/>
<path class="st1" d="M138.8,575.8c3.4-0.3,6.5-1.2,8.3-3.2c2.1-2.4,2.8-5.7,2.8-15.7V522h7.6v37.8c0,8.1-1.3,13.3-5,17.1
	c-3.4,3.4-8.9,4.7-12.9,4.7L138.8,575.8z M158.3,510.3c0.1,2.5-1.8,4.5-4.2,4.7c-0.2,0-0.3,0-0.5,0c-2.5,0.1-4.6-1.9-4.6-4.4
	c0-0.1,0-0.2,0-0.3c-0.1-2.6,2-4.7,4.5-4.7c0.1,0,0.2,0,0.3,0c2.5-0.1,4.5,1.9,4.6,4.4C158.3,510.1,158.3,510.2,158.3,510.3z"/>
<path class="st1" d="M174.1,544.3c0.2,10.3,6.7,14.5,14.3,14.5c3.9,0.1,7.9-0.6,11.5-2.2l1.3,5.4c-4.4,1.8-9.1,2.7-13.9,2.6
	c-12.8,0-20.5-8.4-20.5-21s7.4-22.5,19.5-22.5c13.6,0,17.2,12,17.2,19.6c0,1.2-0.1,2.4-0.3,3.5L174.1,544.3z M196.3,538.8
	c0.1-4.8-2-12.3-10.5-12.3c-7.7,0-11,7.1-11.6,12.3H196.3z"/>
<path class="st1" d="M242.7,562.2c-3.8,1.7-7.9,2.5-12,2.4c-12.6,0-20.8-8.5-20.8-21.3s8.8-22.1,22.4-22.1c3.6,0,7.2,0.7,10.5,2.1
	l-1.7,5.9c-2.7-1.4-5.7-2.1-8.8-2c-9.6,0-14.7,7.1-14.7,15.8c0,9.6,6.2,15.6,14.5,15.6c3.2,0,6.4-0.7,9.3-2.1L242.7,562.2z"/>
<path class="st1" d="M261.8,510.1v12h10.9v5.8h-10.9v22.5c0,5.2,1.5,8.1,5.7,8.1c1.5,0,3-0.2,4.4-0.5l0.3,5.7
	c-2.2,0.7-4.4,1.1-6.7,1c-3.5,0-6.4-1.1-8.2-3.2c-2.1-2.2-2.9-5.9-2.9-10.8v-22.7h-6.5V522h6.5v-10L261.8,510.1z"/>
<path class="st1" d="M299.7,563.7v-58h8.2l18.6,29.4c3.9,6,7.3,12.3,10.4,18.8l0.2-0.1c-0.7-7.8-0.9-14.8-0.9-23.8v-24.3h7.1v58
	h-7.6l-18.4-29.4c-4-6.2-7.6-12.7-10.8-19.4l-0.3,0.1c0.4,7.3,0.6,14.3,0.6,23.9v24.8L299.7,563.7z"/>
<path class="st1" d="M360.3,544.3c0.2,10.3,6.7,14.5,14.3,14.5c4,0.1,7.9-0.6,11.5-2.2l1.3,5.4c-4.4,1.8-9.1,2.7-13.9,2.6
	c-12.8,0-20.5-8.4-20.5-21s7.4-22.5,19.5-22.5c13.6,0,17.2,12,17.2,19.6c0,1.2-0.1,2.4-0.3,3.5L360.3,544.3z M382.5,538.8
	c0.1-4.8-2-12.3-10.5-12.3c-7.7,0-11,7.1-11.6,12.3H382.5z"/>
<path class="st1" d="M408.3,510.1v12h10.8v5.8h-10.8v22.5c0,5.2,1.5,8.1,5.7,8.1c1.5,0,3-0.2,4.4-0.5l0.3,5.7
	c-2.2,0.7-4.4,1.1-6.7,1c-3.5,0-6.4-1.1-8.2-3.2c-2.2-2.2-2.9-5.9-2.9-10.8v-22.7h-6.5V522h6.5v-10L408.3,510.1z"/>
<path class="st1" d="M431.5,522l5.5,21.2c1.2,4.7,2.3,9,3.1,13.3h0.3c1-4.2,2.3-8.7,3.7-13.2l6.8-21.3h6.4l6.5,20.8
	c1.5,5,2.8,9.4,3.7,13.6h0.3c0.8-4.6,1.9-9.1,3.2-13.5l5.9-20.9h7.5l-13.4,41.7H464l-6.4-19.9c-1.5-4.5-2.7-9.1-3.7-13.7h-0.2
	c-1,4.7-2.3,9.3-3.8,13.8l-6.7,19.8h-6.9L423.8,522L431.5,522z"/>
<path class="st1" d="M528.7,542.5c0,15.4-10.7,22.1-20.8,22.1c-11.3,0-20-8.3-20-21.4c0-14,9.1-22.1,20.7-22.1
	C520.6,521.1,528.7,529.8,528.7,542.5z M495.6,543c0,9.1,5.3,16,12.7,16c7.2,0,12.7-6.8,12.7-16.2c0-7.1-3.5-16-12.5-16
	S495.6,535,495.6,543L495.6,543z"/>
<path class="st1" d="M538.3,535c0-4.9-0.1-9.1-0.3-13h6.6l0.3,8.2h0.3c1.9-5.6,6.5-9.1,11.5-9.1c0.7,0,1.5,0.1,2.2,0.2v7.2
	c-0.8-0.2-1.7-0.3-2.6-0.3c-5.3,0-9.1,4-10.2,9.7c-0.2,1.2-0.3,2.3-0.3,3.5v22.3h-7.5V535z"/>
<path class="st1" d="M574.3,541.2h0.2c1-1.5,2.5-3.3,3.7-4.7l12.2-14.4h9.1l-16.1,17.1l18.3,24.5h-9.2l-14.4-20l-3.9,4.3v15.7h-7.5
	v-61.1h7.5V541.2z"/>
<path class="st1" d="M674.6,538.2c-0.4-8.1-1-17.8-0.9-25.1h-0.3c-2,6.8-4.4,14-7.3,22l-10.3,28.2h-5.7l-9.4-27.6
	c-2.8-8.2-5.1-15.7-6.7-22.6h-0.2c-0.2,7.2-0.6,17-1.1,25.7l-1.5,24.9h-7.2l4-58h9.6l9.9,28.1c2.4,7.2,4.4,13.5,5.9,19.5h0.3
	c1.5-5.8,3.5-12.2,6.1-19.5l10.3-28.1h9.6l3.6,58H676L674.6,538.2z"/>
<path class="st1" d="M699.3,544.3c0.2,10.3,6.7,14.5,14.3,14.5c4,0.1,7.9-0.6,11.5-2.2l1.3,5.4c-4.4,1.8-9.1,2.7-13.9,2.6
	c-12.8,0-20.5-8.4-20.5-21s7.4-22.5,19.5-22.5c13.6,0,17.2,12,17.2,19.6c0,1.2-0.1,2.4-0.3,3.5L699.3,544.3z M721.6,538.8
	c0.1-4.8-2-12.3-10.5-12.3c-7.7,0-11,7.1-11.6,12.3H721.6z"/>
<path class="st1" d="M738.3,533.3c0-4.3-0.1-7.8-0.3-11.3h6.6l0.3,6.7h0.3c2.3-4,6.2-7.7,13.1-7.7c5.3-0.1,10.1,3.3,11.8,8.3h0.2
	c1.2-2.1,2.7-4,4.7-5.4c2.6-2,5.9-3.1,9.2-2.9c5.5,0,13.7,3.6,13.7,18.1v24.5h-7.4v-23.6c0-8-2.9-12.8-9-12.8c-4.3,0-7.7,3.2-9,6.9
	c-0.4,1.2-0.6,2.5-0.6,3.8v25.7h-7.4v-25c0-6.6-2.9-11.5-8.7-11.5c-4.7,0-8.2,3.8-9.4,7.6c-0.4,1.2-0.6,2.4-0.6,3.7v25.2h-7.4
	L738.3,533.3z"/>
<path class="st1" d="M809.7,563.7c0.2-2.8,0.3-7.1,0.3-10.8v-50.4h7.5v26.2h0.2c2.7-4.7,7.5-7.7,14.2-7.7c10.3,0,17.7,8.6,17.6,21.3
	c0,14.9-9.4,22.3-18.7,22.3c-6,0-10.8-2.3-14-7.8h-0.3l-0.3,6.9L809.7,563.7z M817.6,547c0,0.9,0.1,1.8,0.3,2.8
	c1.3,5.2,6,8.9,11.4,8.9c7.9,0,12.7-6.5,12.7-16c0-8.3-4.3-15.5-12.4-15.5c-5.5,0.1-10.3,3.9-11.5,9.3c-0.3,1-0.4,2.1-0.4,3.1V547z"
	/>
<path class="st1" d="M863.3,544.3c0.2,10.3,6.7,14.5,14.3,14.5c4,0.1,7.9-0.6,11.5-2.2l1.3,5.4c-4.4,1.8-9.1,2.7-13.9,2.6
	c-12.8,0-20.5-8.4-20.5-21s7.4-22.5,19.5-22.5c13.6,0,17.2,12,17.2,19.6c0,1.2-0.1,2.4-0.3,3.5L863.3,544.3z M885.5,538.8
	c0.1-4.8-2-12.3-10.5-12.3c-7.7,0-11,7.1-11.6,12.3H885.5z"/>
<path class="st1" d="M902.2,535c0-4.9-0.1-9.1-0.3-13h6.6l0.3,8.2h0.3c1.9-5.6,6.5-9.1,11.5-9.1c0.7,0,1.4,0.1,2.2,0.3v7.2
	c-0.8-0.2-1.7-0.3-2.6-0.3c-5.3,0-9.1,4-10.2,9.7c-0.2,1.2-0.3,2.3-0.3,3.5v22.2h-7.5L902.2,535z"/>
<line class="st22" x1="25.9" y1="484.9" x2="921.9" y2="484.9"/>
</svg>
