<svg id="Layer_1" data-name="Layer 1" xmlns="http://www.w3.org/2000/svg" xmlns:xlink="http://www.w3.org/1999/xlink" viewBox="0 0 922.78 581.71"><defs><clipPath id="clip-path" transform="translate(-126.14 -103.69)"><rect x="126.49" y="113.07" width="947.02" height="497.51" style="fill:none"/></clipPath><clipPath id="clip-path-2" transform="translate(-126.14 -103.69)"><path d="M164.68,231l214.14,63.54h.05L204.94,181.94A252.22,252.22,0,0,0,164.68,231" style="fill:none"/></clipPath><linearGradient id="linear-gradient" x1="213.45" y1="797.11" x2="214.92" y2="797.11" gradientTransform="matrix(0, -360.36, -360.36, 0, 287517.24, 77607.22)" gradientUnits="userSpaceOnUse"><stop offset="0" stop-color="#fff"/><stop offset="0.18" stop-color="#fff"/><stop offset="0.27" stop-color="#f4fbfd"/><stop offset="0.43" stop-color="#d7f0f9"/><stop offset="0.64" stop-color="#a9e0f6"/><stop offset="0.9" stop-color="#67cef4"/><stop offset="0.99" stop-color="#50c8f4"/><stop offset="1" stop-color="#50c8f4"/></linearGradient><clipPath id="clip-path-3" transform="translate(-126.14 -103.69)"><path d="M132.75,419.75a249.34,249.34,0,0,0,17.63,51.32L344.4,401h0Z" style="fill:none"/></clipPath><linearGradient id="linear-gradient-2" x1="213.45" y1="797.14" x2="214.92" y2="797.14" gradientTransform="matrix(0, -361.18, -361.18, 0, 288147.73, 77781.11)" xlink:href="#linear-gradient"/><clipPath id="clip-path-4" transform="translate(-126.14 -103.69)"><path d="M126.68,356.95c0,2.41-.19,4.78-.19,7.19a251.77,251.77,0,0,0,4.89,49.46l213-41.41L127.2,356.94Z" style="fill:none"/></clipPath><linearGradient id="linear-gradient-3" x1="213.45" y1="797.14" x2="214.92" y2="797.14" gradientTransform="matrix(0, -359.54, -359.54, 0, 286840.03, 77431.87)" xlink:href="#linear-gradient"/><clipPath id="clip-path-5" transform="translate(-126.14 -103.69)"><path d="M207,180h0l193.38,95.36-140.45-133A251.87,251.87,0,0,0,207,180" style="fill:none"/></clipPath><linearGradient id="linear-gradient-4" x1="213.45" y1="797.08" x2="214.92" y2="797.08" gradientTransform="matrix(0, -360.36, -360.36, 0, 287538.87, 77606)" xlink:href="#linear-gradient"/><clipPath id="clip-path-6" transform="translate(-126.14 -103.69)"><path d="M137.7,289.78l224.37,28.09L163,233.68a250,250,0,0,0-25.33,56.1" style="fill:none"/></clipPath><linearGradient id="linear-gradient-5" x1="213.45" y1="797.13" x2="214.92" y2="797.13" gradientTransform="matrix(0, -360.36, -360.36, 0, 287502.4, 77605.65)" xlink:href="#linear-gradient"/><clipPath id="clip-path-7" transform="translate(-126.14 -103.69)"><path d="M328.08,118,452.57,252.11h0L393.08,113.6c-5.13-.32-10.28-.53-15.5-.53a252,252,0,0,0-49.5,4.91" style="fill:none"/></clipPath><linearGradient id="linear-gradient-6" x1="213.45" y1="797" x2="214.92" y2="797" gradientTransform="matrix(0, -360.36, -360.36, 0, 287597.8, 77606.39)" xlink:href="#linear-gradient"/><clipPath id="clip-path-8" transform="translate(-126.14 -103.69)"><path d="M262.52,141,425.21,261h0L324.35,118.77A249.23,249.23,0,0,0,262.52,141" style="fill:none"/></clipPath><linearGradient id="linear-gradient-7" x1="213.45" y1="797.04" x2="214.92" y2="797.04" gradientTransform="matrix(0, -360.36, -360.36, 0, 287566.18, 77606.52)" xlink:href="#linear-gradient"/><clipPath id="clip-path-9" transform="translate(-126.14 -103.69)"><path d="M126.81,351.66v.27L350.39,344,136.64,293.51a250.18,250.18,0,0,0-9.83,58.14" style="fill:none"/></clipPath><linearGradient id="linear-gradient-8" x1="213.45" y1="797.14" x2="214.92" y2="797.14" gradientTransform="matrix(0, -359.58, -359.58, 0, 286877.02, 77441.42)" xlink:href="#linear-gradient"/><clipPath id="clip-path-10" transform="translate(-126.14 -103.69)"><path d="M363.6,326.81C350,364.64,348.32,456.91,464.7,477.58c-14.22-14.54-19.51-33-18.14-43.33,5.64-42.7,46-57.62,55.6-147.46,54.79,46.74,74.09,103.15,73.33,141.82-.17,9.13-4.41,21.49-8.55,30.23,71.42-46.52,58.3-154.38,44.54-186.33-45.79-106.42-132.79-153.06-223.05-159C489.78,185,390.74,251.43,363.6,326.81" style="fill:none"/></clipPath><radialGradient id="radial-gradient" cx="214.14" cy="796.91" r="1.47" gradientTransform="matrix(204.2, 0, 0, -204.2, -43409.4, 163019.85)" gradientUnits="userSpaceOnUse"><stop offset="0" stop-color="#99daf8"/><stop offset="0.1" stop-color="#99daf8"/><stop offset="0.5" stop-color="#1fbcee"/><stop offset="0.81" stop-color="#0f6bb5"/><stop offset="1" stop-color="#0f6bb5"/></radialGradient><clipPath id="clip-path-11" transform="translate(-126.14 -103.69)"><path d="M482.09,193.51c9.79,66.33-69.18,147.61-74,201.22l0,0c-1.54,17,15.92,63.29,58.4,84.58-16.16-14.53-15-37.13-13.63-47.87,5.6-42.7,42.32-48.11,51.93-137.94,50.3,46.8,69,99.27,68.25,137.94a64.47,64.47,0,0,1-7.34,29.82c29.58-34.34,36.52-91.07,29.79-118.88C577.75,268.89,533.79,233,482.11,193.51Z" style="fill:none"/></clipPath><linearGradient id="linear-gradient-9" x1="214.7" y1="796.75" x2="216.17" y2="796.75" gradientTransform="matrix(0, -135.08, -135.08, 0, 108003.09, 29374.06)" gradientUnits="userSpaceOnUse"><stop offset="0" stop-color="#fff"/><stop offset="0.1" stop-color="#fef0dd"/><stop offset="0.26" stop-color="#feddac"/><stop offset="0.42" stop-color="#fdce86"/><stop offset="0.57" stop-color="#fcc068"/><stop offset="0.72" stop-color="#fbb752"/><stop offset="0.87" stop-color="#fcb345"/><stop offset="1" stop-color="#fbb042"/></linearGradient></defs><title>gmipn</title><g style="clip-path:url(#clip-path)"><path d="M710.86,449.67a88,88,0,0,1-25.25,4.11c-14.31,0-24.06-3.57-30.67-9.86-6.83-6.51-10.4-15.94-10.4-26.34.12-25.47,19.1-38.37,42.7-38.37,9.86,0,17.33,1.73,21.12,3.58l-3.89,15.72c-4.11-1.84-9.11-3.14-17.33-3.14-12,0-22,6.27-22,21.14,0,13.66,8.81,21.56,20.7,21.56a20,20,0,0,0,6.18-.66V424.85h-9.77V409.69h28.61Z" transform="translate(-126.14 -103.69)" style="fill:#fff"/><rect x="596.64" y="272.29" width="19.61" height="77.06" style="fill:#fff"/><path d="M780.15,454.22c-15.94,0-28.29-10.08-28.29-27.42,0-17,11.16-28.29,29.38-28.29,16.7,0,27.75,11.28,27.75,27.31,0,19.4-13.87,28.39-28.72,28.39Zm.53-13.76c5.32,0,8.14-5.52,8.14-14.1,0-7.34-2.38-14.09-8.14-14.09-6.49,0-8.66,7-8.66,14.09,0,8,2.6,14.1,8.56,14.1Z" transform="translate(-126.14 -103.69)" style="fill:#fff"/><path d="M818.34,376h19.61v29.16h.22c3-4,8.34-6.62,15.17-6.62,12.58,0,21.89,10.41,21.79,26.78,0,19.29-12.13,28.94-24.49,28.94-5.64,0-11.6-2.06-15.17-8h-.22l-.76,6.83H817.85c.22-3.47.43-10.28.43-16.8Zm19.61,53.86a19.59,19.59,0,0,0,.22,2.72,8,8,0,0,0,7.7,6.4c5.74,0,9.43-4.41,9.43-12.79,0-7.25-2.94-12.68-9.43-12.68a7.88,7.88,0,0,0-7.7,6.61,21.13,21.13,0,0,0-.22,2.6Z" transform="translate(-126.14 -103.69)" style="fill:#fff"/><path d="M931.85,440a76.87,76.87,0,0,0,.88,13H915.11l-1-4.66h-.44c-3.69,4.23-9,5.88-14.69,5.88-10.94,0-17.63-7.92-17.63-16.79,0-14.31,12.9-20.71,31-20.71v-.43c0-2.17-1.63-4.55-8.81-4.55a33.79,33.79,0,0,0-15.16,3.91l-3.35-12.24a47.28,47.28,0,0,1,22-4.88c18.3,0,24.71,10.19,24.71,23.5Zm-19-11.38c-8,0-12.45,2.16-12.45,6.93,0,3.36,2.16,5.1,5.52,5.1a7.35,7.35,0,0,0,6.71-4.88,11.64,11.64,0,0,0,.22-2.82Z" transform="translate(-126.14 -103.69)" style="fill:#fff"/><rect x="817.64" y="272.29" width="19.62" height="77.06" style="fill:#fff"/><path d="M210.22,536.11c-.32-8.24-.43-18-.43-29.38h-.32c-2.28,9.65-5.32,20.56-7.7,28.61l-7.26,25.46H179.3l-6.07-25.46c-1.94-7.81-4.11-18.65-5.88-28.61h-.22c-.43,10.28-.76,21.12-1.07,29.38l-1.19,26.23h-18l4.57-73.08h26.31L182.54,509c2.06,8,4.23,17.77,5.74,26.66h.32c2.06-8.9,4.41-19.18,6.61-26.88l5.54-19.51h25.62l3.69,73h-18.9Z" transform="translate(-126.14 -103.69)" style="fill:#fff"/><path d="M255.16,542.49c.65,4.23,6.83,6.61,13.76,6.61A47.6,47.6,0,0,0,283.45,547l2.5,13A55,55,0,0,1,266,563.4c-18.76,0-29.38-10.28-29.38-27.22,0-12.34,8-28.39,27.64-28.39,17.23,0,24.59,12.68,24.59,27.32a34.85,34.85,0,0,1-.75,7.34Zm15.72-13.22c0-3-1.47-8.67-7.59-8.67-5.74,0-8,5.33-8.34,8.67Z" transform="translate(-126.14 -103.69)" style="fill:#fff"/><path d="M319.1,493.82V509h11.06V523.3H319.1v15.28c0,6.29,1.47,8.81,6.18,8.81a15.06,15.06,0,0,0,4.66-.43V561.8a36.72,36.72,0,0,1-11.59,1.47A18.94,18.94,0,0,1,305,558.4c-3.25-3.26-5-8.46-5-16.57V523.3h-6.61V509h6.61V499Z" transform="translate(-126.14 -103.69)" style="fill:#fff"/><path d="M339.16,485.26h19.61v29.38H359a18.47,18.47,0,0,1,14.41-6.82c12,0,18.74,8.56,18.74,23.62v30.85H372.54v-28.7c0-6.27-2.06-10.08-6.93-10.08a6.66,6.66,0,0,0-6.4,4.22,10.6,10.6,0,0,0-.44,3.14V562.3H339.16Z" transform="translate(-126.14 -103.69)" style="fill:#fff"/><path d="M451.55,549.33a77.34,77.34,0,0,0,.88,13H434.81l-1-4.66h-.43c-3.69,4.22-9,5.88-14.69,5.88-10.94,0-17.63-7.9-17.63-16.79,0-14.32,12.9-20.71,31-20.71v-.44c0-2.17-1.63-4.54-8.81-4.54A33.93,33.93,0,0,0,408.21,525l-3.47-12.37a47.39,47.39,0,0,1,22-4.88c18.3,0,24.71,10.18,24.71,23.5Zm-19-11.38c-8,0-12.46,2.16-12.46,6.93,0,3.36,2.17,5.1,5.52,5.1a7.34,7.34,0,0,0,6.73-4.88,11.88,11.88,0,0,0,.22-2.82Z" transform="translate(-126.14 -103.69)" style="fill:#fff"/><path d="M463.48,527.21c0-7.14-.22-13.22-.43-18.21H480l.87,6.83h.32a19.38,19.38,0,0,1,16-8c12.46,0,19.29,8.46,19.29,23.09v31.43H496.85V533.28c0-6.18-2.06-9.75-6.82-9.75a6.74,6.74,0,0,0-6.39,4.66,10.69,10.69,0,0,0-.54,3.91v30.24H463.48Z" transform="translate(-126.14 -103.69)" style="fill:#fff"/><path d="M544.33,542.49c.65,4.23,6.83,6.61,13.76,6.61A47.66,47.66,0,0,0,572.62,547l2.48,13a55,55,0,0,1-19.93,3.36c-18.74,0-29.38-10.28-29.38-27.22,0-12.34,8-28.39,27.63-28.39,17.23,0,24.59,12.68,24.59,27.32a34.94,34.94,0,0,1-.75,7.34ZM560,529.27c0-3-1.47-8.67-7.58-8.67-5.76,0-8,5.33-8.36,8.67Z" transform="translate(-126.14 -103.69)" style="fill:#fff"/><rect x="477.49" y="385.6" width="19.61" height="73.05" style="fill:#fff"/><path d="M634.83,527.21c0-7.14-.22-13.22-.43-18.21h16.89l.87,6.83h.32a19.37,19.37,0,0,1,16-8c12.45,0,19.29,8.46,19.29,23.09v31.43H668.21V533.28c0-6.18-2.06-9.75-6.83-9.75a6.74,6.74,0,0,0-6.4,4.66,10.82,10.82,0,0,0-.54,3.91v30.24H634.83Z" transform="translate(-126.14 -103.69)" style="fill:#fff"/><path d="M706.8,503.48c-6.08,0-9.86-4.11-9.86-9.21,0-5.41,3.91-9.31,10-9.31s9.86,3.91,10,9.31c0,5.1-3.89,9.21-10,9.21ZM697.59,509H717.2v53.34H697.59Z" transform="translate(-126.14 -103.69)" style="fill:#fff"/><path d="M750.69,493.82V509h11.06V523.3H750.69v15.28c0,6.29,1.47,8.81,6.18,8.81a15.06,15.06,0,0,0,4.66-.43V561.8a36.72,36.72,0,0,1-11.59,1.47,19,19,0,0,1-13.34-4.88c-3.26-3.19-4.93-8.33-4.93-16.41V523.3h-6.61V509h6.61V499Z" transform="translate(-126.14 -103.69)" style="fill:#fff"/><path d="M780,503.48c-6.07,0-9.86-4.11-9.86-9.21,0-5.41,3.91-9.31,10-9.31s9.87,3.91,10,9.31c0,5.1-3.89,9.21-10,9.21ZM770.74,509h19.61v53.34H770.74Z" transform="translate(-126.14 -103.69)" style="fill:#fff"/><path d="M849.86,549.33a79.06,79.06,0,0,0,.87,13H833l-1-4.66h-.44c-3.69,4.22-9,5.88-14.69,5.88-10.94,0-17.63-7.9-17.63-16.79,0-14.32,12.9-20.71,31-20.71v-.44c0-2.17-1.62-4.54-8.81-4.54A33.89,33.89,0,0,0,806.41,525L803,512.61a47.34,47.34,0,0,1,22-4.88c18.32,0,24.71,10.18,24.71,23.5Zm-19-11.38c-8,0-12.47,2.16-12.47,6.93,0,3.36,2.19,5.1,5.54,5.1a7.34,7.34,0,0,0,6.73-4.88,12.18,12.18,0,0,0,.21-2.82Z" transform="translate(-126.14 -103.69)" style="fill:#fff"/><path d="M882.26,493.82V509h11V523.3H882.19v15.28c0,6.29,1.47,8.81,6.18,8.81A15,15,0,0,0,893,547V561.8a36.51,36.51,0,0,1-11.59,1.47,18.94,18.94,0,0,1-13.34-4.88c-3.25-3.26-5-8.46-5-16.57V523.3h-6.6V509h6.6V499Z" transform="translate(-126.14 -103.69)" style="fill:#fff"/><path d="M911.54,503.48c-6.07,0-9.86-4.11-9.86-9.21,0-5.41,3.89-9.31,10-9.31s9.86,3.91,10,9.31c0,5.1-3.91,9.21-10,9.21ZM902.31,509h19.62v53.34H902.31Z" transform="translate(-126.14 -103.69)" style="fill:#fff"/><path d="M950.12,509l5.73,22.65c1.09,4.22,1.84,8.34,2.5,12.56h.32c.66-4.33,1.31-8.12,2.38-12.56L966.37,509h20.48l-19.39,53.32H947.85l-19-53.32Z" transform="translate(-126.14 -103.69)" style="fill:#fff"/><path d="M1006.91,542.49c.64,4.23,6.81,6.61,13.75,6.61a47.62,47.62,0,0,0,14.53-2.06l2.5,13a55,55,0,0,1-19.93,3.36c-18.76,0-29.38-10.28-29.38-27.22,0-12.34,8-28.39,27.63-28.39,17.23,0,24.59,12.68,24.59,27.32a34.65,34.65,0,0,1-.75,7.34Zm15.72-13.22c0-3-1.47-8.67-7.58-8.67-5.74,0-8,5.33-8.36,8.67Z" transform="translate(-126.14 -103.69)" style="fill:#fff"/></g><g style="clip-path:url(#clip-path-2)"><rect x="164.34" y="181.28" width="214.87" height="113.96" transform="translate(-127.59 -102.02) rotate(-0.35)" style="fill:url(#linear-gradient)"/></g><g style="clip-path:url(#clip-path-3)"><rect x="132.54" y="400.35" width="212.07" height="71.35" transform="translate(-128.72 -102.26) rotate(-0.34)" style="fill:url(#linear-gradient-2)"/></g><g style="clip-path:url(#clip-path-4)"><rect x="126.32" y="356.28" width="218.23" height="57.98" transform="translate(-128.49 -102.24) rotate(-0.35)" style="fill:url(#linear-gradient-3)"/></g><g style="clip-path:url(#clip-path-5)"><rect x="206.56" y="141.79" width="194.16" height="134.15" transform="translate(-127.37 -101.88) rotate(-0.34)" style="fill:url(#linear-gradient-4)"/></g><g style="clip-path:url(#clip-path-6)"><rect x="137.45" y="233.02" width="224.87" height="85.51" transform="translate(-127.77 -102.2) rotate(-0.34)" style="fill:url(#linear-gradient-5)"/></g><g style="clip-path:url(#clip-path-7)"><rect x="327.66" y="112.69" width="125.35" height="139.8" transform="translate(-127.25 -101.3) rotate(-0.35)" style="fill:url(#linear-gradient-6)"/></g><g style="clip-path:url(#clip-path-8)"><rect x="262.09" y="118.28" width="163.56" height="143.19" transform="translate(-127.29 -101.58) rotate(-0.35)" style="fill:url(#linear-gradient-7)"/></g><g style="clip-path:url(#clip-path-9)"><rect x="126.64" y="292.83" width="223.93" height="59.78" transform="translate(-128.11 -102.22) rotate(-0.35)" style="fill:url(#linear-gradient-8)"/></g><g style="clip-path:url(#clip-path-10)"><rect x="306.49" y="144.44" width="373.69" height="302.19" transform="translate(55.13 674.9) rotate(-88.06)" style="fill:url(#radial-gradient)"/></g><g style="clip-path:url(#clip-path-11)"><rect x="280.41" y="89.82" width="195.66" height="285.82" style="fill:url(#linear-gradient-9)"/></g><path d="M156.33,610.05a86.73,86.73,0,0,1,14.38-1.12c7.4,0,12.83,1.72,16.27,4.82,3.19,2.75,5.08,7,5.08,12.14s-1.55,9.39-4.48,12.4c-4,4.22-10.42,6.37-17.74,6.37a25.83,25.83,0,0,1-6-.52V667.4h-7.49Zm7.49,28a25.11,25.11,0,0,0,6.2.6c9,0,14.55-4.39,14.55-12.4,0-7.66-5.42-11.37-13.69-11.37a31.48,31.48,0,0,0-7.06.6Z" transform="translate(-126.14 -103.69)" style="fill:#fff"/><path d="M200.5,638.73c0-4.91-.09-9.13-.34-13h6.63l.26,8.18h.34c1.89-5.6,6.46-9.13,11.54-9.13a8.21,8.21,0,0,1,2.15.26v7.15a11.34,11.34,0,0,0-2.58-.26c-5.34,0-9.13,4-10.16,9.73a21.36,21.36,0,0,0-.34,3.53V667.4H200.5Z" transform="translate(-126.14 -103.69)" style="fill:#fff"/><path d="M265.51,646.22c0,15.41-10.68,22.13-20.75,22.13-11.28,0-20-8.27-20-21.44,0-13.95,9.13-22.13,20.67-22.13C257.41,624.78,265.51,633.47,265.51,646.22Zm-33.06.43c0,9.13,5.25,16,12.66,16,7.23,0,12.66-6.8,12.66-16.19,0-7.06-3.53-16-12.49-16S232.44,638.73,232.44,646.65Z" transform="translate(-126.14 -103.69)" style="fill:#fff"/><path d="M264.9,679.46c3.44-.26,6.46-1.21,8.27-3.19,2.07-2.41,2.84-5.68,2.84-15.67V625.73h7.58v37.8c0,8.09-1.29,13.35-5,17.13-3.36,3.36-8.87,4.74-12.92,4.74ZM284.45,614a4.45,4.45,0,0,1-4.74,4.65,4.52,4.52,0,0,1-4.65-4.65,4.64,4.64,0,0,1,4.82-4.74A4.48,4.48,0,0,1,284.45,614Z" transform="translate(-126.14 -103.69)" style="fill:#fff"/><path d="M300.2,647.94c.17,10.25,6.72,14.47,14.29,14.47A27.41,27.41,0,0,0,326,660.25l1.29,5.42a33.76,33.76,0,0,1-13.86,2.58c-12.83,0-20.49-8.44-20.49-21s7.41-22.47,19.55-22.47c13.6,0,17.22,12,17.22,19.63a28.6,28.6,0,0,1-.26,3.53Zm22.22-5.42c.09-4.82-2-12.31-10.5-12.31-7.66,0-11,7.06-11.62,12.31Z" transform="translate(-126.14 -103.69)" style="fill:#fff"/><path d="M368.83,665.85a27.91,27.91,0,0,1-12,2.41c-12.57,0-20.75-8.52-20.75-21.27s8.78-22.13,22.39-22.13A25.33,25.33,0,0,1,369,627l-1.72,5.86a17.57,17.57,0,0,0-8.78-2c-9.56,0-14.72,7.06-14.72,15.76,0,9.64,6.2,15.58,14.47,15.58a21.54,21.54,0,0,0,9.3-2.07Z" transform="translate(-126.14 -103.69)" style="fill:#fff"/><path d="M387.94,613.76v12h10.85v5.77H387.94V654c0,5.17,1.46,8.09,5.68,8.09a16.84,16.84,0,0,0,4.39-.52l.34,5.68a18.55,18.55,0,0,1-6.72,1c-3.53,0-6.37-1.12-8.18-3.19-2.15-2.24-2.93-5.94-2.93-10.85V631.49h-6.46v-5.77h6.46v-10Z" transform="translate(-126.14 -103.69)" style="fill:#fff"/><path d="M425.82,667.4v-58H434l18.6,29.36A164.32,164.32,0,0,1,463,657.58l.17-.09c-.69-7.75-.86-14.81-.86-23.85V609.37h7.06v58h-7.58L443.39,638a184.3,184.3,0,0,1-10.85-19.37l-.26.09c.43,7.32.6,14.29.6,23.94v24.8Z" transform="translate(-126.14 -103.69)" style="fill:#fff"/><path d="M486.44,647.94c.17,10.25,6.72,14.47,14.29,14.47a27.41,27.41,0,0,0,11.54-2.15l1.29,5.42a33.76,33.76,0,0,1-13.86,2.58c-12.83,0-20.49-8.44-20.49-21s7.41-22.47,19.55-22.47c13.6,0,17.22,12,17.22,19.63a28.6,28.6,0,0,1-.26,3.53Zm22.22-5.42c.09-4.82-2-12.31-10.5-12.31-7.66,0-11,7.06-11.62,12.31Z" transform="translate(-126.14 -103.69)" style="fill:#fff"/><path d="M534.48,613.76v12h10.85v5.77H534.48V654c0,5.17,1.46,8.09,5.68,8.09a16.84,16.84,0,0,0,4.39-.52l.34,5.68a18.55,18.55,0,0,1-6.72,1c-3.53,0-6.37-1.12-8.18-3.19-2.15-2.24-2.93-5.94-2.93-10.85V631.49h-6.46v-5.77h6.46v-10Z" transform="translate(-126.14 -103.69)" style="fill:#fff"/><path d="M557.64,625.73l5.51,21.18c1.21,4.65,2.32,9,3.1,13.26h.26c.95-4.22,2.32-8.7,3.7-13.17l6.8-21.27h6.37l6.46,20.84c1.55,5,2.76,9.39,3.7,13.61h.26A125.33,125.33,0,0,1,597,646.65l5.94-20.92h7.49L597,667.4H590.1l-6.37-19.89a138.81,138.81,0,0,1-3.7-13.69h-.17a123.22,123.22,0,0,1-3.79,13.78l-6.72,19.8h-6.89l-12.57-41.67Z" transform="translate(-126.14 -103.69)" style="fill:#fff"/><path d="M654.85,646.22c0,15.41-10.68,22.13-20.75,22.13-11.28,0-20-8.27-20-21.44,0-13.95,9.13-22.13,20.66-22.13C646.75,624.78,654.85,633.47,654.85,646.22Zm-33.06.43c0,9.13,5.25,16,12.66,16,7.23,0,12.66-6.8,12.66-16.19,0-7.06-3.53-16-12.48-16S621.78,638.73,621.78,646.65Z" transform="translate(-126.14 -103.69)" style="fill:#fff"/><path d="M664.4,638.73c0-4.91-.09-9.13-.34-13h6.63l.26,8.18h.34c1.89-5.6,6.46-9.13,11.54-9.13A8.23,8.23,0,0,1,685,625v7.15a11.35,11.35,0,0,0-2.58-.26c-5.34,0-9.13,4-10.16,9.73a21.36,21.36,0,0,0-.34,3.53V667.4H664.4Z" transform="translate(-126.14 -103.69)" style="fill:#fff"/><path d="M700.39,644.84h.17c1-1.46,2.5-3.27,3.7-4.74l12.23-14.38h9.13l-16.1,17.13,18.34,24.54h-9.21l-14.38-20-3.87,4.31V667.4H692.9V606.27h7.49Z" transform="translate(-126.14 -103.69)" style="fill:#fff"/><path d="M800.7,641.91c-.43-8.09-.95-17.82-.86-25.06h-.26c-2,6.8-4.39,14-7.32,22L782,667.06h-5.68l-9.38-27.64c-2.76-8.18-5.08-15.67-6.72-22.56h-.17c-.17,7.23-.6,17-1.12,25.66l-1.55,24.88h-7.15l4-58h9.56l9.9,28.07c2.41,7.15,4.39,13.52,5.86,19.55h.26c1.46-5.85,3.53-12.23,6.11-19.55l10.33-28.07h9.56l3.62,58h-7.32Z" transform="translate(-126.14 -103.69)" style="fill:#fff"/><path d="M825.49,647.94c.17,10.25,6.71,14.47,14.29,14.47a27.42,27.42,0,0,0,11.54-2.15l1.29,5.42a33.76,33.76,0,0,1-13.86,2.58c-12.83,0-20.49-8.44-20.49-21s7.4-22.47,19.54-22.47c13.61,0,17.22,12,17.22,19.63a28.63,28.63,0,0,1-.26,3.53Zm22.21-5.42c.09-4.82-2-12.31-10.51-12.31-7.66,0-11,7.06-11.62,12.31Z" transform="translate(-126.14 -103.69)" style="fill:#fff"/><path d="M864.41,637c0-4.3-.09-7.83-.34-11.28h6.63l.35,6.72h.26c2.32-4,6.2-7.66,13.09-7.66a12.32,12.32,0,0,1,11.8,8.35h.17a17.15,17.15,0,0,1,4.65-5.42,14.22,14.22,0,0,1,9.21-2.93c5.51,0,13.69,3.62,13.69,18.08V667.4h-7.4V643.81c0-8-2.93-12.83-9-12.83-4.3,0-7.66,3.19-9,6.89a12.5,12.5,0,0,0-.6,3.79V667.4h-7.4v-25c0-6.63-2.93-11.45-8.7-11.45-4.73,0-8.18,3.79-9.38,7.58a10.47,10.47,0,0,0-.6,3.7V667.4h-7.4Z" transform="translate(-126.14 -103.69)" style="fill:#fff"/><path d="M935.87,667.4c.17-2.84.35-7.06.35-10.76V606.27h7.49v26.18h.17c2.67-4.65,7.49-7.66,14.21-7.66,10.33,0,17.65,8.61,17.57,21.27,0,14.9-9.38,22.3-18.69,22.3-6,0-10.85-2.33-13.95-7.84h-.26l-.34,6.89Zm7.84-16.7a14.21,14.21,0,0,0,.34,2.75,11.69,11.69,0,0,0,11.37,8.87c7.92,0,12.66-6.46,12.66-16,0-8.35-4.3-15.5-12.4-15.5a12.08,12.08,0,0,0-11.54,9.3,15,15,0,0,0-.43,3.1Z" transform="translate(-126.14 -103.69)" style="fill:#fff"/><path d="M989.43,647.94c.17,10.25,6.71,14.47,14.29,14.47a27.42,27.42,0,0,0,11.54-2.15l1.29,5.42a33.76,33.76,0,0,1-13.86,2.58c-12.83,0-20.49-8.44-20.49-21s7.4-22.47,19.54-22.47c13.61,0,17.22,12,17.22,19.63a28.63,28.63,0,0,1-.26,3.53Zm22.21-5.42c.09-4.82-2-12.31-10.51-12.31-7.66,0-11,7.06-11.62,12.31Z" transform="translate(-126.14 -103.69)" style="fill:#fff"/><path d="M1028.34,638.73c0-4.91-.09-9.13-.34-13h6.63l.26,8.18h.34c1.89-5.6,6.46-9.13,11.54-9.13a8.23,8.23,0,0,1,2.15.26v7.15a11.35,11.35,0,0,0-2.58-.26c-5.34,0-9.13,4-10.16,9.73a21.36,21.36,0,0,0-.34,3.53V667.4h-7.49Z" transform="translate(-126.14 -103.69)" style="fill:#fff"/><line x1="25.85" y1="484.87" x2="921.87" y2="484.87" style="fill:none;stroke:#7bbce7;stroke-miterlimit:10;stroke-width:3px"/></svg>