<?xml version="1.0" encoding="utf-8"?>
<!-- Generator: Adobe Illustrator 21.0.2, SVG Export Plug-In . SVG Version: 6.00 Build 0)  -->
<svg version="1.1" id="Layer_1" xmlns="http://www.w3.org/2000/svg" xmlns:xlink="http://www.w3.org/1999/xlink" x="0px" y="0px"
	 viewBox="0 0 1224 792" style="enable-background:new 0 0 1224 792;" xml:space="preserve">
<style type="text/css">
	.st0{fill:#999999;}
	.st1{fill:#B3B4B4;}
	.st2{fill:#8E8E8E;}
	.st3{fill:#FFFFFF;}
	.st4{fill:#E4DDD7;}
	.st5{fill:#8FC640;}
	.st6{fill:#D4CBBA;}
	.st7{fill:#C8C8C8;}
	.st8{fill:#B3AEA9;}
	.st9{fill:#729C3F;}
	.st10{fill:#A7A093;}
	.st11{fill:#FEFFFF;}
	.st12{fill:#FEFFFE;}
	.st13{fill:#FDFDFC;}
	.st14{fill:#FBFCFD;}
	.st15{fill:#FAFBFB;}
	.st16{fill:#F9F9F9;}
	.st17{fill:#F8F8F8;}
	.st18{fill:#F8F8F7;}
	.st19{fill:#F7F7F6;}
	.st20{fill:#F7F6F5;}
	.st21{fill:#F6F5F4;}
	.st22{fill:#F5F4F3;}
	.st23{fill:#F4F3F3;}
	.st24{fill:#F4F3F2;}
	.st25{fill:#F3F2F1;}
	.st26{fill:#F2F1F0;}
	.st27{fill:#F2F0EF;}
	.st28{fill:#F2EFEE;}
	.st29{fill:#F0EEED;}
	.st30{fill:#EFEEEC;}
	.st31{fill:#EEEDEB;}
	.st32{fill:#EEECEB;}
	.st33{fill:#EDEBE9;}
	.st34{fill:#ECEAE9;}
	.st35{fill:#EBE9E8;}
	.st36{fill:#EBE9E7;}
	.st37{fill:#EAE8E6;}
	.st38{fill:#E9E7E5;}
	.st39{fill:#E8E6E4;}
	.st40{fill:#E8E5E3;}
	.st41{fill:#E7E5E3;}
	.st42{fill:#E6E4E2;}
	.st43{fill:#E5E3E1;}
	.st44{fill:#E5E2E0;}
	.st45{fill:#E4E1DF;}
	.st46{fill:#E3E0DE;}
	.st47{fill:#E2E0DD;}
	.st48{fill:#E2DFDC;}
	.st49{fill:#E1DEDB;}
	.st50{fill:#E0DDDB;}
	.st51{fill:#DFDCDA;}
	.st52{fill:#DFDBD9;}
	.st53{fill:#DEDBD8;}
	.st54{fill:#DDDAD7;}
	.st55{fill:#DCD9D6;}
	.st56{fill:#DCD8D5;}
	.st57{fill:#DBD8D4;}
	.st58{fill:#DAD6D3;}
	.st59{fill:#D9D6D3;}
	.st60{fill:#D9D5D2;}
	.st61{fill:#D8D4D1;}
	.st62{fill:#D7D4D0;}
	.st63{fill:#D6D3CF;}
	.st64{fill:#D6D3CE;}
	.st65{fill:#D5D2CD;}
	.st66{fill:#D4D1CC;}
	.st67{fill:#D4D0CB;}
	.st68{fill:#D4CFCB;}
	.st69{fill:#D3CECA;}
	.st70{fill:#D1CDC9;}
	.st71{fill:#D0CCC8;}
	.st72{fill:#D0CBC7;}
	.st73{fill:#CFCAC6;}
	.st74{fill:#CEC9C5;}
	.st75{fill:#CDC8C4;}
	.st76{fill:#CDC7C2;}
	.st77{fill:#CCC6C3;}
	.st78{fill:#CBC6C2;}
	.st79{fill:#CAC5C1;}
	.st80{fill:#CAC4C0;}
	.st81{fill:#C9C3BF;}
	.st82{fill:#C8C3BE;}
	.st83{fill:#C7C2BD;}
	.st84{fill:#C7C1BC;}
	.st85{fill:#C6C0BB;}
	.st86{fill:#C5BFBB;}
	.st87{fill:#C4BEBA;}
	.st88{fill:#C4BEB9;}
	.st89{fill:#C3BDB8;}
	.st90{fill:#C2BCB7;}
	.st91{fill:#E3DCD6;}
	.st92{fill:#E2DBD5;}
	.st93{fill:#E1DAD4;}
	.st94{fill:#E0D9D3;}
	.st95{fill:#DFD8D2;}
	.st96{fill:#DED7D1;}
	.st97{fill:#DDD6D0;}
	.st98{fill:#DCD5CF;}
	.st99{fill:#DCD5CE;}
	.st100{fill:#DBD4CD;}
	.st101{fill:#D9D3CC;}
	.st102{fill:#D8D2CC;}
	.st103{fill:#D8D2CB;}
	.st104{fill:#D8D1CA;}
	.st105{fill:#D6D0C9;}
	.st106{fill:#D5CFC8;}
	.st107{fill:#D4CDC7;}
	.st108{fill:#D3CCC6;}
	.st109{fill:#D2CBC5;}
	.st110{fill:#D0CAC5;}
	.st111{fill:#D0C9C4;}
	.st112{fill:#D0C9C2;}
	.st113{fill:#CFC8C1;}
	.st114{fill:#CEC7C0;}
	.st115{fill:#CDC6BF;}
	.st116{fill:#CCC5BE;}
	.st117{fill:#CBC4BE;}
	.st118{fill:#CAC3BD;}
	.st119{fill:#C9C2BD;}
	.st120{fill:#C8C1BC;}
	.st121{fill:#C8C1BB;}
	.st122{fill:#C7C0BA;}
	.st123{fill:#C6BFB9;}
	.st124{fill:#C5BEB8;}
	.st125{fill:#C4BDB7;}
	.st126{fill:#C3BCB7;}
	.st127{fill:#C2BBB6;}
	.st128{fill:#C1BAB5;}
	.st129{fill:#C0B9B4;}
	.st130{fill:#C0B9B3;}
	.st131{fill:#BFB8B2;}
	.st132{fill:#BEB7B1;}
	.st133{fill:#BDB6B0;}
	.st134{fill:#BCB5B0;}
	.st135{fill:#BBB4AF;}
	.st136{fill:#BAB3AE;}
	.st137{fill:#B9B2AD;}
	.st138{fill:#B8B1AC;}
	.st139{fill:#B8B1AB;}
	.st140{fill:#B7B0AA;}
	.st141{fill:#B6AFA9;}
	.st142{fill:#B5AEA9;}
	.st143{fill:#B4ADA8;}
	.st144{fill:#B3ADA7;}
	.st145{fill:#B2ABA6;}
	.st146{fill:#B1AAA5;}
	.st147{fill:#B0AAA4;}
	.st148{fill:#B0AAA3;}
	.st149{fill:#B0A9A2;}
	.st150{fill:#AFA7A2;}
	.st151{fill:#ADA6A1;}
	.st152{fill:#ACA59F;}
	.st153{fill:#ABA49E;}
	.st154{fill:#A9A29D;}
	.st155{fill:#A8A19C;}
	.st156{fill:#A8A19B;}
	.st157{fill:#A8A09A;}
	.st158{fill:#A7A09A;}
	.st159{fill:#A69F99;}
	.st160{fill:#A49E98;}
	.st161{fill:#A39D97;}
	.st162{fill:#A39C96;}
	.st163{fill:#A29B95;}
	.st164{fill:#A19A94;}
	.st165{fill:#9F9893;}
	.st166{fill:#9E9793;}
	.st167{fill:#9D9792;}
	.st168{fill:#9C9691;}
	.st169{fill:#9B9590;}
	.st170{fill:#DF314A;}
	.st171{fill:#A72339;}
	.st172{fill:#A82339;}
	.st173{fill:#A9233A;}
	.st174{fill:#AA243A;}
	.st175{fill:#AB243A;}
	.st176{fill:#AC243A;}
	.st177{fill:#AC253B;}
	.st178{fill:#AD253B;}
	.st179{fill:#AD263A;}
	.st180{fill:#AE263B;}
	.st181{fill:#AF273B;}
	.st182{fill:#B0273B;}
	.st183{fill:#B1283C;}
	.st184{fill:#B2283C;}
	.st185{fill:#B3283C;}
	.st186{fill:#B4283D;}
	.st187{fill:#B5283D;}
	.st188{fill:#B6293E;}
	.st189{fill:#B7293E;}
	.st190{fill:#B8293F;}
	.st191{fill:#B9293F;}
	.st192{fill:#BA283F;}
	.st193{fill:#BC293F;}
	.st194{fill:#BC2940;}
	.st195{fill:#BD2940;}
	.st196{fill:#BE2940;}
	.st197{fill:#BF2A41;}
	.st198{fill:#C02A41;}
	.st199{fill:#C12A41;}
	.st200{fill:#C12A42;}
	.st201{fill:#C22B42;}
	.st202{fill:#C32C42;}
	.st203{fill:#C42C42;}
	.st204{fill:#C52C43;}
	.st205{fill:#C62C43;}
	.st206{fill:#C72C43;}
	.st207{fill:#C82D44;}
	.st208{fill:#C92C44;}
	.st209{fill:#CA2C44;}
	.st210{fill:#CA2C45;}
	.st211{fill:#CB2D44;}
	.st212{fill:#CC2D44;}
	.st213{fill:#CD2C44;}
	.st214{fill:#CE2C45;}
	.st215{fill:#CF2C45;}
	.st216{fill:#D02D45;}
	.st217{fill:#D12D46;}
	.st218{fill:#D22D46;}
	.st219{fill:#D32D46;}
	.st220{fill:#D42D46;}
	.st221{fill:#D52F47;}
	.st222{fill:#D62F47;}
	.st223{fill:#D73047;}
	.st224{fill:#D83048;}
	.st225{fill:#D83148;}
	.st226{fill:#D93148;}
	.st227{fill:#DA3149;}
	.st228{fill:#DB3149;}
	.st229{fill:#DC3149;}
	.st230{fill:#DD3249;}
	.st231{fill:#DE324A;}
</style>
<g>
	<polygon class="st0" points="189.5,714.1 357.7,615 299.4,381.9 129.6,439.8 	"/>
	<polygon class="st0" points="767.4,622.1 855.8,553.9 769.3,348.6 	"/>
	<polygon class="st1" points="534.3,275.9 735.5,168.8 1057.1,474 767.6,625.4 499.2,531.6 189.5,714.1 97.5,313.3 327.2,185.3 	"/>
	<polygon class="st2" points="327.2,185.3 534.3,275.9 767.6,625.4 499.2,531.6 	"/>
	<g>
		<path class="st3" d="M498.9,528.3c-51.3,30.2-102.5,60.4-153.7,90.6c-51.2,30.2-102.5,60.4-153.6,90.5
			c-15.1-65.7-30.2-131.5-45.3-197.2C131.1,446.4,116,380.7,101,314.8c37.7-21,75.4-42,113.2-63s75.5-42.1,113.3-63.2
			c28.6,56.7,57.2,113.3,85.7,169.9S470.3,471.8,498.9,528.3z"/>
		<g>
			<path class="st4" d="M494.2,519c-48.1,28.3-96.1,56.6-144.1,84.8s-96,56.5-144,84.8c-15-61.7-30-123.4-44.9-185
				c-15-61.7-29.9-123.4-44.9-185.1c36-20.1,72-40.1,107.9-60.2c36-20.1,72-40.3,108-60.4c27,53.5,54,107,81,160.5
				C440.1,412,467.1,465.6,494.2,519z"/>
			<g>
				<path class="st3" d="M470.6,472.3c-14,18.3-28.2,36.8-42.6,55.3c-14.6,18.7-29.5,37.5-44.6,56.6c11.4-6.7,22.8-13.4,34.2-20.2
					c10.3-13,20.5-26,30.6-38.9c10-12.8,19.9-25.7,29.6-38.4C475.4,482,473,477.2,470.6,472.3z"/>
				<path class="st3" d="M402,336.5c-41.2,23.6-82.4,47.3-123.5,70.9s-82.3,47.2-123.5,70.8c1,4.4,2.2,8.7,3.2,13
					c41.6-23.9,83.2-47.8,124.7-71.7s83.2-47.8,124.8-71.8C405.8,344,403.9,340.2,402,336.5z"/>
				<path class="st3" d="M407.9,348.1c-13.7,3.8-27.2,7.4-40.7,11c-2,5.2-4,10.4-6,15.5c17.5-4.7,35.1-9.4,52.8-14.4
					C411.9,356.1,409.9,352.1,407.9,348.1z"/>
				<path class="st3" d="M189,618.4c38.6-35.6,76.6-70.8,113.8-105.6c36.6-34.2,72.5-68.1,107.6-101.5c-4.1-2.1-8.2-4.2-12.3-6.4
					c-33.8,32.1-68.2,64.8-103.4,97.7C259,536,222.6,569.8,185.5,604.1C186.7,608.9,187.8,613.7,189,618.4z"/>
				<path class="st3" d="M457.9,515.8c2.4-5.5,4.9-10.9,7.3-16.4c-36.6,7.6-72.8,14.9-108.3,21.5c-35,6.5-69.4,12.4-103.3,18.1
					c-2.7,5.7-5.3,11.3-8,16.9c34-5.8,68.6-11.8,103.7-18.4C384.9,530.8,421.1,523.5,457.9,515.8z"/>
				<path class="st3" d="M336,526.7c4,2.3,7.9,4.4,11.9,6.6c17.5-17.1,34.8-34.1,52-51.1c17-16.7,33.7-33.4,50.4-50.1
					c-0.5-0.9-1-1.9-1.5-3c-3.3-1.5-6.5-3.1-9.7-4.6c-16.7,16.7-33.6,33.6-50.7,50.6C371,492.2,353.6,509.4,336,526.7z"/>
				<path class="st3" d="M170,540.1c28.7-21.4,57.2-42.8,85.5-64c28.1-21,56.1-42,83.8-62.9c-2.3-3.5-4.6-7-6.8-10.6
					c-27.1,20.4-54.5,41-82,61.6C222.8,485,194.9,506,166.8,527C167.9,531.3,168.9,535.8,170,540.1z"/>
				<path class="st3" d="M330.9,479c2.4-5.4,4.8-10.8,7.2-16.3c-14.6,1.1-29.2,2.1-43.5,3c-14.2,0.9-28.4,1.6-42.4,2.2
					c-2.5,5.5-5,11-7.4,16.5c14-0.7,28.3-1.4,42.5-2.3C301.7,481.2,316.3,480.1,330.9,479z"/>
				<path class="st3" d="M355.6,244.5c-40.1,16.2-79.8,32.1-119.1,47.7c-38.9,15.5-77.6,30.5-115.7,45.3c1.1,4.3,2.1,8.6,3.2,13
					c38.6-15.1,77.6-30.4,116.9-46.1c39.7-15.9,79.9-32.1,120.4-48.5C359.4,252.1,357.5,248.3,355.6,244.5z"/>
				<path class="st3" d="M284.2,402.5c3.7,2.4,7.4,4.8,11.2,7.2c13.2-23.9,26.2-47.4,38.6-70.7c12.1-23,23.7-45.8,34.9-68.3
					c-2.5-5.1-5.1-10.1-7.6-15.2c-11.7,23.8-23.7,47.9-36.4,72.1C311.8,352.3,298.2,377.2,284.2,402.5z"/>
				<path class="st3" d="M336.5,327c2.7-5.8,5.4-11.6,8-17.4c-35.7,14.6-71.2,29-106.3,43.1c-34.8,14-69.5,27.7-103.7,41.3
					c1.1,4.5,2.1,9,3.3,13.4c32.5-12.9,65.3-26.1,98.2-39.4C269.3,354.6,302.7,340.9,336.5,327z"/>
				<path class="st3" d="M155.2,479.3c21-42.6,41.2-84.1,59.4-125.1c17.8-39.9,33.7-79.4,48.8-117.8c-5.7,3.2-11.4,6.4-17.1,9.5
					c-13.6,34.2-27.9,69.2-43.7,104.6c-16.1,36.2-33.7,72.8-52,110.2C152.2,466.9,153.7,473.1,155.2,479.3z"/>
				<path class="st3" d="M307.3,378.7c2.9-6,5.8-12,8.7-17.9c-22.9,9.2-45.7,18.4-68.4,27.4c-22.5,9-45,17.8-67.3,26.6
					c-3.2,6.2-6.4,12.4-9.7,18.6c22.5-8.9,45.1-17.9,67.8-27C261.2,397.3,284.2,388.1,307.3,378.7z"/>
				<path class="st3" d="M376.4,285.8c-14.7,8.3-29.3,16.7-43.9,25c-4.3,7.8-8.6,15.7-12.9,23.6c10.5-6,21.1-12,31.6-18
					s21.1-12,31.6-18C380.6,294.1,378.5,289.9,376.4,285.8z"/>
				<path class="st3" d="M337.9,209.4c-14,5.9-28.1,11.8-42.1,17.7c-13.9,5.8-27.8,11.6-41.6,17.2c-2.4,5.6-4.9,11.4-7.4,17
					c16-6.7,32.1-13.4,48.2-20.2s32.4-13.6,48.6-20.5C341.7,217,339.8,213.2,337.9,209.4z"/>
				<path class="st3" d="M275.8,407.4c10.6-2.3,25.5-5.4,43-7.6c17.6-2.2,38-3.5,59.4-1.9c19.8,1.3,40.5,4.8,60.8,12.2
					c5.4,10.7,10.9,21.5,16.3,32.2c-28-18.3-59.3-25.5-88.4-27.3c-19.9-1.5-38.9-0.2-55.4,1.9c-16.4,2.1-30.4,5-40.3,7.2
					C272.8,418.5,274.4,412.9,275.8,407.4z"/>
				<path class="st3" d="M441.8,420c1,0.5,2.1,1,3.1,1.4c-0.5-1-1.1-2.1-1.6-3.2C442.7,418.8,442.2,419.4,441.8,420z"/>
				<path class="st5" d="M343.4,320.7c-12.3,23.5-25.1,47.3-38.3,71.4c16.1-9.2,32.3-18.5,48.4-27.8c16.1-9.2,32.3-18.5,48.5-27.8
					c-6.5-12.8-12.9-25.6-19.4-38.4C369.5,305.7,356.5,313.2,343.4,320.7z"/>
				<path class="st5" d="M267.4,467.2c23.2-1.2,46.8-2.8,70.6-4.5c15.9-15.3,31.7-30.6,47.4-45.7c-15.5-1-30.9-2.3-46.1-3.7
					c-11.9,9-23.9,17.9-35.9,26.9C291.5,449.2,279.5,458.2,267.4,467.2z"/>
				<path class="st6" d="M360.9,256c-4.6,9.5-9.3,19-14.1,28.6c-19.7,8-39.3,15.8-58.8,23.6c3.8-9.1,7.4-18.1,11.1-27.2
					C319.6,272.7,340.2,264.4,360.9,256z"/>
				<path class="st6" d="M258.8,553.8c14.8-2.5,29.8-5.1,44.9-7.8c15.2-2.7,30.5-5.6,45.8-8.5c-10.6,13.6-21.4,27.3-32.2,41.1
					c-16.2,1.8-32.3,3.5-48.2,5c-15.8,1.5-31.4,2.9-47,4.2C234.4,576.4,246.6,565.1,258.8,553.8z"/>
				<path class="st5" d="M219,313.1c-8.2,19-16.6,38.1-25.3,57.5c-19.8,7.9-39.5,15.7-59.1,23.4c-3.5-14.5-7-29-10.5-43.5
					c15.7-6.1,31.5-12.3,47.2-18.5C187,325.7,203,319.4,219,313.1z"/>
				<path class="st3" d="M267.6,344c-7.2,2.9-14.3,5.8-21.4,8.6c-6.8,17.1-13.8,34.5-21,51.9c-7.4,17.6-15.1,35.4-23,53.2
					c7.8-3.8,15.6-7.5,23.4-11.3c7.5-17.4,14.9-34.7,21.9-51.8C254.4,377.8,261.1,360.8,267.6,344z"/>
				<path class="st6" d="M202.3,381.6c-4.6,10.1-9.3,20.1-14,30.2c13.5-5.3,27.1-10.7,40.6-16c4.1-9.9,8.1-19.8,12.1-29.7
					C228,371.3,215.1,376.4,202.3,381.6z"/>
			</g>
		</g>
	</g>
	<g>
		<path class="st7" d="M767.4,622.1c-44.8-15.7-89.6-31.3-134.3-46.9c-44.7-15.6-89.5-31.3-134.2-46.8
			c-28.7-56.5-57.5-113.1-86.2-169.5c-28.7-56.5-57.5-113.1-86.2-169.6c34.6,15,69.3,30.1,104,45.1c34.6,15,69.3,30,104,45
			c38.9,57.2,77.7,114.4,116.5,171.5C689.8,507.9,728.6,565,767.4,622.1z"/>
		<g>
			<path class="st8" d="M761,612.8c-44.6-15.6-89.1-31.3-133.5-46.9c-44.5-15.6-89-31.3-133.4-46.8
				c-27.1-53.4-54.3-106.9-81.4-160.3c-27.2-53.4-54.3-106.8-81.5-160.3c34.9,15.1,69.9,30.1,104.8,45.1
				c34.9,15,69.9,30.1,104.9,45.1c36.7,54.1,73.4,108.1,110.1,162.1C687.6,504.7,724.3,558.7,761,612.8z"/>
			<g>
				<path class="st7" d="M640.7,435.6c-25.2,6.4-51.6,12.8-79.4,18.7c-29,6.2-59.3,12.1-90.8,18.1c2.4,4.8,4.9,9.6,7.3,14.4
					c32-5.9,62.7-11.7,92.1-17.9c28.3-5.9,55.1-12.4,80.7-18.7C647.3,445.4,644,440.6,640.7,435.6z"/>
				<path class="st7" d="M635.8,428.5c-39.1-15.3-78.2-30.6-117.2-45.8c-39.1-15.3-78.1-30.6-117.1-45.9c1.9,3.8,3.8,7.5,5.7,11.3
					c39.4,15.3,78.8,30.6,118.2,45.9c39.4,15.3,78.8,30.6,118.2,45.9C641,436.2,638.4,432.3,635.8,428.5z"/>
				<path class="st7" d="M661.2,465.9c-22.6-12-44.8-29.8-54.5-44.5c-9.6-14.7-4.3-21.8,11.4-18.8
					C632.5,423.6,646.9,444.8,661.2,465.9z"/>
				<path class="st9" d="M653.1,453.9c-12.9-7.8-24.7-17.8-30.4-26.3s-3.8-13.2,3.6-13.1C635.2,427.6,644.2,440.7,653.1,453.9z"/>
				<path class="st7" d="M592.8,463.9c1.3-1.9,2.6-3.8,3.9-5.7c-32.3-18.3-64.4-36.6-96.1-55c-31.5-18.2-62.5-36.6-93.3-54.9
					c2.1,4,4.1,8.1,6.2,12.1c29.2,17.2,58.6,34.5,88.4,51.7C531.9,429.4,562.3,446.7,592.8,463.9z"/>
				<path class="st3" d="M450,432.3c0.4,0,0.8,0,1.3,0c-0.9-1-1.9-2-2.8-3C449,430.3,449.5,431.3,450,432.3z"/>
				<path class="st7" d="M594.7,367.9c-40.8-20.6-81.3-41-121.4-61.6c-39.8-20.4-79.3-40.9-118.5-61.4c1.9,3.8,3.8,7.5,5.8,11.3
					c39.5,20.5,79.3,41,119.4,61.5c40.4,20.6,81.3,41,122.4,61.6C599.8,375.5,597.2,371.6,594.7,367.9z"/>
				<path class="st7" d="M368,271.1c3.4-2.3,6.8-4.5,10.2-6.8c-3.7-4.2-7.5-8.5-11.2-12.8c-2.2,1.5-4.4,3-6.6,4.5
					C362.9,261,365.5,266,368,271.1z"/>
				<path class="st7" d="M420.5,282.8c5.2,3.5,10.5,7.1,15.9,10.6c7.3-5.3,14.4-10.6,21.2-16c6.6-5.3,12.9-10.8,18.9-16.3
					c-6.2-2.7-12.3-5.3-18.5-8c-5.7,5-11.6,10.1-17.8,14.9C433.8,272.9,427.2,277.8,420.5,282.8z"/>
				<path class="st7" d="M458,361.7c5.8,3.8,11.6,7.4,17.5,11.2C463,346,450.4,319,437.6,292c-5.6-3.8-11.1-7.4-16.6-11.2
					C433.5,307.8,445.8,334.8,458,361.7z"/>
				<path class="st7" d="M456.7,328.6c-2.9-4.4-5.7-8.7-8.5-13c-12.1-4.9-24.2-9.9-36.3-14.8c-12.1-4.9-24.2-9.8-36.2-14.7
					c2.1,4.2,4.3,8.4,6.4,12.5c12.4,5,24.9,10,37.3,15S444.3,323.6,456.7,328.6z"/>
				<path class="st7" d="M603,380.1c-27.3-11.3-54.6-22.7-81.9-34.1c-27.3-11.4-54.5-22.8-81.8-34.2c1.7,4,3.4,8,5.2,12
					c27.8,11.5,55.7,23.1,83.5,34.7c27.8,11.5,55.8,23.1,83.7,34.6C608.9,388.8,605.9,384.5,603,380.1z"/>
				<path class="st7" d="M512.8,386.5c5.6,1.6,11.2,3.2,16.9,4.8c-9.7-15.8-19.4-31.7-29-47.6c-5.2-1.2-10.3-2.3-15.5-3.5
					C494.4,355.8,503.6,371.1,512.8,386.5z"/>
				<path class="st7" d="M570.8,408.1c5.6,1.6,11.1,3.2,16.8,4.8c-10.4-15.9-20.8-31.8-31.1-47.8c-5.1-1.1-10.2-2.3-15.3-3.4
					C551,377.2,560.8,392.6,570.8,408.1z"/>
				<path class="st7" d="M449.4,275.8c1.6-1.8,3.3-3.6,4.9-5.4c-19.7-10.1-39.3-20.1-58.9-30.2c-19.5-10.1-39-20.1-58.4-30.3
					c1.9,3.8,3.8,7.5,5.8,11.3c17.6,9.1,35.3,18.2,53,27.3C413.6,257.6,431.4,266.7,449.4,275.8z"/>
				<path class="st7" d="M376.3,232.7c6,3.7,12.1,7.4,18.1,11c1.6-5.3,3.1-10.6,4.5-16c-6.2-2.7-12.4-5.4-18.7-8.1
					C379,224,377.7,228.4,376.3,232.7z"/>
				<path class="st7" d="M709.6,537.1c-28.3-12.2-56.3-24.3-84.3-36.4c-27.9-12.1-55.7-24.2-83.5-36.4c2.4,3.8,4.8,7.7,7.2,11.5
					c27.8,12.1,55.7,24.2,83.7,36.3s56.2,24.2,84.5,36.3C714.8,544.7,712.2,540.9,709.6,537.1z"/>
				<path class="st7" d="M737.9,578.6c-41.8-17.4-83.3-34.8-124.6-52.2c-41.2-17.3-82.2-34.8-123.1-52.2c2.2,3.9,4.5,7.7,6.7,11.5
					c41,17.4,82.2,34.8,123.5,52.1c41.5,17.4,83.2,34.7,125.2,52.1C743,586.2,740.4,582.4,737.9,578.6z"/>
				<path class="st7" d="M544.9,503.3c8.5,4.2,16.9,8.3,25.4,12.5c8.2-2.4,16.2-4.7,24.2-7.1c7.8-2.4,15.5-4.8,23.1-7.3
					c-8.3-4.1-16.7-8.3-25-12.4c-7.7,2.4-15.4,4.9-23.3,7.3C561.2,498.6,553.1,500.9,544.9,503.3z"/>
				<path class="st7" d="M438.8,410.3c22.6,22.6,44.9,48,64.5,76.2c-6.2-1.8-12.3-3.6-18.5-5.3c-9.4-13.6-19.3-26.5-29.7-38.7
					C449.7,431.7,444.3,421,438.8,410.3z"/>
				<path class="st7" d="M444.6,421.6c3,3.2,6,6.6,9,9.8c12.7-1.2,25.3-2.4,37.7-3.6c12.2-1.2,24.2-2.5,36.1-3.8
					c-4.1-4.3-8.3-8.6-12.5-12.9c-11.5,1.3-23.2,2.6-35.1,3.8c-12.1,1.2-24.3,2.3-36.8,3.6C443.5,419.4,444,420.5,444.6,421.6z"/>
				<path class="st7" d="M576.3,547.9c-1-10.7-2.2-21.4-3.5-32.2c-7-3.7-13.9-7.6-20.9-11.4c1.2,12.1,2.4,24.2,3.4,36.2
					C562.3,543.1,569.3,545.4,576.3,547.9z"/>
				<path class="st7" d="M674.8,485.9c-16.2-6.1-32.4-12.2-48.5-18.3c-16.2-6.1-32.3-12.2-48.5-18.4c1.7,3.9,3.4,7.7,5.2,11.6
					c16.7,6.2,33.4,12.5,50.1,18.8c16.7,6.3,33.5,12.6,50.2,18.8C680.5,494.3,677.6,490,674.8,485.9z"/>
				<path class="st9" d="M549.1,475.9c11.9,5.2,23.8,10.3,35.7,15.5c-10.4,3.2-21,6.5-31.8,9.6c-15.3-6.4-30.6-12.9-45.9-19.4
					C521.3,479.6,535.3,477.8,549.1,475.9z"/>
				<path class="st9" d="M401.5,336.8c18.3,7.1,36.6,14.3,55,21.5c-5.6-12.3-11.2-24.7-16.8-37.1c-9.6-3.8-19.2-7.6-28.8-11.4
					c-9.6-3.8-19.3-7.6-28.8-11.4C388.4,311.2,395,324,401.5,336.8z"/>
				<path class="st10" d="M503.4,348.2c7.5,12.4,15.2,25,22.8,37.4c13.4,5.2,26.8,10.5,40.2,15.7c-7.8-12.3-15.7-24.5-23.5-36.8
					C529.7,359.1,516.5,353.6,503.4,348.2z"/>
				<path class="st10" d="M441.2,289.8c6.1-4.6,12.1-9.2,17.9-13.9c11.1,5.8,22.3,11.6,33.5,17.4s22.5,11.6,33.8,17.4
					c-1.3,6.9-2.7,13.7-4.2,20.6c-13.5-6.9-27.2-13.8-40.6-20.7C468,303.7,454.6,296.7,441.2,289.8z"/>
				<path class="st10" d="M603,380.1c-25.7-10.7-51.5-21.5-77.2-32.2s-51.4-21.5-77-32.2c-2.9-6.1-5.8-12.3-8.7-18.4
					c26.7,13.7,53.5,27.3,80.5,41c27.1,13.7,54.3,27.3,81.8,41C602.6,379.6,602.8,379.9,603,380.1z"/>
			</g>
		</g>
	</g>
	<path class="st3" d="M735,172.5c52.8,50.2,105.7,100.4,158.5,150.5c52.8,50,105.7,100.2,158.5,150.3c-47.5,24.8-95,49.6-142.4,74.4
		c-47.4,24.8-94.9,49.6-142.3,74.4c-38.8-57.1-77.6-114.3-116.5-171.4c-38.8-57.1-77.6-114.3-116.5-171.5
		c33.4-17.8,66.8-35.6,100.3-53.4C668.1,208.1,701.6,190.3,735,172.5z"/>
	<path class="st4" d="M732.3,186.8c49.2,47.8,98.4,95.5,147.6,143.3c49.2,47.7,98.3,95.5,147.6,143.2
		c-44.5,23.2-88.9,46.5-133.3,69.7c-44.4,23.2-88.8,46.5-133.2,69.7c-36.6-54-73.3-108-110-162s-73.4-108-110.1-162.1
		c31.9-17,63.8-33.9,95.7-50.9C668.4,220.8,700.4,203.8,732.3,186.8z"/>
	<path class="st3" d="M623,245c6.6,30.8,12.8,61.9,17.4,93.4c4.7,31.8,7.9,64.2,10.6,96.9c6.2-1.3,12.4-2.5,18.6-3.8
		c-3.2-33.5-6.8-66.6-12-99.1c-5.2-32.3-12-64.1-19.3-95.5C633.2,239.5,628.1,242.2,623,245z"/>
	<path class="st3" d="M754.5,208.3c-15.1,36-31.2,72.9-49.8,110.2c-19.2,38.5-41.1,77.3-64,117.1c3.3,4.9,6.6,9.8,9.9,14.6
		c23.4-40.1,45.8-79.2,65.7-118c19.2-37.5,35.9-74.8,51.5-111C763.3,216.9,758.9,212.6,754.5,208.3z"/>
	<path class="st3" d="M859.6,310.4c-37.3,19.7-74.7,39.4-112,59.1s-74.6,39.3-111.9,59c2.6,3.8,5.2,7.6,7.7,11.4
		c37.7-19.9,75.5-39.7,113.3-59.6c37.7-19.9,75.5-39.8,113.3-59.7C866.6,317.2,863.1,313.8,859.6,310.4z"/>
	<path class="st3" d="M618.9,373.4c-2.5-3.8-5-7.6-7.5-11.5c-5.6,2-11.3,4-16.9,5.9c2.6,3.8,5.2,7.6,7.8,11.4
		C607.8,377.3,613.4,375.4,618.9,373.4z"/>
	<path class="st3" d="M630.7,383.4c-2.3-4.5-4.7-9.2-7.1-13.7c-6.9,3.5-13.8,7-20.7,10.4c3,4.3,5.8,8.6,8.8,12.9
		C618,389.9,624.3,386.7,630.7,383.4z"/>
	<path class="st3" d="M740.8,538.7c-2.9-3.6-5.8-7.2-8.7-10.8c-7.5,3.1-15,6.2-22.5,9.3c2.5,3.8,5.1,7.6,7.7,11.3
		C725.1,545.2,732.9,541.9,740.8,538.7z"/>
	<path class="st3" d="M772.1,578.7c-2.9-3.6-5.8-7.2-8.8-10.8c-8.5,3.6-17.1,7.2-25.5,10.8c2.6,3.8,5.1,7.5,7.7,11.3
		C754.3,586.2,763.2,582.4,772.1,578.7z"/>
	<path class="st3" d="M850.1,537.8c-3.2-3.5-6.4-6.9-9.6-10.4c-13.5,7.5-27,15-40.5,22.4c-13.6,7.5-27,15-40.5,22.4
		c3,3.6,5.8,7.2,8.7,10.8c13.7-7.6,27.3-15.1,41-22.6C822.8,553,836.4,545.4,850.1,537.8z"/>
	<path class="st3" d="M768.1,478.8c-5.3,5.6-10.7,11.3-16.1,16.9c-6.6,6.9-13.3,13.8-20,20.7l-4.4-6.2v36.1L770,608
		c6.6-3.4,13.2-6.9,19.8-10.3l-46.6-65.4c7-7.2,14.1-14.4,21-21.5c6.3-6.5,12.6-13.1,18.9-19.6c9.8,10.1,19.6,20.1,29.4,30.1
		c14,14.2,28,28.4,42.1,42.5c7.3-3.8,14.5-7.6,21.8-11.4c-14.5-14.2-29.1-28.4-43.5-42.7c-7.8-7.7-15.6-15.4-23.3-23.2
		c19,2.4,40,3.7,63.4,3.3c42.3-0.7,92.3-6.7,151.1-19.7c-4.1-4-8.2-8-12.3-12c-52.7,10.9-97.9,15.8-136.3,16.1
		c-27.7,0.2-51.9-2-73.1-5.6c2.3-20,4.4-39.7,5.8-59.4c1.5-20.5,2.2-40.9,2.7-61c-7.3,1.4-14.6,2.8-21.9,4.2
		c-0.7,20.3-1.6,40.7-3.3,61.3c-1.4,16.7-3.2,33.5-5.2,50.4c-20.9-5.4-38.4-12.2-53.1-19.3v20.1C739.4,470,752.9,474.7,768.1,478.8z
		 M727.5,510.2L687,453.4c2.1-1.8,4.2-3.9,6.3-6.1c9.6,5.9,21,12,34.3,17.6v-20.1c-8.9-4.3-16.6-8.7-23.5-13
		c5.8-11.2,7.8-23.4,1.1-32.2c-11.7-15.2-44.6-15.8-64-10.5c-26.5-37.2-53.1-74.3-79.6-111.5c-4.7,2.5-9.5,5.1-14.2,7.6
		c25.7,37.2,51.4,74.4,77,111.7c-5.8,3.4-3.1,2.8-6.2,5.6c14.3,21.1,28.7,42.2,43,63.4c4.6-1.2,2.6,0.7,9.1-2.5l12.6,18.2l-8.1,4.2
		c2.8,4.2,5.7,8.4,8.5,12.5l8.2-4.3l36.1,52.3L727.5,510.2L727.5,510.2z"/>
	<path class="st3" d="M638.6,282c3.5,3.9,7,7.8,10.6,11.6c16.9-7.6,33.9-15.3,50.8-23.1c17-7.8,34.1-15.5,51.1-23.3
		c1.2-5.4,2.5-10.7,3.7-16.1c-19.5,8.6-39,17.1-58.4,25.6C677.1,265.3,657.9,273.7,638.6,282z"/>
	<path class="st3" d="M676.7,269.8c7.5-2,14.9-4,22.4-6.1c-2.8-18.2-5.8-36.3-9.3-54.2c-6.9,3.7-13.7,7.3-20.6,11
		C671.9,236.8,674.4,253.2,676.7,269.8z"/>
	<path class="st3" d="M644.9,340.6c3.4,4,6.8,7.9,10.2,11.9c10.7-6.1,21.4-12.2,32.1-18.4c10.7-6.1,21.4-12.3,32-18.4
		c1.7-5.6,3.4-11.2,5-16.7c-13.2,6.9-26.4,13.9-39.6,20.9C671.4,326.8,658.1,333.7,644.9,340.6z"/>
	<path class="st6" d="M638.4,236.8c3.3,13.7,6.4,27.4,9.3,41.3c9.5-4.1,18.9-8.3,28.5-12.4c-2.1-15.2-4.5-30.3-7-45.2
		C658.9,225.9,648.6,231.4,638.4,236.8z"/>
	<path class="st3" d="M930.4,379.2c-23.4,3.5-46.5,6.9-69.4,10.1c-22.7,3.2-45.2,6.1-67.5,9c-0.2,4.6-0.3,9.2-0.5,13.8
		c24.2-3.2,48.8-6.5,73.5-10c25.1-3.6,50.4-7.3,75.9-11.2C938.5,386.9,934.4,383.1,930.4,379.2z"/>
	<path class="st3" d="M876.3,486.2c7-0.8,14-1.7,21-2.6c1-31.6,1.1-62.8,0.4-93.5c-6.8,0.7-13.6,1.5-20.4,2.2
		C877.8,423.2,877.4,454.5,876.3,486.2z"/>
	<path class="st3" d="M968.6,416.2c-26.6,3-53,5.8-79,8.5c-0.7,5.1-1.4,10.3-2.1,15.4c15.6-1.6,31.3-3.2,47-5
		c15.9-1.8,31.9-3.6,48-5.5C977.8,425.2,973.3,420.7,968.6,416.2z"/>
	<path class="st3" d="M936.2,482c7.3-1.2,14.5-2.6,21.8-3.9c1-19.8,1.7-39.3,2-58.7c-7.1,1.2-14.2,2.5-21.3,3.6
		C938.3,442.6,937.4,462.2,936.2,482z"/>
	<path class="st5" d="M898.5,439.1c-0.1,11.5-0.4,23.1-0.7,34.6c0,0,10.5-0.5,19.4-1.3c8.8-0.8,19.9-2,19.9-2
		c0.6-11.9,1.1-23.8,1.5-35.7C925.1,436.2,911.8,437.6,898.5,439.1z"/>
	<path class="st6" d="M610.1,376.6c-2.4,1.2-4.8,2.4-7.1,3.6c-0.2-0.3-0.4-0.6-0.6-0.9C604.9,378.4,607.5,377.5,610.1,376.6z"/>
	<g>
		<path class="st3" d="M781.6,455.4c8.7,2.3,16,5.7,21.3,9.8l-0.4,3.5c1.6,0.3,3.2,0.5,4.9,0.8c2.7,3.3,4.2,6.8,4.2,10.6
			c0,2.2-0.5,4.4-1.5,6.5h-0.4l0.3,0.3c-2.8,5.6-8.9,10.5-17.3,14.2c-3.2-3.3-6.3-6.5-9.5-9.8c-5.2,5.4-10.4,10.9-15.6,16.3
			c-4.3,0.5-8.8,0.8-13.4,0.8c-4.6,0-9.1-0.3-13.4-0.8c3.8-3.9,7.5-7.8,11.2-11.7c5.4-5.6,10.8-11.3,16.1-16.9
			c-18.9-5.1-35.2-11.2-49-17.7V458c7.3-2.7,16-4.6,25.4-5.4c10.7,4.3,22.7,8.3,36.1,11.8C780.9,461.3,781.3,458.3,781.6,455.4
			L781.6,455.4z M719.1,502.4c1.2,0.5,2.5,0.9,3.8,1.3l-3.8-5.3V502.4z M719.1,461.2c-1.3-0.6-2.5-1.2-3.8-1.8
			c1.2-0.5,2.5-1.1,3.8-1.5V461.2L719.1,461.2z M719.1,498.4v4c-13.7-5.1-22.5-13.2-22.5-22.3c0-3.1,1.1-6.2,3-9L719.1,498.4z"/>
		<path class="st3" d="M781.6,455.8c8.7,2.4,16.1,5.8,21.2,10l-0.3,2.9c1.3,0.2,2.7,0.5,4.1,0.7c2.9,3.3,4.4,7,4.4,10.8
			c0,8.1-7.1,15.5-18.5,20.6c-3.1-3.2-6.2-6.4-9.3-9.6c-5.1,5.4-10.3,10.8-15.5,16.1c-4.4,0.5-9,0.8-13.7,0.8
			c-4.5,0-8.9-0.3-13.1-0.7c3.7-3.9,7.4-7.7,11.1-11.6c5.4-5.6,10.8-11.3,16.1-16.9c-18.9-5.1-35.1-11.2-48.9-17.6v-3.2
			c7.4-2.8,16.3-4.7,25.9-5.4c10.6,4.2,22.4,8.2,35.5,11.6C780.9,461.4,781.2,458.6,781.6,455.8L781.6,455.8z M719.2,502.3
			c1.2,0.4,2.4,0.8,3.6,1.2l-3.6-5V502.3z M719.2,461.2c-1.2-0.6-2.4-1.1-3.6-1.7c1.1-0.5,2.3-1,3.6-1.5V461.2L719.2,461.2z
			 M719.2,498.5v3.8c-13.6-5.1-22.3-13.1-22.3-22.1c0-3.1,1-6.1,2.9-8.8L719.2,498.5z"/>
		<path class="st11" d="M781.5,456.1c8.8,2.4,16.1,6,21.2,10.2l-0.3,2.3c1.1,0.2,2.2,0.4,3.3,0.5c3,3.4,4.7,7.1,4.7,11
			c0,8-7,15.2-18.1,20.3c-3.1-3.1-6.1-6.3-9.1-9.4c-5.1,5.3-10.2,10.6-15.3,15.9c-4.5,0.6-9.2,0.9-14.1,0.9c-4.4,0-8.7-0.2-12.9-0.7
			c3.7-3.8,7.4-7.7,11-11.5c5.4-5.6,10.8-11.3,16.1-16.9c-18.9-5-35-11.1-48.8-17.6v-3c7.5-2.8,16.6-4.8,26.4-5.4
			c10.4,4.1,22,8,34.9,11.3C780.9,461.5,781.2,458.8,781.5,456.1L781.5,456.1z M719.3,502.2c1.1,0.4,2.2,0.8,3.4,1.2l-3.4-4.7V502.2
			z M719.3,461.3c-1.1-0.5-2.3-1.1-3.4-1.6c1.1-0.5,2.2-0.9,3.4-1.4V461.3L719.3,461.3z M719.3,498.7v3.5c-13.5-5.1-22.2-13-22.2-22
			c0-3,1-5.9,2.8-8.7L719.3,498.7z"/>
		<path class="st12" d="M781.5,456.5c8.9,2.5,16.2,6.1,21.2,10.5l-0.2,1.8c0.8,0.1,1.6,0.3,2.4,0.4c3.1,3.4,4.9,7.2,4.9,11.2
			c0,7.9-6.8,15-17.7,20c-3-3.1-6-6.1-9-9.2c-5,5.3-10.1,10.5-15.1,15.8c-4.6,0.6-9.4,0.9-14.4,0.9c-4.3,0-8.5-0.2-12.6-0.7
			c3.7-3.8,7.3-7.6,10.9-11.4c5.4-5.6,10.8-11.3,16.1-16.9c-18.8-5-34.9-11.1-48.7-17.5v-2.8c7.7-2.9,16.9-4.8,26.9-5.4
			c10.3,4,21.7,7.8,34.3,11.1C780.9,461.6,781.2,459.1,781.5,456.5L781.5,456.5z M719.4,502.2c1,0.4,2.1,0.8,3.2,1.1l-3.2-4.4V502.2
			z M719.4,461.3c-1.1-0.5-2.1-1-3.2-1.5c1-0.4,2.1-0.9,3.2-1.3V461.3L719.4,461.3z M719.4,498.8v3.3c-13.4-5-22-12.9-22-21.8
			c0-3,1-5.8,2.8-8.5L719.4,498.8z"/>
		<path class="st13" d="M781.4,456.9c8.9,2.5,16.3,6.3,21.2,10.7l-0.1,1.1l1.6,0.3c3.3,3.5,5.1,7.4,5.1,11.5
			c0,7.8-6.6,14.8-17.3,19.7c-2.9-3-5.9-6-8.8-9c-5,5.2-9.9,10.4-15,15.6c-4.7,0.6-9.6,1-14.8,1c-4.2,0-8.4-0.2-12.3-0.7
			c3.6-3.8,7.2-7.5,10.9-11.3c5.4-5.6,10.8-11.3,16.1-16.9c-18.8-5-34.8-11.1-48.6-17.5v-2.6c7.8-2.9,17.2-4.9,27.4-5.4
			c10.1,4,21.3,7.6,33.6,10.8C780.9,461.7,781.1,459.3,781.4,456.9L781.4,456.9z M719.5,502.1c1,0.4,1.9,0.7,3,1l-3-4.1V502.1z
			 M719.5,461.4c-1-0.5-2-0.9-3-1.4c1-0.4,1.9-0.8,3-1.2V461.4L719.5,461.4z M719.5,499v3.1c-13.3-5-21.9-12.8-21.9-21.7
			c0-2.9,0.9-5.7,2.7-8.4L719.5,499z"/>
		<path class="st14" d="M781.4,457.2c9,2.6,16.4,6.4,21.1,11l-0.1,0.5l0.7,0.1c3.5,3.5,5.4,7.5,5.4,11.7c0,7.6-6.5,14.5-16.9,19.5
			c-2.9-2.9-5.7-5.9-8.6-8.8c-4.9,5.1-9.8,10.3-14.8,15.4c-4.8,0.7-9.9,1-15.1,1c-4.1,0-8.2-0.2-12.1-0.6c3.6-3.7,7.2-7.5,10.8-11.2
			c5.4-5.6,10.8-11.3,16.1-16.9c-18.7-5-34.8-11-48.5-17.4V459c7.9-3,17.5-4.9,28-5.4c9.9,3.9,20.9,7.5,33,10.6
			C780.8,461.9,781.1,459.5,781.4,457.2L781.4,457.2z M719.6,502c0.9,0.3,1.8,0.7,2.7,1l-2.7-3.8V502z M719.6,461.4
			c-0.9-0.4-1.8-0.9-2.7-1.3c0.9-0.4,1.8-0.7,2.7-1.1V461.4L719.6,461.4z M719.6,499.1v2.9c-13.2-4.9-21.7-12.7-21.7-21.5
			c0-2.9,0.9-5.6,2.6-8.2L719.6,499.1z"/>
		<path class="st15" d="M781.3,457.6c16,4.7,26.7,13.3,26.7,23c0,7.5-6.3,14.3-16.5,19.2c-2.8-2.9-5.6-5.8-8.4-8.6
			c-4.9,5.1-9.7,10.2-14.6,15.2c-4.9,0.7-10.1,1.1-15.4,1.1c-4,0-8-0.2-11.8-0.6c3.6-3.7,7.1-7.4,10.7-11.1
			c5.4-5.6,10.8-11.3,16.1-16.9c-18.7-5-34.7-11-48.4-17.4v-2.2c8-3,17.8-5,28.5-5.4c9.8,3.8,20.5,7.3,32.4,10.3
			C780.8,462,781.1,459.8,781.3,457.6L781.3,457.6z M719.7,501.9c0.8,0.3,1.7,0.6,2.5,0.9l-2.5-3.6V501.9z M719.7,461.5
			c-0.9-0.4-1.7-0.8-2.5-1.2c0.8-0.3,1.7-0.7,2.5-1V461.5L719.7,461.5z M719.7,499.3v2.7c-13.1-4.9-21.6-12.6-21.6-21.3
			c0-2.8,0.9-5.5,2.5-8.1L719.7,499.3z"/>
		<path class="st16" d="M781.3,457.9c15.7,4.7,26.1,13.1,26.1,22.8c0,7.4-6.2,14.1-16.1,18.9c-2.7-2.8-5.5-5.6-8.2-8.4
			c-4.8,5-9.6,10-14.4,15.1c-5,0.7-10.3,1.1-15.8,1.1c-4,0-7.8-0.2-11.5-0.6c3.5-3.7,7.1-7.3,10.6-11c5.4-5.6,10.8-11.3,16.1-16.9
			c-18.6-5-34.6-11-48.3-17.3v-2c8.2-3.1,18.2-5,29.1-5.4c9.6,3.7,20.1,7.1,31.7,10.1L781.3,457.9L781.3,457.9z M719.8,501.9
			c0.8,0.3,1.5,0.6,2.3,0.8l-2.3-3.3V501.9z M719.8,461.5c-0.8-0.4-1.6-0.7-2.3-1.1c0.8-0.3,1.5-0.6,2.3-0.9V461.5L719.8,461.5z
			 M719.8,499.4v2.4c-13-4.9-21.4-12.5-21.4-21.2c0-2.7,0.9-5.4,2.4-7.9L719.8,499.4z"/>
		<path class="st17" d="M781.3,458.3c15.3,4.7,25.5,13,25.5,22.5c0,7.3-6,13.8-15.7,18.6c-2.7-2.7-5.3-5.5-8-8.2
			c-4.7,5-9.5,9.9-14.3,14.9c-5.1,0.8-10.5,1.2-16.1,1.2c-3.9,0-7.6-0.2-11.3-0.6c3.5-3.6,7-7.3,10.5-10.9
			c5.4-5.6,10.8-11.3,16.1-16.9c-18.6-5-34.5-10.9-48.2-17.3v-1.8c8.3-3.1,18.5-5.1,29.7-5.4c9.4,3.6,19.7,6.9,31,9.8L781.3,458.3
			L781.3,458.3z M719.9,501.8c0.7,0.3,1.4,0.5,2.1,0.7l-2.1-3V501.8z M719.9,461.6c-0.7-0.3-1.4-0.7-2.1-1c0.7-0.3,1.4-0.6,2.1-0.8
			V461.6L719.9,461.6z M719.9,499.6v2.2c-12.9-4.8-21.3-12.5-21.3-21c0-2.7,0.8-5.3,2.4-7.7L719.9,499.6z"/>
		<path class="st18" d="M781.2,458.7c15,4.7,25,12.8,25,22.2c0,7.1-5.8,13.6-15.3,18.3c-2.6-2.7-5.2-5.4-7.8-8
			c-4.7,4.9-9.4,9.8-14.1,14.7c-5.2,0.8-10.7,1.3-16.5,1.3c-3.8,0-7.4-0.2-11-0.6c3.5-3.6,6.9-7.2,10.4-10.8
			c5.4-5.6,10.8-11.3,16.1-16.9c-18.5-5-34.4-10.9-48-17.2V460c8.5-3.2,18.9-5.1,30.3-5.3c9.2,3.5,19.3,6.7,30.3,9.5L781.2,458.7
			L781.2,458.7z M720,501.7c0.6,0.2,1.3,0.5,1.9,0.7l-1.9-2.7V501.7z M720,461.6c-0.6-0.3-1.3-0.6-1.9-0.9c0.6-0.3,1.3-0.5,1.9-0.7
			V461.6L720,461.6z M720,499.7v2c-12.9-4.8-21.2-12.4-21.2-20.9c0-2.6,0.8-5.2,2.3-7.6L720,499.7z"/>
		<path class="st19" d="M781.2,459c14.7,4.6,24.4,12.7,24.4,21.9c0,7-5.7,13.4-14.9,18l-7.6-7.8c-4.6,4.8-9.2,9.7-13.9,14.5
			c-5.3,0.9-11,1.3-16.9,1.3c-3.7,0-7.3-0.2-10.7-0.5c3.4-3.6,6.9-7.1,10.3-10.7c5.4-5.6,10.8-11.3,16.1-16.9
			c-18.5-4.9-34.3-10.9-47.9-17.2v-1.4c8.6-3.2,19.3-5.2,30.9-5.3c9,3.4,18.8,6.5,29.5,9.3L781.2,459L781.2,459z M720.1,501.7
			c0.6,0.2,1.1,0.4,1.7,0.6l-1.7-2.4V501.7z M720.1,461.7l-1.7-0.8c0.6-0.2,1.1-0.4,1.7-0.7V461.7L720.1,461.7z M720.1,499.9v1.8
			c-12.8-4.8-21-12.3-21-20.7c0-2.6,0.8-5.1,2.2-7.4L720.1,499.9z"/>
		<path class="st20" d="M781.1,459.4C795.5,464,805,472,805,481c0,6.9-5.5,13.1-14.5,17.8l-7.4-7.6c-4.5,4.8-9.1,9.5-13.7,14.3
			c-5.4,0.9-11.2,1.4-17.2,1.4c-3.6,0-7.1-0.2-10.4-0.5c3.4-3.5,6.8-7.1,10.2-10.6c5.4-5.6,10.8-11.3,16.1-16.9
			c-18.4-4.9-34.2-10.9-47.8-17.1v-1.2c8.8-3.3,19.7-5.2,31.6-5.3c8.8,3.3,18.4,6.3,28.8,9L781.1,459.4L781.1,459.4z M720.2,501.6
			c0.5,0.2,1,0.4,1.5,0.5l-1.5-2.1V501.6z M720.2,461.7l-1.5-0.7c0.5-0.2,1-0.4,1.5-0.6V461.7L720.2,461.7z M720.2,500.1v1.5
			c-12.7-4.7-20.9-12.2-20.9-20.6c0-2.5,0.7-5,2.1-7.3L720.2,500.1z"/>
		<path class="st21" d="M752,455.5h0.6c8.6,3.1,17.9,6.1,28,8.7l0.5-4.4c14.1,4.6,23.3,12.4,23.3,21.3c0,6.8-5.3,12.9-14.1,17.5
			l-7.2-7.4c-4.5,4.7-9,9.4-13.5,14.1c-5.5,1-11.4,1.5-17.6,1.5c-3.5,0-6.9-0.2-10.2-0.5c3.4-3.5,6.7-7,10.1-10.5
			c5.4-5.6,10.8-11.3,16.1-16.9c-18.4-4.9-34.2-10.8-47.7-17.1v-1.1C729.2,457.4,740.1,455.5,752,455.5L752,455.5z M720.4,501.5
			c0.4,0.2,0.8,0.3,1.3,0.4l-1.3-1.8V501.5z M720.4,461.8l-1.3-0.6c0.4-0.2,0.8-0.3,1.3-0.5V461.8L720.4,461.8z M720.4,500.2v1.3
			c-12.6-4.7-20.7-12.1-20.7-20.4c0-2.5,0.7-4.8,2-7.1L720.4,500.2z"/>
		<path class="st22" d="M751.9,455.8c0.5,0,1,0,1.6,0c8.3,3,17.4,5.9,27.1,8.4l0.5-4c13.7,4.6,22.8,12.3,22.8,21
			c0,6.6-5.2,12.7-13.7,17.2l-7-7.2c-4.4,4.6-8.9,9.3-13.3,13.9c-5.6,1-11.6,1.6-17.9,1.6c-3.4,0-6.7-0.2-9.9-0.5
			c3.3-3.5,6.7-6.9,10-10.4c5.4-5.6,10.8-11.3,16.1-16.9c-18.3-4.9-34.1-10.8-47.6-17V461C729.2,457.7,740.1,455.8,751.9,455.8
			L751.9,455.8z M720.5,501.4c0.3,0.1,0.7,0.3,1,0.4l-1-1.5V501.4z M720.5,461.8l-1-0.5c0.3-0.1,0.7-0.3,1-0.4V461.8L720.5,461.8z
			 M720.5,500.4v1.1c-12.5-4.6-20.6-12-20.6-20.3c0-2.4,0.7-4.7,2-6.9L720.5,500.4z"/>
		<path class="st23" d="M751.7,456.1c0.9,0,1.7,0,2.6,0c8.1,2.9,16.8,5.6,26.3,8.1l0.4-3.6c13.4,4.5,22.2,12.1,22.2,20.7
			c0,6.5-5,12.4-13.3,16.9l-6.8-7c-4.4,4.6-8.7,9.1-13.1,13.7c-5.7,1.1-11.9,1.6-18.3,1.6c-3.3,0-6.5-0.2-9.6-0.4l9.9-10.3
			c5.4-5.6,10.8-11.3,16.1-16.9c-18.3-4.9-34-10.8-47.5-17v-0.7C729.2,458,740,456.1,751.7,456.1L751.7,456.1z M720.6,501.4l0.8,0.3
			l-0.8-1.1V501.4z M720.6,461.9l-0.8-0.4l0.8-0.3V461.9L720.6,461.9z M720.6,500.5v0.8c-12.4-4.6-20.4-11.9-20.4-20.1
			c0-2.3,0.7-4.6,1.9-6.8L720.6,500.5z"/>
		<path class="st24" d="M751.5,456.4c1.2,0,2.5,0,3.7,0.1c7.8,2.8,16.3,5.4,25.4,7.8l0.4-3.3c13.1,4.5,21.7,12,21.7,20.4
			c0,6.4-4.9,12.2-12.9,16.6l-6.6-6.8c-4.3,4.5-8.6,9-12.9,13.5c-5.8,1.1-12.1,1.7-18.7,1.7c-3.2,0-6.3-0.1-9.4-0.4
			c3.3-3.4,6.5-6.8,9.8-10.2c5.4-5.6,10.8-11.3,16.1-16.9c-18.2-4.9-33.9-10.7-47.4-16.9v-0.5C729.3,458.2,739.9,456.4,751.5,456.4
			L751.5,456.4z M720.7,501.3l0.6,0.2l-0.6-0.8V501.3z M720.7,461.9l-0.6-0.3l0.6-0.2V461.9L720.7,461.9z M720.7,500.7v0.6
			c-12.3-4.6-20.3-11.8-20.3-19.9c0-2.3,0.6-4.5,1.8-6.6L720.7,500.7z"/>
		<path class="st25" d="M751.3,456.7c1.6,0,3.2,0,4.8,0.1c7.6,2.7,15.7,5.2,24.4,7.4l0.3-2.9c12.8,4.5,21.1,11.8,21.1,20.1
			c0,6.2-4.7,11.9-12.5,16.3l-6.4-6.6c-4.2,4.4-8.5,8.8-12.7,13.3c-5.9,1.2-12.3,1.8-19.1,1.8c-3.1,0-6.1-0.1-9.1-0.4l9.7-10.1
			c5.4-5.6,10.8-11.3,16.1-16.9c-18.2-4.9-33.8-10.7-47.3-16.9v-0.3C729.3,458.5,739.9,456.7,751.3,456.7L751.3,456.7z M720.8,501.2
			l0.4,0.1l-0.4-0.5V501.2z M720.8,462l-0.4-0.2l0.4-0.1V462L720.8,462z M720.8,500.8v0.4c-12.3-4.5-20.2-11.7-20.2-19.8
			c0-2.2,0.6-4.4,1.7-6.4L720.8,500.8z"/>
		<path class="st26" d="M751.2,456.9c2,0,4,0.1,6,0.2c7.3,2.5,15.1,4.9,23.4,7.1l0.3-2.5c12.5,4.5,20.6,11.7,20.6,19.8
			c0,6.1-4.6,11.7-12.1,16l-6.2-6.4c-4.2,4.4-8.3,8.7-12.5,13c-6,1.2-12.6,1.9-19.4,1.9c-3,0-6-0.1-8.8-0.4c3.2-3.3,6.4-6.7,9.6-10
			c5.4-5.6,10.8-11.3,16.1-16.9c-18.1-4.8-33.7-10.7-47.2-16.8v-0.1C729.3,458.8,739.8,456.9,751.2,456.9L751.2,456.9z M720.9,501.2
			l0.2,0.1l-0.2-0.2V501.2z M720.9,462l-0.2-0.1l0.2-0.1V462L720.9,462z M720.9,501v0.2c-12.2-4.5-20-11.6-20-19.6
			c0-2.2,0.6-4.3,1.7-6.3L720.9,501z"/>
		<path class="st27" d="M751,457.2c2.5,0,4.9,0.1,7.3,0.3c7,2.4,14.4,4.6,22.3,6.7l0.3-2.1c12.2,4.4,20,11.5,20,19.5
			c0,6-4.4,11.5-11.7,15.7l-6-6.2c-4.1,4.3-8.2,8.6-12.3,12.8c-6.1,1.3-12.8,2-19.8,2c-2.9,0-5.8-0.1-8.6-0.4
			c3.2-3.3,6.3-6.6,9.5-9.9c5.4-5.6,10.8-11.3,16.1-16.9c-18-4.8-33.6-10.6-47-16.7C729.4,459.1,739.8,457.2,751,457.2L751,457.2z
			 M721,501.1c-12-4.4-19.8-11.5-19.8-19.5c0-2.1,0.6-4.2,1.6-6.1L721,501.1z"/>
		<path class="st28" d="M750.8,457.5c2.9,0,5.8,0.1,8.6,0.4c6.6,2.2,13.7,4.4,21.1,6.3l0.2-1.7c11.8,4.4,19.5,11.4,19.5,19.2
			c0,5.9-4.3,11.2-11.3,15.4l-5.8-5.9c-4,4.2-8,8.4-12.1,12.6c-6.2,1.4-13,2.1-20.2,2.1c-2.8,0-5.6-0.1-8.3-0.3l9.4-9.8
			c5.4-5.6,10.8-11.3,16.1-16.9c-17.9-4.8-33.3-10.5-46.6-16.6C729.7,459.3,739.8,457.5,750.8,457.5L750.8,457.5z M720.9,500.9
			c-11.8-4.4-19.5-11.4-19.5-19.2c0-2.1,0.5-4,1.5-5.9L720.9,500.9z"/>
		<path class="st29" d="M750.7,457.8c3.5,0,6.8,0.2,10.1,0.5c6.3,2.1,12.9,4,19.9,5.9l0.2-1.3c11.5,4.4,18.9,11.2,18.9,18.9
			c0,5.7-4.1,11-11,15.1l-5.6-5.7c-3.9,4.1-7.9,8.2-11.9,12.4c-6.3,1.4-13.3,2.2-20.6,2.2c-2.7,0-5.4-0.1-8-0.3l9.3-9.7
			c5.4-5.6,10.8-11.3,16.1-16.9c-17.7-4.7-33-10.4-46.3-16.4C729.9,459.5,739.9,457.8,750.7,457.8L750.7,457.8z M720.7,500.8
			c-11.6-4.4-19.1-11.3-19.1-19c0-2,0.5-3.9,1.4-5.8L720.7,500.8z"/>
		<path class="st30" d="M750.5,458.1c4,0,7.9,0.2,11.7,0.7c5.8,1.9,11.9,3.7,18.4,5.4l0.1-0.9c11.2,4.3,18.4,11.1,18.4,18.6
			c0,5.6-4,10.7-10.6,14.8l-5.4-5.5c-3.9,4-7.7,8.1-11.6,12.1c-6.4,1.5-13.5,2.3-21,2.3c-2.6,0-5.2-0.1-7.7-0.3
			c3.1-3.2,6.1-6.4,9.2-9.6c5.4-5.6,10.8-11.3,16.1-16.9c-17.6-4.7-32.8-10.3-45.9-16.2C730.1,459.8,739.9,458.1,750.5,458.1
			L750.5,458.1z M720.6,500.6c-11.4-4.3-18.7-11.1-18.7-18.7c0-1.9,0.5-3.8,1.4-5.6L720.6,500.6z"/>
		<path class="st31" d="M750.3,458.4c4.7,0,9.2,0.3,13.5,0.9c5.3,1.7,10.9,3.3,16.7,4.8l0.1-0.5c10.9,4.3,17.8,10.9,17.8,18.3
			c0,5.5-3.8,10.5-10.2,14.5l-5.1-5.3c-3.8,4-7.6,7.9-11.4,11.9c-6.5,1.6-13.7,2.5-21.4,2.5c-2.5,0-5-0.1-7.5-0.3l9.1-9.4
			c5.4-5.6,10.8-11.3,16.1-16.9c-17.4-4.7-32.5-10.2-45.6-16.1C730.3,460,739.9,458.4,750.3,458.4L750.3,458.4z M720.5,500.4
			c-11.2-4.3-18.4-11-18.4-18.5c0-1.9,0.4-3.7,1.3-5.4L720.5,500.4z"/>
		<path class="st32" d="M750.1,458.7c5.5,0,10.8,0.5,15.8,1.3c4.7,1.5,9.6,2.9,14.7,4.2v-0.1c10.6,4.3,17.3,10.7,17.3,18
			c0,5.3-3.7,10.3-9.8,14.2l-4.9-5.1c-3.7,3.9-7.4,7.8-11.1,11.6c-6.5,1.6-14,2.6-21.8,2.6c-2.4,0-4.8-0.1-7.2-0.3
			c3-3.1,6-6.2,9-9.3c5.4-5.6,10.8-11.3,16.1-16.9c-17.3-4.6-32.2-10.1-45.2-15.9C730.6,460.2,740,458.7,750.1,458.7L750.1,458.7z
			 M720.4,500.3c-11-4.3-18-10.9-18-18.3c0-1.8,0.4-3.6,1.2-5.3L720.4,500.3z"/>
		<path class="st33" d="M750,459c6.7,0,13.1,0.7,18.9,1.9c3,0.9,6.2,1.8,9.4,2.7c11.6,4.2,19,11,19,18.5c0,5.2-3.5,10-9.5,13.9
			l-4.7-4.8c-3.6,3.8-7.2,7.6-10.9,11.4c-6.6,1.7-14.2,2.7-22.3,2.7c-2.4,0-4.7-0.1-6.9-0.2l8.9-9.2c5.4-5.6,10.8-11.3,16.1-16.9
			c-17.1-4.6-32-10-44.9-15.8C730.8,460.5,740,459,750,459L750,459z M720.3,500.1c-10.8-4.2-17.6-10.7-17.6-18
			c0-1.8,0.4-3.5,1.2-5.1L720.3,500.1z"/>
		<path class="st34" d="M749.8,459.3c25.9,0,46.9,10.3,46.9,22.9c0,5.1-3.4,9.8-9.1,13.6l-4.5-4.6c-3.5,3.7-7.1,7.4-10.6,11.1
			c-6.7,1.8-14.5,2.9-22.7,2.9c-2.3,0-4.5-0.1-6.6-0.2l8.8-9.1c5.4-5.6,10.8-11.3,16.1-16.9c-16.9-4.5-31.7-9.9-44.5-15.6
			C731,460.7,740.1,459.3,749.8,459.3L749.8,459.3z M720.2,500c-10.5-4.2-17.3-10.6-17.3-17.8c0-1.7,0.4-3.3,1.1-4.9L720.2,500z"/>
		<path class="st35" d="M749.6,459.6c25.7,0,46.5,10.2,46.5,22.7c0,4.9-3.2,9.5-8.7,13.2l-4.2-4.4c-3.4,3.6-6.9,7.2-10.4,10.8
			c-6.8,1.9-14.7,3-23.1,3c-2.2,0-4.3-0.1-6.4-0.2l8.7-9c5.4-5.6,10.8-11.3,16.1-16.9c-16.8-4.5-31.4-9.8-44.2-15.5
			C731.3,461,740.1,459.6,749.6,459.6L749.6,459.6z M720.1,499.8c-10.3-4.2-16.9-10.5-16.9-17.5c0-1.6,0.4-3.2,1-4.7L720.1,499.8z"
			/>
		<path class="st36" d="M749.4,459.9c25.4,0,46,10.1,46,22.5c0,4.8-3.1,9.3-8.3,12.9l-4-4.1c-3.4,3.5-6.7,7-10.1,10.5
			c-6.9,2-15,3.2-23.6,3.2c-2.1,0-4.1-0.1-6.1-0.2l8.6-8.9c5.4-5.6,10.8-11.3,16.1-16.9c-16.6-4.4-31.1-9.7-43.8-15.3
			C731.5,461.2,740.2,459.9,749.4,459.9L749.4,459.9z M720,499.6c-10.1-4.1-16.5-10.3-16.5-17.3c0-1.6,0.3-3.1,1-4.6L720,499.6z"/>
		<path class="st37" d="M749.3,460.2c25.2,0,45.6,10,45.6,22.3c0,4.7-2.9,9-8,12.6l-3.8-3.9c-3.3,3.4-6.5,6.8-9.8,10.3
			c-7,2.1-15.2,3.3-24,3.3c-2,0-3.9-0.1-5.8-0.2l8.5-8.8c5.4-5.6,10.8-11.3,16.1-16.9c-16.5-4.4-30.9-9.6-43.4-15.1
			C731.7,461.5,740.2,460.2,749.3,460.2L749.3,460.2z M719.8,499.5c-9.9-4.1-16.2-10.2-16.2-17c0-1.5,0.3-3,0.9-4.4L719.8,499.5z"/>
		<path class="st38" d="M749.1,460.4c25,0,45.2,9.9,45.2,22.1c0,4.5-2.8,8.8-7.6,12.3l-3.6-3.7c-3.2,3.3-6.3,6.6-9.5,9.9
			c-7.1,2.2-15.5,3.5-24.5,3.5c-1.9,0-3.7-0.1-5.5-0.2l8.4-8.7c5.4-5.6,10.8-11.3,16.1-16.9c-16.3-4.4-30.6-9.5-43.1-15
			C732,461.7,740.2,460.4,749.1,460.4L749.1,460.4z M719.7,499.3c-9.7-4-15.8-10.1-15.8-16.8c0-1.4,0.3-2.8,0.8-4.2L719.7,499.3z"/>
		<path class="st39" d="M748.9,460.7c24.7,0,44.8,9.8,44.8,21.9c0,4.4-2.7,8.5-7.3,11.9l-3.3-3.4c-3.1,3.2-6.1,6.4-9.2,9.6
			c-7.1,2.3-15.7,3.7-25,3.7c-1.8,0-3.5-0.1-5.3-0.2l8.3-8.6c5.4-5.6,10.8-11.3,16.1-16.9c-16.1-4.3-30.3-9.4-42.7-14.8
			C732.2,461.9,740.3,460.7,748.9,460.7L748.9,460.7z M719.6,499.1c-9.4-4-15.4-9.9-15.4-16.5c0-1.4,0.3-2.7,0.8-4L719.6,499.1z"/>
		<path class="st40" d="M748.8,461c24.5,0,44.3,9.7,44.3,21.7c0,4.3-2.5,8.3-6.9,11.6l-3.1-3.2c-3,3.1-5.9,6.2-8.9,9.3
			c-7.2,2.5-16,3.9-25.5,3.9c-1.7,0-3.4,0-5-0.1l8.2-8.5c5.4-5.6,10.8-11.3,16.1-16.9c-16-4.3-30-9.3-42.3-14.6
			C732.5,462.2,740.3,461,748.8,461L748.8,461z M719.5,499c-9.2-4-15-9.8-15-16.3c0-1.3,0.2-2.6,0.7-3.8L719.5,499z"/>
		<path class="st41" d="M748.6,461.3c24.2,0,43.9,9.6,43.9,21.5c0,4.1-2.4,8-6.5,11.3l-2.8-2.9c-2.8,3-5.7,6-8.6,8.9
			c-7.3,2.6-16.3,4.2-26,4.2c-1.6,0-3.2,0-4.7-0.1l8-8.4c5.4-5.6,10.8-11.3,16.1-16.9c-15.8-4.2-29.7-9.2-41.9-14.5
			C732.7,462.4,740.4,461.3,748.6,461.3L748.6,461.3z M719.4,498.8c-9-3.9-14.7-9.6-14.7-16c0-1.2,0.2-2.5,0.6-3.7L719.4,498.8z"/>
		<path class="st42" d="M748.4,461.6c24,0,43.5,9.5,43.5,21.3c0,4-2.3,7.7-6.2,10.9l-2.6-2.7c-2.7,2.9-5.5,5.7-8.2,8.6
			c-7.3,2.8-16.5,4.4-26.5,4.4c-1.5,0-3,0-4.4-0.1l7.9-8.3c5.4-5.6,10.8-11.3,16.1-16.9c-15.6-4.2-29.4-9.1-41.6-14.3
			C732.9,462.7,740.4,461.6,748.4,461.6L748.4,461.6z M719.2,498.6c-8.8-3.9-14.3-9.5-14.3-15.8c0-1.2,0.2-2.3,0.6-3.5L719.2,498.6z
			"/>
		<path class="st43" d="M748.2,461.9c23.8,0,43.1,9.4,43.1,21.1c0,3.9-2.1,7.5-5.9,10.6l-2.3-2.4c-2.6,2.7-5.2,5.5-7.8,8.2
			c-7.4,2.9-16.8,4.7-27,4.7c-1.4,0-2.8,0-4.2-0.1l7.8-8.2c5.4-5.6,10.8-11.3,16.1-16.9c-15.5-4.1-29.1-9-41.2-14.2
			C733.2,462.9,740.5,461.9,748.2,461.9L748.2,461.9z M719.1,498.5c-8.6-3.8-13.9-9.4-13.9-15.5c0-1.1,0.2-2.2,0.5-3.3L719.1,498.5z
			"/>
		<path class="st44" d="M748.1,462.2c23.5,0,42.6,9.3,42.6,20.8c0,3.7-2,7.2-5.5,10.3l-2.1-2.1c-2.5,2.6-4.9,5.2-7.4,7.8
			c-7.4,3.1-17.1,5-27.6,5c-1.3,0-2.6,0-3.9-0.1l7.7-8c5.4-5.6,10.8-11.3,16.1-16.9c-15.3-4.1-28.8-8.9-40.8-14
			C733.4,463.2,740.5,462.2,748.1,462.2L748.1,462.2z M719,498.3c-8.3-3.8-13.5-9.2-13.5-15.2c0-1.1,0.2-2.1,0.5-3.1L719,498.3z"/>
		<path class="st45" d="M747.9,462.5c23.3,0,42.2,9.2,42.2,20.6c0,3.6-1.9,7-5.2,9.9l-1.8-1.9c-2.3,2.4-4.7,4.9-7,7.3
			c-7.5,3.3-17.4,5.3-28.2,5.3c-1.2,0-2.4,0-3.6-0.1l7.6-7.9c5.4-5.6,10.8-11.3,16.1-16.9c-15.1-4.1-28.5-8.8-40.4-13.8
			C733.7,463.4,740.6,462.5,747.9,462.5L747.9,462.5z M718.8,498.1c-8.1-3.8-13.2-9.1-13.2-15c0-1,0.1-1.9,0.4-2.9L718.8,498.1z"/>
		<path class="st46" d="M747.7,462.8c23.1,0,41.8,9.1,41.8,20.4c0,3.4-1.7,6.7-4.8,9.5l-1.6-1.6c-2.2,2.3-4.3,4.6-6.5,6.8
			c-7.5,3.5-17.7,5.7-28.9,5.7c-1.1,0-2.2,0-3.3-0.1l7.5-7.8c5.4-5.6,10.8-11.3,16.1-16.9c-15-4-28.2-8.7-40-13.6
			C733.9,463.6,740.6,462.8,747.7,462.8L747.7,462.8z M718.7,497.9c-7.9-3.7-12.8-8.9-12.8-14.7c0-0.9,0.1-1.8,0.4-2.7L718.7,497.9z
			"/>
		<path class="st47" d="M747.6,463.1c22.8,0,41.4,9.1,41.4,20.2c0,3.3-1.6,6.4-4.5,9.2l-1.3-1.3c-2,2.1-4,4.2-6,6.3
			c-7.5,3.7-18,6.1-29.6,6.1c-1,0-2,0-3-0.1l7.4-7.7c5.4-5.6,10.8-11.3,16.1-16.9c-14.8-4-27.9-8.6-39.6-13.5
			C734.2,463.9,740.7,463.1,747.6,463.1L747.6,463.1z M718.6,497.7c-7.6-3.7-12.4-8.8-12.4-14.4c0-0.8,0.1-1.7,0.3-2.5L718.6,497.7z
			"/>
		<path class="st48" d="M747.4,463.4c22.6,0,40.9,9,40.9,20c0,3.2-1.5,6.2-4.2,8.8l-1-1c-1.8,1.9-3.6,3.8-5.4,5.7
			c-7.5,4-18.3,6.6-30.3,6.6c-0.9,0-1.8,0-2.8,0l7.3-7.6c5.4-5.6,10.8-11.3,16.1-16.9c-14.6-3.9-27.6-8.5-39.2-13.3
			C734.5,464.1,740.7,463.4,747.4,463.4L747.4,463.4z M718.4,497.5c-7.4-3.6-12-8.6-12-14.2c0-0.8,0.1-1.5,0.3-2.3L718.4,497.5z"/>
		<path class="st49" d="M747.2,463.7c22.4,0,40.5,8.9,40.5,19.8c0,3-1.4,5.9-3.9,8.5l-0.7-0.8l-4.7,5c-7.4,4.4-18.6,7.1-31.2,7.1
			c-0.8,0-1.7,0-2.5,0l7.2-7.5c5.4-5.6,10.8-11.3,16.1-16.9c-14.5-3.9-27.3-8.4-38.8-13.1C734.7,464.4,740.8,463.7,747.2,463.7
			L747.2,463.7z M718.3,497.3c-7.2-3.6-11.6-8.5-11.6-13.9c0-0.7,0.1-1.4,0.2-2.1L718.3,497.3z"/>
		<path class="st50" d="M747,463.9c22.1,0,40.1,8.8,40.1,19.6c0,2.9-1.3,5.6-3.6,8.1l-0.5-0.5l-3.9,4.1c-7.3,4.8-19,7.9-32.2,7.9
			c-0.7,0-1.5,0-2.2,0l7.1-7.4c5.4-5.6,10.8-11.3,16.1-16.9c-14.3-3.8-27-8.2-38.3-13C735,464.6,740.8,463.9,747,463.9L747,463.9z
			 M718.2,497.1c-6.9-3.5-11.2-8.3-11.2-13.6c0-0.6,0.1-1.3,0.2-1.9L718.2,497.1z"/>
		<path class="st51" d="M746.9,464.2c21.9,0,39.7,8.7,39.7,19.4c0,2.7-1.2,5.3-3.2,7.7l-0.2-0.2l-2.7,2.8c-7,5.4-19.4,9.1-33.6,9.1
			c-0.6,0-1.3,0-1.9,0l7-7.2c5.4-5.6,10.8-11.3,16.1-16.9c-14.1-3.8-26.7-8.1-37.9-12.8C735.2,464.9,740.9,464.2,746.9,464.2
			L746.9,464.2z M718,496.9c-6.7-3.5-10.8-8.2-10.8-13.3c0-0.6,0.1-1.1,0.1-1.7L718,496.9z"/>
		<path class="st52" d="M746.7,464.5c21.7,0,39.2,8.6,39.2,19.2s-17.6,19.2-39.2,19.2c-0.5,0-1.1,0-1.6,0l6.8-7.1
			c5.4-5.6,10.8-11.3,16.1-16.9c-13.9-3.7-26.4-8-37.5-12.6C735.5,465.1,741,464.5,746.7,464.5L746.7,464.5z M717.9,496.7
			c-6.5-3.4-10.4-8-10.4-13c0-0.5,0-1,0.1-1.4L717.9,496.7z"/>
		<path class="st53" d="M746.5,464.8c21.4,0,38.8,8.5,38.8,19s-17.4,19-38.8,19c-0.4,0-0.9,0-1.3,0l6.7-7
			c5.4-5.6,10.8-11.3,16.1-16.9c-13.7-3.7-26-7.9-37.1-12.4C735.8,465.4,741,464.8,746.5,464.8L746.5,464.8z M717.7,496.5
			c-6.2-3.4-10-7.8-10-12.7c0-0.4,0-0.8,0.1-1.2L717.7,496.5z"/>
		<path class="st54" d="M746.4,465.1c21.2,0,38.4,8.4,38.4,18.8s-17.2,18.8-38.4,18.8h-1l6.6-6.9c5.4-5.6,10.8-11.3,16.1-16.9
			c-13.6-3.6-25.7-7.8-36.6-12.2C736,465.6,741.1,465.1,746.4,465.1L746.4,465.1z M717.6,496.3c-6-3.3-9.6-7.7-9.6-12.4
			c0-0.3,0-0.7,0.1-1L717.6,496.3z"/>
		<path class="st55" d="M746.2,465.4c21,0,38,8.3,38,18.6c0,10.3-17,18.6-38,18.6h-0.8l6.5-6.8c5.4-5.6,10.8-11.3,16.1-16.9
			c-13.4-3.6-25.4-7.7-36.2-12.1C736.3,465.9,741.1,465.4,746.2,465.4L746.2,465.4z M717.4,496.1c-5.7-3.2-9.2-7.5-9.2-12.1
			c0-0.2,0-0.5,0-0.7L717.4,496.1z"/>
		<path class="st56" d="M746,465.7c20.7,0,37.5,8.2,37.5,18.4c0,10.1-16.8,18.4-37.5,18.4h-0.5l6.4-6.6c5.4-5.6,10.8-11.3,16.1-16.9
			c-13.2-3.5-25-7.6-35.7-11.9C736.6,466.1,741.2,465.7,746,465.7L746,465.7z M717.2,495.8c-5.5-3.2-8.8-7.3-8.8-11.8
			c0-0.2,0-0.3,0-0.5L717.2,495.8z"/>
		<path class="st57" d="M745.8,466c20.5,0,37.1,8.1,37.1,18.1s-16.6,18.1-37.1,18.1h-0.2l6.3-6.5c5.4-5.6,10.8-11.3,16.1-16.9
			c-13-3.5-24.7-7.5-35.2-11.7C736.9,466.4,741.3,466,745.8,466L745.8,466z M717.1,495.6c-5.2-3.1-8.3-7.1-8.3-11.5v-0.2
			L717.1,495.6z"/>
		<path class="st58" d="M745.7,466.3c20.3,0,36.7,8,36.7,17.9s-16.4,17.9-36.6,17.9l6.1-6.4c5.4-5.6,10.8-11.3,16.1-16.9
			c-12.8-3.4-24.3-7.3-34.8-11.5C737.2,466.6,741.3,466.3,745.7,466.3L745.7,466.3z M716.9,495.3c-4.9-3-7.9-6.9-7.9-11.1
			L716.9,495.3z"/>
		<path class="st59" d="M745.5,466.6c20,0,36.3,7.9,36.3,17.7c0,9.7-16,17.6-35.9,17.7l6-6.3c5.4-5.6,10.8-11.3,16.1-16.9
			c-12.6-3.4-24-7.2-34.3-11.3C737.5,466.9,741.4,466.6,745.5,466.6L745.5,466.6z M716.7,495.1c-4.6-2.9-7.3-6.5-7.5-10.5
			L716.7,495.1z"/>
		<path class="st60" d="M745.3,466.9c19.8,0,35.8,7.8,35.8,17.5c0,9.6-15.7,17.3-35.1,17.5l5.9-6.1c5.4-5.6,10.8-11.3,16.1-16.9
			c-12.4-3.3-23.6-7.1-33.8-11.1C737.8,467.2,741.5,466.9,745.3,466.9L745.3,466.9z M716.5,494.8c-4.2-2.8-6.7-6.1-7-9.8
			L716.5,494.8z"/>
		<path class="st61" d="M745.2,467.2c19.6,0,35.4,7.8,35.4,17.3c0,9.4-15.3,17.1-34.4,17.3l5.8-6c5.4-5.6,10.8-11.3,16.1-16.9
			c-12.2-3.3-23.3-7-33.3-10.9C738.1,467.4,741.5,467.2,745.2,467.2L745.2,467.2z M716.3,494.5c-3.8-2.6-6.1-5.7-6.5-9.1
			L716.3,494.5z"/>
		<path class="st62" d="M745,467.4c19.3,0,35,7.7,35,17.1c0,9.2-15,16.8-33.7,17.1l5.7-5.9c5.4-5.6,10.8-11.3,16.1-16.9
			c-12-3.2-22.9-6.8-32.8-10.7C738.4,467.7,741.6,467.4,745,467.4L745,467.4z M716.1,494.2c-3.4-2.4-5.5-5.3-6-8.4L716.1,494.2z"/>
		<path class="st63" d="M744.8,467.7c19.1,0,34.6,7.6,34.6,16.9c0,9.1-14.6,16.5-33,16.9l5.5-5.8c5.4-5.6,10.8-11.3,16.1-16.9
			c-11.8-3.2-22.5-6.7-32.3-10.5C738.7,467.9,741.7,467.7,744.8,467.7L744.8,467.7z M715.8,493.8c-3-2.2-4.9-4.8-5.4-7.6
			L715.8,493.8z"/>
		<path class="st64" d="M744.6,468c18.9,0,34.1,7.5,34.1,16.7c0,8.9-14.3,16.2-32.3,16.7l5.4-5.6c5.4-5.6,10.8-11.3,16.1-16.9
			c-11.6-3.1-22.1-6.6-31.7-10.3C739,468.2,741.8,468,744.6,468L744.6,468z M715.5,493.5c-2.5-2-4.2-4.3-4.8-6.7L715.5,493.5z"/>
		<path class="st65" d="M744.5,468.3c18.6,0,33.7,7.4,33.7,16.5c0,8.7-13.9,15.9-31.5,16.5l5.3-5.5c5.4-5.6,10.8-11.3,16.1-16.9
			c-11.3-3-21.7-6.4-31.2-10.1C739.3,468.5,741.9,468.3,744.5,468.3L744.5,468.3z M715.2,493c-2.1-1.7-3.5-3.7-4.1-5.8L715.2,493z"
			/>
		<path class="st66" d="M744.3,468.6c18.4,0,33.3,7.3,33.3,16.3c0,8.6-13.6,15.6-30.8,16.2l5.2-5.4c5.4-5.6,10.8-11.3,16.1-16.9
			c-11.1-3-21.3-6.3-30.6-9.9C739.7,468.7,742,468.6,744.3,468.6L744.3,468.6z M714.9,492.5c-1.6-1.4-2.7-3-3.3-4.6L714.9,492.5z"/>
		<path class="st67" d="M744.1,468.9c18.2,0,32.9,7.2,32.9,16.1c0,8.4-13.2,15.3-30.1,16l5-5.2c5.4-5.6,10.8-11.3,16.1-16.9
			c-10.9-2.9-20.9-6.2-30-9.6C740,469,742.1,468.9,744.1,468.9L744.1,468.9z M714.4,491.8c-1-1-1.7-2-2.2-3.1L714.4,491.8z"/>
		<path class="st68" d="M743.9,469.2c17.9,0,32.5,7.1,32.5,15.9c0,8.3-12.9,15-29.4,15.8l4.9-5.1c5.4-5.6,10.8-11.3,16.1-16.9
			c-10.6-2.8-20.4-6-29.4-9.4C740.4,469.3,742.1,469.2,743.9,469.2z"/>
		<path class="st69" d="M743.8,469.5c17.7,0,32,7,32,15.7c0,8.1-12.5,14.7-28.6,15.6l4.8-4.9c5.4-5.6,10.8-11.3,16.1-16.9
			c-10.4-2.8-20-5.9-28.8-9.2C740.8,469.5,742.3,469.5,743.8,469.5z"/>
		<path class="st70" d="M743.6,469.8c17.5,0,31.6,6.9,31.6,15.4c0,7.9-12.2,14.4-27.9,15.3l4.6-4.8c5.4-5.6,10.8-11.3,16.1-16.9
			c-10.1-2.7-19.5-5.7-28.1-8.9C741.1,469.8,742.4,469.8,743.6,469.8z"/>
		<path class="st71" d="M743.4,470.1c17.2,0,31.2,6.8,31.2,15.2c0,7.8-11.8,14.2-27.2,15.1l4.5-4.7c5.4-5.6,10.8-11.3,16.1-16.9
			c-9.9-2.6-19-5.6-27.5-8.7C741.5,470.1,742.5,470.1,743.4,470.1z"/>
		<path class="st72" d="M743.3,470.4c17,0,30.8,6.7,30.8,15c0,7.6-11.5,13.9-26.4,14.9l4.3-4.5c5.4-5.6,10.8-11.3,16.1-16.9
			c-9.6-2.6-18.5-5.4-26.8-8.4C742,470.4,742.6,470.4,743.3,470.4z"/>
		<path class="st73" d="M743.1,470.6c16.8,0,30.3,6.6,30.3,14.8c0,7.4-11.1,13.6-25.7,14.7l4.2-4.4c5.4-5.6,10.8-11.3,16.1-16.9
			c-9.3-2.5-18-5.2-26-8.2C742.4,470.7,742.7,470.6,743.1,470.6z"/>
		<path class="st74" d="M742.9,470.9c16.5,0,29.9,6.5,29.9,14.6c0,7.2-10.8,13.3-25,14.4l4.1-4.2c5.4-5.6,10.8-11.3,16.1-16.9
			C759.1,476.4,750.7,473.8,742.9,470.9L742.9,470.9z"/>
		<path class="st75" d="M743.7,471.2c15.9,0.2,28.6,6.6,28.6,14.4c0,7.1-10.4,13-24.2,14.2l3.9-4.1c5.4-5.6,10.8-11.3,16.1-16.9
			C759.4,476.5,751.3,473.9,743.7,471.2z"/>
		<path class="st76" d="M744.6,471.6c10,0.3,18.7,3.2,23.3,7.2C759.6,476.6,751.9,474.1,744.6,471.6L744.6,471.6z M768,478.9
			c2.3,2,3.6,4.4,3.6,6.9c0,6.9-10.1,12.7-23.5,13.9l3.8-3.9C757.3,490.1,762.7,484.5,768,478.9z"/>
		<path class="st77" d="M745.5,471.9c9,0.5,16.7,3,21.2,6.6C759.3,476.4,752.2,474.2,745.5,471.9L745.5,471.9z M767.7,479.2
			c2.1,2,3.4,4.2,3.4,6.6c0,6.7-9.7,12.4-22.7,13.7l3.6-3.7C757.2,490.2,762.5,484.7,767.7,479.2z"/>
		<path class="st78" d="M746.6,472.3c7.8,0.6,14.6,2.8,18.9,5.9C758.9,476.3,752.6,474.3,746.6,472.3L746.6,472.3z M767.3,479.6
			c2,1.9,3.1,4,3.1,6.3c0,6.6-9.4,12.1-22,13.4l3.4-3.6C757.1,490.4,762.2,485,767.3,479.6z"/>
		<path class="st79" d="M747.9,472.7c6.6,0.7,12.3,2.5,16.3,5C758.5,476.1,753,474.5,747.9,472.7L747.9,472.7z M767,480
			c1.8,1.8,2.9,3.9,2.9,6c0,6.4-9,11.8-21.2,13.2l3.3-3.4C757,490.5,762,485.2,767,480z"/>
		<path class="st80" d="M749.3,473.2c5.2,0.7,9.8,2.2,13.2,4.1C758,476,753.6,474.6,749.3,473.2L749.3,473.2z M766.6,480.3
			c1.7,1.7,2.6,3.7,2.6,5.7c0,6.2-8.7,11.4-20.4,12.9l3.1-3.2C756.9,490.6,761.8,485.5,766.6,480.3z"/>
		<path class="st81" d="M751.3,473.8c3.4,0.6,6.5,1.6,9.1,2.8C757.3,475.7,754.2,474.8,751.3,473.8L751.3,473.8z M766.3,480.7
			c1.5,1.7,2.4,3.5,2.4,5.4c0,6-8.3,11.1-19.7,12.7l3-3.1C756.7,490.7,761.5,485.7,766.3,480.7z"/>
		<path class="st82" d="M765.9,481.1c1.4,1.6,2.2,3.3,2.2,5.1c0,5.9-8,10.8-18.9,12.4l2.8-2.9C756.6,490.9,761.3,486,765.9,481.1z"
			/>
		<path class="st83" d="M765.5,481.5c1.2,1.5,1.9,3.1,1.9,4.8c0,5.7-7.6,10.5-18.1,12.1l2.6-2.7C756.5,491,761,486.2,765.5,481.5z"
			/>
		<path class="st84" d="M765.2,481.9c1.1,1.4,1.7,2.9,1.7,4.5c0,5.5-7.3,10.2-17.3,11.9l2.4-2.5
			C756.4,491.1,760.8,486.5,765.2,481.9z"/>
		<path class="st85" d="M764.8,482.3c1,1.3,1.5,2.7,1.5,4.2c0,5.3-6.9,9.9-16.6,11.6l2.2-2.3C756.2,491.3,760.5,486.8,764.8,482.3z"
			/>
		<path class="st86" d="M764.4,482.7c0.8,1.2,1.3,2.5,1.3,3.9c0,5.1-6.5,9.5-15.8,11.3l2-2.1C756.1,491.4,760.3,487.1,764.4,482.7z"
			/>
		<path class="st87" d="M764,483.1c0.7,1.1,1.1,2.3,1.1,3.5c0,5-6.2,9.2-15,11l1.8-1.9C756,491.5,760,487.3,764,483.1z"/>
		<path class="st88" d="M763.6,483.6c0.6,1,0.9,2.1,0.9,3.2c0,4.8-5.8,8.9-14.2,10.7l1.6-1.7C755.8,491.7,759.7,487.6,763.6,483.6z"
			/>
		<path class="st89" d="M763.2,484c0.5,0.9,0.7,1.9,0.7,2.8c0,4.6-5.4,8.5-13.3,10.4l1.4-1.4C755.7,491.8,759.4,487.9,763.2,484z"/>
		<path class="st90" d="M762.7,484.4c0.4,0.8,0.6,1.6,0.6,2.5c0,4.4-5.1,8.2-12.5,10l1.1-1.2C755.5,492,759.1,488.2,762.7,484.4z"/>
	</g>
	<g>
		<path class="st4" d="M767.8,452.8c4.9,0.6,9.5,1.5,13.8,2.6c-0.3,2.9-0.7,5.8-1,8.8c-4.4-1.1-8.7-2.3-12.8-3.6V452.8L767.8,452.8z
			 M767.8,507.4v-0.3c5.1-5.3,10.3-10.6,15.3-16c3.2,3.3,6.3,6.5,9.5,9.8C785.7,504,777.2,506.3,767.8,507.4L767.8,507.4z
			 M767.8,479.1v-0.4l0.3,0.1L767.8,479.1L767.8,479.1z M802.9,465.2c1.7,1.4,3.2,2.8,4.5,4.3c-1.6-0.3-3.3-0.5-4.9-0.8L802.9,465.2
			L802.9,465.2z M810,486.6l-0.1,0.2l-0.3-0.3L810,486.6z M756.3,452c3.9,0.1,7.8,0.3,11.5,0.8v7.8c-4-1.2-7.8-2.5-11.5-3.8V452
			L756.3,452z M767.8,478.7v0.4c-3.8,4-7.6,8-11.5,12.1v-15.8C760,476.6,763.8,477.7,767.8,478.7L767.8,478.7z M767.8,507.1v0.3
			h-0.3L767.8,507.1z M754.1,452c0.7,0,1.5,0,2.2,0v4.8c-4.1-1.4-8-2.9-11.8-4.4C747.6,452.1,750.8,452,754.1,452L754.1,452z
			 M756.3,475.4v15.8l-4.4,4.6c-3.7,3.9-7.5,7.8-11.2,11.7c-6.4-0.7-12.5-2-17.9-3.7l-23.2-32.6c3.1-4.6,8.6-8.6,15.7-11.7
			C727.1,465.1,740.7,470.6,756.3,475.4z"/>
		<path class="st91" d="M767.9,453.1c4.8,0.6,9.4,1.5,13.7,2.6c-0.3,2.8-0.7,5.6-1,8.4c-4.4-1.1-8.6-2.3-12.7-3.6V453.1L767.9,453.1
			z M767.9,507.2V507c5.1-5.3,10.2-10.6,15.3-15.9c3.1,3.2,6.2,6.4,9.3,9.6C785.6,503.8,777.2,506.1,767.9,507.2L767.9,507.2z
			 M767.9,479v-0.3l0.2,0.1L767.9,479L767.9,479z M802.8,465.8c1.4,1.2,2.7,2.4,3.8,3.6c-1.4-0.2-2.7-0.4-4.1-0.7L802.8,465.8z
			 M756.6,452.3c3.9,0.1,7.6,0.4,11.3,0.8v7.5c-3.9-1.2-7.7-2.4-11.3-3.7V452.3L756.6,452.3z M767.9,478.8v0.3
			c-3.7,4-7.5,7.9-11.3,11.9v-15.4C760.2,476.6,764,477.7,767.9,478.8L767.9,478.8z M767.9,507v0.2h-0.2L767.9,507z M753.9,452.3
			c0.9,0,1.8,0,2.7,0v4.6c-4-1.4-7.8-2.8-11.5-4.3C748,452.4,750.9,452.3,753.9,452.3L753.9,452.3z M756.6,475.5v15.4
			c-1.5,1.6-3.1,3.2-4.7,4.9c-3.7,3.9-7.4,7.7-11.1,11.6c-6.5-0.7-12.6-2-18-3.8l-23-32.2c3.1-4.6,8.6-8.7,15.8-11.8
			C727.4,465.2,741,470.7,756.6,475.5z"/>
		<path class="st92" d="M767.9,453.5c4.8,0.6,9.4,1.5,13.6,2.7c-0.3,2.7-0.6,5.4-0.9,8.1c-4.4-1.1-8.6-2.3-12.6-3.6L767.9,453.5
			L767.9,453.5z M767.9,507.1V507c5.1-5.3,10.1-10.5,15.2-15.8c3,3.1,6.1,6.3,9.1,9.4C785.5,503.6,777.2,505.9,767.9,507.1
			L767.9,507.1z M767.9,479v-0.2h0.1L767.9,479L767.9,479z M802.7,466.4c1.1,0.9,2.1,1.9,3,2.9c-1.1-0.2-2.2-0.4-3.3-0.5
			L802.7,466.4z M756.9,452.6c3.8,0.1,7.5,0.4,11.1,0.8v7.2c-3.8-1.2-7.5-2.4-11.1-3.6V452.6L756.9,452.6z M767.9,478.8v0.2
			c-3.7,3.9-7.4,7.8-11.1,11.6v-15C760.5,476.7,764.1,477.8,767.9,478.8L767.9,478.8z M767.9,507v0.1h-0.1L767.9,507z M753.7,452.6
			c1.1,0,2.1,0,3.1,0v4.4c-3.9-1.3-7.6-2.7-11.2-4.2C748.3,452.7,751,452.6,753.7,452.6L753.7,452.6z M756.9,475.6v15
			c-1.6,1.7-3.3,3.4-5,5.2c-3.7,3.8-7.3,7.6-11,11.5c-6.6-0.7-12.8-2.1-18.2-3.8L700,471.7c3.1-4.6,8.7-8.7,16-11.9
			C727.7,465.4,741.3,470.8,756.9,475.6z"/>
		<path class="st93" d="M768,453.8c4.8,0.6,9.3,1.5,13.4,2.7c-0.3,2.6-0.6,5.1-0.9,7.7c-4.3-1.1-8.5-2.3-12.5-3.5V453.8L768,453.8z
			 M768,506.9L768,506.9c5.1-5.3,10.1-10.5,15.1-15.8c3,3.1,6,6.1,9,9.2C785.4,503.4,777.2,505.7,768,506.9L768,506.9z M768,478.9
			L768,478.9L768,478.9L768,478.9L768,478.9z M802.7,467c0.8,0.7,1.5,1.4,2.2,2.2c-0.8-0.1-1.6-0.3-2.4-0.4L802.7,467z M757.2,452.9
			c3.7,0.1,7.4,0.4,10.8,0.9v6.9c-3.7-1.1-7.3-2.3-10.8-3.5V452.9L757.2,452.9z M768,478.8L768,478.8c-3.6,3.9-7.2,7.7-10.8,11.5
			v-14.6C760.7,476.8,764.3,477.8,768,478.8L768,478.8z M768,506.9L768,506.9L768,506.9L768,506.9z M753.6,452.9
			c1.2,0,2.4,0,3.6,0.1v4.2c-3.8-1.3-7.4-2.7-10.9-4C748.7,452.9,751.1,452.9,753.6,452.9L753.6,452.9z M757.2,475.7v14.6
			c-1.7,1.8-3.5,3.7-5.3,5.5c-3.6,3.8-7.3,7.6-10.9,11.4c-6.7-0.7-12.9-2.1-18.4-3.9l-22.4-31.4c3.1-4.7,8.7-8.8,16.1-12
			C728,465.5,741.6,470.9,757.2,475.7z"/>
		<path class="st94" d="M757.5,453.2c8.7,0.3,16.8,1.6,23.9,3.6c-0.3,2.4-0.6,4.9-0.9,7.3c-8.2-2.1-15.9-4.5-23.1-6.9L757.5,453.2
			L757.5,453.2z M757.5,489.9v-14.1c3.4,1,7,2.1,10.6,3C764.6,482.5,761,486.2,757.5,489.9L757.5,489.9z M802.6,467.6
			c0.5,0.5,1,0.9,1.4,1.4l-1.6-0.3L802.6,467.6L802.6,467.6z M791.9,500.2c-6.6,3.1-14.7,5.4-23.7,6.6c5-5.2,10-10.4,15-15.6
			C786,494.2,789,497.2,791.9,500.2z M753.4,453.2c1.4,0,2.7,0,4.1,0.1v4c-3.7-1.3-7.2-2.6-10.6-3.9
			C749,453.2,751.2,453.2,753.4,453.2L753.4,453.2z M757.5,475.8v14.1c-1.9,1.9-3.7,3.9-5.6,5.8c-3.6,3.8-7.2,7.5-10.9,11.3
			c-6.8-0.7-13.1-2.1-18.6-3.9L700.2,472c3.1-4.7,8.8-8.9,16.3-12.1C728.3,465.6,741.9,471.1,757.5,475.8z"/>
		<path class="st94" d="M757.8,453.5c8.6,0.3,16.6,1.6,23.6,3.7c-0.3,2.3-0.5,4.6-0.8,7c-8.1-2.1-15.7-4.4-22.8-6.8V453.5
			L757.8,453.5z M757.8,489.6v-13.7c3.3,1,6.7,2,10.3,2.9C764.7,482.4,761.3,486,757.8,489.6L757.8,489.6z M802.5,468.2
			c0.2,0.2,0.4,0.4,0.7,0.6l-0.7-0.1V468.2L802.5,468.2z M791.7,500c-6.5,3.1-14.5,5.4-23.4,6.6c5-5.1,9.9-10.3,14.8-15.4
			C786,494.1,788.8,497,791.7,500z M753.2,453.5c1.5,0,3.1,0,4.6,0.1v3.8c-3.5-1.2-7-2.5-10.3-3.8
			C749.4,453.5,751.3,453.5,753.2,453.5L753.2,453.5z M757.8,475.9v13.7c-2,2-3.9,4.1-5.9,6.2c-3.6,3.7-7.2,7.4-10.8,11.2
			c-6.8-0.7-13.2-2.1-18.8-4l-21.9-30.7c3.1-4.8,8.8-9,16.4-12.2C728.7,465.8,742.2,471.2,757.8,475.9z"/>
		<path class="st95" d="M758.1,453.9c8.4,0.4,16.3,1.7,23.2,3.7c-0.3,2.2-0.5,4.4-0.8,6.6c-8-2.1-15.4-4.3-22.4-6.7V453.9
			L758.1,453.9z M758.1,489.3V476c3.2,1,6.5,1.9,9.9,2.8C764.8,482.3,761.5,485.8,758.1,489.3L758.1,489.3z M791.5,499.8
			c-6.4,3-14.2,5.3-23,6.6c4.9-5.1,9.8-10.2,14.6-15.2C785.9,494,788.7,496.9,791.5,499.8z M753.1,453.7c1.7,0,3.4,0,5.1,0.1v3.6
			c-3.4-1.2-6.7-2.4-9.9-3.6C749.8,453.8,751.4,453.7,753.1,453.7L753.1,453.7z M758.1,476v13.3c-2.1,2.2-4.1,4.3-6.2,6.5
			c-3.5,3.7-7.1,7.4-10.7,11.1c-6.9-0.7-13.4-2.1-19-4l-21.6-30.3c3.1-4.8,8.9-9.1,16.5-12.3C729,465.9,742.6,471.3,758.1,476z"/>
		<path class="st96" d="M758.5,454.2c8.3,0.4,16,1.7,22.8,3.8l-0.7,6.2c-7.8-2-15.2-4.3-22.1-6.6V454.2L758.5,454.2z M758.5,488.9
			v-12.8c3.1,0.9,6.3,1.8,9.6,2.7C764.9,482.2,761.7,485.5,758.5,488.9L758.5,488.9z M791.3,499.6c-6.2,3-14,5.3-22.6,6.6
			c4.8-5,9.7-10,14.4-15.1C785.9,494,788.6,496.8,791.3,499.6z M752.9,454c1.9,0,3.8,0,5.6,0.1v3.4c-3.3-1.1-6.5-2.3-9.6-3.5
			C750.2,454.1,751.5,454,752.9,454L752.9,454z M758.5,476.1v12.8c-2.2,2.3-4.4,4.6-6.6,6.8c-3.5,3.7-7,7.3-10.6,11
			c-7-0.7-13.5-2.1-19.2-4l-21.3-29.9c3.1-4.9,9-9.1,16.7-12.4C729.3,466,742.9,471.4,758.5,476.1z"/>
		<path class="st97" d="M758.8,454.5c8.2,0.4,15.8,1.8,22.4,3.8l-0.7,5.9c-7.7-2-14.9-4.2-21.7-6.5V454.5L758.8,454.5z M758.8,488.5
			v-12.3c3,0.9,6.1,1.8,9.2,2.6C765,482.1,761.9,485.3,758.8,488.5L758.8,488.5z M791.1,499.4c-6.1,3-13.7,5.3-22.3,6.6
			c4.8-4.9,9.5-9.9,14.3-14.9C785.8,493.9,788.5,496.6,791.1,499.4z M752.7,454.3c2.1,0,4.1,0.1,6.1,0.2v3.2
			c-3.2-1.1-6.3-2.2-9.2-3.3C750.6,454.3,751.7,454.3,752.7,454.3L752.7,454.3z M758.8,476.2v12.3c-2.3,2.4-4.6,4.8-6.9,7.2
			c-3.5,3.6-7,7.2-10.5,10.9c-7.1-0.7-13.7-2.1-19.4-4.1L701,473c3.1-4.9,9-9.2,16.8-12.5C729.6,466.2,743.2,471.5,758.8,476.2z"/>
		<path class="st98" d="M759.2,454.8c8,0.5,15.5,1.8,22,3.9l-0.6,5.5c-7.6-2-14.7-4.1-21.4-6.4V454.8L759.2,454.8z M759.2,488.2
			v-11.9c2.9,0.9,5.9,1.7,8.9,2.5C765.1,481.9,762.2,485,759.2,488.2L759.2,488.2z M790.9,499.2c-6,3-13.5,5.3-21.9,6.6
			c4.7-4.9,9.4-9.8,14.1-14.7C785.7,493.8,788.3,496.5,790.9,499.2z M752.5,454.6c2.3,0,4.5,0.1,6.6,0.2v3c-3-1-6-2.1-8.9-3.2
			C751,454.6,751.8,454.6,752.5,454.6L752.5,454.6z M759.2,476.3v11.9c-2.4,2.5-4.8,5.1-7.3,7.6c-3.4,3.6-6.9,7.2-10.4,10.8
			c-7.2-0.7-13.8-2.2-19.6-4.1l-20.8-29.1c3.1-5,9-9.3,17-12.6C730,466.3,743.6,471.7,759.2,476.3z"/>
		<path class="st99" d="M759.6,455.1c7.9,0.5,15.2,1.9,21.6,3.9l-0.6,5.1c-7.4-1.9-14.4-4-21-6.2V455.1L759.6,455.1z M759.6,487.8
			v-11.4c2.8,0.8,5.6,1.6,8.5,2.4C765.2,481.8,762.4,484.8,759.6,487.8L759.6,487.8z M790.7,499c-5.9,3-13.3,5.3-21.5,6.6
			c4.7-4.8,9.3-9.7,13.9-14.5L790.7,499z M752.4,454.9c2.4,0,4.8,0.1,7.2,0.2v2.8c-2.9-1-5.8-2-8.5-3
			C751.5,454.9,751.9,454.9,752.4,454.9L752.4,454.9z M759.6,476.4v11.4c-2.5,2.7-5.1,5.3-7.6,8c-3.4,3.6-6.8,7.1-10.3,10.7
			c-7.3-0.7-14-2.2-19.8-4.2l-20.5-28.7c3-5,9.1-9.4,17.1-12.6C730.3,466.4,743.9,471.8,759.6,476.4z"/>
		<path class="st100" d="M759.9,455.5c7.7,0.6,14.9,1.9,21.2,3.9l-0.6,4.8c-7.3-1.9-14.1-3.9-20.6-6.1L759.9,455.5L759.9,455.5z
			 M759.9,487.4v-10.8c2.7,0.8,5.4,1.5,8.1,2.3C765.4,481.7,762.7,484.5,759.9,487.4L759.9,487.4z M790.5,498.8
			c-5.8,3-13,5.3-21.1,6.7c4.6-4.8,9.2-9.5,13.7-14.3L790.5,498.8z M752.2,455.2c2.6,0,5.2,0.1,7.7,0.3v2.6
			c-2.8-0.9-5.5-1.9-8.1-2.9H752.2L752.2,455.2z M759.9,476.5v10.8c-2.7,2.8-5.3,5.6-8,8.4c-3.4,3.5-6.8,7-10.2,10.6
			c-7.3-0.7-14.1-2.2-20-4.2l-20.2-28.3c3-5.1,9.1-9.5,17.3-12.7C730.7,466.6,744.3,471.9,759.9,476.5z"/>
		<path class="st101" d="M760.3,455.8c7.6,0.6,14.6,2,20.7,4l-0.5,4.4c-7.1-1.8-13.9-3.9-20.2-6V455.8L760.3,455.8z M760.3,487
			v-10.3c2.5,0.7,5.1,1.5,7.7,2.2C765.5,481.5,762.9,484.2,760.3,487L760.3,487z M790.3,498.6c-5.7,3-12.8,5.3-20.7,6.7
			c4.5-4.7,9-9.4,13.5-14.1L790.3,498.6z M752.6,455.5c2.6,0,5.2,0.1,7.7,0.3v2.4C757.7,457.3,755.1,456.4,752.6,455.5L752.6,455.5z
			 M760.3,476.6V487c-2.8,2.9-5.6,5.9-8.4,8.8c-3.3,3.5-6.7,7-10.1,10.5c-7.4-0.7-14.3-2.2-20.2-4.3l-19.9-28
			c3-5.1,9.2-9.6,17.4-12.8C731,466.7,744.7,472,760.3,476.6z"/>
		<path class="st102" d="M760.8,456.2c7.4,0.6,14.3,2,20.3,4l-0.5,4c-7-1.8-13.6-3.8-19.8-5.8V456.2L760.8,456.2z M760.8,486.5v-9.8
			c2.4,0.7,4.8,1.4,7.3,2.1C765.6,481.4,763.2,484,760.8,486.5L760.8,486.5z M790.1,498.4c-5.5,3-12.5,5.3-20.3,6.7
			c4.5-4.6,8.9-9.3,13.3-13.9L790.1,498.4z M753.4,455.8c2.5,0,4.9,0.2,7.3,0.4v2.2C758.3,457.5,755.8,456.7,753.4,455.8
			L753.4,455.8z M760.8,476.8v9.8c-2.9,3.1-5.9,6.2-8.8,9.2c-3.3,3.5-6.6,6.9-10,10.4c-7.5-0.7-14.5-2.2-20.4-4.3l-19.7-27.6
			c3-5.2,9.2-9.7,17.6-12.9C731.4,466.9,745.1,472.2,760.8,476.8z"/>
		<path class="st103" d="M761.2,456.5c7.3,0.7,14,2.1,19.8,4l-0.4,3.6c-6.8-1.8-13.3-3.7-19.4-5.7L761.2,456.5L761.2,456.5z
			 M761.2,486.1v-9.2c2.3,0.7,4.6,1.3,6.9,1.9C765.8,481.2,763.5,483.7,761.2,486.1L761.2,486.1z M789.9,498.2
			c-5.4,2.9-12.2,5.2-19.9,6.7c4.4-4.6,8.8-9.1,13.1-13.7L789.9,498.2z M754.3,456.1c2.3,0.1,4.6,0.2,6.9,0.4v2
			C758.8,457.7,756.5,456.9,754.3,456.1L754.3,456.1z M761.2,476.9v9.2c-3.1,3.2-6.2,6.5-9.3,9.7L742,506
			c-7.6-0.7-14.6-2.2-20.6-4.4L702,474.5c3-5.2,9.3-9.8,17.7-13C731.7,467,745.5,472.3,761.2,476.9z"/>
		<path class="st104" d="M761.6,456.9c7.1,0.7,13.6,2.1,19.3,4.1l-0.4,3.3c-6.6-1.7-13-3.6-18.9-5.6L761.6,456.9L761.6,456.9z
			 M761.6,485.6V477c2.1,0.6,4.3,1.2,6.4,1.8C765.9,481.1,763.8,483.3,761.6,485.6L761.6,485.6z M789.7,498
			c-5.3,2.9-12,5.2-19.5,6.7c4.3-4.5,8.6-9,12.9-13.5L789.7,498z M755.2,456.4c2.2,0.1,4.3,0.2,6.4,0.4v1.8
			C759.4,457.9,757.3,457.2,755.2,456.4L755.2,456.4z M761.6,477v8.6c-3.2,3.4-6.5,6.8-9.7,10.2c-3.3,3.4-6.5,6.8-9.8,10.2
			c-7.7-0.7-14.8-2.2-20.9-4.4l-19.1-26.8c2.9-5.3,9.3-9.8,17.9-13.1C732.1,467.2,745.9,472.5,761.6,477z"/>
		<path class="st105" d="M762.1,457.2c6.9,0.7,13.3,2.1,18.8,4.1l-0.3,2.9c-6.5-1.7-12.6-3.5-18.5-5.4V457.2L762.1,457.2z
			 M762.1,485.1v-7.9c2,0.6,3.9,1.1,6,1.7L762.1,485.1L762.1,485.1z M789.5,497.7c-5.2,2.9-11.7,5.2-19.1,6.7
			c4.3-4.4,8.5-8.8,12.7-13.3L789.5,497.7z M756.2,456.8c2,0.1,4,0.2,6,0.5v1.6C760.1,458.1,758.1,457.5,756.2,456.8L756.2,456.8z
			 M762.1,477.2v7.9c-3.4,3.6-6.8,7.1-10.2,10.7l-9.7,10.1c-7.8-0.7-14.9-2.2-21.1-4.5L702.4,475c2.9-5.3,9.4-9.9,18.1-13.2
			C732.5,467.3,746.3,472.6,762.1,477.2z"/>
		<path class="st106" d="M762.6,457.6c6.7,0.8,12.9,2.2,18.2,4.1l-0.3,2.5c-6.3-1.6-12.3-3.4-17.9-5.2V457.6L762.6,457.6z
			 M762.6,484.6v-7.3c1.8,0.5,3.6,1,5.5,1.5L762.6,484.6L762.6,484.6z M789.3,497.5c-5.1,2.9-11.4,5.2-18.7,6.7
			c4.2-4.3,8.4-8.7,12.5-13L789.3,497.5z M757.2,457.1c1.9,0.1,3.7,0.3,5.5,0.5v1.4C760.8,458.4,759,457.7,757.2,457.1L757.2,457.1z
			 M762.6,477.3v7.3c-3.5,3.7-7.1,7.5-10.7,11.2c-3.2,3.3-6.4,6.6-9.6,10c-7.9-0.7-15.1-2.3-21.3-4.5l-18.5-26
			c2.9-5.4,9.4-10,18.2-13.3C732.9,467.5,746.7,472.8,762.6,477.3z"/>
		<path class="st107" d="M763.2,458c6.5,0.8,12.5,2.2,17.7,4.1l-0.3,2.1c-6.1-1.6-11.9-3.3-17.4-5.1V458L763.2,458z M763.2,484v-6.5
			c1.6,0.5,3.3,0.9,4.9,1.4L763.2,484L763.2,484z M789.1,497.3c-4.9,2.9-11.2,5.1-18.3,6.7c4.1-4.3,8.2-8.5,12.3-12.8L789.1,497.3z
			 M758.3,457.5c1.7,0.1,3.3,0.3,4.9,0.5v1.2C761.5,458.6,759.9,458.1,758.3,457.5L758.3,457.5z M763.2,477.5v6.5
			c-3.7,3.9-7.5,7.8-11.2,11.8c-3.2,3.3-6.3,6.6-9.5,9.9c-8-0.7-15.3-2.3-21.5-4.6l-18.2-25.6c2.9-5.4,9.5-10.1,18.4-13.4
			C733.3,467.7,747.2,472.9,763.2,477.5z"/>
		<path class="st108" d="M763.8,458.4c6.3,0.8,12,2.2,17,4.1l-0.2,1.7c-5.9-1.5-11.5-3.2-16.8-4.9V458.4L763.8,458.4z M763.8,483.4
			v-5.7c1.4,0.4,2.9,0.8,4.3,1.2L763.8,483.4L763.8,483.4z M788.9,497.1c-4.8,2.8-10.9,5.1-17.9,6.6c4-4.2,8.1-8.4,12.1-12.6
			L788.9,497.1z M759.4,457.9c1.5,0.1,2.9,0.3,4.3,0.5v1C762.3,458.9,760.9,458.4,759.4,457.9L759.4,457.9z M763.8,477.6v5.7
			c-3.9,4.1-7.9,8.3-11.8,12.4l-9.4,9.8c-8.1-0.7-15.5-2.3-21.7-4.6L703,475.7c2.8-5.5,9.5-10.2,18.5-13.5
			C733.7,467.8,747.7,473.1,763.8,477.6z"/>
		<path class="st109" d="M764.4,458.8c6,0.9,11.5,2.3,16.3,4.1l-0.2,1.3c-5.6-1.5-11-3-16.2-4.7v-0.7H764.4z M764.4,482.7v-4.9
			c1.2,0.3,2.4,0.7,3.7,1L764.4,482.7L764.4,482.7z M788.7,496.9c-4.7,2.8-10.6,5.1-17.4,6.6c4-4.1,7.9-8.2,11.9-12.4L788.7,496.9z
			 M760.7,458.3c1.2,0.1,2.5,0.3,3.7,0.4v0.7C763.2,459.1,761.9,458.7,760.7,458.3L760.7,458.3z M764.4,477.8v4.9
			c-4.1,4.4-8.3,8.7-12.5,13.1l-9.3,9.7c-8.2-0.7-15.6-2.3-21.9-4.7L703.1,476c2.8-5.5,9.6-10.3,18.7-13.6
			C734.1,468,748.2,473.3,764.4,477.8z"/>
		<path class="st110" d="M765.1,459.2c5.7,0.9,11,2.3,15.6,4l-0.1,0.9c-5.4-1.4-10.5-2.9-15.4-4.4L765.1,459.2L765.1,459.2z
			 M765.1,481.9V478c1,0.3,2,0.5,3,0.8L765.1,481.9L765.1,481.9z M788.5,496.7c-4.5,2.8-10.3,5.1-17,6.6c3.9-4,7.8-8.1,11.6-12.1
			L788.5,496.7z M762.2,458.8c1,0.1,2,0.3,3,0.4v0.5C764.1,459.4,763.1,459.1,762.2,458.8L762.2,458.8z M765.1,478v3.9
			c-4.4,4.6-8.8,9.2-13.2,13.8c-3.1,3.2-6.1,6.4-9.2,9.6c-8.2-0.6-15.8-2.3-22.1-4.7l-17.4-24.3c2.8-5.6,9.6-10.4,18.9-13.7
			C734.6,468.2,748.8,473.5,765.1,478z"/>
		<path class="st111" d="M766,459.7c5.4,0.9,10.3,2.3,14.7,4l-0.1,0.5c-5.1-1.3-9.9-2.7-14.6-4.2L766,459.7L766,459.7z M766,481.1
			v-2.8l2.1,0.6L766,481.1L766,481.1z M788.3,496.4c-4.4,2.8-10.1,5-16.5,6.6c3.8-4,7.6-7.9,11.4-11.9L788.3,496.4z M763.8,459.4
			c0.7,0.1,1.4,0.2,2.1,0.3v0.3C765.2,459.8,764.5,459.6,763.8,459.4L763.8,459.4z M766,478.2v2.8c-4.6,4.9-9.3,9.8-14,14.7
			l-9.1,9.4c-8.3-0.6-16-2.3-22.3-4.8l-17.1-23.9c2.7-5.7,9.6-10.5,19-13.8C735,468.4,749.4,473.7,766,478.2z"/>
		<path class="st112" d="M767,460.2c5,0.9,9.6,2.2,13.6,3.9v0.1c-4.7-1.2-9.2-2.5-13.6-3.8V460.2L767,460.2z M767,480v-1.4l1.1,0.3
			L767,480L767,480z M788,496.2c-4.3,2.7-9.8,5-16.1,6.6c3.7-3.9,7.4-7.8,11.1-11.6L788,496.2z M765.9,460l1.1,0.2v0.1L765.9,460
			L765.9,460z M767,478.5v1.4c-5,5.3-10,10.5-15.1,15.8c-3,3.1-6,6.2-9,9.3c-8.4-0.6-16.2-2.3-22.5-4.8l-16.8-23.5
			c2.7-5.7,9.7-10.6,19.2-13.9C735.6,468.6,750.2,474,767,478.5z"/>
		<path class="st113" d="M768.9,460.9c3.3,0.7,6.5,1.6,9.4,2.7C775,462.7,771.9,461.8,768.9,460.9L768.9,460.9z M787.8,496
			c-4.1,2.7-9.5,4.9-15.6,6.5c3.6-3.8,7.3-7.6,10.9-11.4L787.8,496L787.8,496z M743,505c-8.5-0.6-16.3-2.3-22.8-4.9L703.8,477
			c2.7-5.8,9.7-10.7,19.4-14c12.9,5.8,27.8,11.2,44.9,15.8c-5.3,5.6-10.7,11.3-16.1,16.9L743,505z"/>
		<path class="st114" d="M787.6,495.8c-4,2.7-9.2,4.9-15.1,6.5c3.6-3.7,7.1-7.4,10.6-11.1L787.6,495.8L787.6,495.8z M743.1,504.9
			c-8.6-0.6-16.5-2.3-23-4.9L704,477.3c2.6-5.8,9.8-10.8,19.6-14.1c12.8,5.7,27.6,11.1,44.5,15.6c-5.3,5.6-10.7,11.3-16.1,16.9
			L743.1,504.9z"/>
		<path class="st115" d="M787.4,495.5c-3.9,2.6-8.9,4.8-14.6,6.5c3.5-3.6,6.9-7.2,10.4-10.8L787.4,495.5L787.4,495.5z M743.3,504.8
			c-8.7-0.6-16.7-2.4-23.2-5l-15.9-22.3c2.6-5.9,9.8-10.9,19.7-14.2c12.7,5.6,27.4,11,44.2,15.5c-5.3,5.6-10.7,11.3-16.1,16.9
			L743.3,504.8z"/>
		<path class="st116" d="M787.1,495.3c-3.7,2.6-8.5,4.8-14.1,6.4c3.4-3.5,6.7-7,10.1-10.5L787.1,495.3L787.1,495.3z M743.4,504.7
			c-8.8-0.6-16.9-2.4-23.4-5l-15.6-21.8c2.5-6,9.8-11.1,19.9-14.3c12.7,5.6,27.2,10.8,43.8,15.3c-5.3,5.6-10.7,11.3-16.1,16.9
			L743.4,504.7z"/>
		<path class="st117" d="M786.9,495.1c-3.6,2.5-8.2,4.7-13.6,6.4c3.3-3.4,6.6-6.8,9.8-10.3L786.9,495.1L786.9,495.1z M743.5,504.6
			c-8.9-0.6-17.1-2.4-23.6-5.1l-15.3-21.4c2.5-6,9.9-11.2,20.1-14.4c12.6,5.5,27,10.7,43.4,15.1c-5.3,5.6-10.7,11.3-16.1,16.9
			L743.5,504.6z"/>
		<path class="st118" d="M786.7,494.8c-3.4,2.5-7.9,4.6-13.1,6.3c3.2-3.3,6.4-6.6,9.5-9.9L786.7,494.8L786.7,494.8z M743.6,504.5
			c-9-0.5-17.3-2.4-23.8-5.1l-15-21c2.4-6.1,9.9-11.3,20.3-14.5c12.5,5.5,26.8,10.6,43.1,15c-5.3,5.6-10.7,11.3-16.1,16.9
			L743.6,504.5z"/>
		<path class="st119" d="M786.4,494.6c-3.3,2.5-7.6,4.6-12.5,6.2c3.1-3.2,6.2-6.4,9.2-9.6L786.4,494.6L786.4,494.6z M743.7,504.4
			c-9.2-0.5-17.5-2.4-24.1-5.2l-14.7-20.6c2.3-6.2,9.9-11.4,20.4-14.6c12.4,5.4,26.6,10.5,42.7,14.8c-5.3,5.6-10.7,11.3-16.1,16.9
			L743.7,504.4z"/>
		<path class="st120" d="M786.2,494.3c-3.1,2.4-7.2,4.5-12,6.1c3-3.1,5.9-6.2,8.9-9.3L786.2,494.3L786.2,494.3z M743.8,504.2
			c-9.3-0.5-17.7-2.4-24.3-5.3l-14.4-20.1c2.3-6.2,10-11.5,20.6-14.7c12.3,5.3,26.3,10.4,42.3,14.6c-5.3,5.6-10.7,11.3-16.1,16.9
			L743.8,504.2z"/>
		<path class="st121" d="M786,494.1c-3,2.4-6.9,4.4-11.4,6c2.9-3,5.7-6,8.6-8.9L786,494.1L786,494.1z M743.9,504.1
			c-9.4-0.5-17.9-2.4-24.5-5.3l-14-19.7c2.2-6.3,10-11.6,20.8-14.8c12.2,5.3,26.1,10.3,41.9,14.5c-5.3,5.6-10.7,11.3-16.1,16.9
			L743.9,504.1z"/>
		<path class="st122" d="M785.7,493.8c-2.8,2.3-6.5,4.3-10.8,5.9c2.7-2.9,5.5-5.7,8.2-8.6L785.7,493.8L785.7,493.8z M744,504
			c-9.5-0.5-18.1-2.4-24.8-5.4l-13.7-19.2c2.1-6.4,10-11.8,21-14.9c12.1,5.2,25.9,10.1,41.6,14.3c-5.3,5.6-10.7,11.3-16.1,16.9
			L744,504z"/>
		<path class="st123" d="M785.5,493.6c-2.6,2.2-6.1,4.2-10.2,5.8c2.6-2.7,5.2-5.5,7.8-8.2L785.5,493.6L785.5,493.6z M744.1,503.9
			c-9.6-0.5-18.3-2.4-25-5.5l-13.4-18.8c2.1-6.4,10.1-11.9,21.2-15c12,5.2,25.7,10,41.2,14.2c-5.3,5.6-10.7,11.3-16.1,16.9
			L744.1,503.9z"/>
		<path class="st124" d="M785.2,493.3c-2.5,2.1-5.7,4-9.5,5.6c2.5-2.6,5-5.2,7.4-7.8L785.2,493.3L785.2,493.3z M744.2,503.8
			c-9.7-0.4-18.5-2.4-25.2-5.5L705.9,480c2-6.5,10.1-12,21.4-15.1c11.9,5.1,25.5,9.9,40.8,14c-5.3,5.6-10.7,11.3-16.1,16.9
			L744.2,503.8z"/>
		<path class="st125" d="M784.9,493c-2.3,2.1-5.3,3.9-8.8,5.4c2.3-2.4,4.7-4.9,7-7.3L784.9,493L784.9,493z M744.3,503.7
			c-9.8-0.4-18.7-2.5-25.5-5.6l-12.7-17.9c1.9-6.6,10.1-12.2,21.6-15.2c11.8,5,25.2,9.8,40.4,13.8c-5.3,5.6-10.7,11.3-16.1,16.9
			L744.3,503.7z"/>
		<path class="st126" d="M784.7,492.8c-2.1,2-4.9,3.7-8.1,5.2c2.2-2.3,4.4-4.6,6.5-6.8L784.7,492.8L784.7,492.8z M744.4,503.6
			c-10-0.4-18.9-2.5-25.7-5.7l-12.4-17.4c1.8-6.7,10.1-12.3,21.8-15.3c11.7,5,25,9.6,40,13.6c-5.3,5.6-10.7,11.3-16.1,16.9
			L744.4,503.6z"/>
		<path class="st127" d="M784.4,492.5c-1.9,1.8-4.4,3.5-7.3,5c2-2.1,4-4.2,6-6.3L784.4,492.5L784.4,492.5z M744.5,503.5
			c-10.1-0.4-19.2-2.5-25.9-5.7l-12.1-16.9c1.7-6.7,10.2-12.4,22-15.5c11.6,4.9,24.8,9.5,39.6,13.5c-5.3,5.6-10.7,11.3-16.1,16.9
			L744.5,503.5z"/>
		<path class="st128" d="M784.1,492.2c-1.7,1.7-3.9,3.3-6.4,4.6c1.8-1.9,3.6-3.8,5.4-5.7L784.1,492.2L784.1,492.2z M744.6,503.3
			c-10.2-0.3-19.4-2.5-26.2-5.8l-11.7-16.4c1.6-6.8,10.2-12.6,22.2-15.6c11.5,4.8,24.5,9.4,39.2,13.3c-5.3,5.6-10.7,11.3-16.1,16.9
			L744.6,503.3z"/>
		<path class="st129" d="M783.9,491.9c-1.5,1.5-3.3,2.9-5.5,4.2l4.7-5L783.9,491.9L783.9,491.9z M744.7,503.2
			c-10.3-0.3-19.6-2.5-26.4-5.9l-11.4-16c1.5-6.9,10.2-12.8,22.4-15.7c11.4,4.8,24.3,9.3,38.8,13.1c-5.3,5.6-10.7,11.3-16.1,16.9
			L744.7,503.2z"/>
		<path class="st130" d="M783.6,491.6c-1.2,1.3-2.7,2.5-4.4,3.6l3.9-4.1L783.6,491.6L783.6,491.6z M744.9,503.1
			c-10.5-0.3-19.9-2.5-26.7-6l-11-15.5c1.4-7,10.2-12.9,22.6-15.8c11.3,4.7,24.1,9.1,38.3,13c-5.3,5.6-10.7,11.3-16.1,16.9
			L744.9,503.1z"/>
		<path class="st131" d="M783.3,491.3c-0.8,0.9-1.8,1.8-2.8,2.6l2.7-2.8L783.3,491.3L783.3,491.3z M745,503
			c-10.6-0.2-20.1-2.5-27-6.1l-10.7-15c1.2-7.1,10.2-13.1,22.8-15.9c11.2,4.6,23.8,9,37.9,12.8c-5.3,5.6-10.7,11.3-16.1,16.9
			L745,503z"/>
		<path class="st132" d="M745.1,502.9c-10.8-0.2-20.4-2.5-27.2-6.2l-10.3-14.4c1.1-7.2,10.2-13.2,23-16.1
			c11.1,4.6,23.6,8.9,37.5,12.6c-5.3,5.6-10.7,11.3-16.1,16.9L745.1,502.9z"/>
		<path class="st133" d="M745.2,502.8c-10.9-0.2-20.7-2.6-27.5-6.2l-9.9-13.9c0.9-7.3,10.2-13.4,23.2-16.2
			c11,4.5,23.3,8.7,37.1,12.4c-5.3,5.6-10.7,11.3-16.1,16.9L745.2,502.8z"/>
		<path class="st134" d="M745.3,502.6c-11-0.1-20.9-2.6-27.7-6.3l-9.5-13.4c0.8-7.4,10.2-13.6,23.4-16.3
			c10.9,4.4,23.1,8.6,36.6,12.2c-5.3,5.6-10.7,11.3-16.1,16.9L745.3,502.6z"/>
		<path class="st135" d="M745.4,502.5c-11.2-0.1-21.2-2.6-28-6.5l-9.2-12.8c0.6-7.5,10.2-13.8,23.7-16.5
			c10.8,4.4,22.8,8.5,36.2,12.1c-5.3,5.6-10.7,11.3-16.1,16.9L745.4,502.5z"/>
		<path class="st136" d="M745.5,502.4c-11.4-0.1-21.5-2.6-28.3-6.6l-8.8-12.3c0.4-7.6,10.2-14,23.9-16.6
			c10.7,4.3,22.5,8.3,35.7,11.9c-5.3,5.6-10.7,11.3-16.1,16.9L745.5,502.4z"/>
		<path class="st137" d="M745.7,502.3c-11.5,0-21.8-2.6-28.6-6.7l-8.3-11.7c0.2-7.7,10.2-14.2,24.1-16.8
			c10.5,4.2,22.2,8.2,35.2,11.7c-5.3,5.6-10.7,11.3-16.1,16.9L745.7,502.3z"/>
		<path class="st138" d="M745.8,502.2L745.8,502.2c-11.8,0-22.2-2.7-28.9-6.8l-7.9-11.1l0,0c0-7.8,10.1-14.4,24.3-16.9
			c10.4,4.2,22,8.1,34.8,11.5c-5.3,5.6-10.7,11.3-16.1,16.9L745.8,502.2z"/>
		<path class="st139" d="M745.9,502h-0.4c-11.7,0-22.2-2.7-28.8-7l-7.5-10.5v-0.3c0-7.8,10.3-14.4,24.6-16.8
			c10.3,4.1,21.7,7.9,34.3,11.3c-5.3,5.6-10.7,11.3-16.1,16.9L745.9,502z"/>
		<path class="st140" d="M746,501.9h-0.7c-11.8,0-22.3-2.8-28.8-7.1l-7-9.8c0-0.2,0-0.4,0-0.6c0-7.8,10.4-14.4,24.8-16.7
			c10.2,4,21.4,7.8,33.8,11.1c-5.3,5.6-10.7,11.3-16.1,16.9L746,501.9z"/>
		<path class="st141" d="M746.1,501.8h-1c-11.9,0-22.4-2.9-28.9-7.3l-6.5-9.1c0-0.3,0-0.6,0-0.9c0-7.8,10.5-14.4,25.1-16.6
			c10,3.9,21.1,7.6,33.3,10.9c-5.3,5.6-10.7,11.3-16.1,16.9L746.1,501.8z"/>
		<path class="st142" d="M746.3,501.6c-0.4,0-0.9,0-1.3,0c-12,0-22.6-3-28.9-7.5l-6-8.4c-0.1-0.4-0.1-0.8-0.1-1.3
			c0-7.8,10.7-14.4,25.3-16.4c9.9,3.9,20.8,7.5,32.8,10.7c-5.3,5.6-10.7,11.3-16.1,16.9L746.3,501.6z"/>
		<path class="st143" d="M746.4,501.5c-0.5,0-1.1,0-1.6,0c-12.1,0-22.8-3.1-29-7.7l-5.4-7.6c-0.1-0.5-0.2-1.1-0.2-1.6
			c0-7.8,10.8-14.4,25.6-16.3c9.8,3.8,20.5,7.4,32.3,10.5c-5.3,5.6-10.7,11.3-16.1,16.9L746.4,501.5z"/>
		<path class="st144" d="M746.5,501.4c-0.6,0-1.2,0-1.9,0c-12.3,0-23.1-3.2-29.1-8l-4.8-6.7c-0.2-0.7-0.2-1.3-0.2-2
			c0-7.8,11-14.4,25.9-16.2c9.6,3.7,20.2,7.2,31.7,10.3c-5.3,5.6-10.7,11.3-16.1,16.9L746.5,501.4z"/>
		<path class="st145" d="M746.6,501.3c-0.7,0-1.4,0-2.2,0c-12.5,0-23.4-3.3-29.2-8.3l-4.1-5.8c-0.2-0.8-0.4-1.6-0.4-2.4
			c0-7.8,11.2-14.4,26.2-16.1c9.5,3.6,19.8,7.1,31.2,10.1c-5.3,5.6-10.7,11.3-16.1,16.9L746.6,501.3z"/>
		<path class="st146" d="M746.8,501.1c-0.8,0-1.6,0-2.5,0c-12.8,0-23.8-3.5-29.4-8.7l-3.3-4.6c-0.4-1-0.6-2-0.6-3
			c0-7.8,11.4-14.4,26.5-15.9c9.3,3.6,19.5,6.9,30.6,9.9c-5.3,5.6-10.7,11.3-16.1,16.9L746.8,501.1z"/>
		<path class="st147" d="M746.9,501c-0.9,0-1.8,0.1-2.8,0.1c-13.2,0-24.5-3.8-29.8-9.2l-2.2-3.1c-0.6-1.2-0.9-2.4-0.9-3.7
			c0-7.9,11.6-14.4,26.8-15.8c9.2,3.5,19.1,6.7,30,9.6c-5.3,5.6-10.7,11.3-16.1,16.9L746.9,501z"/>
		<path class="st148" d="M747,500.8c-1,0-2,0.1-3.1,0.1c-17.9,0-32.4-7.1-32.4-15.9c0-7.9,11.8-14.4,27.2-15.7
			c9,3.4,18.8,6.6,29.4,9.4c-5.3,5.6-10.7,11.3-16.1,16.9L747,500.8z"/>
		<path class="st149" d="M747.2,500.7c-1.1,0.1-2.2,0.1-3.4,0.1c-17.7,0-32-7-32-15.7c0-7.9,12-14.4,27.5-15.5
			c8.8,3.3,18.4,6.4,28.8,9.2c-5.3,5.6-10.7,11.3-16.1,16.9L747.2,500.7z"/>
		<path class="st150" d="M747.3,500.6c-1.2,0.1-2.4,0.1-3.7,0.1c-17.5,0-31.6-6.9-31.6-15.5c0-7.9,12.2-14.5,27.9-15.3
			c8.6,3.2,18,6.2,28.1,8.9c-5.3,5.6-10.7,11.3-16.1,16.9L747.3,500.6z"/>
		<path class="st151" d="M747.4,500.4c-1.3,0.1-2.7,0.1-4,0.1c-17.2,0-31.2-6.8-31.2-15.2c0-8,12.5-14.5,28.4-15.2
			c8.4,3.1,17.6,6,27.5,8.7c-5.3,5.6-10.7,11.3-16.1,16.9L747.4,500.4z"/>
		<path class="st152" d="M747.6,500.3c-1.4,0.1-2.9,0.1-4.3,0.1c-17,0-30.8-6.7-30.8-15c0-8,12.7-14.5,28.8-15
			c8.2,3,17.2,5.9,26.8,8.4c-5.3,5.6-10.7,11.3-16.1,16.9L747.6,500.3z"/>
		<path class="st153" d="M747.7,500.1c-1.5,0.1-3.1,0.2-4.6,0.2c-16.7,0-30.3-6.6-30.3-14.8c0-8,13-14.6,29.3-14.8
			c8,2.9,16.7,5.7,26,8.2c-5.3,5.6-10.7,11.3-16.1,16.9L747.7,500.1z"/>
		<path class="st154" d="M747.9,500c-1.6,0.1-3.3,0.2-5,0.2c-16.5,0-29.9-6.5-29.9-14.6s13.3-14.6,29.8-14.6
			c7.8,2.8,16.2,5.5,25.2,7.9c-5.3,5.6-10.7,11.3-16.1,16.9L747.9,500z"/>
		<path class="st155" d="M742.7,471.2h0.9c7.6,2.7,15.7,5.3,24.4,7.6c-5.3,5.6-10.7,11.3-16.1,16.9l-3.9,4.1
			c-1.7,0.2-3.5,0.2-5.3,0.2c-16.3,0-29.5-6.5-29.5-14.4C713.3,477.7,726.5,471.2,742.7,471.2z"/>
		<path class="st156" d="M742.6,471.5c0.7,0,1.3,0,2,0c7.3,2.6,15,5,23.3,7.2l0.1,0.1c-5.3,5.6-10.7,11.3-16.1,16.9l-3.8,3.9
			c-1.8,0.2-3.7,0.3-5.6,0.3c-16,0-29.1-6.4-29.1-14.2C713.5,477.9,726.5,471.5,742.6,471.5z"/>
		<path class="st157" d="M742.4,471.8c1.1,0,2.1,0,3.1,0.1c6.7,2.3,13.7,4.5,21.2,6.6c0.3,0.2,0.6,0.5,0.9,0.8
			c-5.2,5.5-10.5,11-15.8,16.5l-3.6,3.7c-1.9,0.2-3.9,0.3-5.9,0.3c-15.8,0-28.6-6.3-28.6-14C713.8,478.1,726.6,471.8,742.4,471.8z"
			/>
		<path class="st158" d="M742.2,472.1c1.5,0,3,0.1,4.4,0.2c6,2.1,12.3,4,18.9,5.9c0.7,0.5,1.3,1,1.8,1.5
			c-5.1,5.4-10.2,10.8-15.4,16.2l-3.4,3.6c-2,0.2-4.1,0.3-6.2,0.3c-15.6,0-28.2-6.2-28.2-13.8C714,478.3,726.7,472.1,742.2,472.1z"
			/>
		<path class="st159" d="M742.1,472.4c2,0,3.9,0.1,5.8,0.3c5.2,1.8,10.6,3.5,16.3,5c1.1,0.7,2,1.4,2.8,2.2c-5,5.3-10,10.5-15.1,15.8
			l-3.3,3.4c-2.1,0.3-4.3,0.4-6.6,0.4c-15.3,0-27.8-6.1-27.8-13.6C714.3,478.5,726.7,472.4,742.1,472.4z"/>
		<path class="st160" d="M741.9,472.7c2.6,0,5.1,0.2,7.4,0.5c4.2,1.4,8.6,2.8,13.2,4.1c1.6,0.9,3,2,4.1,3.1
			c-4.9,5.1-9.8,10.3-14.7,15.4l-3.1,3.2c-2.2,0.3-4.5,0.4-6.9,0.4c-15.1,0-27.4-6-27.4-13.4C714.5,478.7,726.8,472.7,741.9,472.7z"
			/>
		<path class="st161" d="M741.7,473c3.4,0,6.6,0.3,9.6,0.9c3,1,6,1.9,9.1,2.8c2.4,1.2,4.4,2.5,5.9,4.1c-4.8,5-9.5,10-14.3,15l-3,3.1
			c-2.3,0.3-4.7,0.5-7.3,0.5c-14.9,0-26.9-5.9-26.9-13.2C714.8,478.9,726.8,473,741.7,473z"/>
		<path class="st162" d="M741.5,473.3c10.9,0,20.3,3.2,24.4,7.8c-4.6,4.9-9.3,9.8-14,14.6l-2.8,2.9c-2.4,0.4-5,0.5-7.6,0.5
			c-14.6,0-26.5-5.8-26.5-13C715,479.1,726.9,473.3,741.5,473.3z"/>
		<path class="st163" d="M741.4,473.6c10.9,0,20.3,3.3,24.2,7.9c-4.5,4.8-9,9.5-13.6,14.3l-2.6,2.7c-2.5,0.4-5.2,0.6-8,0.6
			c-14.4,0-26.1-5.7-26.1-12.8C715.3,479.3,727,473.6,741.4,473.6z"/>
		<path class="st164" d="M741.2,473.9c10.9,0,20.3,3.3,24,8c-4.4,4.6-8.8,9.2-13.2,13.9l-2.4,2.5c-2.6,0.4-5.4,0.7-8.3,0.7
			c-14.2,0-25.7-5.6-25.7-12.5C715.5,479.5,727,473.9,741.2,473.9z"/>
		<path class="st165" d="M741,474.1c10.9,0,20.2,3.4,23.7,8.2c-4.3,4.5-8.5,9-12.8,13.5l-2.2,2.3c-2.7,0.5-5.6,0.7-8.7,0.7
			c-13.9,0-25.2-5.5-25.2-12.3C715.8,479.7,727.1,474.1,741,474.1z"/>
		<path class="st165" d="M740.9,474.4c10.9,0,20.2,3.5,23.5,8.3c-4.1,4.3-8.3,8.7-12.5,13l-2,2.1c-2.8,0.5-5.9,0.8-9,0.8
			c-13.7,0-24.8-5.4-24.8-12.1C716,479.9,727.2,474.4,740.9,474.4z"/>
		<path class="st166" d="M740.7,474.7c11,0,20.2,3.5,23.3,8.4c-4,4.2-8,8.4-12.1,12.6l-1.8,1.9c-2.9,0.6-6.1,0.9-9.4,0.9
			c-13.5,0-24.4-5.3-24.4-11.9C716.3,480.1,727.2,474.7,740.7,474.7z"/>
		<path class="st167" d="M740.5,475c11,0,20.2,3.6,23.1,8.5c-3.9,4.1-7.7,8.1-11.7,12.2l-1.6,1.7c-3,0.7-6.3,1-9.8,1
			c-13.2,0-24-5.2-24-11.7C716.6,480.3,727.3,475,740.5,475z"/>
		<path class="st168" d="M740.3,475.3c11,0,20.2,3.7,22.8,8.7c-3.7,3.9-7.5,7.8-11.2,11.8l-1.4,1.4c-3.1,0.7-6.6,1.1-10.2,1.1
			c-13,0-23.5-5.2-23.5-11.5C716.8,480.5,727.3,475.3,740.3,475.3z"/>
		<path class="st169" d="M740.2,475.6c11,0,20.3,3.8,22.6,8.8c-3.6,3.8-7.2,7.5-10.8,11.3l-1.1,1.2c-3.2,0.8-6.8,1.3-10.6,1.3
			c-12.8,0-23.1-5.1-23.1-11.3C717.1,480.7,727.4,475.6,740.2,475.6z"/>
	</g>
	<path class="st5" d="M640,403.4c11.8-6.3,39.9-7.3,49,4.8c9.1,12.1-5.3,33.4-17.7,39.9s-12.3,5.1-18.3,5.8
		c-9-13.2-17.9-26.4-26.9-39.5C629.6,410.2,628.2,409.6,640,403.4z"/>
</g>
<g>
	<path class="st170" d="M741,44c-69.7,0-126.1,56.5-126.1,126.1c0,14.8,3.9,35.2,9.6,48.3L741,488.8l117-271.6
		c5.1-11.9,9.1-32.2,9.1-47C867.1,100.5,810.6,44,741,44z"/>
	<g>
		<g>
			<polygon class="st171" points="727.4,457.2 754.6,457.2 741,488.8 			"/>
			<polygon class="st172" points="725.4,452.7 756.5,452.7 742.9,484.2 739,484.2 			"/>
			<polygon class="st173" points="723.5,448.2 758.5,448.2 744.9,479.7 737.1,479.7 			"/>
			<polygon class="st174" points="721.5,443.6 760.4,443.6 746.8,475.2 735.1,475.2 			"/>
			<polygon class="st175" points="719.6,439.1 762.4,439.1 748.8,470.6 733.1,470.6 			"/>
			<polygon class="st176" points="717.6,434.6 764.3,434.6 750.8,466.1 731.2,466.1 			"/>
			<polygon class="st177" points="715.7,430 766.3,430 752.7,461.5 729.2,461.5 			"/>
			<polygon class="st178" points="713.7,425.5 768.2,425.5 754.7,457 727.3,457 			"/>
			<polygon class="st179" points="711.7,420.9 770.2,420.9 756.6,452.5 725.3,452.5 			"/>
			<polygon class="st180" points="709.8,416.4 772.2,416.4 758.6,447.9 723.4,447.9 			"/>
			<polygon class="st181" points="707.8,411.9 774.1,411.9 760.5,443.4 721.4,443.4 			"/>
			<polygon class="st182" points="705.9,407.3 776.1,407.3 762.5,438.9 719.5,438.9 			"/>
			<polygon class="st183" points="703.9,402.8 778,402.8 764.4,434.3 717.5,434.3 			"/>
			<polygon class="st184" points="702,398.3 780,398.3 766.4,429.8 715.5,429.8 			"/>
			<polygon class="st185" points="700,393.7 781.9,393.7 768.4,425.2 713.6,425.2 			"/>
			<polygon class="st186" points="698,389.2 783.9,389.2 770.3,420.7 711.6,420.7 			"/>
			<polygon class="st187" points="696.1,384.6 785.8,384.6 772.3,416.2 709.7,416.2 			"/>
			<polygon class="st188" points="694.1,380.1 787.8,380.1 774.2,411.6 707.7,411.6 			"/>
			<polygon class="st189" points="692.2,375.6 789.8,375.6 776.2,407.1 705.8,407.1 			"/>
			<polygon class="st190" points="690.2,371 791.7,371 778.1,402.6 703.8,402.6 			"/>
			<polygon class="st191" points="688.3,366.5 793.7,366.5 780.1,398 701.9,398 			"/>
			<polygon class="st192" points="686.3,362 795.6,362 782,393.5 699.9,393.5 			"/>
			<polygon class="st193" points="684.4,357.4 797.6,357.4 784,388.9 697.9,388.9 			"/>
			<polygon class="st194" points="682.4,352.9 799.5,352.9 786,384.4 696,384.4 			"/>
			<polygon class="st195" points="680.4,348.3 801.5,348.3 787.9,379.9 694,379.9 			"/>
			<polygon class="st196" points="678.5,343.8 803.4,343.8 789.9,375.3 692.1,375.3 			"/>
			<polygon class="st197" points="676.5,339.3 805.4,339.3 791.8,370.8 690.1,370.8 			"/>
			<polygon class="st198" points="674.6,334.7 807.4,334.7 793.8,366.3 688.2,366.3 			"/>
			<polygon class="st199" points="672.6,330.2 809.3,330.2 795.7,361.7 686.2,361.7 			"/>
			<polygon class="st200" points="670.7,325.7 811.3,325.7 797.7,357.2 684.2,357.2 			"/>
			<polygon class="st201" points="668.7,321.1 813.2,321.1 799.6,352.6 682.3,352.6 			"/>
			<polygon class="st202" points="666.7,316.6 815.2,316.6 801.6,348.1 680.3,348.1 			"/>
			<polygon class="st203" points="664.8,312 817.1,312 803.6,343.6 678.4,343.6 			"/>
			<polygon class="st204" points="662.8,307.5 819.1,307.5 805.5,339 676.4,339 			"/>
			<polygon class="st205" points="660.9,303 821,303 807.5,334.5 674.5,334.5 			"/>
			<polygon class="st206" points="658.9,298.4 823,298.4 809.4,330 672.5,330 			"/>
			<polygon class="st207" points="657,293.9 825,293.9 811.4,325.4 670.6,325.4 			"/>
			<polygon class="st208" points="655,289.4 826.9,289.4 813.3,320.9 668.6,320.9 			"/>
			<polygon class="st209" points="653.1,284.8 828.9,284.8 815.3,316.3 666.6,316.3 			"/>
			<polygon class="st210" points="651.1,280.3 830.8,280.3 817.2,311.8 664.7,311.8 			"/>
			<polygon class="st211" points="649.1,275.8 832.8,275.8 819.2,307.3 662.7,307.3 			"/>
			<polygon class="st212" points="647.2,271.2 834.7,271.2 821.2,302.7 660.8,302.7 			"/>
			<polygon class="st213" points="645.2,266.7 836.7,266.7 823.1,298.2 658.8,298.2 			"/>
			<polygon class="st214" points="643.3,262.1 838.6,262.1 825.1,293.7 656.9,293.7 			"/>
			<polygon class="st215" points="641.3,257.6 840.6,257.6 827,289.1 654.9,289.1 			"/>
			<polygon class="st216" points="639.4,253.1 842.6,253.1 829,284.6 653,284.6 			"/>
			<polygon class="st217" points="637.4,248.5 844.5,248.5 830.9,280 651,280 			"/>
			<polygon class="st218" points="635.5,244 846.5,244 832.9,275.5 649,275.5 			"/>
			<polygon class="st219" points="633.5,239.5 848.4,239.5 834.8,271 647.1,271 			"/>
			<polygon class="st220" points="631.5,234.9 850.4,234.9 836.8,266.4 645.1,266.4 			"/>
			<polygon class="st221" points="629.6,230.4 852.3,230.4 838.8,261.9 643.2,261.9 			"/>
			<polygon class="st222" points="627.6,225.8 854.3,225.8 840.7,257.4 641.2,257.4 			"/>
			<polygon class="st223" points="625.7,221.3 856.3,221.3 842.7,252.8 639.3,252.8 			"/>
			<path class="st224" d="M623.7,216.8h234.5l-0.2,0.4l-13.4,31.1H637.3l-12.9-29.8C624.2,217.9,624,217.3,623.7,216.8z"/>
			<path class="st225" d="M622.1,212.2H860c-0.6,1.8-1.2,3.4-1.9,4.9l-11.5,26.6H635.3l-10.9-25.3
				C623.6,216.5,622.8,214.4,622.1,212.2z"/>
			<path class="st226" d="M620.6,207.7h240.7c-1,3.5-2.2,6.7-3.3,9.5l-9.5,22H633.4l-8.9-20.8C623.1,215.2,621.8,211.6,620.6,207.7z
				"/>
			<path class="st227" d="M619.4,203.2h243.2c-1.3,5.3-2.9,10.1-4.6,14l-7.5,17.5H631.4l-7-16.2C622.5,214,620.8,208.8,619.4,203.2z
				"/>
			<path class="st228" d="M618.3,198.6h245.4c-1.5,7-3.5,13.5-5.7,18.6l-5.6,13h-223l-5-11.7C622,212.8,619.9,205.9,618.3,198.6z"/>
			<path class="st229" d="M617.4,194.1h247.2c-1.6,8.7-4,17-6.6,23.1l-3.6,8.4H627.5l-3.1-7.1C621.5,211.7,619.1,203,617.4,194.1z"
				/>
			<path class="st230" d="M616.6,189.5h248.8c-1.6,10.2-4.3,20.5-7.4,27.6l-1.7,3.9H625.6l-1.1-2.6
				C621,210.5,618.2,199.9,616.6,189.5z"/>
			<path class="st231" d="M615.9,185H866c-1.5,11.4-4.3,23.3-7.7,31.5H623.6C620.1,207.6,617.3,196,615.9,185z"/>
			<path class="st170" d="M615.4,180.5h251.2c-1,10.7-3.5,22.5-6.6,31.5H622C618.8,202.5,616.4,190.9,615.4,180.5z"/>
		</g>
		<g>
			<path class="st212" d="M718.6,271.2h44.8c-7.2,1.6-14.7,2.4-22.4,2.4C733.3,273.7,725.8,272.8,718.6,271.2z"/>
			<path class="st213" d="M703.6,266.7h74.8c-11.6,4.5-24.2,7-37.4,7C727.8,273.7,715.2,271.2,703.6,266.7z"/>
			<path class="st214" d="M693.5,262.1h95c-14.2,7.4-30.4,11.5-47.5,11.5C723.9,273.7,707.7,269.5,693.5,262.1z"/>
			<path class="st215" d="M685.6,257.6h110.8c-16,10.2-35,16-55.4,16C720.6,273.7,701.6,267.8,685.6,257.6z"/>
			<path class="st216" d="M679,253.1h123.9c-17.3,12.9-38.7,20.6-62,20.6C717.7,273.7,696.3,266,679,253.1z"/>
			<path class="st217" d="M673.4,248.5h135.2c-18.1,15.7-41.8,25.1-67.6,25.1C715.1,273.7,691.5,264.2,673.4,248.5z"/>
			<path class="st218" d="M668.4,244h145.1c-18.7,18.3-44.3,29.7-72.5,29.7C712.7,273.7,687.1,262.3,668.4,244z"/>
			<path class="st219" d="M664.1,239.5h153.8c-13.9,15.4-32.4,26.7-53.4,31.5h-47C696.5,266.1,678,254.9,664.1,239.5z"/>
			<path class="st220" d="M660.2,234.9h161.5c-11.2,13.9-25.8,24.9-42.7,31.5h-76.1C686.1,259.8,671.4,248.8,660.2,234.9z"/>
			<path class="st221" d="M656.8,230.4h168.4c-9.4,13.1-21.8,24-36.2,31.5h-96C678.6,254.3,666.2,243.5,656.8,230.4z"/>
			<path class="st222" d="M653.7,225.8h174.5c-8.1,12.6-18.9,23.4-31.5,31.5H685.2C672.6,249.3,661.8,238.5,653.7,225.8z"/>
			<path class="st223" d="M651,221.3h180c-7,12.3-16.5,23-27.7,31.5H678.7C667.4,244.3,658,233.6,651,221.3z"/>
			<path class="st224" d="M648.5,216.8h184.9c-6.1,12-14.5,22.7-24.6,31.5H673.1C663,239.5,654.6,228.8,648.5,216.8z"/>
			<path class="st225" d="M646.4,212.2h189.2c-5.3,11.8-12.7,22.5-21.8,31.5H668.2C659.1,234.7,651.7,224.1,646.4,212.2z"/>
			<path class="st226" d="M644.5,207.7h193c-4.6,11.7-11.2,22.3-19.4,31.5H663.9C655.6,230,649,219.4,644.5,207.7z"/>
			<path class="st227" d="M642.8,203.2h196.3c-3.9,11.6-9.8,22.2-17.2,31.5H660C652.6,225.3,646.7,214.7,642.8,203.2z"/>
			<path class="st228" d="M641.4,198.6h199.1c-3.3,11.4-8.5,22.1-15.2,31.5H656.6C649.9,220.7,644.7,210.1,641.4,198.6z"/>
			<path class="st229" d="M640.2,194.1h201.5c-2.7,11.3-7.2,22-13.3,31.5H653.6C647.5,216,642.9,205.4,640.2,194.1z"/>
			<path class="st230" d="M639.3,189.5h203.4c-2.1,11.3-6.1,21.9-11.6,31.5H650.8C645.4,211.4,641.4,200.8,639.3,189.5z"/>
			<path class="st231" d="M638.5,185h204.9c-1.6,11.2-5,21.8-9.9,31.5H648.4C643.5,206.8,640.1,196.2,638.5,185z"/>
			<path class="st170" d="M638,180.5h206c-1.1,11.1-4,21.7-8.3,31.5H646.3C641.9,202.2,639.1,191.6,638,180.5z"/>
		</g>
	</g>
	<path class="st179" d="M756.4,273.7c57,0,103.5-46.5,103.5-103.5S813.4,66.7,756.4,66.7s-103.5,46.5-103.5,103.5
		C652.9,227.1,699.4,273.7,756.4,273.7z"/>
	<path class="st3" d="M741,273.7c57,0,103.5-46.5,103.5-103.5S798,66.7,741,66.7s-103.5,46.5-103.5,103.5
		C637.4,227.1,684,273.7,741,273.7z"/>
</g>
</svg>
