<?xml version="1.0" encoding="utf-8"?>
<!-- Generator: Adobe Illustrator 25.4.2, SVG Export Plug-In . SVG Version: 6.00 Build 0)  -->
<svg version="1.1" id="Layer_1" xmlns="http://www.w3.org/2000/svg" xmlns:xlink="http://www.w3.org/1999/xlink" x="0px" y="0px"
	 viewBox="0 0 250 250" style="enable-background:new 0 0 250 250;" xml:space="preserve">
<style type="text/css">
	.st0{fill:#602888;}
	.st1{fill-rule:evenodd;clip-rule:evenodd;fill:#FFFFFF;}
</style>
<circle class="st0" cx="125" cy="125" r="116.7"/>
<path class="st1" d="M199.6,199.6H50.4v-12.4h6.2c17.3-28.7,24.3-75.3,24.9-99.4H125c0.6,28.5,9.2,72.6,24.9,99.4h28.7
	c-3.4-9-12.3-29.3-15.5-61.8h-7.8c-1.5,15.4-4.1,27.6-6.9,37.3c-2.2-5.3-5.9-17.3-7.2-25.1c1.5-8.9,2.3-17.4,2.4-24.6h31.1
	c0.6,22.3,7,54.7,18.5,74.3h6.4V199.6z M113.3,100.1h-20c-3.1,35.9-10.5,60.3-21.9,87h64.4C114.6,140.3,113.3,100.2,113.3,100.1z
	 M103.9,149.9h13l-25.4,31.1l7-18.6h-9.9l21.6-31.1L103.9,149.9z M166.2,82c1.5-3.2,4.7-5.5,8.5-5.5c3.8,0,7,2.3,8.5,5.5
	c1-0.5,2-0.8,3.2-0.8c3.9,0,7,3.2,7,7.1c0,3.9-3.1,7.1-7,7.1c-1.1,0-2.2-0.3-3.2-0.8c-1.5,3.2-4.7,5.5-8.5,5.5c-3.8,0-7-2.3-8.5-5.5
	c-1,0.5-2,0.8-3.2,0.8c-3.9,0-7-3.2-7-7.1s3.1-7.1,7-7.1C164.2,81.3,165.3,81.5,166.2,82z M106.4,81.5h-6.2
	c1.2-13.6,11.1-24.9,21.7-24.9c1.5,0,3,0.4,4.2,1c2-4.3,6.3-7.2,11.3-7.2c5,0,9.3,3,11.3,7.2c1.3-0.7,2.7-1,4.2-1
	c5.1,0,9.3,4.2,9.3,9.3c0,5.1-4.2,9.3-9.3,9.3c-1.5,0-3-0.4-4.2-1c-2,4.3-6.3,7.2-11.3,7.2C122.9,81.5,114.3,63.2,106.4,81.5z"/>
</svg>
