<?xml version="1.0" encoding="utf-8"?>
<!-- Generator: Adobe Illustrator 25.4.2, SVG Export Plug-In . SVG Version: 6.00 Build 0)  -->
<svg version="1.1" id="Layer_1" xmlns="http://www.w3.org/2000/svg" xmlns:xlink="http://www.w3.org/1999/xlink" x="0px" y="0px"
	 viewBox="0 0 250 250" style="enable-background:new 0 0 250 250;" xml:space="preserve">
<style type="text/css">
	.st0{fill:#007DC3;}
	.st1{fill:#FFFFFF;}
</style>
<circle class="st0" cx="125" cy="125" r="116.7"/>
<g>
	<rect x="94.3" y="142.2" class="st1" width="14.9" height="6.6"/>
	<rect x="127.2" y="142.2" class="st1" width="10.6" height="6.6"/>
	<rect x="110.1" y="114.1" class="st1" width="18.5" height="6.6"/>
	<rect x="97.8" y="85.9" class="st1" width="13" height="6.6"/>
	<rect x="128.4" y="85.9" class="st1" width="23.1" height="6.6"/>
	<path class="st1" d="M93.4,85.5v7.4c0,2.4-1.8,4.4-4.2,4.7c-2.5,0.3-4.8-1.5-5-4c0-0.2,0-0.4,0-0.5v-7.5c0-2.5,2.1-4.6,4.6-4.6
		S93.4,83,93.4,85.5z"/>
	<path class="st1" d="M124.2,85.5v7.4c0,2.4-1.8,4.4-4.2,4.7c-2.5,0.2-4.8-1.6-5-4.1c0-0.2,0-0.3,0-0.5v-7.5
		c-0.1-2.5,1.8-4.7,4.3-4.8c1.3-0.1,2.6,0.4,3.5,1.4C123.8,83,124.3,84.3,124.2,85.5z"/>
	<path class="st1" d="M165.1,85.5v7.4c0,2.4-1.8,4.4-4.2,4.7c-2.5,0.3-4.8-1.5-5-4c0-0.2,0-0.4,0-0.5v-7.5c-0.1-2.5,1.8-4.7,4.3-4.8
		c1.3-0.1,2.6,0.4,3.5,1.4C164.6,83,165.1,84.3,165.1,85.5z"/>
	<path class="st1" d="M142.2,113.6v7.4c0,2.4-1.8,4.4-4.2,4.7c-2.5,0.3-4.8-1.5-5-4c0-0.2,0-0.4,0-0.5v-7.4c0-2.6,2-4.7,4.6-4.7
		c1.2,0,2.4,0.5,3.3,1.3C141.7,111.2,142.2,112.4,142.2,113.6z"/>
	<path class="st1" d="M105.7,113.6v7.4c0,2.4-1.8,4.4-4.2,4.7c-2.5,0.3-4.8-1.5-5-4c0-0.2,0-0.4,0-0.5v-7.4
		c-0.1-2.5,1.8-4.7,4.3-4.8c1.3-0.1,2.6,0.4,3.5,1.4C105.2,111.2,105.7,112.4,105.7,113.6z"/>
	<path class="st1" d="M122.8,141.8v7.4c0,2.4-1.8,4.4-4.2,4.7c-2.5,0.3-4.8-1.5-5-4c0-0.2,0-0.4,0-0.5v-7.4c0-2.6,2-4.7,4.6-4.7
		c1.2,0,2.4,0.5,3.3,1.3C122.3,139.4,122.8,140.5,122.8,141.8z"/>
	<path class="st1" d="M89.9,141.8v7.4c0,2.4-1.8,4.4-4.2,4.7c-2.5,0.3-4.8-1.5-5-4c0-0.2,0-0.4,0-0.5v-7.4c0-2.5,2-4.6,4.5-4.7
		c1.3,0,2.5,0.5,3.4,1.3C89.4,139.4,89.9,140.5,89.9,141.8z"/>
	<path class="st1" d="M151.4,141.8v7.4c0,2.4-1.8,4.4-4.2,4.7c-2.5,0.3-4.8-1.5-5-4c0-0.2,0-0.4,0-0.5v-7.4c0-2.6,2-4.7,4.6-4.7
		c1.2,0,2.4,0.5,3.3,1.3C150.9,139.4,151.4,140.5,151.4,141.8z"/>
	<path class="st1" d="M192.2,170.2h-0.6V67c0-2.4-2-4.4-4.4-4.4c0,0,0,0-0.1,0l0,0c-2.4,0-4.4,2-4.4,4.4l0,0v19.2h-13.7v6.4h13.7
		v21.5h-36.1v6.4h36.5v21.5H156v6.4h27.2v21.6H66.5v-21.3h9.7v-6.4h-9.7v-21.7h25.6v-6.4H66.6V92.5h13.2v-6.4H66.6V66.9
		c0-2.4-2-4.4-4.4-4.4l0,0l0,0c-2.4,0-4.4,1.9-4.4,4.3c0,0,0,0,0,0.1v103.3h-0.4c-3.5,0-6.4,2.9-6.4,6.4v10.9H199v-10.9
		c0-3.5-2.9-6.4-6.4-6.4C192.5,170.1,192.3,170.1,192.2,170.2z"/>
</g>
</svg>
