<svg id="Layer_1" data-name="Layer 1" xmlns="http://www.w3.org/2000/svg" xmlns:xlink="http://www.w3.org/1999/xlink" viewBox="0 0 244.01 244.01"><defs><style>.cls-1{fill:none;}.cls-2{clip-path:url(#clip-path);}.cls-3{fill:#99cbe7;}.cls-4{fill:#bfa9cf;}.cls-5{fill:#a0d8d4;}.cls-6{fill:#fff;}.cls-7{fill:#602888;}.cls-8{fill:#129d94;}.cls-9{fill:#007dc3;}</style><clipPath id="clip-path" transform="translate(-4 -4)"><rect class="cls-1" x="4.5" y="4.5" width="243" height="243" rx="7.2"/></clipPath></defs><g class="cls-2"><polygon class="cls-3" points="223.59 0 0 0 0 70.77 119.69 104.68 223.59 0"/><polygon class="cls-4" points="0 74.14 0 244.01 157.11 244 118.46 107.71 0 74.14"/><polygon class="cls-5" points="122.38 106.58 121.94 108.15 160.47 244 244.01 244 244.01 0 228.16 0 122.38 106.58"/><circle class="cls-6" cx="119.73" cy="106.09" r="53.63"/><path class="cls-7" d="M102.63,105.92,86,101.47a39,39,0,0,0,46.66,46.66L128,130.62l-5.17-19.29Z" transform="translate(-4 -4)"/><path class="cls-8" d="M135.63,147.35a39,39,0,0,0,17.09-63.76l-26.95,27,5.51,20.58Z" transform="translate(-4 -4)"/><path class="cls-9" d="M150.57,81.44A39,39,0,0,0,86.81,98.53l14.83,4,22,5.89Z" transform="translate(-4 -4)"/><path class="cls-6" d="M119.58,132.76l-3.49-3.5-.22-.18a10,10,0,0,0,.52-9.85l-1.52,2.37a7.66,7.66,0,0,1,.29,2.1,7.82,7.82,0,1,1-3.34-6.4l1.23-1.92a10.09,10.09,0,1,0-.32,16.85l.18.21,3.5,3.49a2.24,2.24,0,1,0,3.17-3.17Z" transform="translate(-4 -4)"/><path class="cls-6" d="M111.06,121.86a1.72,1.72,0,0,0-.39,0,1.91,1.91,0,0,0-.92.24L108.54,121a2,2,0,0,0,.15-.72,1.89,1.89,0,1,0-3.26,1.3l-1.4,2.78-.24,0a1.89,1.89,0,1,0,1.88,1.88,1.81,1.81,0,0,0-.52-1.29l1.41-2.78h.24a1.85,1.85,0,0,0,.9-.23l1.22,1.1a1.8,1.8,0,0,0-.13.69,1.89,1.89,0,1,0,3.77,0,1.91,1.91,0,0,0-.42-1.19l3.58-5.6a2,2,0,0,0,.43,0,1.89,1.89,0,1,0-1.49-.73Z" transform="translate(-4 -4)"/><rect class="cls-6" x="109.81" y="86.84" width="2.33" height="1.03"/><rect class="cls-6" x="114.95" y="86.84" width="1.65" height="1.03"/><rect class="cls-6" x="112.28" y="82.45" width="2.88" height="1.03"/><rect class="cls-6" x="110.36" y="78.06" width="2.03" height="1.03"/><rect class="cls-6" x="115.13" y="78.06" width="3.6" height="1.03"/><path class="cls-6" d="M113.67,82v1.15a.73.73,0,0,1-.65.73.71.71,0,0,1-.79-.71V82a.72.72,0,1,1,1.44,0Z" transform="translate(-4 -4)"/><path class="cls-6" d="M118.48,82v1.15a.75.75,0,0,1-.65.74.72.72,0,0,1-.79-.72V82a.71.71,0,0,1,1.22-.53A.69.69,0,0,1,118.48,82Z" transform="translate(-4 -4)"/><path class="cls-6" d="M124.85,82v1.15a.73.73,0,0,1-.65.73.71.71,0,0,1-.79-.71V82a.71.71,0,0,1,1.22-.53A.69.69,0,0,1,124.85,82Z" transform="translate(-4 -4)"/><path class="cls-6" d="M121.28,86.38v1.15a.73.73,0,0,1-.65.73.71.71,0,0,1-.79-.71V86.4a.73.73,0,0,1,.71-.74.76.76,0,0,1,.52.21A.72.72,0,0,1,121.28,86.38Z" transform="translate(-4 -4)"/><path class="cls-6" d="M115.59,86.38v1.15a.73.73,0,0,1-.65.73.71.71,0,0,1-.79-.71V86.4a.71.71,0,0,1,1.22-.53A.69.69,0,0,1,115.59,86.38Z" transform="translate(-4 -4)"/><path class="cls-6" d="M118.26,90.77v1.15a.73.73,0,0,1-.65.73.71.71,0,0,1-.79-.71V90.79a.73.73,0,0,1,.71-.74.74.74,0,0,1,.52.21A.72.72,0,0,1,118.26,90.77Z" transform="translate(-4 -4)"/><path class="cls-6" d="M113.12,90.77v1.15a.73.73,0,0,1-.65.73.71.71,0,0,1-.79-.71V90.79a.73.73,0,0,1,.7-.74.77.77,0,0,1,.53.21A.72.72,0,0,1,113.12,90.77Z" transform="translate(-4 -4)"/><path class="cls-6" d="M122.72,90.77v1.15a.73.73,0,0,1-.65.73.71.71,0,0,1-.79-.71V90.79a.73.73,0,0,1,.71-.74.76.76,0,0,1,.52.21A.72.72,0,0,1,122.72,90.77Z" transform="translate(-4 -4)"/><path class="cls-6" d="M129.09,95.2H129V79.11a.68.68,0,0,0-.69-.68h0a.68.68,0,0,0-.68.68v3h-2.13v1h2.13v3.36H122v1h5.69v3.36h-4.25v1h4.25V95.2H109.48V91.87H111v-1h-1.51V87.48h4v-1h-4V83.09h2.06v-1h-2.06v-3a.68.68,0,0,0-.68-.68h0a.68.68,0,0,0-.69.68V95.2h-.06a1,1,0,0,0-1,1v1.7h23.08v-1.7A1,1,0,0,0,129.09,95.2Z" transform="translate(-4 -4)"/><rect class="cls-6" x="135.95" y="105.36" width="8.27" height="1.56"/><rect class="cls-6" x="135.95" y="113.05" width="5.27" height="1.56"/><polygon class="cls-6" points="135.95 109.21 135.95 110.76 141.3 110.76 142.85 109.21 135.95 109.21"/><path class="cls-6" d="M142.7,122.2s-.32,3.31-2.46,3.31h-.12c-1.28,0-2.21-.69-2.21-2.59V107.45a1.56,1.56,0,0,1,1.57-1.52h11.78a1.56,1.56,0,0,1,1.55,1.33l1.91-1.92a1.88,1.88,0,0,0-1.76-1.22H137.77a1.89,1.89,0,0,0-1.88,1.89v16.71c0,4,1.74,4.81,4,4.81h14.05s3.59-.39,3.59-5.33Z" transform="translate(-4 -4)"/><polygon class="cls-6" points="148.83 114.67 148.83 116.75 150.85 116.75 150.85 112.65 148.83 114.67"/><path class="cls-6" d="M155.15,107.15l-7.58,7.58-.87,4.35,4.35-.87,7.58-7.58Zm-6.94,10.42.37-1.83L150,117.2Z" transform="translate(-4 -4)"/><path d="M37.58,183.32l-3-9.44h2.34l1.15,4c.32,1.12.62,2.2.84,3.37h0c.24-1.13.54-2.25.86-3.33l1.2-4h2.27l-3.18,9.44Z" transform="translate(-4 -4)"/><path d="M45.82,180.57c.07.88.94,1.31,1.94,1.31a5.86,5.86,0,0,0,1.89-.29l.28,1.45a6.78,6.78,0,0,1-2.48.42c-2.33,0-3.66-1.35-3.66-3.49a3.43,3.43,0,0,1,3.46-3.66c2.22,0,3.06,1.73,3.06,3.42a6,6,0,0,1-.07.84Zm2.51-1.45a1.23,1.23,0,0,0-1.2-1.39,1.4,1.4,0,0,0-1.32,1.39Z" transform="translate(-4 -4)"/><path d="M51.58,178.72c0-1,0-1.66-.06-2.25h1.84l.07,1.26h0a2,2,0,0,1,1.85-1.42,2.08,2.08,0,0,1,.45,0v2a4.18,4.18,0,0,0-.58-.05,1.36,1.36,0,0,0-1.45,1.08,2.35,2.35,0,0,0,0,.47v3.48H51.58Z" transform="translate(-4 -4)"/><path d="M59.1,174.56A1.07,1.07,0,0,1,58,175.63a1.08,1.08,0,1,1,0-2.15A1.08,1.08,0,0,1,59.1,174.56Zm-2.2,8.76v-6.85H59v6.85Z" transform="translate(-4 -4)"/><path d="M61,183.32V178h-.9v-1.57H61v-.3c0-1.89,1.47-2.95,3.59-2.95a4.61,4.61,0,0,1,2,.42l-.4,1.61a3.43,3.43,0,0,0-1.56-.35c-1.12,0-1.51.57-1.51,1.33v.24h4.16v6.85H65.13V178h-2v5.28Z" transform="translate(-4 -4)"/><path d="M74.1,183.15a5.09,5.09,0,0,1-1.9.31,3.33,3.33,0,0,1-3.63-3.5,3.57,3.57,0,0,1,3.92-3.65,4.93,4.93,0,0,1,1.63.27l-.34,1.58a2.94,2.94,0,0,0-1.19-.21,1.92,1.92,0,0,0,0,3.84,3.18,3.18,0,0,0,1.22-.21Z" transform="translate(-4 -4)"/><path d="M79.17,183.32l-.12-.69h0a2.43,2.43,0,0,1-2,.84,2.1,2.1,0,0,1-2.21-2.1c0-1.78,1.6-2.63,4-2.62v-.1c0-.36-.2-.88-1.25-.88a3.86,3.86,0,0,0-1.89.52l-.39-1.37a5.59,5.59,0,0,1,2.66-.61c2.29,0,3,1.35,3,3v2.38a10.62,10.62,0,0,0,.1,1.67Zm-.25-3.24c-1.12,0-2,.25-2,1.08a.76.76,0,0,0,.84.81,1.17,1.17,0,0,0,1.11-.78,1.45,1.45,0,0,0,0-.37Z" transform="translate(-4 -4)"/><path d="M85.05,174.51v2h1.53V178H85.05v2.48c0,.82.2,1.2.84,1.2a3.18,3.18,0,0,0,.63-.06l0,1.62a4.28,4.28,0,0,1-1.39.18,2.22,2.22,0,0,1-1.6-.59,2.86,2.86,0,0,1-.59-2V178h-.91v-1.57H83V175Z" transform="translate(-4 -4)"/><path d="M90,174.56a1.07,1.07,0,0,1-1.15,1.07,1.08,1.08,0,1,1,0-2.15A1.08,1.08,0,0,1,90,174.56Zm-2.2,8.76v-6.85h2.13v6.85Z" transform="translate(-4 -4)"/><path d="M98.41,179.82a3.44,3.44,0,0,1-3.61,3.65,3.36,3.36,0,0,1-3.55-3.53,3.43,3.43,0,0,1,3.66-3.63A3.34,3.34,0,0,1,98.41,179.82Zm-5,.07c0,1.17.49,2.05,1.4,2.05s1.36-.82,1.36-2.05c0-1-.39-2.06-1.36-2.06S93.45,178.88,93.45,179.89Z" transform="translate(-4 -4)"/><path d="M99.72,178.65c0-.85,0-1.58,0-2.18h1.85l.09.94h0a2.49,2.49,0,0,1,2.11-1.1c1.4,0,2.45.93,2.45,2.94v4.07h-2.13v-3.8c0-.88-.31-1.48-1.08-1.48a1.13,1.13,0,0,0-1.07.79,1.42,1.42,0,0,0-.09.54v3.95H99.72Z" transform="translate(-4 -4)"/><path d="M69.66,18c0-1.14-.09-2.51-.09-3.88h0c-.29,1.2-.69,2.55-1,3.65l-1.15,3.69H65.66l-1-3.66c-.31-1.11-.64-2.45-.86-3.68h0c-.05,1.27-.1,2.73-.17,3.9l-.16,3.59h-2l.6-9.44h2.85l.92,3.15c.3,1.09.59,2.27.8,3.38h0c.27-1.1.59-2.34.9-3.39l1-3.14h2.78l.52,9.44H69.8Z" transform="translate(-4 -4)"/><path d="M75.08,18.82c.07.89.94,1.31,1.94,1.31a6.11,6.11,0,0,0,1.89-.28l.28,1.44a6.78,6.78,0,0,1-2.48.42c-2.33,0-3.66-1.34-3.66-3.49a3.43,3.43,0,0,1,3.46-3.65c2.22,0,3.06,1.72,3.06,3.41a6,6,0,0,1-.07.84Zm2.51-1.45A1.23,1.23,0,0,0,76.39,16a1.4,1.4,0,0,0-1.32,1.39Z" transform="translate(-4 -4)"/><path d="M84.73,21.57l-.12-.69h0a2.45,2.45,0,0,1-2,.84,2.1,2.1,0,0,1-2.21-2.1c0-1.78,1.6-2.63,4-2.62v-.09c0-.37-.2-.89-1.25-.89a3.86,3.86,0,0,0-1.89.52l-.39-1.37a5.61,5.61,0,0,1,2.66-.6c2.28,0,3,1.34,3,2.95V19.9a10.62,10.62,0,0,0,.1,1.67Zm-.25-3.24c-1.12,0-2,.26-2,1.08a.77.77,0,0,0,.84.82,1.17,1.17,0,0,0,1.11-.79,1.42,1.42,0,0,0,0-.36Z" transform="translate(-4 -4)"/><path d="M88.22,19.71a4.11,4.11,0,0,0,1.83.52c.64,0,.91-.23.91-.58s-.21-.52-1-.78c-1.41-.48-2-1.25-1.94-2.06,0-1.28,1.09-2.24,2.78-2.24a4.63,4.63,0,0,1,1.94.39l-.38,1.47A3.36,3.36,0,0,0,90.86,16c-.52,0-.81.21-.81.56s.27.49,1.11.78c1.3.45,1.85,1.11,1.86,2.12,0,1.27-1,2.21-3,2.21a4.83,4.83,0,0,1-2.21-.48Z" transform="translate(-4 -4)"/><path d="M100.76,19.37c0,.9,0,1.63.06,2.2H99l-.1-1h0a2.45,2.45,0,0,1-2.14,1.12c-1.39,0-2.41-.86-2.41-3v-4h2.14V18.4c0,1,.32,1.6,1.06,1.6a1.14,1.14,0,0,0,1.14-1.2V14.72h2.14Z" transform="translate(-4 -4)"/><path d="M102.47,17c0-1,0-1.67-.06-2.26h1.84l.07,1.26h.05a2,2,0,0,1,1.85-1.41,3,3,0,0,1,.45,0v2a2.84,2.84,0,0,0-.57-.06,1.37,1.37,0,0,0-1.46,1.08,2.39,2.39,0,0,0,0,.48v3.47h-2.13Z" transform="translate(-4 -4)"/><path d="M109.43,18.82c.07.89.93,1.31,1.93,1.31a6.06,6.06,0,0,0,1.89-.28l.28,1.44a6.75,6.75,0,0,1-2.48.42c-2.32,0-3.65-1.34-3.65-3.49a3.42,3.42,0,0,1,3.45-3.65c2.22,0,3.06,1.72,3.06,3.41a4.74,4.74,0,0,1-.07.84Zm2.5-1.45a1.23,1.23,0,0,0-1.2-1.39,1.4,1.4,0,0,0-1.32,1.39Z" transform="translate(-4 -4)"/><path d="M115.18,16.91c0-.86,0-1.59-.06-2.19h1.8l.09.93h0a2.35,2.35,0,0,1,2.07-1.08A1.94,1.94,0,0,1,121,15.73h0a3.16,3.16,0,0,1,.89-.83,2.49,2.49,0,0,1,1.3-.33c1.32,0,2.31.92,2.31,3v4h-2.07V17.84c0-1-.32-1.56-1-1.56a1,1,0,0,0-1,.74,1.65,1.65,0,0,0-.09.54v4h-2.07V17.73c0-.87-.31-1.45-1-1.45a1.07,1.07,0,0,0-1,.77,1.38,1.38,0,0,0-.09.53v4h-2.07Z" transform="translate(-4 -4)"/><path d="M128.86,18.82c.07.89.94,1.31,1.93,1.31a6.06,6.06,0,0,0,1.89-.28l.28,1.44a6.75,6.75,0,0,1-2.48.42c-2.32,0-3.65-1.34-3.65-3.49a3.43,3.43,0,0,1,3.46-3.65c2.21,0,3.05,1.72,3.05,3.41a4.74,4.74,0,0,1-.07.84Zm2.51-1.45A1.24,1.24,0,0,0,130.16,16a1.4,1.4,0,0,0-1.32,1.39Z" transform="translate(-4 -4)"/><path d="M134.61,16.91c0-.86,0-1.59-.06-2.19h1.85l.1.94h0a2.52,2.52,0,0,1,2.12-1.09c1.4,0,2.45.92,2.45,2.94v4.06H139v-3.8c0-.88-.31-1.48-1.08-1.48a1.14,1.14,0,0,0-1.08.8,1.56,1.56,0,0,0-.08.53v3.95h-2.13Z" transform="translate(-4 -4)"/><path d="M145.2,12.76v2h1.52v1.57H145.2v2.48c0,.83.19,1.2.84,1.2a3.48,3.48,0,0,0,.63,0v1.61a4.23,4.23,0,0,1-1.39.18,2.2,2.2,0,0,1-1.59-.59,2.78,2.78,0,0,1-.59-2v-2.8h-.91V14.72h.91V13.24Z" transform="translate(-4 -4)"/><path d="M171.12,151.8a17.78,17.78,0,0,1,2.85-.2,4.82,4.82,0,0,1,3.05.74,2.41,2.41,0,0,1,.87,2,2.49,2.49,0,0,1-1.67,2.32v0a2.37,2.37,0,0,1,1.26,1.77c.3,1.06.59,2.3.77,2.66h-2.18a12,12,0,0,1-.66-2.2c-.25-1.17-.66-1.5-1.53-1.51h-.64v3.71h-2.12Zm2.12,4.06h.84c1.06,0,1.7-.53,1.7-1.36s-.59-1.3-1.57-1.32a5.14,5.14,0,0,0-1,.07Z" transform="translate(-4 -4)"/><path d="M181,158.37c.07.88.93,1.3,1.93,1.3a6.06,6.06,0,0,0,1.89-.28l.28,1.44a6.78,6.78,0,0,1-2.48.42c-2.33,0-3.66-1.34-3.66-3.49a3.43,3.43,0,0,1,3.46-3.65c2.22,0,3.06,1.72,3.06,3.42a5,5,0,0,1-.07.84Zm2.5-1.46a1.23,1.23,0,0,0-1.2-1.39,1.4,1.4,0,0,0-1.32,1.39Z" transform="translate(-4 -4)"/><path d="M186.75,156.56c0-.9,0-1.67-.06-2.3h1.85l.1,1h0a2.64,2.64,0,0,1,2.28-1.1c1.5,0,2.84,1.3,2.84,3.49,0,2.49-1.58,3.67-3.11,3.67a2.1,2.1,0,0,1-1.77-.79h0v3.4h-2.13Zm2.13,1.61a2,2,0,0,0,0,.45,1.3,1.3,0,0,0,1.25,1c.92,0,1.47-.77,1.47-1.94s-.49-1.92-1.45-1.92a1.34,1.34,0,0,0-1.27,1.08,1.58,1.58,0,0,0,0,.38Z" transform="translate(-4 -4)"/><path d="M201.89,157.61a3.44,3.44,0,0,1-3.62,3.66,3.36,3.36,0,0,1-3.54-3.53,3.41,3.41,0,0,1,3.65-3.63A3.33,3.33,0,0,1,201.89,157.61Zm-5,.07c0,1.18.49,2.06,1.4,2.06s1.36-.83,1.36-2.06c0-1-.4-2.06-1.36-2.06S196.93,156.67,196.93,157.68Z" transform="translate(-4 -4)"/><path d="M203.2,156.52c0-1,0-1.67-.06-2.26H205l.07,1.26h0a2,2,0,0,1,2.3-1.38v2a2.84,2.84,0,0,0-.57-.06,1.37,1.37,0,0,0-1.46,1.08,2.39,2.39,0,0,0,0,.48v3.47H203.2Z" transform="translate(-4 -4)"/><path d="M210.9,152.3v2h1.53v1.57H210.9v2.48c0,.83.2,1.2.84,1.2a3.32,3.32,0,0,0,.63,0v1.61a4.21,4.21,0,0,1-1.38.18,2.22,2.22,0,0,1-1.6-.59,2.83,2.83,0,0,1-.59-2v-2.8h-.91v-1.57h.91v-1.48Z" transform="translate(-4 -4)"/><path d="M215.86,152.36a1.07,1.07,0,0,1-1.15,1.06,1.07,1.07,0,1,1,0-2.14A1.07,1.07,0,0,1,215.86,152.36Zm-2.2,8.75v-6.85h2.13v6.85Z" transform="translate(-4 -4)"/><path d="M217.49,156.45c0-.86,0-1.59-.05-2.19h1.85l.09.94h0a2.55,2.55,0,0,1,2.12-1.09c1.4,0,2.45.92,2.45,2.94v4.06h-2.13v-3.79c0-.89-.31-1.49-1.08-1.49a1.14,1.14,0,0,0-1.07.8,1.33,1.33,0,0,0-.09.53v4h-2.13Z" transform="translate(-4 -4)"/><path d="M232.24,154.26c0,.44-.06,1-.06,2v3.83a4,4,0,0,1-1,3.08,4.26,4.26,0,0,1-2.79.84,5.36,5.36,0,0,1-2.47-.53l.42-1.61a4.26,4.26,0,0,0,2,.51,1.63,1.63,0,0,0,1.78-1.8v-.45h0a2.19,2.19,0,0,1-1.85.9c-1.69,0-2.9-1.38-2.9-3.35,0-2.2,1.43-3.6,3.11-3.6a2.06,2.06,0,0,1,1.88,1h0l.07-.81Zm-2.19,2.79a1.56,1.56,0,0,0,0-.39,1.17,1.17,0,0,0-1.15-.94c-.77,0-1.4.7-1.4,1.95,0,1,.51,1.82,1.4,1.82a1.16,1.16,0,0,0,1.12-.87,1.72,1.72,0,0,0,.07-.56Z" transform="translate(-4 -4)"/><path d="M15.37,28.47h-2v-.74h5v.74H16.25v6h-.88Z" transform="translate(-4 -4)"/><path d="M18.58,31.13c0-.57,0-1.05,0-1.5h.77l0,.95h0a1.45,1.45,0,0,1,1.34-1.06,1,1,0,0,1,.25,0v.83a.92.92,0,0,0-.3,0,1.22,1.22,0,0,0-1.18,1.12,2.48,2.48,0,0,0,0,.41v2.58h-.87Z" transform="translate(-4 -4)"/><path d="M24.48,34.46l-.07-.61h0a1.8,1.8,0,0,1-1.48.72,1.38,1.38,0,0,1-1.48-1.39c0-1.17,1-1.81,2.91-1.8v-.1a1,1,0,0,0-1.1-1.11,2.5,2.5,0,0,0-1.26.35l-.2-.57a3,3,0,0,1,1.59-.43c1.48,0,1.84,1,1.84,2V33.3a6.81,6.81,0,0,0,.08,1.16ZM24.35,32c-1,0-2.05.15-2.05,1.09a.78.78,0,0,0,.83.84,1.2,1.2,0,0,0,1.17-.81.92.92,0,0,0,.05-.28Z" transform="translate(-4 -4)"/><path d="M30.07,34.28a3.24,3.24,0,0,1-1.39.28,2.3,2.3,0,0,1-2.41-2.47,2.45,2.45,0,0,1,2.6-2.56,2.94,2.94,0,0,1,1.22.25l-.2.68a1.94,1.94,0,0,0-1-.23,1.82,1.82,0,0,0,0,3.63,2.5,2.5,0,0,0,1.08-.24Z" transform="translate(-4 -4)"/><path d="M32,31.84h0c.12-.17.29-.38.43-.55l1.42-1.66H34.9l-1.87,2,2.13,2.85H34.09l-1.67-2.32-.45.5v1.82H31.1V27.37H32Z" transform="translate(-4 -4)"/><path d="M36.94,28.27a.55.55,0,0,1-1.09,0,.54.54,0,0,1,.55-.55A.52.52,0,0,1,36.94,28.27Zm-1,6.19V29.63h.88v4.83Z" transform="translate(-4 -4)"/><path d="M38.3,30.94c0-.5,0-.91,0-1.31H39l.05.8h0a1.78,1.78,0,0,1,1.6-.91c.67,0,1.71.4,1.71,2.05v2.89h-.88V31.67c0-.77-.29-1.42-1.12-1.42a1.24,1.24,0,0,0-1.18.89,1.27,1.27,0,0,0-.06.41v2.91H38.3Z" transform="translate(-4 -4)"/><path d="M48,29.63c0,.35,0,.74,0,1.32v2.81A2.78,2.78,0,0,1,47.29,36a2.57,2.57,0,0,1-1.76.58,3.12,3.12,0,0,1-1.61-.4l.22-.67a2.73,2.73,0,0,0,1.42.38c.9,0,1.56-.47,1.56-1.69v-.54h0a1.73,1.73,0,0,1-1.54.81,2.16,2.16,0,0,1-2.06-2.36,2.32,2.32,0,0,1,2.18-2.56,1.62,1.62,0,0,1,1.51.83h0l0-.72Zm-.91,1.9a1.28,1.28,0,0,0-1.28-1.32c-.84,0-1.44.71-1.44,1.82,0,.95.48,1.74,1.43,1.74a1.29,1.29,0,0,0,1.22-.9,1.53,1.53,0,0,0,.07-.47Z" transform="translate(-4 -4)"/><path d="M54.24,34.46l-.07-.61h0a1.8,1.8,0,0,1-1.48.72,1.38,1.38,0,0,1-1.48-1.39c0-1.17,1-1.81,2.91-1.8v-.1A1,1,0,0,0,53,30.17a2.5,2.5,0,0,0-1.26.35l-.2-.57a3,3,0,0,1,1.59-.43c1.48,0,1.84,1,1.84,2V33.3A6.81,6.81,0,0,0,55,34.46ZM54.11,32c-1,0-2,.15-2,1.09a.78.78,0,0,0,.83.84,1.2,1.2,0,0,0,1.17-.81.92.92,0,0,0,0-.28Z" transform="translate(-4 -4)"/><path d="M56.38,30.94c0-.5,0-.91,0-1.31h.78l.05.8h0a1.78,1.78,0,0,1,1.6-.91c.67,0,1.71.4,1.71,2.05v2.89h-.88V31.67c0-.77-.29-1.42-1.12-1.42a1.24,1.24,0,0,0-1.18.89,1.27,1.27,0,0,0-.06.41v2.91h-.88Z" transform="translate(-4 -4)"/><path d="M66.11,27.37v5.84c0,.43,0,.92,0,1.25h-.79l0-.84h0a1.79,1.79,0,0,1-1.65,1,2.21,2.21,0,0,1-2.07-2.46,2.31,2.31,0,0,1,2.17-2.59,1.62,1.62,0,0,1,1.46.74h0V27.37Zm-.88,4.22a1.55,1.55,0,0,0,0-.37,1.3,1.3,0,0,0-1.27-1c-.91,0-1.45.79-1.45,1.86s.48,1.79,1.43,1.79a1.32,1.32,0,0,0,1.29-1,1.53,1.53,0,0,0,0-.38Z" transform="translate(-4 -4)"/><path d="M73.87,27.37v5.84c0,.43,0,.92,0,1.25h-.79l0-.84h0a1.79,1.79,0,0,1-1.65,1,2.21,2.21,0,0,1-2.07-2.46,2.31,2.31,0,0,1,2.17-2.59,1.62,1.62,0,0,1,1.46.74h0V27.37ZM73,31.59a1.55,1.55,0,0,0,0-.37,1.3,1.3,0,0,0-1.27-1c-.91,0-1.45.79-1.45,1.86s.48,1.79,1.43,1.79a1.32,1.32,0,0,0,1.29-1,1.53,1.53,0,0,0,0-.38Z" transform="translate(-4 -4)"/><path d="M79.71,32a2.37,2.37,0,0,1-2.41,2.57A2.3,2.3,0,0,1,75,32.08a2.35,2.35,0,0,1,2.4-2.56A2.28,2.28,0,0,1,79.71,32Zm-3.84,0c0,1.06.61,1.86,1.47,1.86s1.47-.79,1.47-1.88c0-.82-.41-1.85-1.45-1.85S75.87,31.13,75.87,32.05Z" transform="translate(-4 -4)"/><path d="M84.27,34.28a3.24,3.24,0,0,1-1.39.28,2.3,2.3,0,0,1-2.41-2.47,2.45,2.45,0,0,1,2.6-2.56,2.94,2.94,0,0,1,1.22.25l-.2.68a1.94,1.94,0,0,0-1-.23,1.82,1.82,0,0,0,0,3.63,2.5,2.5,0,0,0,1.08-.24Z" transform="translate(-4 -4)"/><path d="M89.35,33.14c0,.5,0,.94,0,1.32h-.78l0-.79h0a1.82,1.82,0,0,1-1.6.9c-.76,0-1.67-.42-1.67-2.12V29.63h.88V32.3c0,.92.28,1.54,1.08,1.54a1.27,1.27,0,0,0,1.16-.8,1.29,1.29,0,0,0,.08-.45v-3h.88Z" transform="translate(-4 -4)"/><path d="M90.81,30.94c0-.5,0-.91,0-1.31h.77l0,.78h0a1.67,1.67,0,0,1,1.52-.89,1.44,1.44,0,0,1,1.37,1h0a2.07,2.07,0,0,1,.54-.62,1.65,1.65,0,0,1,1.07-.34c.64,0,1.59.42,1.59,2.09v2.85h-.86V31.72c0-.93-.34-1.48-1-1.48a1.13,1.13,0,0,0-1,.79,1.45,1.45,0,0,0-.07.44v3h-.86v-2.9c0-.77-.34-1.32-1-1.32a1.19,1.19,0,0,0-1.09.87,1.21,1.21,0,0,0-.07.43v2.92h-.86Z" transform="translate(-4 -4)"/><path d="M99.64,32.2a1.55,1.55,0,0,0,1.66,1.68,3.18,3.18,0,0,0,1.34-.25l.15.63a3.92,3.92,0,0,1-1.61.3,2.25,2.25,0,0,1-2.38-2.44,2.35,2.35,0,0,1,2.27-2.6,2,2,0,0,1,2,2.27,3.32,3.32,0,0,1,0,.41Zm2.58-.63A1.24,1.24,0,0,0,101,30.15a1.45,1.45,0,0,0-1.35,1.42Z" transform="translate(-4 -4)"/><path d="M104.16,30.94c0-.5,0-.91,0-1.31h.78l0,.8h0a1.78,1.78,0,0,1,1.6-.91c.67,0,1.71.4,1.71,2.05v2.89h-.88V31.67c0-.77-.29-1.42-1.12-1.42a1.24,1.24,0,0,0-1.18.89,1.27,1.27,0,0,0-.06.41v2.91h-.88Z" transform="translate(-4 -4)"/><path d="M110.73,28.24v1.39H112v.67h-1.26v2.6c0,.6.17.94.66.94a2,2,0,0,0,.51-.06l0,.66a2.15,2.15,0,0,1-.78.12,1.22,1.22,0,0,1-1-.37,1.79,1.79,0,0,1-.34-1.26V30.3h-.75v-.67h.75V28.47Z" transform="translate(-4 -4)"/><path d="M115.66,34.46l-.07-.61h0a1.8,1.8,0,0,1-1.48.72,1.38,1.38,0,0,1-1.48-1.39c0-1.17,1-1.81,2.91-1.8v-.1a1,1,0,0,0-1.1-1.11,2.5,2.5,0,0,0-1.26.35L113,30a3,3,0,0,1,1.59-.43c1.48,0,1.84,1,1.84,2V33.3a6.81,6.81,0,0,0,.08,1.16ZM115.53,32c-1,0-2,.15-2,1.09a.78.78,0,0,0,.83.84,1.2,1.2,0,0,0,1.17-.81.92.92,0,0,0,0-.28Z" transform="translate(-4 -4)"/><path d="M118.82,28.24v1.39h1.26v.67h-1.26v2.6c0,.6.17.94.66.94a2,2,0,0,0,.51-.06l0,.66a2.15,2.15,0,0,1-.78.12,1.22,1.22,0,0,1-1-.37,1.79,1.79,0,0,1-.34-1.26V30.3h-.75v-.67H118V28.47Z" transform="translate(-4 -4)"/><path d="M122.05,28.27a.55.55,0,0,1-1.09,0,.54.54,0,0,1,.55-.55A.52.52,0,0,1,122.05,28.27Zm-1,6.19V29.63H122v4.83Z" transform="translate(-4 -4)"/><path d="M127.79,32a2.37,2.37,0,0,1-2.41,2.57,2.3,2.3,0,0,1-2.32-2.49,2.35,2.35,0,0,1,2.4-2.56A2.28,2.28,0,0,1,127.79,32Zm-3.84,0c0,1.06.61,1.86,1.47,1.86s1.47-.79,1.47-1.88c0-.82-.41-1.85-1.45-1.85S124,31.13,124,32.05Z" transform="translate(-4 -4)"/><path d="M128.9,30.94c0-.5,0-.91,0-1.31h.78l.05.8h0a1.78,1.78,0,0,1,1.6-.91c.67,0,1.71.4,1.71,2.05v2.89h-.88V31.67c0-.77-.29-1.42-1.12-1.42a1.24,1.24,0,0,0-1.18.89,1.27,1.27,0,0,0-.06.41v2.91h-.88Z" transform="translate(-4 -4)"/><path d="M141,32a2.37,2.37,0,0,1-2.41,2.57,2.3,2.3,0,0,1-2.32-2.49,2.35,2.35,0,0,1,2.4-2.56A2.28,2.28,0,0,1,141,32Zm-3.84,0c0,1.06.61,1.86,1.47,1.86s1.47-.79,1.47-1.88c0-.82-.41-1.85-1.45-1.85S137.11,31.13,137.11,32.05Z" transform="translate(-4 -4)"/><path d="M142.15,34.46V30.3h-.68v-.67h.68V29.4a2.28,2.28,0,0,1,.56-1.69,1.68,1.68,0,0,1,1.18-.45,2,2,0,0,1,.75.14l-.12.68A1.31,1.31,0,0,0,144,28c-.75,0-.94.66-.94,1.4v.26h1.17v.67H143v4.16Z" transform="translate(-4 -4)"/><path d="M151.28,27.37v5.84c0,.43,0,.92,0,1.25h-.79l0-.84h0a1.79,1.79,0,0,1-1.65,1,2.21,2.21,0,0,1-2.07-2.46,2.31,2.31,0,0,1,2.17-2.59,1.62,1.62,0,0,1,1.46.74h0V27.37Zm-.88,4.22a1.55,1.55,0,0,0,0-.37,1.3,1.3,0,0,0-1.27-1c-.91,0-1.45.79-1.45,1.86s.48,1.79,1.43,1.79a1.32,1.32,0,0,0,1.29-1,1.53,1.53,0,0,0,0-.38Z" transform="translate(-4 -4)"/><path d="M155.42,34.46l-.07-.61h0a1.8,1.8,0,0,1-1.48.72,1.38,1.38,0,0,1-1.48-1.39c0-1.17,1-1.81,2.91-1.8v-.1a1,1,0,0,0-1.1-1.11,2.5,2.5,0,0,0-1.26.35l-.2-.57a3,3,0,0,1,1.59-.43c1.48,0,1.84,1,1.84,2V33.3a6.81,6.81,0,0,0,.08,1.16ZM155.29,32c-1,0-2,.15-2,1.09a.78.78,0,0,0,.83.84,1.2,1.2,0,0,0,1.17-.81.92.92,0,0,0,0-.28Z" transform="translate(-4 -4)"/><path d="M158.58,28.24v1.39h1.26v.67h-1.26v2.6c0,.6.17.94.66.94a2,2,0,0,0,.51-.06l0,.66a2.15,2.15,0,0,1-.78.12,1.22,1.22,0,0,1-.95-.37,1.79,1.79,0,0,1-.34-1.26V30.3H157v-.67h.75V28.47Z" transform="translate(-4 -4)"/><path d="M163.51,34.46l-.07-.61h0a1.8,1.8,0,0,1-1.48.72,1.38,1.38,0,0,1-1.48-1.39c0-1.17,1-1.81,2.91-1.8v-.1a1,1,0,0,0-1.1-1.11,2.5,2.5,0,0,0-1.26.35l-.2-.57a3,3,0,0,1,1.59-.43c1.48,0,1.84,1,1.84,2V33.3a6.81,6.81,0,0,0,.08,1.16ZM163.38,32c-1,0-2,.15-2,1.09a.78.78,0,0,0,.83.84,1.2,1.2,0,0,0,1.17-.81.92.92,0,0,0,0-.28Z" transform="translate(-4 -4)"/><path d="M18.44,42A2.37,2.37,0,0,1,16,44.57a2.3,2.3,0,0,1-2.32-2.49,2.35,2.35,0,0,1,2.4-2.56A2.28,2.28,0,0,1,18.44,42Zm-3.84,0c0,1.06.61,1.86,1.47,1.86s1.47-.79,1.47-1.88c0-.82-.41-1.85-1.45-1.85S14.6,41.13,14.6,42.05Z" transform="translate(-4 -4)"/><path d="M19.55,40.94c0-.5,0-.91,0-1.31h.78l.05.8h0a1.78,1.78,0,0,1,1.6-.91c.67,0,1.71.4,1.71,2v2.89h-.88V41.67c0-.77-.29-1.42-1.12-1.42a1.24,1.24,0,0,0-1.18.89,1.27,1.27,0,0,0-.06.41v2.91h-.88Z" transform="translate(-4 -4)"/><path d="M32.38,44.16a6.28,6.28,0,0,1-2.07.37,3.17,3.17,0,0,1-3.46-3.4,3.38,3.38,0,0,1,3.65-3.47,4.17,4.17,0,0,1,1.68.31l-.21.71a3.49,3.49,0,0,0-1.49-.29,2.52,2.52,0,0,0-2.71,2.7,2.47,2.47,0,0,0,2.6,2.72,2.84,2.84,0,0,0,1.16-.18v-2H30.16v-.7h2.22Z" transform="translate(-4 -4)"/><path d="M34.58,37.73v2.81h3.26V37.73h.88v6.73h-.88V41.3H34.58v3.16h-.87V37.73Z" transform="translate(-4 -4)"/><path d="M45.36,44.16a6.28,6.28,0,0,1-2.07.37,3.17,3.17,0,0,1-3.46-3.4,3.38,3.38,0,0,1,3.65-3.47,4.17,4.17,0,0,1,1.68.31l-.21.71a3.49,3.49,0,0,0-1.49-.29,2.52,2.52,0,0,0-2.71,2.7,2.47,2.47,0,0,0,2.6,2.72,2.84,2.84,0,0,0,1.16-.18v-2H43.14v-.7h2.22Z" transform="translate(-4 -4)"/><path d="M49.27,42.2a1.55,1.55,0,0,0,1.66,1.68,3.18,3.18,0,0,0,1.34-.25l.15.63a3.92,3.92,0,0,1-1.61.3,2.25,2.25,0,0,1-2.38-2.44,2.35,2.35,0,0,1,2.27-2.6,2,2,0,0,1,2,2.27,3.32,3.32,0,0,1,0,.41Zm2.58-.63a1.24,1.24,0,0,0-1.22-1.42,1.45,1.45,0,0,0-1.35,1.42Z" transform="translate(-4 -4)"/><path d="M53.79,40.94c0-.5,0-.91,0-1.31h.77l0,.78h0a1.67,1.67,0,0,1,1.52-.89,1.44,1.44,0,0,1,1.37,1h0a2.07,2.07,0,0,1,.54-.62,1.65,1.65,0,0,1,1.07-.34c.64,0,1.59.42,1.59,2.09v2.85h-.86V41.72c0-.93-.34-1.48-1.05-1.48a1.13,1.13,0,0,0-1,.79,1.45,1.45,0,0,0-.07.44v3h-.86v-2.9c0-.77-.34-1.32-1-1.32a1.19,1.19,0,0,0-1.09.87,1.21,1.21,0,0,0-.07.43v2.92h-.86Z" transform="translate(-4 -4)"/><path d="M63.11,38.27a.55.55,0,0,1-1.09,0,.54.54,0,0,1,.55-.55A.52.52,0,0,1,63.11,38.27Zm-1,6.19V39.63H63v4.83Z" transform="translate(-4 -4)"/><path d="M64.35,43.56a2.31,2.31,0,0,0,1.16.35c.64,0,.94-.32.94-.72s-.25-.65-.9-.89c-.87-.31-1.28-.79-1.28-1.36a1.49,1.49,0,0,1,1.67-1.42,2.42,2.42,0,0,1,1.19.3l-.22.64a1.8,1.8,0,0,0-1-.28c-.52,0-.81.3-.81.65s.29.58.92.82c.84.32,1.27.74,1.27,1.46s-.66,1.45-1.81,1.45a2.76,2.76,0,0,1-1.36-.33Z" transform="translate(-4 -4)"/><path d="M68.31,43.56a2.31,2.31,0,0,0,1.16.35c.64,0,.94-.32.94-.72s-.25-.65-.9-.89c-.87-.31-1.28-.79-1.28-1.36a1.49,1.49,0,0,1,1.67-1.42,2.42,2.42,0,0,1,1.19.3l-.22.64a1.8,1.8,0,0,0-1-.28c-.52,0-.81.3-.81.65s.29.58.92.82c.84.32,1.27.74,1.27,1.46s-.66,1.45-1.81,1.45a2.76,2.76,0,0,1-1.36-.33Z" transform="translate(-4 -4)"/><path d="M73.37,38.27a.55.55,0,0,1-1.09,0,.54.54,0,0,1,.55-.55A.52.52,0,0,1,73.37,38.27Zm-1,6.19V39.63h.88v4.83Z" transform="translate(-4 -4)"/><path d="M79.11,42a2.37,2.37,0,0,1-2.41,2.57,2.3,2.3,0,0,1-2.32-2.49,2.35,2.35,0,0,1,2.4-2.56A2.28,2.28,0,0,1,79.11,42Zm-3.84,0c0,1.06.61,1.86,1.47,1.86s1.47-.79,1.47-1.88c0-.82-.41-1.85-1.45-1.85S75.27,41.13,75.27,42.05Z" transform="translate(-4 -4)"/><path d="M80.22,40.94c0-.5,0-.91,0-1.31H81l.05.8h0a1.78,1.78,0,0,1,1.6-.91c.67,0,1.71.4,1.71,2v2.89h-.88V41.67c0-.77-.29-1.42-1.12-1.42a1.24,1.24,0,0,0-1.18.89,1.27,1.27,0,0,0-.06.41v2.91h-.88Z" transform="translate(-4 -4)"/><path d="M85.65,43.56a2.31,2.31,0,0,0,1.16.35c.64,0,.94-.32.94-.72s-.25-.65-.9-.89c-.87-.31-1.28-.79-1.28-1.36a1.49,1.49,0,0,1,1.67-1.42,2.42,2.42,0,0,1,1.19.3l-.22.64a1.8,1.8,0,0,0-1-.28c-.52,0-.81.3-.81.65s.29.58.92.82c.84.32,1.27.74,1.27,1.46s-.66,1.45-1.81,1.45a2.76,2.76,0,0,1-1.36-.33Z" transform="translate(-4 -4)"/><path d="M94.53,44.46l-.07-.61h0a1.8,1.8,0,0,1-1.48.72,1.38,1.38,0,0,1-1.48-1.39c0-1.17,1-1.81,2.91-1.8v-.1a1,1,0,0,0-1.1-1.11,2.5,2.5,0,0,0-1.26.35l-.2-.57a3,3,0,0,1,1.59-.43c1.48,0,1.84,1,1.84,2V43.3a6.81,6.81,0,0,0,.08,1.16ZM94.4,42c-1,0-2.05.15-2.05,1.09a.78.78,0,0,0,.83.84,1.2,1.2,0,0,0,1.17-.81.92.92,0,0,0,.05-.28Z" transform="translate(-4 -4)"/><path d="M96.67,40.94c0-.5,0-.91,0-1.31h.78l0,.8h0a1.78,1.78,0,0,1,1.6-.91c.67,0,1.71.4,1.71,2v2.89h-.88V41.67c0-.77-.29-1.42-1.12-1.42a1.24,1.24,0,0,0-1.18.89,1.27,1.27,0,0,0-.06.41v2.91h-.88Z" transform="translate(-4 -4)"/><path d="M106.4,37.37v5.84c0,.43,0,.92,0,1.25h-.79l0-.84h0a1.79,1.79,0,0,1-1.65,1,2.21,2.21,0,0,1-2.07-2.46A2.31,2.31,0,0,1,104,39.52a1.62,1.62,0,0,1,1.46.74h0V37.37Zm-.88,4.22a1.55,1.55,0,0,0,0-.37,1.3,1.3,0,0,0-1.27-1c-.91,0-1.45.79-1.45,1.86s.48,1.79,1.43,1.79a1.32,1.32,0,0,0,1.29-1,1.53,1.53,0,0,0,0-.38Z" transform="translate(-4 -4)"/><path d="M110.47,42.2a1.55,1.55,0,0,0,1.66,1.68,3.18,3.18,0,0,0,1.34-.25l.15.63a3.92,3.92,0,0,1-1.61.3,2.25,2.25,0,0,1-2.38-2.44,2.35,2.35,0,0,1,2.27-2.6,2,2,0,0,1,2,2.27,3.32,3.32,0,0,1,0,.41Zm2.58-.63a1.24,1.24,0,0,0-1.22-1.42,1.45,1.45,0,0,0-1.35,1.42Z" transform="translate(-4 -4)"/><path d="M115,40.94c0-.5,0-.91,0-1.31h.77l0,.78h0a1.67,1.67,0,0,1,1.52-.89,1.44,1.44,0,0,1,1.37,1h0a2.07,2.07,0,0,1,.54-.62,1.65,1.65,0,0,1,1.07-.34c.64,0,1.59.42,1.59,2.09v2.85H121V41.72c0-.93-.34-1.48-1.05-1.48a1.13,1.13,0,0,0-1,.79,1.45,1.45,0,0,0-.07.44v3H118v-2.9c0-.77-.34-1.32-1-1.32a1.19,1.19,0,0,0-1.09.87,1.21,1.21,0,0,0-.07.43v2.92H115Z" transform="translate(-4 -4)"/><path d="M124.31,38.27a.55.55,0,0,1-1.09,0,.54.54,0,0,1,.55-.55A.52.52,0,0,1,124.31,38.27Zm-1,6.19V39.63h.88v4.83Z" transform="translate(-4 -4)"/><path d="M125.55,43.56a2.31,2.31,0,0,0,1.16.35c.64,0,.94-.32.94-.72s-.25-.65-.9-.89c-.87-.31-1.28-.79-1.28-1.36a1.49,1.49,0,0,1,1.67-1.42,2.42,2.42,0,0,1,1.19.3l-.22.64a1.8,1.8,0,0,0-1-.28c-.52,0-.81.3-.81.65s.29.58.92.82c.84.32,1.27.74,1.27,1.46s-.66,1.45-1.81,1.45a2.76,2.76,0,0,1-1.36-.33Z" transform="translate(-4 -4)"/><path d="M129.51,43.56a2.31,2.31,0,0,0,1.16.35c.64,0,.94-.32.94-.72s-.25-.65-.9-.89c-.87-.31-1.28-.79-1.28-1.36a1.49,1.49,0,0,1,1.67-1.42,2.42,2.42,0,0,1,1.19.3l-.22.64a1.8,1.8,0,0,0-1-.28c-.52,0-.81.3-.81.65s.29.58.92.82c.84.32,1.27.74,1.27,1.46s-.66,1.45-1.81,1.45a2.76,2.76,0,0,1-1.36-.33Z" transform="translate(-4 -4)"/><path d="M134.57,38.27a.55.55,0,0,1-1.09,0,.54.54,0,0,1,.55-.55A.52.52,0,0,1,134.57,38.27Zm-1,6.19V39.63h.88v4.83Z" transform="translate(-4 -4)"/><path d="M140.31,42a2.37,2.37,0,0,1-2.41,2.57,2.3,2.3,0,0,1-2.32-2.49,2.35,2.35,0,0,1,2.4-2.56A2.28,2.28,0,0,1,140.31,42Zm-3.84,0c0,1.06.61,1.86,1.47,1.86s1.47-.79,1.47-1.88c0-.82-.41-1.85-1.45-1.85S136.47,41.13,136.47,42.05Z" transform="translate(-4 -4)"/><path d="M141.42,40.94c0-.5,0-.91,0-1.31h.78l.05.8h0a1.78,1.78,0,0,1,1.6-.91c.67,0,1.71.4,1.71,2v2.89h-.88V41.67c0-.77-.29-1.42-1.12-1.42a1.24,1.24,0,0,0-1.18.89,1.27,1.27,0,0,0-.06.41v2.91h-.88Z" transform="translate(-4 -4)"/><path d="M146.85,43.56a2.31,2.31,0,0,0,1.16.35c.64,0,.94-.32.94-.72s-.25-.65-.9-.89c-.87-.31-1.28-.79-1.28-1.36a1.49,1.49,0,0,1,1.67-1.42,2.42,2.42,0,0,1,1.19.3l-.22.64a1.8,1.8,0,0,0-1-.28c-.52,0-.81.3-.81.65s.29.58.92.82c.84.32,1.27.74,1.27,1.46s-.66,1.45-1.81,1.45a2.76,2.76,0,0,1-1.36-.33Z" transform="translate(-4 -4)"/><path d="M14.06,51.13c0-.57,0-1.05,0-1.5h.77l0,.95h0a1.45,1.45,0,0,1,1.34-1.06,1,1,0,0,1,.25,0v.83a.92.92,0,0,0-.3,0A1.22,1.22,0,0,0,15,51.47a2.48,2.48,0,0,0,0,.41v2.58h-.87Z" transform="translate(-4 -4)"/><path d="M17.72,52.2a1.55,1.55,0,0,0,1.66,1.68,3.18,3.18,0,0,0,1.34-.25l.15.63a3.92,3.92,0,0,1-1.61.3,2.25,2.25,0,0,1-2.38-2.44,2.35,2.35,0,0,1,2.27-2.6,2,2,0,0,1,2,2.27,3.32,3.32,0,0,1,0,.41Zm2.58-.63a1.24,1.24,0,0,0-1.22-1.42,1.45,1.45,0,0,0-1.35,1.42Z" transform="translate(-4 -4)"/><path d="M26.42,47.37v5.84c0,.43,0,.92,0,1.25h-.79l0-.84h0a1.79,1.79,0,0,1-1.65,1,2.21,2.21,0,0,1-2.07-2.46,2.31,2.31,0,0,1,2.17-2.59,1.62,1.62,0,0,1,1.46.74h0V47.37Zm-.88,4.22a1.55,1.55,0,0,0,0-.37,1.3,1.3,0,0,0-1.27-1c-.91,0-1.45.79-1.45,1.86s.48,1.79,1.43,1.79a1.32,1.32,0,0,0,1.29-1,1.53,1.53,0,0,0,0-.38Z" transform="translate(-4 -4)"/><path d="M31.93,53.14c0,.5,0,.94,0,1.32h-.78l-.05-.79h0a1.82,1.82,0,0,1-1.6.9c-.76,0-1.67-.42-1.67-2.12V49.63h.88V52.3c0,.92.28,1.54,1.08,1.54A1.27,1.27,0,0,0,31,53a1.29,1.29,0,0,0,.08-.45v-3h.88Z" transform="translate(-4 -4)"/><path d="M36.84,54.28a3.24,3.24,0,0,1-1.39.28A2.3,2.3,0,0,1,33,52.09a2.45,2.45,0,0,1,2.6-2.56,2.94,2.94,0,0,1,1.22.25l-.2.68a1.94,1.94,0,0,0-1-.23,1.82,1.82,0,0,0,0,3.63,2.5,2.5,0,0,0,1.08-.24Z" transform="translate(-4 -4)"/><path d="M39.06,48.24v1.39h1.26v.67H39.06v2.6c0,.6.17.94.66.94a2,2,0,0,0,.51-.06l0,.66a2.15,2.15,0,0,1-.78.12,1.22,1.22,0,0,1-1-.37,1.79,1.79,0,0,1-.34-1.26V50.3h-.75v-.67h.75V48.47Z" transform="translate(-4 -4)"/><path d="M42.29,48.27a.55.55,0,0,1-1.09,0,.54.54,0,0,1,.55-.55A.52.52,0,0,1,42.29,48.27Zm-1,6.19V49.63h.88v4.83Z" transform="translate(-4 -4)"/><path d="M48,52a2.37,2.37,0,0,1-2.41,2.57,2.3,2.3,0,0,1-2.32-2.49,2.35,2.35,0,0,1,2.4-2.56A2.28,2.28,0,0,1,48,52Zm-3.84,0c0,1.06.61,1.86,1.47,1.86s1.47-.79,1.47-1.88c0-.82-.41-1.85-1.45-1.85S44.19,51.13,44.19,52.05Z" transform="translate(-4 -4)"/><path d="M49.14,50.94c0-.5,0-.91,0-1.31h.78l0,.8h0a1.78,1.78,0,0,1,1.6-.91c.67,0,1.71.4,1.71,2v2.89h-.88V51.67c0-.77-.29-1.42-1.12-1.42a1.24,1.24,0,0,0-1.18.89,1.27,1.27,0,0,0-.06.41v2.91h-.88Z" transform="translate(-4 -4)"/><path d="M54.57,53.56a2.31,2.31,0,0,0,1.16.35c.64,0,.94-.32.94-.72s-.25-.65-.9-.89c-.87-.31-1.28-.79-1.28-1.36a1.49,1.49,0,0,1,1.67-1.42,2.42,2.42,0,0,1,1.19.3l-.22.64a1.8,1.8,0,0,0-1-.28c-.52,0-.81.3-.81.65s.29.58.92.82c.84.32,1.27.74,1.27,1.46s-.66,1.45-1.81,1.45a2.76,2.76,0,0,1-1.36-.33Z" transform="translate(-4 -4)"/><path d="M60.86,54.46V50.3h-.68v-.67h.68V49.4a2.28,2.28,0,0,1,.56-1.69,1.68,1.68,0,0,1,1.18-.45,2,2,0,0,1,.75.14l-.12.68a1.31,1.31,0,0,0-.56-.11c-.75,0-.94.66-.94,1.4v.26H62.9v.67H61.73v4.16Z" transform="translate(-4 -4)"/><path d="M63.69,51.13c0-.57,0-1.05,0-1.5h.77l0,.95h0a1.45,1.45,0,0,1,1.34-1.06,1,1,0,0,1,.25,0v.83a.92.92,0,0,0-.3,0,1.22,1.22,0,0,0-1.18,1.12,2.48,2.48,0,0,0,0,.41v2.58h-.87Z" transform="translate(-4 -4)"/><path d="M71.24,52a2.37,2.37,0,0,1-2.41,2.57,2.3,2.3,0,0,1-2.32-2.49,2.35,2.35,0,0,1,2.4-2.56A2.28,2.28,0,0,1,71.24,52Zm-3.84,0c0,1.06.61,1.86,1.47,1.86s1.47-.79,1.47-1.88c0-.82-.41-1.85-1.45-1.85S67.4,51.13,67.4,52.05Z" transform="translate(-4 -4)"/><path d="M72.35,50.94c0-.5,0-.91,0-1.31h.77l0,.78h0a1.67,1.67,0,0,1,1.52-.89,1.44,1.44,0,0,1,1.37,1h0a2.07,2.07,0,0,1,.54-.62,1.65,1.65,0,0,1,1.07-.34c.64,0,1.59.42,1.59,2.09v2.85H78.4V51.72c0-.93-.34-1.48-1.05-1.48a1.13,1.13,0,0,0-1,.79,1.45,1.45,0,0,0-.07.44v3h-.86v-2.9c0-.77-.34-1.32-1-1.32a1.19,1.19,0,0,0-1.09.87,1.21,1.21,0,0,0-.07.43v2.92h-.86Z" transform="translate(-4 -4)"/><path d="M83.87,48.24v1.39h1.26v.67H83.87v2.6c0,.6.17.94.66.94a2,2,0,0,0,.51-.06l0,.66a2.15,2.15,0,0,1-.78.12,1.22,1.22,0,0,1-1-.37A1.79,1.79,0,0,1,83,52.93V50.3h-.75v-.67H83V48.47Z" transform="translate(-4 -4)"/><path d="M86.12,47.37H87v3h0a1.63,1.63,0,0,1,.63-.62,1.81,1.81,0,0,1,.9-.25c.65,0,1.69.4,1.69,2.06v2.88h-.88V51.68c0-.78-.29-1.43-1.12-1.43a1.27,1.27,0,0,0-1.18.87,1.07,1.07,0,0,0-.06.42v2.92h-.88Z" transform="translate(-4 -4)"/><path d="M92.16,52.2a1.55,1.55,0,0,0,1.66,1.68,3.18,3.18,0,0,0,1.34-.25l.15.63a3.92,3.92,0,0,1-1.61.3,2.25,2.25,0,0,1-2.38-2.44,2.35,2.35,0,0,1,2.27-2.6,2,2,0,0,1,2,2.27,3.32,3.32,0,0,1,0,.41Zm2.58-.63a1.24,1.24,0,0,0-1.22-1.42,1.45,1.45,0,0,0-1.35,1.42Z" transform="translate(-4 -4)"/><path d="M98.76,54.46c0-.33,0-.82,0-1.25V47.37h.87v3h0a1.8,1.8,0,0,1,1.65-.89,2.17,2.17,0,0,1,2,2.46,2.3,2.3,0,0,1-2.17,2.59,1.72,1.72,0,0,1-1.62-.91h0l0,.8Zm.91-1.94a1.65,1.65,0,0,0,0,.32,1.36,1.36,0,0,0,1.32,1c.92,0,1.47-.75,1.47-1.86s-.5-1.79-1.44-1.79a1.39,1.39,0,0,0-1.34,1.07,1.73,1.73,0,0,0,0,.36Z" transform="translate(-4 -4)"/><path d="M105.47,48.27a.55.55,0,0,1-1.09,0,.54.54,0,0,1,.55-.55A.52.52,0,0,1,105.47,48.27Zm-1,6.19V49.63h.88v4.83Z" transform="translate(-4 -4)"/><path d="M111.21,52a2.37,2.37,0,0,1-2.41,2.57,2.3,2.3,0,0,1-2.32-2.49,2.35,2.35,0,0,1,2.4-2.56A2.28,2.28,0,0,1,111.21,52Zm-3.84,0c0,1.06.61,1.86,1.47,1.86s1.47-.79,1.47-1.88c0-.82-.41-1.85-1.45-1.85S107.37,51.13,107.37,52.05Z" transform="translate(-4 -4)"/><path d="M116.49,49.63c0,.35,0,.74,0,1.32v2.81a2.78,2.78,0,0,1-.69,2.21,2.57,2.57,0,0,1-1.76.58,3.12,3.12,0,0,1-1.61-.4l.22-.67a2.73,2.73,0,0,0,1.42.38c.9,0,1.56-.47,1.56-1.69v-.54h0a1.73,1.73,0,0,1-1.54.81A2.16,2.16,0,0,1,112,52.08a2.32,2.32,0,0,1,2.18-2.56,1.62,1.62,0,0,1,1.51.83h0l0-.72Zm-.91,1.9a1.28,1.28,0,0,0-1.28-1.32c-.84,0-1.44.71-1.44,1.82,0,.95.48,1.74,1.43,1.74a1.29,1.29,0,0,0,1.22-.9,1.53,1.53,0,0,0,.07-.47Z" transform="translate(-4 -4)"/><path d="M120.59,54.46l-.07-.61h0a1.8,1.8,0,0,1-1.48.72,1.38,1.38,0,0,1-1.48-1.39c0-1.17,1-1.81,2.91-1.8v-.1a1,1,0,0,0-1.1-1.11,2.5,2.5,0,0,0-1.26.35l-.2-.57a3,3,0,0,1,1.59-.43c1.48,0,1.84,1,1.84,2V53.3a6.81,6.81,0,0,0,.08,1.16ZM120.46,52c-1,0-2,.15-2,1.09a.78.78,0,0,0,.83.84,1.2,1.2,0,0,0,1.17-.81.92.92,0,0,0,0-.28Z" transform="translate(-4 -4)"/><path d="M122.61,53.56a2.31,2.31,0,0,0,1.16.35c.64,0,.94-.32.94-.72s-.25-.65-.9-.89c-.87-.31-1.28-.79-1.28-1.36a1.49,1.49,0,0,1,1.67-1.42,2.42,2.42,0,0,1,1.19.3l-.22.64a1.8,1.8,0,0,0-1-.28c-.52,0-.81.3-.81.65s.29.58.92.82c.84.32,1.27.74,1.27,1.46s-.66,1.45-1.81,1.45a2.76,2.76,0,0,1-1.36-.33Z" transform="translate(-4 -4)"/><path d="M128.69,53.56a2.31,2.31,0,0,0,1.16.35c.64,0,.94-.32.94-.72s-.25-.65-.9-.89c-.87-.31-1.28-.79-1.28-1.36a1.49,1.49,0,0,1,1.67-1.42,2.42,2.42,0,0,1,1.19.3l-.22.64a1.8,1.8,0,0,0-1-.28c-.52,0-.81.3-.81.65s.29.58.92.82c.84.32,1.27.74,1.27,1.46s-.66,1.45-1.81,1.45a2.76,2.76,0,0,1-1.36-.33Z" transform="translate(-4 -4)"/><path d="M133.26,52.2a1.55,1.55,0,0,0,1.66,1.68,3.18,3.18,0,0,0,1.34-.25l.15.63a3.92,3.92,0,0,1-1.61.3,2.25,2.25,0,0,1-2.38-2.44,2.35,2.35,0,0,1,2.27-2.6,2,2,0,0,1,2,2.27,3.32,3.32,0,0,1,0,.41Zm2.58-.63a1.24,1.24,0,0,0-1.22-1.42,1.45,1.45,0,0,0-1.35,1.42Z" transform="translate(-4 -4)"/><path d="M141.23,54.28a3.24,3.24,0,0,1-1.39.28,2.3,2.3,0,0,1-2.41-2.47,2.45,2.45,0,0,1,2.6-2.56,2.94,2.94,0,0,1,1.22.25l-.2.68a1.94,1.94,0,0,0-1-.23,1.82,1.82,0,0,0,0,3.63,2.5,2.5,0,0,0,1.08-.24Z" transform="translate(-4 -4)"/><path d="M143.45,48.24v1.39h1.26v.67h-1.26v2.6c0,.6.17.94.66.94a2,2,0,0,0,.51-.06l0,.66a2.15,2.15,0,0,1-.78.12,1.22,1.22,0,0,1-.95-.37,1.79,1.79,0,0,1-.34-1.26V50.3h-.75v-.67h.75V48.47Z" transform="translate(-4 -4)"/><path d="M150,52a2.37,2.37,0,0,1-2.41,2.57,2.3,2.3,0,0,1-2.32-2.49,2.35,2.35,0,0,1,2.4-2.56A2.28,2.28,0,0,1,150,52Zm-3.84,0c0,1.06.61,1.86,1.47,1.86s1.47-.79,1.47-1.88c0-.82-.41-1.85-1.45-1.85S146.18,51.13,146.18,52.05Z" transform="translate(-4 -4)"/><path d="M151.13,51.13c0-.57,0-1.05,0-1.5h.77l0,.95h0a1.45,1.45,0,0,1,1.34-1.06,1,1,0,0,1,.25,0v.83a.92.92,0,0,0-.3,0A1.22,1.22,0,0,0,152,51.47a2.48,2.48,0,0,0,0,.41v2.58h-.87Z" transform="translate(-4 -4)"/><path d="M165.05,173a12.46,12.46,0,0,1,1.85-.14,3.86,3.86,0,0,1,2.73.84,3.1,3.1,0,0,1,1,2.41,3.56,3.56,0,0,1-1,2.62,4.15,4.15,0,0,1-3,1,14,14,0,0,1-1.58-.08Zm.87,6a5.49,5.49,0,0,0,.88,0,2.59,2.59,0,0,0,2.87-2.86,2.4,2.4,0,0,0-2.73-2.59,4.94,4.94,0,0,0-1,.09Z" transform="translate(-4 -4)"/><path d="M172.66,173.49a.55.55,0,0,1-1.09,0,.54.54,0,0,1,.55-.55A.52.52,0,0,1,172.66,173.49Zm-1,6.19v-4.83h.88v4.83Z" transform="translate(-4 -4)"/><path d="M173.9,178.78a2.31,2.31,0,0,0,1.16.35c.64,0,.94-.32.94-.72s-.25-.65-.9-.89c-.87-.31-1.28-.79-1.28-1.37a1.49,1.49,0,0,1,1.67-1.41,2.42,2.42,0,0,1,1.19.3l-.22.63a1.88,1.88,0,0,0-1-.28c-.52,0-.81.3-.81.66s.29.58.92.82c.84.32,1.27.74,1.27,1.46s-.66,1.45-1.81,1.45a2.76,2.76,0,0,1-1.36-.33Z" transform="translate(-4 -4)"/><path d="M177.86,178.78a2.31,2.31,0,0,0,1.16.35c.64,0,.94-.32.94-.72s-.25-.65-.9-.89c-.87-.31-1.28-.79-1.28-1.37a1.49,1.49,0,0,1,1.67-1.41,2.42,2.42,0,0,1,1.19.3l-.22.63a1.88,1.88,0,0,0-1-.28c-.52,0-.81.3-.81.66s.29.58.92.82c.84.32,1.27.74,1.27,1.46s-.66,1.45-1.81,1.45a2.76,2.76,0,0,1-1.36-.33Z" transform="translate(-4 -4)"/><path d="M182.43,177.42a1.55,1.55,0,0,0,1.66,1.68,3.18,3.18,0,0,0,1.34-.25l.15.63a3.92,3.92,0,0,1-1.61.3,2.25,2.25,0,0,1-2.38-2.44,2.34,2.34,0,0,1,2.27-2.6,2,2,0,0,1,2,2.27,3.32,3.32,0,0,1,0,.41Zm2.58-.63a1.24,1.24,0,0,0-1.22-1.42,1.45,1.45,0,0,0-1.35,1.42Z" transform="translate(-4 -4)"/><path d="M187,176.15c0-.49,0-.9,0-1.3h.77l0,.77h0a1.68,1.68,0,0,1,1.52-.88,1.42,1.42,0,0,1,1.37,1h0a1.79,1.79,0,0,1,.54-.63,1.65,1.65,0,0,1,1.07-.34c.64,0,1.59.42,1.59,2.09v2.85H193v-2.74c0-.93-.34-1.48-1.05-1.48a1.14,1.14,0,0,0-1,.79,1.45,1.45,0,0,0-.07.44v3H190v-2.9c0-.77-.34-1.32-1-1.32a1.19,1.19,0,0,0-1.09.87,1.21,1.21,0,0,0-.07.43v2.92H187Z" transform="translate(-4 -4)"/><path d="M196.27,173.49a.55.55,0,0,1-1.09,0,.54.54,0,0,1,.55-.55A.52.52,0,0,1,196.27,173.49Zm-1,6.19v-4.83h.88v4.83Z" transform="translate(-4 -4)"/><path d="M197.63,176.15c0-.49,0-.9,0-1.3h.78l0,.79h0a1.79,1.79,0,0,1,1.6-.9c.67,0,1.71.39,1.71,2v2.89h-.88v-2.79c0-.78-.29-1.43-1.12-1.43a1.29,1.29,0,0,0-1.24,1.31v2.91h-.88Z" transform="translate(-4 -4)"/><path d="M205.86,179.68l-.07-.61h0a1.8,1.8,0,0,1-1.48.72,1.38,1.38,0,0,1-1.48-1.39c0-1.17,1-1.81,2.91-1.8v-.1a1,1,0,0,0-1.1-1.12,2.42,2.42,0,0,0-1.26.37l-.2-.58a3,3,0,0,1,1.59-.43c1.48,0,1.84,1,1.84,2v1.81a6.81,6.81,0,0,0,.08,1.16Zm-.13-2.47c-1,0-2,.15-2,1.09a.78.78,0,0,0,.83.84,1.2,1.2,0,0,0,1.17-.81.92.92,0,0,0,0-.28Z" transform="translate(-4 -4)"/><path d="M209,173.46v1.39h1.26v.66H209v2.61c0,.6.17.94.66.94a2,2,0,0,0,.51-.06l0,.66a2.15,2.15,0,0,1-.78.12,1.22,1.22,0,0,1-.95-.37,1.79,1.79,0,0,1-.34-1.26v-2.64h-.75v-.66h.75v-1.16Z" transform="translate(-4 -4)"/><path d="M212.25,173.49a.55.55,0,0,1-1.09,0,.54.54,0,0,1,.55-.55A.52.52,0,0,1,212.25,173.49Zm-1,6.19v-4.83h.88v4.83Z" transform="translate(-4 -4)"/><path d="M218,177.22a2.37,2.37,0,0,1-2.41,2.57,2.3,2.3,0,0,1-2.32-2.49,2.35,2.35,0,0,1,2.4-2.56A2.29,2.29,0,0,1,218,177.22Zm-3.84.05c0,1.06.61,1.86,1.47,1.86s1.47-.79,1.47-1.88c0-.82-.41-1.86-1.45-1.86S214.15,176.35,214.15,177.27Z" transform="translate(-4 -4)"/><path d="M219.1,176.15c0-.49,0-.9,0-1.3h.78l0,.79h0a1.79,1.79,0,0,1,1.6-.9c.67,0,1.71.39,1.71,2v2.89h-.88v-2.79c0-.78-.29-1.43-1.12-1.43a1.29,1.29,0,0,0-1.24,1.31v2.91h-.88Z" transform="translate(-4 -4)"/><path d="M231.15,177.22a2.37,2.37,0,0,1-2.41,2.57,2.3,2.3,0,0,1-2.32-2.49,2.35,2.35,0,0,1,2.4-2.56A2.29,2.29,0,0,1,231.15,177.22Zm-3.84.05c0,1.06.61,1.86,1.47,1.86s1.47-.79,1.47-1.88c0-.82-.41-1.86-1.45-1.86S227.31,176.35,227.31,177.27Z" transform="translate(-4 -4)"/><path d="M232.35,179.68v-4.17h-.68v-.66h.68v-.23a2.28,2.28,0,0,1,.56-1.69,1.68,1.68,0,0,1,1.18-.45,2,2,0,0,1,.75.14l-.12.68a1.31,1.31,0,0,0-.56-.11c-.75,0-.94.66-.94,1.39v.27h1.17v.66h-1.17v4.17Z" transform="translate(-4 -4)"/><path d="M165,186.15c0-.49,0-.9,0-1.3h.77l0,.77h0a1.68,1.68,0,0,1,1.52-.88,1.42,1.42,0,0,1,1.37,1h0a1.79,1.79,0,0,1,.54-.63,1.65,1.65,0,0,1,1.07-.34c.64,0,1.59.42,1.59,2.09v2.85h-.86v-2.74c0-.93-.34-1.48-1-1.48a1.14,1.14,0,0,0-1,.79,1.45,1.45,0,0,0-.07.44v3h-.86v-2.9c0-.77-.34-1.32-1-1.32a1.19,1.19,0,0,0-1.09.87,1.21,1.21,0,0,0-.07.43v2.92H165Z" transform="translate(-4 -4)"/><path d="M173.85,187.42a1.55,1.55,0,0,0,1.66,1.68,3.18,3.18,0,0,0,1.34-.25l.15.63a3.92,3.92,0,0,1-1.61.3,2.25,2.25,0,0,1-2.38-2.44,2.34,2.34,0,0,1,2.27-2.6,2,2,0,0,1,2,2.27,3.32,3.32,0,0,1,0,.41Zm2.58-.63a1.24,1.24,0,0,0-1.22-1.42,1.45,1.45,0,0,0-1.35,1.42Z" transform="translate(-4 -4)"/><path d="M181.05,189.68l-.07-.61h0a1.8,1.8,0,0,1-1.48.72A1.38,1.38,0,0,1,178,188.4c0-1.17,1-1.81,2.91-1.8v-.1a1,1,0,0,0-1.1-1.12,2.42,2.42,0,0,0-1.26.37l-.2-.58a3,3,0,0,1,1.59-.43c1.48,0,1.84,1,1.84,2v1.81a6.81,6.81,0,0,0,.08,1.16Zm-.13-2.47c-1,0-2,.15-2,1.09a.78.78,0,0,0,.83.84,1.2,1.2,0,0,0,1.17-.81.92.92,0,0,0,0-.28Z" transform="translate(-4 -4)"/><path d="M183.07,188.78a2.31,2.31,0,0,0,1.16.35c.64,0,.94-.32.94-.72s-.25-.65-.9-.89c-.87-.31-1.28-.79-1.28-1.37a1.49,1.49,0,0,1,1.67-1.41,2.42,2.42,0,0,1,1.19.3l-.22.63a1.88,1.88,0,0,0-1-.28c-.52,0-.81.3-.81.66s.29.58.92.82c.84.32,1.27.74,1.27,1.46s-.66,1.45-1.81,1.45a2.76,2.76,0,0,1-1.36-.33Z" transform="translate(-4 -4)"/><path d="M191.2,188.36c0,.5,0,.94,0,1.32h-.78l-.05-.79h0a1.82,1.82,0,0,1-1.6.9c-.76,0-1.67-.42-1.67-2.12v-2.82H188v2.67c0,.92.28,1.54,1.08,1.54a1.27,1.27,0,0,0,1.16-.8,1.29,1.29,0,0,0,.08-.45v-3h.88Z" transform="translate(-4 -4)"/><path d="M192.66,186.35c0-.56,0-1.06,0-1.5h.77l0,.94h0a1.45,1.45,0,0,1,1.34-1,1,1,0,0,1,.25,0v.82a2.33,2.33,0,0,0-.3,0,1.23,1.23,0,0,0-1.18,1.13,2.48,2.48,0,0,0,0,.41v2.58h-.87Z" transform="translate(-4 -4)"/><path d="M196.32,187.42A1.55,1.55,0,0,0,198,189.1a3.18,3.18,0,0,0,1.34-.25l.15.63a3.92,3.92,0,0,1-1.61.3,2.25,2.25,0,0,1-2.38-2.44,2.34,2.34,0,0,1,2.27-2.6,2,2,0,0,1,2,2.27,3.32,3.32,0,0,1,0,.41Zm2.58-.63a1.24,1.24,0,0,0-1.22-1.42,1.45,1.45,0,0,0-1.35,1.42Z" transform="translate(-4 -4)"/><path d="M205,182.59v5.84c0,.43,0,.92,0,1.25h-.79l0-.84h0a1.79,1.79,0,0,1-1.65.95,2.21,2.21,0,0,1-2.07-2.46,2.31,2.31,0,0,1,2.17-2.59,1.61,1.61,0,0,1,1.46.73h0v-2.88Zm-.88,4.22a1.55,1.55,0,0,0,0-.37,1.29,1.29,0,0,0-1.27-1c-.91,0-1.45.8-1.45,1.87s.48,1.79,1.43,1.79A1.32,1.32,0,0,0,204.1,188a1.53,1.53,0,0,0,0-.38Z" transform="translate(-4 -4)"/><path d="M213.76,189.38a6.28,6.28,0,0,1-2.07.37,3.17,3.17,0,0,1-3.46-3.4,3.38,3.38,0,0,1,3.65-3.47,4.17,4.17,0,0,1,1.68.31l-.21.71a3.49,3.49,0,0,0-1.49-.29,2.51,2.51,0,0,0-2.71,2.7,2.47,2.47,0,0,0,2.6,2.72,2.84,2.84,0,0,0,1.16-.18v-2h-1.37v-.7h2.22Z" transform="translate(-4 -4)"/><path d="M216,183v2.81h3.26V183h.88v6.73h-.88v-3.16H216v3.16h-.87V183Z" transform="translate(-4 -4)"/><path d="M226.74,189.38a6.28,6.28,0,0,1-2.07.37,3.17,3.17,0,0,1-3.46-3.4,3.38,3.38,0,0,1,3.65-3.47,4.17,4.17,0,0,1,1.68.31l-.21.71a3.49,3.49,0,0,0-1.49-.29,2.51,2.51,0,0,0-2.71,2.7,2.47,2.47,0,0,0,2.6,2.72,2.84,2.84,0,0,0,1.16-.18v-2h-1.37v-.7h2.22Z" transform="translate(-4 -4)"/><path d="M165.51,197.42a1.55,1.55,0,0,0,1.66,1.68,3.18,3.18,0,0,0,1.34-.25l.15.63a3.92,3.92,0,0,1-1.61.3,2.25,2.25,0,0,1-2.38-2.44,2.34,2.34,0,0,1,2.27-2.6,2,2,0,0,1,2,2.27,3.32,3.32,0,0,1,0,.41Zm2.58-.63a1.24,1.24,0,0,0-1.22-1.42,1.45,1.45,0,0,0-1.35,1.42Z" transform="translate(-4 -4)"/><path d="M170,196.15c0-.49,0-.9,0-1.3h.77l0,.77h0a1.68,1.68,0,0,1,1.52-.88,1.42,1.42,0,0,1,1.37,1h0a1.79,1.79,0,0,1,.54-.63,1.65,1.65,0,0,1,1.07-.34c.64,0,1.59.42,1.59,2.09v2.85h-.86v-2.74c0-.93-.34-1.48-1.05-1.48a1.14,1.14,0,0,0-1,.79,1.45,1.45,0,0,0-.07.44v3h-.86v-2.9c0-.77-.34-1.32-1-1.32a1.19,1.19,0,0,0-1.09.87,1.21,1.21,0,0,0-.07.43v2.92H170Z" transform="translate(-4 -4)"/><path d="M179.35,193.49a.55.55,0,0,1-1.09,0,.54.54,0,0,1,.55-.55A.52.52,0,0,1,179.35,193.49Zm-1,6.19v-4.83h.88v4.83Z" transform="translate(-4 -4)"/><path d="M180.59,198.78a2.31,2.31,0,0,0,1.16.35c.64,0,.94-.32.94-.72s-.25-.65-.9-.89c-.87-.31-1.28-.79-1.28-1.37a1.49,1.49,0,0,1,1.67-1.41,2.42,2.42,0,0,1,1.19.3l-.22.63a1.88,1.88,0,0,0-1-.28c-.52,0-.81.3-.81.66s.29.58.92.82c.84.32,1.27.74,1.27,1.46s-.66,1.45-1.81,1.45a2.76,2.76,0,0,1-1.36-.33Z" transform="translate(-4 -4)"/><path d="M184.55,198.78a2.31,2.31,0,0,0,1.16.35c.64,0,.94-.32.94-.72s-.25-.65-.9-.89c-.87-.31-1.28-.79-1.28-1.37a1.49,1.49,0,0,1,1.67-1.41,2.42,2.42,0,0,1,1.19.3l-.22.63a1.88,1.88,0,0,0-1-.28c-.52,0-.81.3-.81.66s.29.58.92.82c.84.32,1.27.74,1.27,1.46s-.66,1.45-1.81,1.45a2.76,2.76,0,0,1-1.36-.33Z" transform="translate(-4 -4)"/><path d="M189.61,193.49a.55.55,0,0,1-1.09,0,.54.54,0,0,1,.55-.55A.52.52,0,0,1,189.61,193.49Zm-1,6.19v-4.83h.88v4.83Z" transform="translate(-4 -4)"/><path d="M195.35,197.22a2.37,2.37,0,0,1-2.41,2.57,2.3,2.3,0,0,1-2.32-2.49,2.35,2.35,0,0,1,2.4-2.56A2.29,2.29,0,0,1,195.35,197.22Zm-3.84.05c0,1.06.61,1.86,1.47,1.86s1.47-.79,1.47-1.88c0-.82-.41-1.86-1.45-1.86S191.51,196.35,191.51,197.27Z" transform="translate(-4 -4)"/><path d="M196.46,196.15c0-.49,0-.9,0-1.3h.78l.05.79h0a1.79,1.79,0,0,1,1.6-.9c.67,0,1.71.39,1.71,2v2.89h-.88v-2.79c0-.78-.29-1.43-1.12-1.43a1.29,1.29,0,0,0-1.24,1.31v2.91h-.88Z" transform="translate(-4 -4)"/><path d="M201.89,198.78a2.31,2.31,0,0,0,1.16.35c.64,0,.94-.32.94-.72s-.25-.65-.9-.89c-.87-.31-1.28-.79-1.28-1.37a1.49,1.49,0,0,1,1.67-1.41,2.42,2.42,0,0,1,1.19.3l-.22.63a1.88,1.88,0,0,0-1-.28c-.52,0-.81.3-.81.66s.29.58.92.82c.84.32,1.27.74,1.27,1.46s-.66,1.45-1.81,1.45a2.76,2.76,0,0,1-1.36-.33Z" transform="translate(-4 -4)"/><path d="M210.77,199.68l-.07-.61h0a1.8,1.8,0,0,1-1.48.72,1.38,1.38,0,0,1-1.48-1.39c0-1.17,1-1.81,2.91-1.8v-.1a1,1,0,0,0-1.1-1.12,2.42,2.42,0,0,0-1.26.37l-.2-.58a3,3,0,0,1,1.59-.43c1.48,0,1.84,1,1.84,2v1.81a6.81,6.81,0,0,0,.08,1.16Zm-.13-2.47c-1,0-2,.15-2,1.09a.78.78,0,0,0,.83.84,1.2,1.2,0,0,0,1.17-.81.92.92,0,0,0,0-.28Z" transform="translate(-4 -4)"/><path d="M212.91,196.15c0-.49,0-.9,0-1.3h.78l0,.79h0a1.79,1.79,0,0,1,1.6-.9c.67,0,1.71.39,1.71,2v2.89h-.88v-2.79c0-.78-.29-1.43-1.12-1.43a1.29,1.29,0,0,0-1.24,1.31v2.91h-.88Z" transform="translate(-4 -4)"/><path d="M222.64,192.59v5.84c0,.43,0,.92,0,1.25h-.79l0-.84h0a1.79,1.79,0,0,1-1.65.95,2.21,2.21,0,0,1-2.07-2.46,2.31,2.31,0,0,1,2.17-2.59,1.61,1.61,0,0,1,1.46.73h0v-2.88Zm-.88,4.22a1.55,1.55,0,0,0,0-.37,1.29,1.29,0,0,0-1.27-1c-.91,0-1.45.8-1.45,1.87s.48,1.79,1.43,1.79a1.32,1.32,0,0,0,1.29-1.05,1.53,1.53,0,0,0,0-.38Z" transform="translate(-4 -4)"/><path d="M165.51,207.42a1.55,1.55,0,0,0,1.66,1.68,3.18,3.18,0,0,0,1.34-.25l.15.63a3.92,3.92,0,0,1-1.61.3,2.25,2.25,0,0,1-2.38-2.44,2.34,2.34,0,0,1,2.27-2.6,2,2,0,0,1,2,2.27,3.32,3.32,0,0,1,0,.41Zm2.58-.63a1.24,1.24,0,0,0-1.22-1.42,1.45,1.45,0,0,0-1.35,1.42Z" transform="translate(-4 -4)"/><path d="M170,206.15c0-.49,0-.9,0-1.3h.77l0,.77h0a1.68,1.68,0,0,1,1.52-.88,1.42,1.42,0,0,1,1.37,1h0a1.79,1.79,0,0,1,.54-.63,1.65,1.65,0,0,1,1.07-.34c.64,0,1.59.42,1.59,2.09v2.85h-.86v-2.74c0-.93-.34-1.48-1.05-1.48a1.14,1.14,0,0,0-1,.79,1.45,1.45,0,0,0-.07.44v3h-.86v-2.9c0-.77-.34-1.32-1-1.32a1.19,1.19,0,0,0-1.09.87,1.21,1.21,0,0,0-.07.43v2.92H170Z" transform="translate(-4 -4)"/><path d="M179.35,203.49a.55.55,0,0,1-1.09,0,.54.54,0,0,1,.55-.55A.52.52,0,0,1,179.35,203.49Zm-1,6.19v-4.83h.88v4.83Z" transform="translate(-4 -4)"/><path d="M180.59,208.78a2.31,2.31,0,0,0,1.16.35c.64,0,.94-.32.94-.72s-.25-.65-.9-.89c-.87-.31-1.28-.79-1.28-1.37a1.49,1.49,0,0,1,1.67-1.41,2.42,2.42,0,0,1,1.19.3l-.22.63a1.88,1.88,0,0,0-1-.28c-.52,0-.81.3-.81.66s.29.58.92.82c.84.32,1.27.74,1.27,1.46s-.66,1.45-1.81,1.45a2.76,2.76,0,0,1-1.36-.33Z" transform="translate(-4 -4)"/><path d="M184.55,208.78a2.31,2.31,0,0,0,1.16.35c.64,0,.94-.32.94-.72s-.25-.65-.9-.89c-.87-.31-1.28-.79-1.28-1.37a1.49,1.49,0,0,1,1.67-1.41,2.42,2.42,0,0,1,1.19.3l-.22.63a1.88,1.88,0,0,0-1-.28c-.52,0-.81.3-.81.66s.29.58.92.82c.84.32,1.27.74,1.27,1.46s-.66,1.45-1.81,1.45a2.76,2.76,0,0,1-1.36-.33Z" transform="translate(-4 -4)"/><path d="M189.61,203.49a.55.55,0,0,1-1.09,0,.54.54,0,0,1,.55-.55A.52.52,0,0,1,189.61,203.49Zm-1,6.19v-4.83h.88v4.83Z" transform="translate(-4 -4)"/><path d="M195.35,207.22a2.37,2.37,0,0,1-2.41,2.57,2.3,2.3,0,0,1-2.32-2.49,2.35,2.35,0,0,1,2.4-2.56A2.29,2.29,0,0,1,195.35,207.22Zm-3.84.05c0,1.06.61,1.86,1.47,1.86s1.47-.79,1.47-1.88c0-.82-.41-1.86-1.45-1.86S191.51,206.35,191.51,207.27Z" transform="translate(-4 -4)"/><path d="M196.46,206.15c0-.49,0-.9,0-1.3h.78l.05.79h0a1.79,1.79,0,0,1,1.6-.9c.67,0,1.71.39,1.71,2v2.89h-.88v-2.79c0-.78-.29-1.43-1.12-1.43a1.29,1.29,0,0,0-1.24,1.31v2.91h-.88Z" transform="translate(-4 -4)"/><path d="M201.89,208.78a2.31,2.31,0,0,0,1.16.35c.64,0,.94-.32.94-.72s-.25-.65-.9-.89c-.87-.31-1.28-.79-1.28-1.37a1.49,1.49,0,0,1,1.67-1.41,2.42,2.42,0,0,1,1.19.3l-.22.63a1.88,1.88,0,0,0-1-.28c-.52,0-.81.3-.81.66s.29.58.92.82c.84.32,1.27.74,1.27,1.46s-.66,1.45-1.81,1.45a2.76,2.76,0,0,1-1.36-.33Z" transform="translate(-4 -4)"/><path d="M165,216.35c0-.56,0-1.06,0-1.5h.77l0,.94h0a1.45,1.45,0,0,1,1.34-1,1,1,0,0,1,.25,0v.82a2.33,2.33,0,0,0-.3,0,1.23,1.23,0,0,0-1.18,1.13,2.48,2.48,0,0,0,0,.41v2.58H165Z" transform="translate(-4 -4)"/><path d="M168.68,217.42a1.55,1.55,0,0,0,1.66,1.68,3.18,3.18,0,0,0,1.34-.25l.15.63a3.92,3.92,0,0,1-1.61.3,2.25,2.25,0,0,1-2.38-2.44,2.34,2.34,0,0,1,2.27-2.6,2,2,0,0,1,2,2.27,3.32,3.32,0,0,1,0,.41Zm2.58-.63a1.24,1.24,0,0,0-1.22-1.42,1.45,1.45,0,0,0-1.35,1.42Z" transform="translate(-4 -4)"/><path d="M177.38,212.59v5.84c0,.43,0,.92,0,1.25h-.79l0-.84h0a1.79,1.79,0,0,1-1.65.95,2.21,2.21,0,0,1-2.07-2.46,2.31,2.31,0,0,1,2.17-2.59,1.61,1.61,0,0,1,1.46.73h0v-2.88Zm-.88,4.22a1.55,1.55,0,0,0,0-.37,1.29,1.29,0,0,0-1.27-1c-.91,0-1.45.8-1.45,1.87s.48,1.79,1.43,1.79a1.32,1.32,0,0,0,1.29-1.05,1.53,1.53,0,0,0,0-.38Z" transform="translate(-4 -4)"/><path d="M182.89,218.36c0,.5,0,.94,0,1.32h-.78l-.05-.79h0a1.82,1.82,0,0,1-1.6.9c-.76,0-1.67-.42-1.67-2.12v-2.82h.88v2.67c0,.92.28,1.54,1.08,1.54a1.27,1.27,0,0,0,1.16-.8,1.29,1.29,0,0,0,.08-.45v-3h.88Z" transform="translate(-4 -4)"/><path d="M187.8,219.5a3.24,3.24,0,0,1-1.39.28,2.3,2.3,0,0,1-2.41-2.47,2.46,2.46,0,0,1,2.6-2.56,2.94,2.94,0,0,1,1.22.25l-.2.67a2.06,2.06,0,0,0-1-.22,1.82,1.82,0,0,0,0,3.63,2.5,2.5,0,0,0,1.08-.24Z" transform="translate(-4 -4)"/><path d="M190,213.46v1.39h1.26v.66H190v2.61c0,.6.17.94.66.94a2,2,0,0,0,.51-.06l0,.66a2.15,2.15,0,0,1-.78.12,1.22,1.22,0,0,1-.95-.37,1.79,1.79,0,0,1-.34-1.26v-2.64h-.75v-.66h.75v-1.16Z" transform="translate(-4 -4)"/><path d="M193.25,213.49a.55.55,0,0,1-1.09,0,.54.54,0,0,1,.55-.55A.52.52,0,0,1,193.25,213.49Zm-1,6.19v-4.83h.88v4.83Z" transform="translate(-4 -4)"/><path d="M199,217.22a2.37,2.37,0,0,1-2.41,2.57,2.3,2.3,0,0,1-2.32-2.49,2.35,2.35,0,0,1,2.4-2.56A2.29,2.29,0,0,1,199,217.22Zm-3.84.05c0,1.06.61,1.86,1.47,1.86s1.47-.79,1.47-1.88c0-.82-.41-1.86-1.45-1.86S195.15,216.35,195.15,217.27Z" transform="translate(-4 -4)"/><path d="M200.1,216.15c0-.49,0-.9,0-1.3h.78l0,.79h0a1.79,1.79,0,0,1,1.6-.9c.67,0,1.71.39,1.71,2v2.89h-.88v-2.79c0-.78-.29-1.43-1.12-1.43a1.29,1.29,0,0,0-1.24,1.31v2.91h-.88Z" transform="translate(-4 -4)"/><path d="M212,212.59v5.84c0,.43,0,.92,0,1.25h-.79l0-.84h0a1.79,1.79,0,0,1-1.65.95,2.21,2.21,0,0,1-2.07-2.46,2.31,2.31,0,0,1,2.17-2.59,1.61,1.61,0,0,1,1.46.73h0v-2.88Zm-.88,4.22a1.55,1.55,0,0,0,0-.37,1.29,1.29,0,0,0-1.27-1c-.91,0-1.45.8-1.45,1.87s.48,1.79,1.43,1.79A1.32,1.32,0,0,0,211,218a1.53,1.53,0,0,0,0-.38Z" transform="translate(-4 -4)"/><path d="M216.09,219.68l-.07-.61h0a1.8,1.8,0,0,1-1.48.72A1.38,1.38,0,0,1,213,218.4c0-1.17,1-1.81,2.91-1.8v-.1a1,1,0,0,0-1.1-1.12,2.42,2.42,0,0,0-1.26.37l-.2-.58a3,3,0,0,1,1.59-.43c1.48,0,1.84,1,1.84,2v1.81a6.81,6.81,0,0,0,.08,1.16Zm-.13-2.47c-1,0-2.05.15-2.05,1.09a.78.78,0,0,0,.83.84,1.2,1.2,0,0,0,1.17-.81.92.92,0,0,0,.05-.28Z" transform="translate(-4 -4)"/><path d="M219.25,213.46v1.39h1.26v.66h-1.26v2.61c0,.6.17.94.66.94a2,2,0,0,0,.51-.06l0,.66a2.15,2.15,0,0,1-.78.12,1.22,1.22,0,0,1-1-.37,1.79,1.79,0,0,1-.34-1.26v-2.64h-.75v-.66h.75v-1.16Z" transform="translate(-4 -4)"/><path d="M224.18,219.68l-.07-.61h0a1.8,1.8,0,0,1-1.48.72,1.38,1.38,0,0,1-1.48-1.39c0-1.17,1-1.81,2.91-1.8v-.1a1,1,0,0,0-1.1-1.12,2.42,2.42,0,0,0-1.26.37l-.2-.58a3,3,0,0,1,1.59-.43c1.48,0,1.84,1,1.84,2v1.81a6.81,6.81,0,0,0,.08,1.16Zm-.13-2.47c-1,0-2.05.15-2.05,1.09a.78.78,0,0,0,.83.84,1.2,1.2,0,0,0,1.17-.81.92.92,0,0,0,.05-.28Z" transform="translate(-4 -4)"/><path d="M19.89,193.55v6.74H19v-6.74Z" transform="translate(-4 -4)"/><path d="M21.48,196.76c0-.5,0-.91,0-1.31h.78l.05.8h0a1.78,1.78,0,0,1,1.6-.91c.67,0,1.7.4,1.7,2.06v2.89h-.87V197.5c0-.78-.29-1.43-1.12-1.43a1.25,1.25,0,0,0-1.18.9,1.27,1.27,0,0,0-.06.41v2.91h-.88Z" transform="translate(-4 -4)"/><path d="M31.2,193.19V199c0,.43,0,.92,0,1.25h-.78l0-.84h0a1.79,1.79,0,0,1-1.65,1,2.21,2.21,0,0,1-2.07-2.46,2.32,2.32,0,0,1,2.17-2.6,1.62,1.62,0,0,1,1.46.74h0v-2.89Zm-.87,4.23a2.33,2.33,0,0,0,0-.37A1.29,1.29,0,0,0,29,196c-.91,0-1.45.8-1.45,1.87s.48,1.79,1.43,1.79a1.32,1.32,0,0,0,1.29-1.05,2.22,2.22,0,0,0,0-.38Z" transform="translate(-4 -4)"/><path d="M33.16,198a1.55,1.55,0,0,0,1.66,1.68,3.18,3.18,0,0,0,1.34-.25l.15.63a3.92,3.92,0,0,1-1.61.3A2.25,2.25,0,0,1,32.32,198a2.35,2.35,0,0,1,2.27-2.61,2,2,0,0,1,2,2.28c0,.18,0,.32,0,.41Zm2.58-.63A1.25,1.25,0,0,0,34.52,196a1.46,1.46,0,0,0-1.35,1.43Z" transform="translate(-4 -4)"/><path d="M37.68,197c0-.62,0-1.12,0-1.58h.79l0,.83h0a1.9,1.9,0,0,1,1.72-.94,2.19,2.19,0,0,1,2,2.46c0,1.74-1.06,2.6-2.19,2.6a1.7,1.7,0,0,1-1.49-.76h0v2.63h-.87Zm.87,1.29a2,2,0,0,0,0,.36,1.36,1.36,0,0,0,1.32,1c.92,0,1.47-.76,1.47-1.87s-.51-1.8-1.44-1.8a1.4,1.4,0,0,0-1.33,1.09,1.43,1.43,0,0,0-.06.36Z" transform="translate(-4 -4)"/><path d="M43.86,198a1.55,1.55,0,0,0,1.66,1.68,3.13,3.13,0,0,0,1.33-.25l.15.63a3.86,3.86,0,0,1-1.6.3A2.25,2.25,0,0,1,43,198a2.35,2.35,0,0,1,2.27-2.61,2,2,0,0,1,2,2.28,3.32,3.32,0,0,1,0,.41Zm2.58-.63A1.25,1.25,0,0,0,45.22,196a1.46,1.46,0,0,0-1.35,1.43Z" transform="translate(-4 -4)"/><path d="M48.38,196.76c0-.5,0-.91,0-1.31h.78l.05.8h0a1.78,1.78,0,0,1,1.6-.91c.67,0,1.7.4,1.7,2.06v2.89h-.88V197.5c0-.78-.28-1.43-1.11-1.43a1.25,1.25,0,0,0-1.18.9,1.27,1.27,0,0,0-.06.41v2.91h-.88Z" transform="translate(-4 -4)"/><path d="M58.1,193.19V199c0,.43,0,.92,0,1.25h-.79l0-.84h0a1.77,1.77,0,0,1-1.64,1,2.21,2.21,0,0,1-2.07-2.46,2.32,2.32,0,0,1,2.17-2.6,1.61,1.61,0,0,1,1.45.74h0v-2.89Zm-.88,4.23a1.55,1.55,0,0,0,0-.37,1.29,1.29,0,0,0-1.26-1c-.91,0-1.45.8-1.45,1.87s.48,1.79,1.43,1.79a1.32,1.32,0,0,0,1.28-1.05,1.53,1.53,0,0,0,0-.38Z" transform="translate(-4 -4)"/><path d="M60.06,198a1.55,1.55,0,0,0,1.66,1.68,3.13,3.13,0,0,0,1.33-.25l.15.63a3.9,3.9,0,0,1-1.6.3A2.25,2.25,0,0,1,59.22,198a2.35,2.35,0,0,1,2.27-2.61,2,2,0,0,1,2,2.28,3.32,3.32,0,0,1,0,.41Zm2.57-.63A1.25,1.25,0,0,0,61.42,196a1.46,1.46,0,0,0-1.35,1.43Z" transform="translate(-4 -4)"/><path d="M64.58,196.76c0-.5,0-.91,0-1.31h.78l.05.8h0a1.77,1.77,0,0,1,1.59-.91c.67,0,1.71.4,1.71,2.06v2.89h-.88V197.5c0-.78-.29-1.43-1.11-1.43a1.25,1.25,0,0,0-1.18.9,1.27,1.27,0,0,0-.06.41v2.91h-.88Z" transform="translate(-4 -4)"/><path d="M71.15,194.06v1.39H72.4v.67H71.15v2.61c0,.6.17.94.66.94a1.81,1.81,0,0,0,.5-.06l0,.66a2.05,2.05,0,0,1-.77.12,1.22,1.22,0,0,1-1-.37,1.79,1.79,0,0,1-.34-1.26v-2.64h-.75v-.67h.75v-1.16Z" transform="translate(-4 -4)"/><path d="M78.19,200.29l-.07-.61h0a1.77,1.77,0,0,1-1.47.72A1.38,1.38,0,0,1,75.14,199c0-1.17,1-1.81,2.9-1.8v-.1A1,1,0,0,0,77,196a2.41,2.41,0,0,0-1.26.36l-.2-.58a3,3,0,0,1,1.59-.43c1.47,0,1.83,1,1.83,2v1.81a6.81,6.81,0,0,0,.08,1.16Zm-.13-2.47c-1,0-2,.15-2,1.09a.78.78,0,0,0,.83.84,1.18,1.18,0,0,0,1.16-.81.92.92,0,0,0,0-.28Z" transform="translate(-4 -4)"/><path d="M80.22,199.39a2.31,2.31,0,0,0,1.16.35c.64,0,.93-.32.93-.72s-.25-.65-.89-.89c-.87-.31-1.28-.79-1.28-1.37a1.49,1.49,0,0,1,1.67-1.42,2.4,2.4,0,0,1,1.18.3l-.22.64a1.87,1.87,0,0,0-1-.28c-.52,0-.81.3-.81.66s.29.58.92.82c.83.32,1.26.74,1.26,1.46s-.66,1.45-1.8,1.45a2.76,2.76,0,0,1-1.36-.33Z" transform="translate(-4 -4)"/><path d="M84.18,199.39a2.31,2.31,0,0,0,1.16.35c.64,0,.93-.32.93-.72s-.25-.65-.89-.89c-.87-.31-1.28-.79-1.28-1.37a1.49,1.49,0,0,1,1.67-1.42,2.4,2.4,0,0,1,1.18.3l-.22.64a1.87,1.87,0,0,0-1-.28c-.52,0-.81.3-.81.66s.29.58.91.82c.84.32,1.27.74,1.27,1.46s-.66,1.45-1.8,1.45a2.76,2.76,0,0,1-1.36-.33Z" transform="translate(-4 -4)"/><path d="M88.75,198a1.55,1.55,0,0,0,1.65,1.68,3.18,3.18,0,0,0,1.34-.25l.15.63a3.92,3.92,0,0,1-1.61.3A2.25,2.25,0,0,1,87.91,198a2.35,2.35,0,0,1,2.26-2.61,2.05,2.05,0,0,1,2,2.28,3.32,3.32,0,0,1,0,.41Zm2.57-.63A1.25,1.25,0,0,0,90.1,196a1.46,1.46,0,0,0-1.34,1.43Z" transform="translate(-4 -4)"/><path d="M93.15,199.39a2.31,2.31,0,0,0,1.16.35c.63,0,.93-.32.93-.72s-.25-.65-.89-.89c-.87-.31-1.28-.79-1.28-1.37a1.49,1.49,0,0,1,1.66-1.42,2.42,2.42,0,0,1,1.19.3l-.22.64a1.88,1.88,0,0,0-1-.28c-.51,0-.8.3-.8.66s.29.58.91.82c.84.32,1.27.74,1.27,1.46s-.66,1.45-1.8,1.45a2.76,2.76,0,0,1-1.36-.33Z" transform="translate(-4 -4)"/><path d="M97.11,199.39a2.31,2.31,0,0,0,1.16.35c.63,0,.93-.32.93-.72s-.25-.65-.89-.89c-.87-.31-1.28-.79-1.28-1.37a1.49,1.49,0,0,1,1.66-1.42,2.42,2.42,0,0,1,1.19.3l-.22.64a1.88,1.88,0,0,0-1-.28c-.51,0-.8.3-.8.66s.29.58.91.82c.84.32,1.27.74,1.27,1.46s-.66,1.45-1.8,1.45a2.76,2.76,0,0,1-1.36-.33Z" transform="translate(-4 -4)"/><path d="M101.19,196.76c0-.5,0-.91,0-1.31h.77l0,.78h0a1.64,1.64,0,0,1,1.51-.89,1.43,1.43,0,0,1,1.37,1h0a2,2,0,0,1,.54-.63,1.65,1.65,0,0,1,1.07-.34c.64,0,1.59.42,1.59,2.1v2.85h-.86v-2.74c0-.93-.34-1.49-1-1.49a1.14,1.14,0,0,0-1,.8,1.45,1.45,0,0,0-.07.44v3h-.86v-2.9c0-.77-.34-1.33-1-1.33a1.18,1.18,0,0,0-1.08.88,1,1,0,0,0-.07.43v2.92h-.86Z" transform="translate(-4 -4)"/><path d="M110,198a1.54,1.54,0,0,0,1.65,1.68,3.18,3.18,0,0,0,1.34-.25l.15.63a3.92,3.92,0,0,1-1.61.3,2.25,2.25,0,0,1-2.37-2.44,2.35,2.35,0,0,1,2.26-2.61,2.05,2.05,0,0,1,2,2.28,3.32,3.32,0,0,1,0,.41Zm2.57-.63a1.25,1.25,0,0,0-1.22-1.43A1.45,1.45,0,0,0,110,197.4Z" transform="translate(-4 -4)"/><path d="M114.54,196.76c0-.5,0-.91,0-1.31h.77l0,.8h0a1.78,1.78,0,0,1,1.6-.91c.67,0,1.71.4,1.71,2.06v2.89h-.88V197.5c0-.78-.29-1.43-1.12-1.43a1.25,1.25,0,0,0-1.18.9,1.27,1.27,0,0,0-.06.41v2.91h-.87Z" transform="translate(-4 -4)"/><path d="M121.1,194.06v1.39h1.26v.67H121.1v2.61c0,.6.17.94.66.94a2,2,0,0,0,.51-.06l0,.66a2.15,2.15,0,0,1-.78.12,1.22,1.22,0,0,1-1-.37,1.79,1.79,0,0,1-.33-1.26v-2.64h-.75v-.67h.75v-1.16Z" transform="translate(-4 -4)"/><path d="M129.85,197.83a2.37,2.37,0,0,1-2.41,2.57,2.29,2.29,0,0,1-2.31-2.49,2.36,2.36,0,0,1,2.39-2.57A2.29,2.29,0,0,1,129.85,197.83Zm-3.83,0c0,1.06.6,1.86,1.46,1.86S129,199,129,197.86c0-.82-.41-1.86-1.45-1.86S126,197,126,197.88Z" transform="translate(-4 -4)"/><path d="M131.05,200.29v-4.17h-.67v-.67h.67v-.23a2.32,2.32,0,0,1,.56-1.69,1.68,1.68,0,0,1,1.18-.45,2,2,0,0,1,.75.14l-.12.68a1.31,1.31,0,0,0-.56-.11c-.75,0-.94.66-.94,1.4v.26h1.17v.67h-1.17v4.17Z" transform="translate(-4 -4)"/><path d="M19,207c0-.57,0-1.06,0-1.51h.77l0,1h0a1.45,1.45,0,0,1,1.34-1.06,1,1,0,0,1,.25,0v.83a1.32,1.32,0,0,0-.3,0,1.23,1.23,0,0,0-1.18,1.13,2.48,2.48,0,0,0,0,.41v2.58H19Z" transform="translate(-4 -4)"/><path d="M22.68,208a1.55,1.55,0,0,0,1.66,1.68,3.18,3.18,0,0,0,1.34-.25l.15.63a3.92,3.92,0,0,1-1.61.3A2.25,2.25,0,0,1,21.84,208a2.35,2.35,0,0,1,2.27-2.61,2.05,2.05,0,0,1,2,2.28,3.32,3.32,0,0,1,0,.41Zm2.58-.63A1.25,1.25,0,0,0,24,206a1.46,1.46,0,0,0-1.35,1.43Z" transform="translate(-4 -4)"/><path d="M27.2,207c0-.62,0-1.12,0-1.58H28l0,.83h0a1.9,1.9,0,0,1,1.72-.94,2.19,2.19,0,0,1,2.05,2.46c0,1.74-1.06,2.6-2.2,2.6a1.7,1.7,0,0,1-1.49-.76h0v2.63H27.2Zm.87,1.29a2,2,0,0,0,0,.36,1.36,1.36,0,0,0,1.32,1c.93,0,1.47-.76,1.47-1.87s-.51-1.8-1.44-1.8a1.4,1.4,0,0,0-1.33,1.09,1.43,1.43,0,0,0-.06.36Z" transform="translate(-4 -4)"/><path d="M37.27,207.83a2.37,2.37,0,0,1-2.41,2.57,2.3,2.3,0,0,1-2.32-2.49,2.36,2.36,0,0,1,2.4-2.57A2.29,2.29,0,0,1,37.27,207.83Zm-3.84,0c0,1.06.61,1.86,1.47,1.86s1.47-.79,1.47-1.88c0-.82-.41-1.86-1.45-1.86S33.43,207,33.43,207.88Z" transform="translate(-4 -4)"/><path d="M38.38,207c0-.57,0-1.06,0-1.51h.77l0,1h0a1.45,1.45,0,0,1,1.34-1.06,1,1,0,0,1,.25,0v.83a1.32,1.32,0,0,0-.3,0,1.23,1.23,0,0,0-1.18,1.13,2.48,2.48,0,0,0,0,.41v2.58h-.87Z" transform="translate(-4 -4)"/><path d="M43,204.06v1.39h1.26v.67H43v2.61c0,.6.17.94.66.94a2,2,0,0,0,.51-.06l0,.66a2.15,2.15,0,0,1-.78.12,1.22,1.22,0,0,1-1-.37,1.79,1.79,0,0,1-.34-1.26v-2.64h-.75v-.67h.75v-1.16Z" transform="translate(-4 -4)"/><path d="M45.63,208a1.55,1.55,0,0,0,1.66,1.68,3.18,3.18,0,0,0,1.34-.25l.15.63a3.92,3.92,0,0,1-1.61.3A2.25,2.25,0,0,1,44.79,208a2.35,2.35,0,0,1,2.27-2.61,2.05,2.05,0,0,1,2,2.28,3.32,3.32,0,0,1,0,.41Zm2.58-.63A1.25,1.25,0,0,0,47,206a1.46,1.46,0,0,0-1.35,1.43Z" transform="translate(-4 -4)"/><path d="M54.33,203.19V209c0,.43,0,.92,0,1.25h-.79l0-.84h0a1.79,1.79,0,0,1-1.65,1,2.21,2.21,0,0,1-2.07-2.46,2.32,2.32,0,0,1,2.17-2.6,1.62,1.62,0,0,1,1.46.74h0v-2.89Zm-.88,4.23a1.55,1.55,0,0,0,0-.37,1.29,1.29,0,0,0-1.27-1c-.91,0-1.45.8-1.45,1.87s.48,1.79,1.43,1.79a1.32,1.32,0,0,0,1.29-1.05,1.53,1.53,0,0,0,0-.38Z" transform="translate(-4 -4)"/><path d="M63.07,210a6.28,6.28,0,0,1-2.07.37,3.17,3.17,0,0,1-3.46-3.4,3.38,3.38,0,0,1,3.65-3.48,4.17,4.17,0,0,1,1.68.31l-.21.71a3.49,3.49,0,0,0-1.49-.29,2.52,2.52,0,0,0-2.71,2.71,2.47,2.47,0,0,0,2.6,2.72,2.84,2.84,0,0,0,1.16-.18v-2H60.85v-.7h2.22Z" transform="translate(-4 -4)"/><path d="M65.27,203.55v2.82h3.26v-2.82h.88v6.74h-.88v-3.16H65.27v3.16H64.4v-6.74Z" transform="translate(-4 -4)"/><path d="M76.05,210a6.28,6.28,0,0,1-2.07.37,3.17,3.17,0,0,1-3.46-3.4,3.38,3.38,0,0,1,3.65-3.48,4.17,4.17,0,0,1,1.68.31l-.21.71a3.49,3.49,0,0,0-1.49-.29,2.52,2.52,0,0,0-2.71,2.71,2.47,2.47,0,0,0,2.6,2.72,2.84,2.84,0,0,0,1.16-.18v-2H73.83v-.7h2.22Z" transform="translate(-4 -4)"/><path d="M80,208a1.55,1.55,0,0,0,1.66,1.68,3.18,3.18,0,0,0,1.34-.25l.15.63a3.92,3.92,0,0,1-1.61.3A2.25,2.25,0,0,1,79.12,208a2.35,2.35,0,0,1,2.27-2.61,2.05,2.05,0,0,1,2,2.28,3.32,3.32,0,0,1,0,.41Zm2.58-.63A1.25,1.25,0,0,0,81.32,206,1.46,1.46,0,0,0,80,207.4Z" transform="translate(-4 -4)"/><path d="M84.48,206.76c0-.5,0-.91,0-1.31h.77l0,.78h0a1.67,1.67,0,0,1,1.52-.89,1.43,1.43,0,0,1,1.37,1h0a2,2,0,0,1,.54-.63,1.65,1.65,0,0,1,1.07-.34c.64,0,1.59.42,1.59,2.1v2.85h-.86v-2.74c0-.93-.34-1.49-1-1.49a1.14,1.14,0,0,0-1,.8,1.45,1.45,0,0,0-.07.44v3h-.86v-2.9c0-.77-.34-1.33-1-1.33a1.31,1.31,0,0,0-1.16,1.31v2.92h-.86Z" transform="translate(-4 -4)"/><path d="M93.8,204.09a.55.55,0,0,1-1.09,0,.54.54,0,0,1,.55-.55A.52.52,0,0,1,93.8,204.09Zm-1,6.2v-4.84h.88v4.84Z" transform="translate(-4 -4)"/><path d="M95,209.39a2.31,2.31,0,0,0,1.16.35c.64,0,.94-.32.94-.72s-.25-.65-.9-.89c-.87-.31-1.28-.79-1.28-1.37a1.49,1.49,0,0,1,1.67-1.42,2.42,2.42,0,0,1,1.19.3l-.22.64a1.88,1.88,0,0,0-1-.28c-.52,0-.81.3-.81.66s.29.58.92.82c.84.32,1.27.74,1.27,1.46s-.66,1.45-1.81,1.45a2.76,2.76,0,0,1-1.36-.33Z" transform="translate(-4 -4)"/><path d="M99,209.39a2.31,2.31,0,0,0,1.16.35c.64,0,.94-.32.94-.72s-.25-.65-.9-.89c-.87-.31-1.28-.79-1.28-1.37a1.49,1.49,0,0,1,1.67-1.42,2.42,2.42,0,0,1,1.19.3l-.22.64a1.88,1.88,0,0,0-1-.28c-.52,0-.81.3-.81.66s.29.58.92.82c.84.32,1.27.74,1.27,1.46s-.66,1.45-1.81,1.45a2.76,2.76,0,0,1-1.36-.33Z" transform="translate(-4 -4)"/><path d="M104.06,204.09a.55.55,0,0,1-1.09,0,.54.54,0,0,1,.55-.55A.52.52,0,0,1,104.06,204.09Zm-1,6.2v-4.84H104v4.84Z" transform="translate(-4 -4)"/><path d="M109.8,207.83a2.37,2.37,0,0,1-2.41,2.57,2.3,2.3,0,0,1-2.32-2.49,2.36,2.36,0,0,1,2.4-2.57A2.29,2.29,0,0,1,109.8,207.83Zm-3.84,0c0,1.06.61,1.86,1.47,1.86s1.47-.79,1.47-1.88c0-.82-.41-1.86-1.45-1.86S106,207,106,207.88Z" transform="translate(-4 -4)"/><path d="M110.91,206.76c0-.5,0-.91,0-1.31h.78l0,.8h0a1.78,1.78,0,0,1,1.6-.91c.67,0,1.71.4,1.71,2.06v2.89h-.88V207.5c0-.78-.29-1.43-1.12-1.43a1.25,1.25,0,0,0-1.18.9,1.27,1.27,0,0,0-.06.41v2.91h-.88Z" transform="translate(-4 -4)"/><path d="M116.34,209.39a2.31,2.31,0,0,0,1.16.35c.64,0,.94-.32.94-.72s-.25-.65-.9-.89c-.87-.31-1.28-.79-1.28-1.37a1.49,1.49,0,0,1,1.67-1.42,2.42,2.42,0,0,1,1.19.3l-.22.64a1.88,1.88,0,0,0-1-.28c-.52,0-.81.3-.81.66s.29.58.92.82c.84.32,1.27.74,1.27,1.46s-.66,1.45-1.81,1.45a2.76,2.76,0,0,1-1.36-.33Z" transform="translate(-4 -4)"/><path d="M125.22,210.29l-.07-.61h0a1.8,1.8,0,0,1-1.48.72,1.38,1.38,0,0,1-1.48-1.39c0-1.17,1-1.81,2.91-1.8v-.1A1,1,0,0,0,124,206a2.41,2.41,0,0,0-1.26.36l-.2-.58a3,3,0,0,1,1.59-.43c1.48,0,1.84,1,1.84,2v1.81a6.81,6.81,0,0,0,.08,1.16Zm-.13-2.47c-1,0-2,.15-2,1.09a.78.78,0,0,0,.83.84,1.2,1.2,0,0,0,1.17-.81.92.92,0,0,0,0-.28Z" transform="translate(-4 -4)"/><path d="M127.36,206.76c0-.5,0-.91,0-1.31h.78l.05.8h0a1.78,1.78,0,0,1,1.6-.91c.67,0,1.71.4,1.71,2.06v2.89h-.88V207.5c0-.78-.29-1.43-1.12-1.43a1.25,1.25,0,0,0-1.18.9,1.27,1.27,0,0,0-.06.41v2.91h-.88Z" transform="translate(-4 -4)"/><path d="M137.09,203.19V209c0,.43,0,.92,0,1.25h-.79l0-.84h0a1.79,1.79,0,0,1-1.65,1,2.21,2.21,0,0,1-2.07-2.46,2.32,2.32,0,0,1,2.17-2.6,1.62,1.62,0,0,1,1.46.74h0v-2.89Zm-.88,4.23a1.55,1.55,0,0,0,0-.37,1.29,1.29,0,0,0-1.27-1c-.91,0-1.45.8-1.45,1.87s.48,1.79,1.43,1.79a1.32,1.32,0,0,0,1.29-1.05,1.53,1.53,0,0,0,0-.38Z" transform="translate(-4 -4)"/><path d="M19.55,218a1.55,1.55,0,0,0,1.66,1.68,3.18,3.18,0,0,0,1.34-.25l.15.63a3.92,3.92,0,0,1-1.61.3A2.25,2.25,0,0,1,18.71,218,2.35,2.35,0,0,1,21,215.34a2.05,2.05,0,0,1,2,2.28,3.32,3.32,0,0,1,0,.41Zm2.58-.63A1.25,1.25,0,0,0,20.91,216a1.46,1.46,0,0,0-1.35,1.43Z" transform="translate(-4 -4)"/><path d="M24.07,216.76c0-.5,0-.91,0-1.31h.77l0,.78h0a1.67,1.67,0,0,1,1.52-.89,1.43,1.43,0,0,1,1.37,1h0a2.11,2.11,0,0,1,.53-.63,1.65,1.65,0,0,1,1.07-.34c.64,0,1.59.42,1.59,2.1v2.85h-.86v-2.74c0-.93-.34-1.49-1.05-1.49a1.13,1.13,0,0,0-1,.8,1.45,1.45,0,0,0-.07.44v3H27.1v-2.9c0-.77-.34-1.33-1-1.33a1.31,1.31,0,0,0-1.16,1.31v2.92h-.86Z" transform="translate(-4 -4)"/><path d="M33.39,214.09a.55.55,0,0,1-1.09,0,.54.54,0,0,1,.55-.55A.52.52,0,0,1,33.39,214.09Zm-1,6.2v-4.84h.88v4.84Z" transform="translate(-4 -4)"/><path d="M34.63,219.39a2.31,2.31,0,0,0,1.16.35c.64,0,.94-.32.94-.72s-.25-.65-.9-.89c-.87-.31-1.28-.79-1.28-1.37a1.49,1.49,0,0,1,1.67-1.42,2.42,2.42,0,0,1,1.19.3l-.22.64a1.88,1.88,0,0,0-1-.28c-.52,0-.81.3-.81.66s.29.58.92.82c.84.32,1.27.74,1.27,1.46s-.66,1.45-1.81,1.45a2.76,2.76,0,0,1-1.36-.33Z" transform="translate(-4 -4)"/><path d="M38.59,219.39a2.31,2.31,0,0,0,1.16.35c.64,0,.94-.32.94-.72s-.25-.65-.9-.89c-.87-.31-1.28-.79-1.28-1.37a1.49,1.49,0,0,1,1.67-1.42,2.42,2.42,0,0,1,1.19.3l-.22.64a1.88,1.88,0,0,0-1-.28c-.52,0-.81.3-.81.66s.29.58.92.82c.84.32,1.27.74,1.27,1.46s-.66,1.45-1.81,1.45a2.76,2.76,0,0,1-1.36-.33Z" transform="translate(-4 -4)"/><path d="M43.65,214.09a.55.55,0,0,1-1.09,0,.54.54,0,0,1,.55-.55A.52.52,0,0,1,43.65,214.09Zm-1,6.2v-4.84h.88v4.84Z" transform="translate(-4 -4)"/><path d="M49.38,217.83A2.36,2.36,0,0,1,47,220.4a2.3,2.3,0,0,1-2.32-2.49,2.36,2.36,0,0,1,2.4-2.57A2.29,2.29,0,0,1,49.38,217.83Zm-3.83,0c0,1.06.61,1.86,1.47,1.86s1.46-.79,1.46-1.88c0-.82-.4-1.86-1.44-1.86S45.55,217,45.55,217.88Z" transform="translate(-4 -4)"/><path d="M50.5,216.76c0-.5,0-.91,0-1.31h.78l0,.8h0a1.78,1.78,0,0,1,1.6-.91c.67,0,1.7.4,1.7,2.06v2.89h-.88V217.5c0-.78-.28-1.43-1.11-1.43a1.25,1.25,0,0,0-1.18.9,1.27,1.27,0,0,0-.06.41v2.91H50.5Z" transform="translate(-4 -4)"/><path d="M55.93,219.39a2.31,2.31,0,0,0,1.16.35c.64,0,.94-.32.94-.72s-.25-.65-.9-.89c-.87-.31-1.28-.79-1.28-1.37a1.49,1.49,0,0,1,1.67-1.42,2.42,2.42,0,0,1,1.19.3l-.22.64a1.88,1.88,0,0,0-1-.28c-.52,0-.81.3-.81.66s.29.58.92.82c.84.32,1.27.74,1.27,1.46s-.66,1.45-1.81,1.45a2.76,2.76,0,0,1-1.36-.33Z" transform="translate(-4 -4)"/><path d="M62.13,217c0-.57,0-1.06,0-1.51h.77l0,1h0a1.45,1.45,0,0,1,1.34-1.06,1,1,0,0,1,.25,0v.83a1.32,1.32,0,0,0-.3,0A1.23,1.23,0,0,0,63,217.3a2.48,2.48,0,0,0,0,.41v2.58h-.87Z" transform="translate(-4 -4)"/><path d="M65.79,218a1.55,1.55,0,0,0,1.66,1.68,3.13,3.13,0,0,0,1.33-.25l.15.63a3.9,3.9,0,0,1-1.6.3A2.25,2.25,0,0,1,65,218a2.35,2.35,0,0,1,2.27-2.61,2,2,0,0,1,2,2.28,3.32,3.32,0,0,1,0,.41Zm2.57-.63A1.25,1.25,0,0,0,67.15,216a1.46,1.46,0,0,0-1.35,1.43Z" transform="translate(-4 -4)"/><path d="M74.48,213.19V219c0,.43,0,.92,0,1.25h-.79l0-.84h0a1.79,1.79,0,0,1-1.64,1A2.21,2.21,0,0,1,70,217.94a2.32,2.32,0,0,1,2.17-2.6,1.61,1.61,0,0,1,1.45.74h0v-2.89Zm-.88,4.23a1.55,1.55,0,0,0,0-.37,1.29,1.29,0,0,0-1.27-1c-.9,0-1.44.8-1.44,1.87s.48,1.79,1.43,1.79a1.32,1.32,0,0,0,1.28-1.05,1.53,1.53,0,0,0,0-.38Z" transform="translate(-4 -4)"/><path d="M80,219c0,.5,0,.94,0,1.32h-.78l0-.79h0a1.82,1.82,0,0,1-1.59.9c-.76,0-1.67-.42-1.67-2.12v-2.83h.88v2.68c0,.92.28,1.54,1.08,1.54a1.26,1.26,0,0,0,1.15-.8,1.29,1.29,0,0,0,.08-.45v-3H80Z" transform="translate(-4 -4)"/><path d="M84.9,220.11a3.23,3.23,0,0,1-1.38.28,2.3,2.3,0,0,1-2.41-2.47,2.46,2.46,0,0,1,2.6-2.57,2.93,2.93,0,0,1,1.21.25l-.2.68a2,2,0,0,0-1-.23A1.67,1.67,0,0,0,82,217.88a1.66,1.66,0,0,0,1.67,1.81,2.5,2.5,0,0,0,1.08-.24Z" transform="translate(-4 -4)"/><path d="M87.13,214.06v1.39h1.25v.67H87.13v2.61c0,.6.17.94.66.94a1.81,1.81,0,0,0,.5-.06l0,.66a2.05,2.05,0,0,1-.77.12,1.22,1.22,0,0,1-1-.37,1.79,1.79,0,0,1-.34-1.26v-2.64h-.75v-.67h.75v-1.16Z" transform="translate(-4 -4)"/><path d="M90.36,214.09a.55.55,0,0,1-1.09,0,.54.54,0,0,1,.55-.55A.52.52,0,0,1,90.36,214.09Zm-1,6.2v-4.84h.88v4.84Z" transform="translate(-4 -4)"/><path d="M96.09,217.83a2.36,2.36,0,0,1-2.4,2.57,2.3,2.3,0,0,1-2.32-2.49,2.36,2.36,0,0,1,2.39-2.57A2.29,2.29,0,0,1,96.09,217.83Zm-3.83,0c0,1.06.61,1.86,1.46,1.86s1.47-.79,1.47-1.88c0-.82-.41-1.86-1.45-1.86S92.26,217,92.26,217.88Z" transform="translate(-4 -4)"/><path d="M97.21,216.76c0-.5,0-.91,0-1.31H98l0,.8h0a1.75,1.75,0,0,1,1.59-.91c.67,0,1.71.4,1.71,2.06v2.89h-.88V217.5c0-.78-.29-1.43-1.12-1.43a1.23,1.23,0,0,0-1.17.9,1,1,0,0,0-.07.41v2.91h-.87Z" transform="translate(-4 -4)"/><path d="M102.64,219.39a2.27,2.27,0,0,0,1.15.35c.64,0,.94-.32.94-.72s-.25-.65-.9-.89c-.86-.31-1.27-.79-1.27-1.37a1.49,1.49,0,0,1,1.66-1.42,2.42,2.42,0,0,1,1.19.3l-.22.64a1.88,1.88,0,0,0-1-.28c-.51,0-.8.3-.8.66s.29.58.91.82c.84.32,1.27.74,1.27,1.46s-.66,1.45-1.81,1.45a2.75,2.75,0,0,1-1.35-.33Z" transform="translate(-4 -4)"/></g></svg>