<svg id="Layer_1" data-name="Layer 1" xmlns="http://www.w3.org/2000/svg" viewBox="0 0 563.01 308.36"><defs><style>.cls-1,.cls-16{fill:#129d94;}.cls-1,.cls-11,.cls-12,.cls-2,.cls-5,.cls-6,.cls-8,.cls-9{fill-rule:evenodd;}.cls-2{fill:#41b1a9;}.cls-11,.cls-3{fill:#602888;}.cls-4,.cls-8{fill:#007dc3;}.cls-13,.cls-5{fill:#6bac00;}.cls-6{fill:#89bd33;}.cls-7{fill:#fff;}.cls-9{fill:#3397cf;}.cls-10{fill:#119e94;}.cls-12{fill:#8053a0;}.cls-14,.cls-15,.cls-17,.cls-19{fill:none;stroke-miterlimit:10;stroke-width:8px;}.cls-14{stroke:#602888;}.cls-15{stroke:#129d94;}.cls-17{stroke:#6aac44;}.cls-18{fill:#6aac44;}.cls-19{stroke:#007dc3;}</style></defs><path class="cls-1" d="M370.21,188.31a36.93,36.93,0,1,1,36.93,36.93,36.94,36.94,0,0,1-36.93-36.93Z" transform="translate(-6.39 -24)"/><path class="cls-2" d="M381.06,188.31a26.08,26.08,0,1,1,26.08,26.08,26.08,26.08,0,0,1-26.08-26.08Z" transform="translate(-6.39 -24)"/><path class="cls-3" d="M15.11,189a4.69,4.69,0,0,0,2,.51c.84,0,1.28-.35,1.28-.88s-.38-.79-1.35-1.14c-1.35-.47-2.22-1.21-2.22-2.39,0-1.37,1.15-2.43,3.06-2.43a4.88,4.88,0,0,1,2.06.41l-.41,1.47a3.92,3.92,0,0,0-1.69-.38c-.79,0-1.17.36-1.17.78s.45.74,1.5,1.14c1.42.53,2.09,1.27,2.09,2.41,0,1.35-1,2.51-3.26,2.51a5.19,5.19,0,0,1-2.29-.5Z" transform="translate(-6.39 -24)"/><path class="cls-3" d="M27,189c0,.77,0,1.39.05,1.89H25.47l-.09-.83h0a2.1,2.1,0,0,1-1.84,1c-1.19,0-2.06-.75-2.06-2.56V185h1.83v3.15c0,.86.28,1.37.92,1.37a1,1,0,0,0,.91-.63,1,1,0,0,0,.06-.4V185H27Z" transform="translate(-6.39 -24)"/><path class="cls-3" d="M28.47,187c0-.77,0-1.43,0-2H30l.09.82h0a2.25,2.25,0,0,1,2-.95c1.28,0,2.43,1.11,2.43,3,0,2.14-1.35,3.15-2.66,3.15a1.82,1.82,0,0,1-1.52-.67h0v2.91H28.47Zm1.82,1.38a1.48,1.48,0,0,0,0,.38,1.1,1.1,0,0,0,1.07.86c.79,0,1.25-.66,1.25-1.65s-.42-1.64-1.23-1.64a1.14,1.14,0,0,0-1.09.92,1.12,1.12,0,0,0,0,.32Z" transform="translate(-6.39 -24)"/><path class="cls-3" d="M35.64,187c0-.77,0-1.43,0-2h1.58l.08.82h0a2.23,2.23,0,0,1,2-.95c1.29,0,2.44,1.11,2.44,3C41.68,190,40.32,191,39,191a1.84,1.84,0,0,1-1.52-.67h0v2.91H35.64Zm1.83,1.38a2.17,2.17,0,0,0,0,.38,1.1,1.1,0,0,0,1.07.86c.79,0,1.26-.66,1.26-1.65s-.42-1.64-1.24-1.64a1.14,1.14,0,0,0-1.09.92,1.66,1.66,0,0,0,0,.32Z" transform="translate(-6.39 -24)"/><path class="cls-3" d="M48.65,187.86a3,3,0,0,1-3.1,3.13,2.88,2.88,0,0,1-3-3,2.93,2.93,0,0,1,3.13-3.1A2.85,2.85,0,0,1,48.65,187.86Zm-4.25.06c0,1,.42,1.76,1.2,1.76s1.17-.71,1.17-1.76c0-.88-.34-1.77-1.17-1.77S44.4,187.05,44.4,187.92Z" transform="translate(-6.39 -24)"/><path class="cls-3" d="M49.78,186.92c0-.86,0-1.43-.05-1.93H51.3l.06,1.08h0A1.73,1.73,0,0,1,53,184.86a2.24,2.24,0,0,1,.38,0v1.72a2.17,2.17,0,0,0-.49,0,1.17,1.17,0,0,0-1.25.92,2.59,2.59,0,0,0,0,.41v3H49.78Z" transform="translate(-6.39 -24)"/><path class="cls-3" d="M56.63,183.31V185h1.31v1.34H56.63v2.13c0,.7.17,1,.72,1a3.31,3.31,0,0,0,.54-.05v1.38a3.45,3.45,0,0,1-1.19.16,1.9,1.9,0,0,1-1.36-.51,2.41,2.41,0,0,1-.51-1.74v-2.4h-.78V185h.78v-1.27Z" transform="translate(-6.39 -24)"/><path class="cls-3" d="M60.88,183.36a.91.91,0,0,1-1,.91.92.92,0,1,1,0-1.83A.91.91,0,0,1,60.88,183.36ZM59,190.86V185h1.82v5.87Z" transform="translate(-6.39 -24)"/><path class="cls-3" d="M62.28,186.86c0-.73,0-1.35,0-1.87h1.58l.08.8h0a2.15,2.15,0,0,1,1.81-.93c1.2,0,2.1.79,2.1,2.52v3.48H66v-3.25c0-.76-.27-1.28-.93-1.28a1,1,0,0,0-.92.69,1.18,1.18,0,0,0-.07.45v3.39H62.28Z" transform="translate(-6.39 -24)"/><path class="cls-3" d="M74.92,185c0,.37,0,.86,0,1.74V190a3.37,3.37,0,0,1-.89,2.64,3.62,3.62,0,0,1-2.38.72,4.61,4.61,0,0,1-2.12-.45l.36-1.38a3.72,3.72,0,0,0,1.71.44,1.4,1.4,0,0,0,1.52-1.55V190h0a1.9,1.9,0,0,1-1.59.77A2.58,2.58,0,0,1,69,187.94a2.8,2.8,0,0,1,2.66-3.08,1.77,1.77,0,0,1,1.61.83h0l.06-.7Zm-1.87,2.39a1.76,1.76,0,0,0,0-.34,1,1,0,0,0-1-.8c-.66,0-1.2.6-1.2,1.67,0,.87.43,1.55,1.2,1.55a1,1,0,0,0,1-.74,1.8,1.8,0,0,0,.06-.48Z" transform="translate(-6.39 -24)"/><path class="cls-3" d="M78.76,186.92c0-.86,0-1.43-.05-1.93h1.57l.06,1.08h0A1.72,1.72,0,0,1,82,184.86a2.3,2.3,0,0,1,.39,0v1.72a2.17,2.17,0,0,0-.49,0,1.17,1.17,0,0,0-1.25.92,1.78,1.78,0,0,0,0,.41v3H78.76Z" transform="translate(-6.39 -24)"/><path class="cls-3" d="M89,187.86a3,3,0,0,1-3.1,3.13,2.88,2.88,0,0,1-3-3,2.92,2.92,0,0,1,3.13-3.1A2.85,2.85,0,0,1,89,187.86Zm-4.25.06c0,1,.42,1.76,1.2,1.76s1.16-.71,1.16-1.76c0-.88-.33-1.77-1.16-1.77S84.77,187.05,84.77,187.92Z" transform="translate(-6.39 -24)"/><path class="cls-3" d="M90.1,190.86c0-.39.05-1.1.05-1.76v-6.76H92v3.35h0a2.06,2.06,0,0,1,1.78-.83c1.4,0,2.43,1.16,2.42,3,0,2.11-1.34,3.17-2.69,3.17a1.94,1.94,0,0,1-1.76-1h0l-.07.82Zm1.87-2.5a1,1,0,0,0,0,.32,1.09,1.09,0,0,0,1.06.87c.78,0,1.26-.6,1.26-1.66,0-.91-.41-1.63-1.26-1.63a1.12,1.12,0,0,0-1.06.9,1.27,1.27,0,0,0,0,.34Z" transform="translate(-6.39 -24)"/><path class="cls-3" d="M102.85,189c0,.77,0,1.39.05,1.89h-1.58l-.09-.83h0a2.1,2.1,0,0,1-1.84,1c-1.19,0-2.06-.75-2.06-2.56V185h1.83v3.15c0,.86.28,1.37.91,1.37a1,1,0,0,0,.92-.63,1.25,1.25,0,0,0,.06-.4V185h1.83Z" transform="translate(-6.39 -24)"/><path class="cls-3" d="M104.31,189.26a3.59,3.59,0,0,0,1.57.44c.55,0,.78-.19.78-.49s-.18-.44-.87-.67c-1.21-.41-1.68-1.07-1.66-1.76,0-1.09.93-1.92,2.38-1.92a4,4,0,0,1,1.66.33l-.33,1.26a2.89,2.89,0,0,0-1.27-.33c-.44,0-.69.18-.69.48s.23.42,1,.67c1.11.38,1.58.95,1.59,1.81,0,1.09-.86,1.9-2.54,1.9a4.18,4.18,0,0,1-1.9-.41Z" transform="translate(-6.39 -24)"/><path class="cls-3" d="M111.57,183.31V185h1.3v1.34h-1.3v2.13c0,.7.16,1,.72,1a3.56,3.56,0,0,0,.54-.05v1.38a3.45,3.45,0,0,1-1.19.16,1.9,1.9,0,0,1-1.37-.51,2.46,2.46,0,0,1-.5-1.74v-2.4H109V185h.78v-1.27Z" transform="translate(-6.39 -24)"/><path class="cls-3" d="M8.13,200.5c.06.76.81,1.12,1.66,1.12a5.06,5.06,0,0,0,1.62-.24l.24,1.24a5.78,5.78,0,0,1-2.12.36,2.82,2.82,0,0,1-3.14-3,2.94,2.94,0,0,1,3-3.13c1.89,0,2.61,1.47,2.61,2.93a3.64,3.64,0,0,1-.06.71Zm2.15-1.24a1.06,1.06,0,0,0-1-1.19,1.2,1.2,0,0,0-1.13,1.19Z" transform="translate(-6.39 -24)"/><path class="cls-3" d="M13.07,198.86c0-.73,0-1.35-.05-1.87h1.53l.09.79h0a2.05,2.05,0,0,1,1.78-.92,1.68,1.68,0,0,1,1.61,1h0a2.59,2.59,0,0,1,.75-.7,2.08,2.08,0,0,1,1.12-.29c1.13,0,2,.79,2,2.54v3.46H20.15v-3.19c0-.86-.27-1.35-.86-1.35a.89.89,0,0,0-.84.64,1.43,1.43,0,0,0-.07.46v3.44H16.6v-3.29c0-.74-.26-1.25-.84-1.25a.94.94,0,0,0-.85.66,1.2,1.2,0,0,0-.07.46v3.42H13.07Z" transform="translate(-6.39 -24)"/><path class="cls-3" d="M25.27,195.36a.91.91,0,0,1-1,.91.92.92,0,1,1,0-1.83A.91.91,0,0,1,25.27,195.36Zm-1.88,7.5V197h1.82v5.87Z" transform="translate(-6.39 -24)"/><path class="cls-3" d="M26.66,201.26a3.63,3.63,0,0,0,1.57.44c.56,0,.78-.19.78-.49s-.18-.44-.86-.67c-1.21-.41-1.68-1.07-1.67-1.76,0-1.09.94-1.92,2.39-1.92a3.89,3.89,0,0,1,1.65.33l-.32,1.26a2.93,2.93,0,0,0-1.27-.33c-.44,0-.7.18-.7.48s.23.42.95.67c1.12.38,1.58.95,1.6,1.81,0,1.09-.87,1.9-2.55,1.9a4.14,4.14,0,0,1-1.89-.41Z" transform="translate(-6.39 -24)"/><path class="cls-3" d="M31.87,201.26a3.63,3.63,0,0,0,1.57.44c.55,0,.78-.19.78-.49s-.18-.44-.86-.67c-1.21-.41-1.68-1.07-1.67-1.76,0-1.09.94-1.92,2.39-1.92a3.93,3.93,0,0,1,1.65.33l-.32,1.26a2.93,2.93,0,0,0-1.27-.33c-.45,0-.7.18-.7.48s.23.42,1,.67c1.11.38,1.58.95,1.59,1.81,0,1.09-.86,1.9-2.54,1.9a4.11,4.11,0,0,1-1.89-.41Z" transform="translate(-6.39 -24)"/><path class="cls-3" d="M39,195.36a.91.91,0,0,1-1,.91.92.92,0,1,1,1-.91Zm-1.88,7.5V197h1.82v5.87Z" transform="translate(-6.39 -24)"/><path class="cls-3" d="M46.17,199.86A2.94,2.94,0,0,1,43.08,203a2.88,2.88,0,0,1-3-3,2.93,2.93,0,0,1,3.13-3.1A2.85,2.85,0,0,1,46.17,199.86Zm-4.24.06c0,1,.42,1.76,1.2,1.76s1.16-.71,1.16-1.76c0-.88-.34-1.77-1.16-1.77S41.93,199.05,41.93,199.92Z" transform="translate(-6.39 -24)"/><path class="cls-3" d="M47.3,198.86c0-.73,0-1.35,0-1.87h1.59l.08.8h0a2.15,2.15,0,0,1,1.81-.93c1.2,0,2.1.79,2.1,2.52v3.48H51v-3.25c0-.76-.26-1.28-.92-1.28a1,1,0,0,0-.92.69,1.18,1.18,0,0,0-.07.45v3.39H47.3Z" transform="translate(-6.39 -24)"/><path class="cls-3" d="M54.32,201.26a3.63,3.63,0,0,0,1.57.44c.56,0,.78-.19.78-.49s-.18-.44-.86-.67c-1.21-.41-1.68-1.07-1.67-1.76,0-1.09.94-1.92,2.39-1.92a3.89,3.89,0,0,1,1.65.33l-.32,1.26a2.93,2.93,0,0,0-1.27-.33c-.44,0-.7.18-.7.48s.23.42,1,.67c1.12.38,1.58.95,1.6,1.81,0,1.09-.87,1.9-2.55,1.9a4.14,4.14,0,0,1-1.89-.41Z" transform="translate(-6.39 -24)"/><path class="cls-3" d="M63.85,195.36a.91.91,0,0,1-1,.91.92.92,0,1,1,0-1.83A.91.91,0,0,1,63.85,195.36ZM62,202.86V197h1.82v5.87Z" transform="translate(-6.39 -24)"/><path class="cls-3" d="M65.25,198.86c0-.73,0-1.35,0-1.87h1.58l.08.8h0a2.15,2.15,0,0,1,1.81-.93c1.2,0,2.1.79,2.1,2.52v3.48H69v-3.25c0-.76-.27-1.28-.93-1.28a1,1,0,0,0-.92.69,1.18,1.18,0,0,0-.07.45v3.39H65.25Z" transform="translate(-6.39 -24)"/><path class="cls-3" d="M73.42,197l.79,2.72a13.88,13.88,0,0,1,.33,1.43h0c.09-.48.19-.92.32-1.43l.76-2.72h1.92l-2.19,5.87H73.57L71.44,197Z" transform="translate(-6.39 -24)"/><path class="cls-3" d="M79.64,200.5c.06.76.81,1.12,1.66,1.12a5.11,5.11,0,0,0,1.62-.24l.24,1.24A5.8,5.8,0,0,1,81,203a2.82,2.82,0,0,1-3.13-3,2.94,2.94,0,0,1,3-3.13c1.89,0,2.61,1.47,2.61,2.93a4.66,4.66,0,0,1-.06.71Zm2.15-1.24a1.06,1.06,0,0,0-1-1.19,1.2,1.2,0,0,0-1.13,1.19Z" transform="translate(-6.39 -24)"/><path class="cls-3" d="M84.58,198.86c0-.73,0-1.35,0-1.87h1.58l.08.8h0a2.15,2.15,0,0,1,1.81-.93c1.2,0,2.1.79,2.1,2.52v3.48H88.32v-3.25c0-.76-.27-1.28-.93-1.28a1,1,0,0,0-.92.69,1.18,1.18,0,0,0-.07.45v3.39H84.58Z" transform="translate(-6.39 -24)"/><path class="cls-3" d="M93.58,195.31V197h1.3v1.34h-1.3v2.13c0,.7.16,1,.71,1a3.31,3.31,0,0,0,.54-.05l0,1.38a3.49,3.49,0,0,1-1.19.16,1.9,1.9,0,0,1-1.37-.51,2.46,2.46,0,0,1-.5-1.74v-2.4H91V197h.78v-1.27Z" transform="translate(-6.39 -24)"/><path class="cls-3" d="M101.67,199.86A2.94,2.94,0,0,1,98.58,203a2.88,2.88,0,0,1-3-3,2.93,2.93,0,0,1,3.13-3.1A2.85,2.85,0,0,1,101.67,199.86Zm-4.24.06c0,1,.42,1.76,1.2,1.76s1.16-.71,1.16-1.76c0-.88-.34-1.77-1.16-1.77S97.43,199.05,97.43,199.92Z" transform="translate(-6.39 -24)"/><path class="cls-3" d="M102.8,198.92c0-.86,0-1.43,0-1.93h1.57l.06,1.08h0a1.73,1.73,0,0,1,1.59-1.21,2.18,2.18,0,0,1,.38,0v1.72a2.17,2.17,0,0,0-.49,0,1.18,1.18,0,0,0-1.25.92,2.63,2.63,0,0,0,0,.41v3H102.8Z" transform="translate(-6.39 -24)"/><path class="cls-3" d="M109.25,195.36a.92.92,0,0,1-1,.91.92.92,0,1,1,0-1.83A.92.92,0,0,1,109.25,195.36Zm-1.89,7.5V197h1.83v5.87Z" transform="translate(-6.39 -24)"/><path class="cls-3" d="M112.05,200.5c.06.76.81,1.12,1.66,1.12a5.06,5.06,0,0,0,1.62-.24l.24,1.24a5.78,5.78,0,0,1-2.12.36,2.82,2.82,0,0,1-3.13-3,2.93,2.93,0,0,1,3-3.13c1.89,0,2.61,1.47,2.61,2.93a3.64,3.64,0,0,1-.06.71Zm2.15-1.24a1.06,1.06,0,0,0-1-1.19,1.2,1.2,0,0,0-1.13,1.19Z" transform="translate(-6.39 -24)"/><path class="cls-3" d="M117,201.26a3.59,3.59,0,0,0,1.57.44c.55,0,.78-.19.78-.49s-.18-.44-.87-.67c-1.21-.41-1.68-1.07-1.66-1.76,0-1.09.93-1.92,2.38-1.92a4,4,0,0,1,1.66.33l-.33,1.26a2.89,2.89,0,0,0-1.27-.33c-.44,0-.69.18-.69.48s.22.42.94.67c1.12.38,1.59.95,1.6,1.81,0,1.09-.86,1.9-2.54,1.9a4.18,4.18,0,0,1-1.9-.41Z" transform="translate(-6.39 -24)"/><path class="cls-4" d="M126.37,297.88a15.94,15.94,0,0,1,2.47-.17,5.2,5.2,0,0,1,3.31.86,3.59,3.59,0,0,1,1.37,3.05,4.1,4.1,0,0,1-1.35,3.27,5.79,5.79,0,0,1-3.73,1.05,13.74,13.74,0,0,1-2.07-.13Zm1.83,6.59a3.08,3.08,0,0,0,.64,0,2.51,2.51,0,0,0,2.73-2.83,2.32,2.32,0,0,0-2.54-2.57,4.33,4.33,0,0,0-.83.07Z" transform="translate(-6.39 -24)"/><path class="cls-4" d="M136.06,303.5c.06.76.81,1.12,1.66,1.12a5.41,5.41,0,0,0,1.62-.24l.24,1.23a5.83,5.83,0,0,1-2.13.36,2.81,2.81,0,0,1-3.13-3,3,3,0,0,1,3-3.13c1.89,0,2.61,1.48,2.61,2.93a4.83,4.83,0,0,1-.06.72Zm2.15-1.25a1.05,1.05,0,0,0-1-1.18,1.19,1.19,0,0,0-1.13,1.18Z" transform="translate(-6.39 -24)"/><path class="cls-4" d="M141,301.86c0-.74,0-1.36,0-1.87h1.53l.09.79h0a2,2,0,0,1,1.78-.93,1.66,1.66,0,0,1,1.6,1h0a2.64,2.64,0,0,1,.75-.71,2.17,2.17,0,0,1,1.12-.29c1.13,0,2,.8,2,2.55v3.45h-1.78v-3.19c0-.85-.27-1.34-.86-1.34a.9.9,0,0,0-.84.63,1.49,1.49,0,0,0-.07.47v3.43h-1.78v-3.29c0-.74-.26-1.24-.84-1.24a.94.94,0,0,0-.85.66,1.18,1.18,0,0,0-.07.45v3.42H141Z" transform="translate(-6.39 -24)"/><path class="cls-4" d="M157.11,302.85A3,3,0,0,1,154,306a2.87,2.87,0,0,1-3-3,2.93,2.93,0,0,1,3.13-3.11A2.86,2.86,0,0,1,157.11,302.85Zm-4.25.06c0,1,.42,1.77,1.2,1.77s1.16-.71,1.16-1.77c0-.87-.33-1.76-1.16-1.76S152.86,302.05,152.86,302.91Z" transform="translate(-6.39 -24)"/><path class="cls-4" d="M158.24,301.86c0-.74,0-1.36-.05-1.87h1.58l.09.8h0a2.15,2.15,0,0,1,1.81-.94c1.2,0,2.1.8,2.1,2.52v3.48H162V302.6c0-.75-.26-1.27-.92-1.27a1,1,0,0,0-.93.68,1.24,1.24,0,0,0-.07.46v3.38h-1.82Z" transform="translate(-6.39 -24)"/><path class="cls-4" d="M165.26,304.26a3.59,3.59,0,0,0,1.57.44c.55,0,.78-.19.78-.49s-.18-.45-.86-.67c-1.22-.41-1.68-1.07-1.67-1.77,0-1.09.93-1.92,2.39-1.92a3.91,3.91,0,0,1,1.65.34l-.32,1.26a3,3,0,0,0-1.28-.34c-.44,0-.69.18-.69.48s.23.42.95.68c1.11.38,1.58.94,1.59,1.81,0,1.09-.86,1.89-2.54,1.89a4.18,4.18,0,0,1-1.9-.41Z" transform="translate(-6.39 -24)"/><path class="cls-4" d="M172.52,298.31V300h1.3v1.34h-1.3v2.12c0,.71.17,1,.72,1a3.74,3.74,0,0,0,.54,0v1.37a3.45,3.45,0,0,1-1.19.16,1.9,1.9,0,0,1-1.37-.5,2.46,2.46,0,0,1-.5-1.74v-2.4H170V300h.78v-1.28Z" transform="translate(-6.39 -24)"/><path class="cls-4" d="M174.88,301.92c0-.87,0-1.43,0-1.93h1.58l.06,1.08h0a1.72,1.72,0,0,1,1.59-1.22,1.5,1.5,0,0,1,.38,0v1.71a3,3,0,0,0-.49,0,1.18,1.18,0,0,0-1.25.93,2.54,2.54,0,0,0,0,.41v3h-1.83Z" transform="translate(-6.39 -24)"/><path class="cls-4" d="M182.64,305.85l-.1-.59h0a2.1,2.1,0,0,1-1.68.72,1.79,1.79,0,0,1-1.89-1.8c0-1.52,1.36-2.25,3.44-2.24v-.08c0-.32-.17-.76-1.07-.76a3.43,3.43,0,0,0-1.62.44l-.33-1.17a4.76,4.76,0,0,1,2.27-.52,2.28,2.28,0,0,1,2.58,2.53v2a8.92,8.92,0,0,0,.09,1.43Zm-.21-2.77c-1,0-1.7.22-1.7.92a.65.65,0,0,0,.71.7,1,1,0,0,0,.95-.67,1.1,1.1,0,0,0,0-.31Z" transform="translate(-6.39 -24)"/><path class="cls-4" d="M187.59,298.31V300h1.31v1.34h-1.31v2.12c0,.71.17,1,.72,1a3.51,3.51,0,0,0,.54,0v1.37a3.45,3.45,0,0,1-1.19.16,1.88,1.88,0,0,1-1.36-.5,2.41,2.41,0,0,1-.51-1.74v-2.4H185V300h.78v-1.28Z" transform="translate(-6.39 -24)"/><path class="cls-4" d="M191.84,298.36a.92.92,0,0,1-1,.91.92.92,0,1,1,0-1.84A.92.92,0,0,1,191.84,298.36ZM190,305.85V300h1.83v5.86Z" transform="translate(-6.39 -24)"/><path class="cls-4" d="M193.24,301.86c0-.74,0-1.36-.05-1.87h1.59l.08.8h0a2.15,2.15,0,0,1,1.81-.94c1.2,0,2.1.8,2.1,2.52v3.48H197V302.6c0-.75-.26-1.27-.92-1.27a1,1,0,0,0-.92.68,1.24,1.24,0,0,0-.07.46v3.38h-1.83Z" transform="translate(-6.39 -24)"/><path class="cls-4" d="M205.88,300c0,.37,0,.86,0,1.74V305a3.37,3.37,0,0,1-.89,2.64,3.63,3.63,0,0,1-2.39.72,4.59,4.59,0,0,1-2.11-.46l.36-1.38a3.56,3.56,0,0,0,1.71.45,1.4,1.4,0,0,0,1.52-1.55V305h0a1.89,1.89,0,0,1-1.59.76,2.58,2.58,0,0,1-2.48-2.86,2.81,2.81,0,0,1,2.66-3.09,1.77,1.77,0,0,1,1.61.83h0l.06-.69ZM204,302.37a1.57,1.57,0,0,0,0-.33,1,1,0,0,0-1-.81c-.66,0-1.2.6-1.2,1.67,0,.88.43,1.56,1.2,1.56a1,1,0,0,0,.95-.74,1.55,1.55,0,0,0,.07-.48Z" transform="translate(-6.39 -24)"/><path class="cls-4" d="M104.64,317.71A4.51,4.51,0,0,1,103,318a2.84,2.84,0,0,1-3.1-3,3.06,3.06,0,0,1,3.36-3.12,4.4,4.4,0,0,1,1.39.23l-.29,1.36a2.44,2.44,0,0,0-1-.18,1.64,1.64,0,0,0,0,3.28,2.77,2.77,0,0,0,1-.18Z" transform="translate(-6.39 -24)"/><path class="cls-4" d="M111.32,314.85a3,3,0,0,1-3.1,3.13,2.87,2.87,0,0,1-3-3,2.93,2.93,0,0,1,3.13-3.11A2.86,2.86,0,0,1,111.32,314.85Zm-4.25.06c0,1,.42,1.77,1.2,1.77s1.16-.71,1.16-1.77c0-.87-.33-1.76-1.16-1.76S107.07,314.05,107.07,314.91Z" transform="translate(-6.39 -24)"/><path class="cls-4" d="M112.45,313.86c0-.74,0-1.36,0-1.87H114l.09.8h0a2.15,2.15,0,0,1,1.81-.94c1.2,0,2.1.8,2.1,2.52v3.48h-1.82V314.6c0-.75-.26-1.27-.92-1.27a1,1,0,0,0-.93.68,1.24,1.24,0,0,0-.07.46v3.38h-1.82Z" transform="translate(-6.39 -24)"/><path class="cls-4" d="M121.45,310.31V312h1.3v1.34h-1.3v2.12c0,.71.16,1,.72,1a3.74,3.74,0,0,0,.54,0v1.37a3.45,3.45,0,0,1-1.19.16,1.9,1.9,0,0,1-1.37-.5,2.46,2.46,0,0,1-.5-1.74v-2.4h-.78V312h.78v-1.28Z" transform="translate(-6.39 -24)"/><path class="cls-4" d="M123.81,313.92c0-.87,0-1.43,0-1.93h1.57l.06,1.08h0a1.72,1.72,0,0,1,1.59-1.22,1.5,1.5,0,0,1,.38,0v1.71a3,3,0,0,0-.49,0,1.18,1.18,0,0,0-1.25.93,2.48,2.48,0,0,0,0,.41v3h-1.82Z" transform="translate(-6.39 -24)"/><path class="cls-4" d="M130.25,310.36a.91.91,0,0,1-1,.91.92.92,0,1,1,0-1.84A.91.91,0,0,1,130.25,310.36Zm-1.88,7.49V312h1.82v5.86Z" transform="translate(-6.39 -24)"/><path class="cls-4" d="M131.61,317.85c0-.38,0-1.09,0-1.75v-6.76h1.82v3.34h0a2.06,2.06,0,0,1,1.77-.83c1.4,0,2.44,1.17,2.42,3,0,2.11-1.34,3.16-2.68,3.16a2,2,0,0,1-1.77-.94h0l-.07.81Zm1.87-2.49a1.08,1.08,0,0,0,0,.32,1.1,1.1,0,0,0,1.07.86c.77,0,1.25-.6,1.25-1.65s-.4-1.63-1.25-1.63a1.12,1.12,0,0,0-1.07.9,1.19,1.19,0,0,0,0,.33Z" transform="translate(-6.39 -24)"/><path class="cls-4" d="M144.36,316c0,.77,0,1.39,0,1.88h-1.58l-.09-.83h0a2.1,2.1,0,0,1-1.84,1c-1.18,0-2.06-.74-2.06-2.55V312h1.84v3.15c0,.85.27,1.37.91,1.37a1,1,0,0,0,.91-.64,1,1,0,0,0,.06-.39V312h1.83Z" transform="translate(-6.39 -24)"/><path class="cls-4" d="M147.87,310.31V312h1.31v1.34h-1.31v2.12c0,.71.17,1,.72,1a3.51,3.51,0,0,0,.54,0v1.37A3.45,3.45,0,0,1,148,318a1.88,1.88,0,0,1-1.36-.5,2.41,2.41,0,0,1-.51-1.74v-2.4h-.78V312h.78v-1.28Z" transform="translate(-6.39 -24)"/><path class="cls-4" d="M152.12,310.36a.92.92,0,0,1-1,.91.92.92,0,1,1,0-1.84A.92.92,0,0,1,152.12,310.36Zm-1.89,7.49V312h1.83v5.86Z" transform="translate(-6.39 -24)"/><path class="cls-4" d="M159.32,314.85a3,3,0,0,1-3.1,3.13,2.87,2.87,0,0,1-3-3,2.93,2.93,0,0,1,3.13-3.11A2.86,2.86,0,0,1,159.32,314.85Zm-4.25.06c0,1,.42,1.77,1.2,1.77s1.16-.71,1.16-1.77c0-.87-.33-1.76-1.16-1.76S155.07,314.05,155.07,314.91Z" transform="translate(-6.39 -24)"/><path class="cls-4" d="M160.45,313.86c0-.74,0-1.36,0-1.87H162l.09.8h0a2.15,2.15,0,0,1,1.81-.94c1.2,0,2.1.8,2.1,2.52v3.48h-1.82V314.6c0-.75-.26-1.27-.92-1.27a1,1,0,0,0-.93.68,1.24,1.24,0,0,0-.07.46v3.38h-1.82Z" transform="translate(-6.39 -24)"/><path class="cls-4" d="M167.47,316.26a3.59,3.59,0,0,0,1.57.44c.55,0,.78-.19.78-.49s-.18-.45-.87-.67c-1.21-.41-1.68-1.07-1.66-1.77,0-1.09.93-1.92,2.38-1.92a3.93,3.93,0,0,1,1.66.34l-.32,1.26a3,3,0,0,0-1.28-.34c-.44,0-.69.18-.69.48s.23.42,1,.68c1.11.38,1.58.94,1.59,1.81,0,1.09-.86,1.89-2.54,1.89a4.18,4.18,0,0,1-1.9-.41Z" transform="translate(-6.39 -24)"/><path class="cls-4" d="M177.15,310.31V312h1.31v1.34h-1.31v2.12c0,.71.17,1,.72,1a3.51,3.51,0,0,0,.54,0v1.37a3.45,3.45,0,0,1-1.19.16,1.88,1.88,0,0,1-1.36-.5,2.41,2.41,0,0,1-.51-1.74v-2.4h-.78V312h.78v-1.28Z" transform="translate(-6.39 -24)"/><path class="cls-4" d="M185.25,314.85a2.94,2.94,0,0,1-3.1,3.13,2.87,2.87,0,0,1-3-3,2.93,2.93,0,0,1,3.13-3.11A2.86,2.86,0,0,1,185.25,314.85Zm-4.25.06c0,1,.42,1.77,1.2,1.77s1.17-.71,1.17-1.77c0-.87-.34-1.76-1.17-1.76S181,314.05,181,314.91Z" transform="translate(-6.39 -24)"/><path class="cls-4" d="M188.8,313.86c0-.74,0-1.36,0-1.87h1.58l.08.8h0a2.15,2.15,0,0,1,1.81-.94c1.2,0,2.1.8,2.1,2.52v3.48h-1.82V314.6c0-.75-.27-1.27-.93-1.27a1,1,0,0,0-.92.68,1.24,1.24,0,0,0-.07.46v3.38H188.8Z" transform="translate(-6.39 -24)"/><path class="cls-4" d="M199.17,317.85l-.11-.59h0a2.12,2.12,0,0,1-1.68.72,1.8,1.8,0,0,1-1.9-1.8c0-1.52,1.37-2.25,3.44-2.24v-.08c0-.32-.16-.76-1.06-.76a3.4,3.4,0,0,0-1.62.44l-.34-1.17a4.81,4.81,0,0,1,2.28-.52,2.29,2.29,0,0,1,2.58,2.53v2a9.12,9.12,0,0,0,.08,1.43Zm-.22-2.77c-1,0-1.7.22-1.7.92a.66.66,0,0,0,.72.7,1,1,0,0,0,.95-.67,1.63,1.63,0,0,0,0-.31Z" transform="translate(-6.39 -24)"/><path class="cls-4" d="M204.11,310.31V312h1.31v1.34h-1.31v2.12c0,.71.17,1,.72,1a3.51,3.51,0,0,0,.54,0l0,1.37a3.49,3.49,0,0,1-1.19.16,1.9,1.9,0,0,1-1.37-.5,2.46,2.46,0,0,1-.5-1.74v-2.4h-.78V312h.78v-1.28Z" transform="translate(-6.39 -24)"/><path class="cls-4" d="M208.36,310.36a.91.91,0,0,1-1,.91.92.92,0,1,1,0-1.84A.91.91,0,0,1,208.36,310.36Zm-1.88,7.49V312h1.82v5.86Z" transform="translate(-6.39 -24)"/><path class="cls-4" d="M215.56,314.85a2.94,2.94,0,0,1-3.09,3.13,2.87,2.87,0,0,1-3-3,2.93,2.93,0,0,1,3.13-3.11A2.86,2.86,0,0,1,215.56,314.85Zm-4.25.06c0,1,.42,1.77,1.21,1.77s1.16-.71,1.16-1.77c0-.87-.34-1.76-1.16-1.76S211.31,314.05,211.31,314.91Z" transform="translate(-6.39 -24)"/><path class="cls-4" d="M216.69,313.86c0-.74,0-1.36-.05-1.87h1.59l.08.8h0a2.15,2.15,0,0,1,1.81-.94c1.2,0,2.1.8,2.1,2.52v3.48h-1.83V314.6c0-.75-.26-1.27-.92-1.27a1,1,0,0,0-.92.68,1.24,1.24,0,0,0-.07.46v3.38h-1.83Z" transform="translate(-6.39 -24)"/><path class="cls-4" d="M227.06,317.85l-.11-.59h0a2.09,2.09,0,0,1-1.67.72,1.8,1.8,0,0,1-1.9-1.8c0-1.52,1.37-2.25,3.44-2.24v-.08c0-.32-.17-.76-1.06-.76a3.4,3.4,0,0,0-1.62.44l-.34-1.17a4.81,4.81,0,0,1,2.28-.52,2.29,2.29,0,0,1,2.58,2.53v2a9.12,9.12,0,0,0,.08,1.43Zm-.22-2.77c-1,0-1.7.22-1.7.92a.66.66,0,0,0,.72.7,1,1,0,0,0,.95-.67,1.63,1.63,0,0,0,0-.31Z" transform="translate(-6.39 -24)"/><path class="cls-4" d="M230.06,309.34h1.82v8.51h-1.82Z" transform="translate(-6.39 -24)"/><path class="cls-4" d="M91.58,327.5c.06.76.81,1.12,1.66,1.12a5.36,5.36,0,0,0,1.62-.24l.24,1.23A5.78,5.78,0,0,1,93,330a2.81,2.81,0,0,1-3.13-3,2.94,2.94,0,0,1,3-3.13c1.89,0,2.61,1.48,2.61,2.93a3.76,3.76,0,0,1-.06.72Zm2.15-1.25a1.05,1.05,0,0,0-1-1.18,1.19,1.19,0,0,0-1.13,1.18Z" transform="translate(-6.39 -24)"/><path class="cls-4" d="M96.52,325.86c0-.74,0-1.36,0-1.87H98l.09.79h0a2.06,2.06,0,0,1,1.78-.93,1.69,1.69,0,0,1,1.61,1h0a2.67,2.67,0,0,1,.76-.71,2.11,2.11,0,0,1,1.11-.29c1.13,0,2,.8,2,2.55v3.45H103.6v-3.19c0-.85-.27-1.34-.86-1.34a.9.9,0,0,0-.84.63,1.49,1.49,0,0,0-.07.47v3.43h-1.77v-3.29c0-.74-.27-1.24-.84-1.24a.94.94,0,0,0-.86.66,1.18,1.18,0,0,0-.07.45v3.42H96.52Z" transform="translate(-6.39 -24)"/><path class="cls-4" d="M108.72,322.36a.91.91,0,0,1-1,.91.92.92,0,1,1,0-1.84A.91.91,0,0,1,108.72,322.36Zm-1.88,7.49V324h1.82v5.86Z" transform="translate(-6.39 -24)"/><path class="cls-4" d="M110.11,328.26a3.67,3.67,0,0,0,1.58.44c.55,0,.77-.19.77-.49s-.18-.45-.86-.67c-1.21-.41-1.68-1.07-1.67-1.77,0-1.09.94-1.92,2.39-1.92a4,4,0,0,1,1.66.34l-.33,1.26a2.92,2.92,0,0,0-1.27-.34c-.44,0-.69.18-.69.48s.22.42.94.68c1.12.38,1.59.94,1.6,1.81,0,1.09-.87,1.89-2.54,1.89a4.15,4.15,0,0,1-1.9-.41Z" transform="translate(-6.39 -24)"/><path class="cls-4" d="M115.32,328.26a3.63,3.63,0,0,0,1.57.44c.55,0,.78-.19.78-.49s-.18-.45-.86-.67c-1.21-.41-1.68-1.07-1.67-1.77,0-1.09.94-1.92,2.39-1.92a3.91,3.91,0,0,1,1.65.34l-.32,1.26a2.92,2.92,0,0,0-1.27-.34c-.44,0-.7.18-.7.48s.23.42,1,.68c1.12.38,1.58.94,1.6,1.81,0,1.09-.87,1.89-2.55,1.89a4.14,4.14,0,0,1-1.89-.41Z" transform="translate(-6.39 -24)"/><path class="cls-4" d="M122.42,322.36a.91.91,0,0,1-1,.91.92.92,0,1,1,0-1.84A.91.91,0,0,1,122.42,322.36Zm-1.88,7.49V324h1.82v5.86Z" transform="translate(-6.39 -24)"/><path class="cls-4" d="M129.62,326.85a2.94,2.94,0,0,1-3.09,3.13,2.87,2.87,0,0,1-3-3,2.93,2.93,0,0,1,3.13-3.11A2.86,2.86,0,0,1,129.62,326.85Zm-4.24.06c0,1,.42,1.77,1.2,1.77s1.16-.71,1.16-1.77c0-.87-.34-1.76-1.16-1.76S125.38,326.05,125.38,326.91Z" transform="translate(-6.39 -24)"/><path class="cls-4" d="M130.75,325.86c0-.74,0-1.36,0-1.87h1.58l.08.8h0a2.15,2.15,0,0,1,1.81-.94c1.2,0,2.1.8,2.1,2.52v3.48H134.5V326.6c0-.75-.27-1.27-.93-1.27a1,1,0,0,0-.92.68,1.24,1.24,0,0,0-.07.46v3.38h-1.83Z" transform="translate(-6.39 -24)"/><path class="cls-4" d="M137.77,328.26a3.67,3.67,0,0,0,1.58.44c.55,0,.77-.19.77-.49s-.18-.45-.86-.67c-1.21-.41-1.68-1.07-1.67-1.77,0-1.09.94-1.92,2.39-1.92a4,4,0,0,1,1.66.34l-.33,1.26a2.92,2.92,0,0,0-1.27-.34c-.44,0-.69.18-.69.48s.22.42.94.68c1.12.38,1.59.94,1.6,1.81,0,1.09-.87,1.89-2.54,1.89a4.15,4.15,0,0,1-1.9-.41Z" transform="translate(-6.39 -24)"/><path class="cls-4" d="M145.42,325.92c0-.87,0-1.43,0-1.93h1.57l.06,1.08h.05a1.72,1.72,0,0,1,1.58-1.22,1.58,1.58,0,0,1,.39,0v1.71a3.11,3.11,0,0,0-.5,0,1.17,1.17,0,0,0-1.24.93,1.73,1.73,0,0,0,0,.41v3h-1.82Z" transform="translate(-6.39 -24)"/><path class="cls-4" d="M151.28,327.5c.06.76.81,1.12,1.66,1.12a5.36,5.36,0,0,0,1.62-.24l.24,1.23a5.78,5.78,0,0,1-2.12.36,2.81,2.81,0,0,1-3.13-3,2.94,2.94,0,0,1,3-3.13c1.89,0,2.61,1.48,2.61,2.93a3.76,3.76,0,0,1-.06.72Zm2.15-1.25a1.05,1.05,0,0,0-1-1.18,1.19,1.19,0,0,0-1.13,1.18Z" transform="translate(-6.39 -24)"/><path class="cls-4" d="M161.9,321.34v6.76c0,.66,0,1.36,0,1.75h-1.62l-.08-.86h0a2,2,0,0,1-1.83,1c-1.39,0-2.51-1.18-2.51-3,0-2,1.22-3.12,2.63-3.12a1.82,1.82,0,0,1,1.55.66h0v-3.17Zm-1.82,5.13c0-.1,0-.23,0-.33a1.1,1.1,0,0,0-1.07-.89c-.83,0-1.26.74-1.26,1.66s.49,1.62,1.25,1.62a1.07,1.07,0,0,0,1.05-.87,1.47,1.47,0,0,0,.05-.42Z" transform="translate(-6.39 -24)"/><path class="cls-4" d="M168.9,328c0,.77,0,1.39,0,1.88h-1.59l-.08-.83h0a2.08,2.08,0,0,1-1.83,1c-1.19,0-2.06-.74-2.06-2.55V324h1.83v3.15c0,.85.28,1.37.91,1.37a1,1,0,0,0,1-1V324h1.84Z" transform="translate(-6.39 -24)"/><path class="cls-4" d="M174.77,329.71a4.59,4.59,0,0,1-1.63.26,2.84,2.84,0,0,1-3.11-3,3.07,3.07,0,0,1,3.36-3.12,4.31,4.31,0,0,1,1.39.23l-.29,1.36a2.41,2.41,0,0,0-1-.18,1.64,1.64,0,0,0,0,3.28,2.74,2.74,0,0,0,1-.18Z" transform="translate(-6.39 -24)"/><path class="cls-4" d="M178,322.31V324h1.31v1.34H178v2.12c0,.71.17,1,.72,1a3.51,3.51,0,0,0,.54,0v1.37a3.45,3.45,0,0,1-1.19.16,1.86,1.86,0,0,1-1.36-.5,2.41,2.41,0,0,1-.51-1.74v-2.4h-.78V324h.78v-1.28Z" transform="translate(-6.39 -24)"/><path class="cls-4" d="M182.26,322.36a.92.92,0,0,1-1,.91.92.92,0,1,1,0-1.84A.93.93,0,0,1,182.26,322.36Zm-1.89,7.49V324h1.83v5.86Z" transform="translate(-6.39 -24)"/><path class="cls-4" d="M189.45,326.85a2.94,2.94,0,0,1-3.09,3.13,2.87,2.87,0,0,1-3-3,2.93,2.93,0,0,1,3.13-3.11A2.85,2.85,0,0,1,189.45,326.85Zm-4.24.06c0,1,.42,1.77,1.2,1.77s1.16-.71,1.16-1.77c0-.87-.33-1.76-1.16-1.76S185.21,326.05,185.21,326.91Z" transform="translate(-6.39 -24)"/><path class="cls-4" d="M190.59,325.86c0-.74,0-1.36-.05-1.87h1.58l.08.8h0a2.15,2.15,0,0,1,1.81-.94c1.2,0,2.1.8,2.1,2.52v3.48h-1.82V326.6c0-.75-.27-1.27-.93-1.27a1,1,0,0,0-.92.68,1.24,1.24,0,0,0-.07.46v3.38h-1.82Z" transform="translate(-6.39 -24)"/><path class="cls-4" d="M197.61,328.26a3.59,3.59,0,0,0,1.57.44c.55,0,.78-.19.78-.49s-.18-.45-.87-.67c-1.21-.41-1.68-1.07-1.66-1.77,0-1.09.93-1.92,2.38-1.92a3.93,3.93,0,0,1,1.66.34l-.33,1.26a2.88,2.88,0,0,0-1.27-.34c-.44,0-.69.18-.69.48s.22.42.94.68c1.12.38,1.59.94,1.6,1.81,0,1.09-.86,1.89-2.54,1.89a4.18,4.18,0,0,1-1.9-.41Z" transform="translate(-6.39 -24)"/><path class="cls-4" d="M207.29,322.31V324h1.31v1.34h-1.31v2.12c0,.71.17,1,.72,1a3.51,3.51,0,0,0,.54,0v1.37a3.45,3.45,0,0,1-1.19.16,1.86,1.86,0,0,1-1.36-.5,2.41,2.41,0,0,1-.51-1.74v-2.4h-.78V324h.78v-1.28Z" transform="translate(-6.39 -24)"/><path class="cls-4" d="M213,329.85l-.11-.59h0a2.09,2.09,0,0,1-1.67.72,1.8,1.8,0,0,1-1.9-1.8c0-1.52,1.37-2.25,3.44-2.24v-.08c0-.32-.17-.76-1.06-.76a3.4,3.4,0,0,0-1.62.44l-.34-1.17a4.81,4.81,0,0,1,2.28-.52,2.29,2.29,0,0,1,2.58,2.53v2a9.12,9.12,0,0,0,.08,1.43Zm-.22-2.77c-1,0-1.7.22-1.7.92a.66.66,0,0,0,.72.7,1,1,0,0,0,1-.67,1.63,1.63,0,0,0,0-.31Z" transform="translate(-6.39 -24)"/><path class="cls-4" d="M216,325.92c0-.87,0-1.43-.05-1.93h1.57l.06,1.08h.05a1.72,1.72,0,0,1,1.58-1.22,1.54,1.54,0,0,1,.39,0v1.71a3,3,0,0,0-.49,0,1.18,1.18,0,0,0-1.25.93,1.73,1.73,0,0,0,0,.41v3H216Z" transform="translate(-6.39 -24)"/><path class="cls-4" d="M226.06,324c0,.37-.05.86-.05,1.74V329a3.37,3.37,0,0,1-.89,2.64,3.63,3.63,0,0,1-2.39.72,4.59,4.59,0,0,1-2.11-.46l.36-1.38a3.55,3.55,0,0,0,1.7.45,1.4,1.4,0,0,0,1.53-1.55V329h0a1.86,1.86,0,0,1-1.58.76,2.58,2.58,0,0,1-2.48-2.86,2.81,2.81,0,0,1,2.66-3.09,1.78,1.78,0,0,1,1.61.83h0l.06-.69Zm-1.88,2.38a1.61,1.61,0,0,0,0-.33,1,1,0,0,0-1-.81c-.66,0-1.19.6-1.19,1.67,0,.88.43,1.56,1.19,1.56a1,1,0,0,0,1-.74,1.54,1.54,0,0,0,.06-.48Z" transform="translate(-6.39 -24)"/><path class="cls-4" d="M228.88,327.5c.06.76.8,1.12,1.65,1.12a5.36,5.36,0,0,0,1.62-.24l.24,1.23a5.78,5.78,0,0,1-2.12.36,2.81,2.81,0,0,1-3.13-3,2.94,2.94,0,0,1,3-3.13c1.89,0,2.61,1.48,2.61,2.93a3.76,3.76,0,0,1-.06.72Zm2.14-1.25a1.05,1.05,0,0,0-1-1.18,1.19,1.19,0,0,0-1.13,1.18Z" transform="translate(-6.39 -24)"/><path class="cls-4" d="M235.85,322.31V324h1.31v1.34h-1.31v2.12c0,.71.17,1,.72,1a3.51,3.51,0,0,0,.54,0v1.37a3.45,3.45,0,0,1-1.19.16,1.9,1.9,0,0,1-1.37-.5,2.46,2.46,0,0,1-.5-1.74v-2.4h-.78V324h.78v-1.28Z" transform="translate(-6.39 -24)"/><path class="cls-4" d="M238.2,328.26a3.63,3.63,0,0,0,1.57.44c.55,0,.78-.19.78-.49s-.18-.45-.86-.67c-1.21-.41-1.68-1.07-1.67-1.77,0-1.09.94-1.92,2.39-1.92a3.91,3.91,0,0,1,1.65.34l-.32,1.26a2.92,2.92,0,0,0-1.27-.34c-.45,0-.7.18-.7.48s.23.42.95.68c1.12.38,1.58.94,1.59,1.81,0,1.09-.86,1.89-2.54,1.89a4.14,4.14,0,0,1-1.89-.41Z" transform="translate(-6.39 -24)"/><path class="cls-5" d="M297.41,256.31a36.93,36.93,0,1,1,36.93,36.93,36.94,36.94,0,0,1-36.93-36.93Z" transform="translate(-6.39 -24)"/><path class="cls-6" d="M308.26,256.31a26.08,26.08,0,1,1,26.08,26.08,26.08,26.08,0,0,1-26.08-26.08Z" transform="translate(-6.39 -24)"/><polygon class="cls-7" points="308.94 233.69 322.59 242.08 347.38 227.47 347.38 225.41 322.59 239.44 308.94 231.42 308.94 233.69"/><polygon class="cls-7" points="322.59 244.41 308.94 235.62 308.94 237.88 322.59 247.06 347.38 231.25 347.38 229.19 322.59 244.41"/><path class="cls-7" d="M342.45,243.71l-2,.72,0,0,0,0q-12.56,4.35-25.08,8.72Q322.16,257,329,260.8l24.79-13.44Q348.12,245.52,342.45,243.71Zm-15.95,13.8-4.91-2.71a1.76,1.76,0,0,0,.14-2.22c2.11-.76,3.95-1.43,5.67-2.07-.07,1,.84,2.06,2.67,3a14.41,14.41,0,0,0,6.51,1.35c-1.63.84-3.33,1.74-5.25,2.75C330.23,256.52,327.93,256.62,326.5,257.51Zm6.13-6.63a1.29,1.29,0,0,0,.57.11,4.57,4.57,0,0,0,1-.18,18.82,18.82,0,0,1,1.86-.45,6,6,0,0,1,1.42-.05,4.44,4.44,0,0,1,1.31.29,1.19,1.19,0,0,1,.84.86c.05.34-.25.72-.91,1.11l1,.43c-.31.17-.48.24-.78.41l-1-.46a5.75,5.75,0,0,1-4,.2l1-.78a3.06,3.06,0,0,0,2.19-.19c.34-.16.52-.3.56-.43s0-.26-.22-.34a1.3,1.3,0,0,0-.67-.09,5.58,5.58,0,0,0-1.17.27,7.92,7.92,0,0,1-2.67.43,4.2,4.2,0,0,1-1.62-.38c-.55-.25-.84-.55-.86-.87s.21-.61.71-.86l-.82-.37.84-.32c.31.15.48.22.8.36a7.11,7.11,0,0,1,3.58-.18c-.34.29-.53.43-.86.73a3.12,3.12,0,0,0-1.88.11C332.36,250.49,332.24,250.71,332.63,250.88Zm11.63-5.09,3.59,1.21a1.72,1.72,0,0,0,0,1.93l-5.16,2.71c.06-1-.77-1.92-2.46-2.62a17,17,0,0,0-5.89-1l5.53-2A5.91,5.91,0,0,0,344.26,245.79Z" transform="translate(-6.39 -24)"/><path class="cls-8" d="M201,256.31A36.93,36.93,0,1,1,238,293.24,36.94,36.94,0,0,1,201,256.31Z" transform="translate(-6.39 -24)"/><path class="cls-9" d="M211.88,256.31A26.08,26.08,0,1,1,238,282.39a26.08,26.08,0,0,1-26.08-26.08Z" transform="translate(-6.39 -24)"/><path class="cls-7" d="M252.9,249.35a6.66,6.66,0,0,0-1.43-2.17,6.75,6.75,0,0,0-2.13-1.5,7.13,7.13,0,0,0-1.55-.48,7.08,7.08,0,0,0-.5-1.47,6.91,6.91,0,0,0-9.25-3.26,6.9,6.9,0,0,0-7.75,1.2,6.83,6.83,0,0,0-2,3.53,6.87,6.87,0,0,0-3.68,2,7,7,0,0,0-1.43,2.17,6.85,6.85,0,0,0-.53,2.65,6.92,6.92,0,0,0,.55,2.69,7,7,0,0,0,3.68,3.68,6.92,6.92,0,0,0,2.46.54v-1.27a5.65,5.65,0,0,1,.06-11.29,5.65,5.65,0,0,1,5.64-5.3,5.59,5.59,0,0,1,3,.86,5.65,5.65,0,0,1,8.64,4.44,5.65,5.65,0,0,1,.06,11.29v1.27a6.9,6.9,0,0,0,6.69-6.91A6.85,6.85,0,0,0,252.9,249.35Z" transform="translate(-6.39 -24)"/><polygon class="cls-7" points="226.24 234.91 226.24 233.64 226.24 232.16 223.68 232.16 223.68 233.64 223.68 234.91 223.68 238.24 222.13 238.24 224.96 243.14 227.79 238.24 226.24 238.24 226.24 234.91"/><polygon class="cls-7" points="232.93 234.91 232.93 233.64 232.93 227.95 230.37 227.95 230.37 233.64 230.37 234.91 230.37 236.63 228.82 236.63 231.65 241.53 234.48 236.63 232.93 236.63 232.93 234.91"/><polygon class="cls-7" points="239.61 234.91 239.61 233.64 239.61 232.16 237.05 232.16 237.05 233.64 237.05 234.91 237.05 238.24 235.5 238.24 238.33 243.14 241.16 238.24 239.61 238.24 239.61 234.91"/><path class="cls-7" d="M235,246.15a1.94,1.94,0,0,1-2-2v0a2,2,0,0,1,2-2,2,2,0,0,1,1.52.59l-.54.62a1.42,1.42,0,0,0-1-.43,1.14,1.14,0,0,0-1.12,1.19h0a1.15,1.15,0,0,0,1.12,1.21,1.42,1.42,0,0,0,1-.45l.53.54A1.93,1.93,0,0,1,235,246.15Z" transform="translate(-6.39 -24)"/><path class="cls-7" d="M239,246.15a2,2,0,0,1-2-2v0a2,2,0,0,1,4.08,0h0A2,2,0,0,1,239,246.15Zm1.17-2A1.17,1.17,0,0,0,239,243a1.15,1.15,0,0,0-1.15,1.19h0a1.17,1.17,0,0,0,1.17,1.21,1.15,1.15,0,0,0,1.15-1.19Z" transform="translate(-6.39 -24)"/><path class="cls-7" d="M241.84,244.77l-.3-.24a.81.81,0,0,1,.72-.39.58.58,0,0,1,.66.59c0,.32-.17.48-.51.75l-.31.24h.84v.36h-1.42v-.33l.64-.53c.23-.19.33-.3.33-.46a.24.24,0,0,0-.26-.25C242.08,244.51,242,244.6,241.84,244.77Z" transform="translate(-6.39 -24)"/><path class="cls-7" d="M230.08,250.88l-1.86-2.44v2.44h-.83v-3.83h.78l1.79,2.36v-2.36h.84v3.83Z" transform="translate(-6.39 -24)"/><path class="cls-7" d="M233.59,251a2,2,0,0,1-2-2h0a2,2,0,0,1,4.08,0h0A2,2,0,0,1,233.59,251Zm1.16-2a1.16,1.16,0,0,0-1.16-1.2,1.15,1.15,0,0,0-1.16,1.19h0a1.17,1.17,0,0,0,1.17,1.21,1.15,1.15,0,0,0,1.15-1.2Z" transform="translate(-6.39 -24)"/><path class="cls-7" d="M237,250.88l-.29-.46-.3.46H236l.51-.74-.49-.73h.44l.28.43.27-.43h.44l-.5.72.52.75Z" transform="translate(-6.39 -24)"/><path class="cls-7" d="M241,250.94a2.46,2.46,0,0,1-1.63-.62l.5-.59a1.75,1.75,0,0,0,1.14.46c.35,0,.56-.14.56-.36h0c0-.21-.14-.32-.78-.49s-1.27-.41-1.27-1.17h0a1.2,1.2,0,0,1,1.34-1.16,2.25,2.25,0,0,1,1.43.49l-.44.63a1.82,1.82,0,0,0-1-.37c-.32,0-.49.14-.49.33h0c0,.25.16.34.83.51s1.22.48,1.22,1.15h0C242.41,250.51,241.82,250.94,241,250.94Z" transform="translate(-6.39 -24)"/><path class="cls-7" d="M245,251a2,2,0,0,1-2-2h0a2,2,0,0,1,4.08,0h0A2,2,0,0,1,245,251Zm1.16-2a1.16,1.16,0,0,0-1.16-1.2,1.15,1.15,0,0,0-1.16,1.19h0a1.17,1.17,0,0,0,1.17,1.21,1.15,1.15,0,0,0,1.15-1.2Z" transform="translate(-6.39 -24)"/><path class="cls-7" d="M248.43,250.88l-.29-.46-.3.46h-.43l.51-.74-.49-.73h.44l.28.43.27-.43h.44l-.5.72.52.75Z" transform="translate(-6.39 -24)"/><path class="cls-7" d="M229.79,254.53h-.64v1.15h-.84v-3.84h1.57a1.32,1.32,0,0,1,1.47,1.33h0A1.38,1.38,0,0,1,229.79,254.53Zm.7-1.34c0-.38-.26-.58-.69-.58h-.65v1.17h.67a.6.6,0,0,0,.67-.58Z" transform="translate(-6.39 -24)"/><path class="cls-7" d="M235,255.68v-2.5l-1.08,1.64h0l-1.07-1.63v2.49H232v-3.84h.91l1,1.63,1-1.63h.91v3.84Z" transform="translate(-6.39 -24)"/><path class="cls-7" d="M242.46,255.75a1.94,1.94,0,0,1-2-2h0a2,2,0,0,1,2-2,2,2,0,0,1,1.51.59l-.53.62a1.42,1.42,0,0,0-1-.43,1.13,1.13,0,0,0-1.11,1.19h0a1.14,1.14,0,0,0,1.11,1.21,1.4,1.4,0,0,0,1-.45l.54.54A2,2,0,0,1,242.46,255.75Z" transform="translate(-6.39 -24)"/><path class="cls-7" d="M247.11,255.68v-1.54h-1.56v1.54h-.84v-3.84h.84v1.52h1.56v-1.52H248v3.84Z" transform="translate(-6.39 -24)"/><path class="cls-7" d="M249.91,253.75v1.18h.26v.34h-.26v.41h-.4v-.41h-.94l-.07-.3,1.05-1.22Zm-.4.58-.51.6h.51Z" transform="translate(-6.39 -24)"/><path class="cls-10" d="M468.61,190.63a5.37,5.37,0,0,1-2.08.35c-2.79,0-4.23-1.74-4.23-4a4.12,4.12,0,0,1,4.41-4.29,4.7,4.7,0,0,1,2,.36l-.37,1.45a3.87,3.87,0,0,0-1.53-.3,2.44,2.44,0,0,0-2.58,2.68,2.41,2.41,0,0,0,2.59,2.63,4.66,4.66,0,0,0,1.52-.26Z" transform="translate(-6.39 -24)"/><path class="cls-10" d="M475.32,187.86a3,3,0,0,1-3.1,3.13,2.88,2.88,0,0,1-3-3,2.93,2.93,0,0,1,3.13-3.1A2.85,2.85,0,0,1,475.32,187.86Zm-4.25.06c0,1,.42,1.76,1.2,1.76s1.16-.71,1.16-1.76c0-.88-.33-1.77-1.16-1.77S471.07,187.05,471.07,187.92Z" transform="translate(-6.39 -24)"/><path class="cls-10" d="M476.45,186.86c0-.73,0-1.35-.05-1.87H478l.09.8h0a2.15,2.15,0,0,1,1.81-.93c1.2,0,2.1.79,2.1,2.52v3.48h-1.82v-3.25c0-.76-.26-1.28-.92-1.28a1,1,0,0,0-.93.69,1.15,1.15,0,0,0-.07.45v3.39h-1.82Z" transform="translate(-6.39 -24)"/><path class="cls-10" d="M485.45,183.31V185h1.3v1.34h-1.3v2.13c0,.7.16,1,.72,1a3.56,3.56,0,0,0,.54-.05v1.38a3.45,3.45,0,0,1-1.19.16,1.9,1.9,0,0,1-1.37-.51,2.46,2.46,0,0,1-.5-1.74v-2.4h-.78V185h.78v-1.27Z" transform="translate(-6.39 -24)"/><path class="cls-10" d="M487.81,186.92c0-.86,0-1.43-.05-1.93h1.57l.06,1.08h.05a1.73,1.73,0,0,1,1.59-1.21,2.24,2.24,0,0,1,.38,0v1.72a2.17,2.17,0,0,0-.49,0,1.18,1.18,0,0,0-1.25.92,2.59,2.59,0,0,0,0,.41v3h-1.82Z" transform="translate(-6.39 -24)"/><path class="cls-10" d="M494.25,183.36a.91.91,0,0,1-1,.91.92.92,0,1,1,1-.91Zm-1.88,7.5V185h1.82v5.87Z" transform="translate(-6.39 -24)"/><path class="cls-10" d="M495.61,190.86c0-.39.05-1.1.05-1.76v-6.76h1.82v3.35h0a2,2,0,0,1,1.77-.83c1.4,0,2.44,1.16,2.42,3,0,2.11-1.34,3.17-2.68,3.17a1.94,1.94,0,0,1-1.77-1h0l-.07.82Zm1.87-2.5a1,1,0,0,0,0,.32,1.1,1.1,0,0,0,1.07.87c.78,0,1.25-.6,1.25-1.66,0-.91-.4-1.63-1.25-1.63a1.12,1.12,0,0,0-1.07.9,1.27,1.27,0,0,0,0,.34Z" transform="translate(-6.39 -24)"/><path class="cls-10" d="M508.36,189c0,.77,0,1.39.05,1.89h-1.58l-.08-.83h0a2.1,2.1,0,0,1-1.84,1c-1.18,0-2.06-.75-2.06-2.56V185h1.84v3.15c0,.86.27,1.37.91,1.37a1,1,0,0,0,.91-.63,1,1,0,0,0,.06-.4V185h1.83Z" transform="translate(-6.39 -24)"/><path class="cls-10" d="M511.87,183.31V185h1.31v1.34h-1.31v2.13c0,.7.17,1,.72,1a3.31,3.31,0,0,0,.54-.05v1.38A3.45,3.45,0,0,1,512,191a1.9,1.9,0,0,1-1.36-.51,2.41,2.41,0,0,1-.51-1.74v-2.4h-.78V185h.78v-1.27Z" transform="translate(-6.39 -24)"/><path class="cls-10" d="M516.12,183.36a.92.92,0,0,1-1,.91.92.92,0,1,1,0-1.83A.91.91,0,0,1,516.12,183.36Zm-1.88,7.5V185h1.82v5.87Z" transform="translate(-6.39 -24)"/><path class="cls-10" d="M517.52,186.86c0-.73,0-1.35,0-1.87h1.58l.08.8h0a2.15,2.15,0,0,1,1.81-.93c1.2,0,2.1.79,2.1,2.52v3.48h-1.82v-3.25c0-.76-.27-1.28-.93-1.28a1,1,0,0,0-.92.69,1.15,1.15,0,0,0-.07.45v3.39h-1.83Z" transform="translate(-6.39 -24)"/><path class="cls-10" d="M530.16,185c0,.37,0,.86,0,1.74V190a3.37,3.37,0,0,1-.89,2.64,3.63,3.63,0,0,1-2.39.72,4.59,4.59,0,0,1-2.11-.45l.36-1.38a3.72,3.72,0,0,0,1.71.44,1.4,1.4,0,0,0,1.52-1.55V190h0a1.9,1.9,0,0,1-1.59.77,2.58,2.58,0,0,1-2.48-2.87,2.8,2.8,0,0,1,2.66-3.08,1.77,1.77,0,0,1,1.61.83h0l.06-.7Zm-1.87,2.39a1.76,1.76,0,0,0,0-.34,1,1,0,0,0-1-.8c-.66,0-1.2.6-1.2,1.67,0,.87.43,1.55,1.2,1.55a1,1,0,0,0,1-.74,1.8,1.8,0,0,0,.06-.48Z" transform="translate(-6.39 -24)"/><path class="cls-10" d="M536,183.31V185h1.31v1.34H536v2.13c0,.7.17,1,.72,1a3.31,3.31,0,0,0,.54-.05v1.38a3.45,3.45,0,0,1-1.19.16,1.9,1.9,0,0,1-1.37-.51,2.46,2.46,0,0,1-.5-1.74v-2.4h-.78V185h.78v-1.27Z" transform="translate(-6.39 -24)"/><path class="cls-10" d="M544.14,187.86A3,3,0,0,1,541,191a2.88,2.88,0,0,1-3-3,2.93,2.93,0,0,1,3.13-3.1A2.85,2.85,0,0,1,544.14,187.86Zm-4.25.06c0,1,.42,1.76,1.2,1.76s1.16-.71,1.16-1.76c0-.88-.33-1.77-1.16-1.77S539.89,187.05,539.89,187.92Z" transform="translate(-6.39 -24)"/><path class="cls-10" d="M549.73,183.31V185H551v1.34h-1.31v2.13c0,.7.17,1,.72,1a3.31,3.31,0,0,0,.54-.05v1.38a3.45,3.45,0,0,1-1.19.16,1.9,1.9,0,0,1-1.36-.51,2.41,2.41,0,0,1-.51-1.74v-2.4h-.78V185h.78v-1.27Z" transform="translate(-6.39 -24)"/><path class="cls-10" d="M552.1,182.34h1.82v3.35h0a2.09,2.09,0,0,1,.72-.6,2,2,0,0,1,1-.23c1.16,0,2,.8,2,2.57v3.43h-1.82v-3.23c0-.77-.27-1.3-1-1.3a1,1,0,0,0-.91.64,1.13,1.13,0,0,0-.06.41v3.48H552.1Z" transform="translate(-6.39 -24)"/><path class="cls-10" d="M560.53,188.5c.06.76.8,1.12,1.66,1.12a5.11,5.11,0,0,0,1.62-.24l.23,1.24a5.74,5.74,0,0,1-2.12.36,2.82,2.82,0,0,1-3.13-3,2.94,2.94,0,0,1,3-3.13c1.9,0,2.62,1.47,2.62,2.93a4.66,4.66,0,0,1-.06.71Zm2.15-1.24a1.06,1.06,0,0,0-1-1.19,1.2,1.2,0,0,0-1.13,1.19Z" transform="translate(-6.39 -24)"/><path class="cls-10" d="M460.89,202.86l-.1-.59h0a2.1,2.1,0,0,1-1.68.72,1.8,1.8,0,0,1-1.89-1.8c0-1.52,1.36-2.26,3.44-2.24v-.09c0-.31-.17-.75-1.07-.75a3.32,3.32,0,0,0-1.62.44l-.33-1.17a4.76,4.76,0,0,1,2.27-.52,2.28,2.28,0,0,1,2.58,2.53v2a9.09,9.09,0,0,0,.09,1.43Zm-.21-2.78c-1,0-1.71.22-1.71.93a.65.65,0,0,0,.72.69,1,1,0,0,0,.95-.67,1,1,0,0,0,0-.31Z" transform="translate(-6.39 -24)"/><path class="cls-10" d="M468.3,202.71a4.34,4.34,0,0,1-1.63.27,2.85,2.85,0,0,1-3.11-3,3.06,3.06,0,0,1,3.36-3.12,4.05,4.05,0,0,1,1.39.23l-.29,1.35a2.58,2.58,0,0,0-1-.18,1.65,1.65,0,0,0,0,3.29,2.74,2.74,0,0,0,1-.18Z" transform="translate(-6.39 -24)"/><path class="cls-10" d="M469.31,194.34h1.82v3.35h0a2.18,2.18,0,0,1,.72-.6,2,2,0,0,1,.95-.23c1.17,0,2.05.8,2.05,2.57v3.43h-1.82v-3.23c0-.77-.26-1.3-.95-1.3a1,1,0,0,0-.91.64,1.13,1.13,0,0,0-.06.41v3.48h-1.82Z" transform="translate(-6.39 -24)"/><path class="cls-10" d="M478.22,195.36a.91.91,0,0,1-1,.91.92.92,0,1,1,0-1.83A.91.91,0,0,1,478.22,195.36Zm-1.88,7.5V197h1.82v5.87Z" transform="translate(-6.39 -24)"/><path class="cls-10" d="M481,200.5c.06.76.8,1.12,1.66,1.12a5.11,5.11,0,0,0,1.62-.24l.23,1.24a5.74,5.74,0,0,1-2.12.36,2.82,2.82,0,0,1-3.13-3,2.94,2.94,0,0,1,3-3.13c1.9,0,2.62,1.47,2.62,2.93a4.66,4.66,0,0,1-.06.71Zm2.15-1.24a1.06,1.06,0,0,0-1-1.19,1.2,1.2,0,0,0-1.13,1.19Z" transform="translate(-6.39 -24)"/><path class="cls-10" d="M487.25,197l.79,2.72a13.88,13.88,0,0,1,.33,1.43h0c.1-.48.19-.92.32-1.43l.76-2.72h1.92l-2.18,5.87H487.4L485.27,197Z" transform="translate(-6.39 -24)"/><path class="cls-10" d="M493.48,200.5c.06.76.8,1.12,1.65,1.12a5.06,5.06,0,0,0,1.62-.24l.24,1.24a5.78,5.78,0,0,1-2.12.36,2.82,2.82,0,0,1-3.13-3,2.93,2.93,0,0,1,3-3.13c1.89,0,2.61,1.47,2.61,2.93a3.64,3.64,0,0,1-.06.71Zm2.14-1.24a1.06,1.06,0,0,0-1-1.19,1.2,1.2,0,0,0-1.13,1.19Z" transform="translate(-6.39 -24)"/><path class="cls-10" d="M498.41,198.86c0-.73,0-1.35-.05-1.87h1.54l.08.79h0a2,2,0,0,1,1.77-.92,1.66,1.66,0,0,1,1.61,1h0a2.5,2.5,0,0,1,.76-.7,2.11,2.11,0,0,1,1.11-.29c1.13,0,2,.79,2,2.54v3.46H505.5v-3.19c0-.86-.28-1.35-.87-1.35a.89.89,0,0,0-.84.64,1.78,1.78,0,0,0-.07.47v3.43H502v-3.29c0-.74-.27-1.25-.84-1.25a.94.94,0,0,0-.86.66,1.43,1.43,0,0,0-.07.46v3.42h-1.77Z" transform="translate(-6.39 -24)"/><path class="cls-10" d="M510.13,200.5c.06.76.81,1.12,1.66,1.12a5.11,5.11,0,0,0,1.62-.24l.24,1.24a5.83,5.83,0,0,1-2.13.36,2.82,2.82,0,0,1-3.13-3,2.94,2.94,0,0,1,3-3.13c1.89,0,2.61,1.47,2.61,2.93a4.66,4.66,0,0,1-.06.71Zm2.15-1.24a1.06,1.06,0,0,0-1-1.19,1.2,1.2,0,0,0-1.13,1.19Z" transform="translate(-6.39 -24)"/><path class="cls-10" d="M515.06,198.86c0-.73,0-1.35,0-1.87h1.58l.08.8h0a2.15,2.15,0,0,1,1.81-.93c1.2,0,2.1.79,2.1,2.52v3.48h-1.82v-3.25c0-.76-.27-1.28-.93-1.28a1,1,0,0,0-.92.69,1.15,1.15,0,0,0-.07.45v3.39h-1.83Z" transform="translate(-6.39 -24)"/><path class="cls-10" d="M524.06,195.31V197h1.31v1.34h-1.31v2.13c0,.7.17,1,.72,1a3.31,3.31,0,0,0,.54-.05v1.38a3.43,3.43,0,0,1-1.18.16,1.9,1.9,0,0,1-1.37-.51,2.41,2.41,0,0,1-.5-1.74v-2.4h-.78V197h.78v-1.27Z" transform="translate(-6.39 -24)"/><path class="cls-10" d="M534.65,199.86a3,3,0,0,1-3.1,3.13,2.88,2.88,0,0,1-3-3,2.92,2.92,0,0,1,3.13-3.1A2.85,2.85,0,0,1,534.65,199.86Zm-4.25.06c0,1,.42,1.76,1.2,1.76s1.16-.71,1.16-1.76c0-.88-.33-1.77-1.16-1.77S530.4,199.05,530.4,199.92Z" transform="translate(-6.39 -24)"/><path class="cls-10" d="M536,202.86v-4.53h-.77V197H536v-.23a2.68,2.68,0,0,1,.74-2,2.36,2.36,0,0,1,1.62-.59,3.54,3.54,0,0,1,1,.12l-.07,1.4a1.89,1.89,0,0,0-.58-.08c-.6,0-.86.47-.86,1v.3H539v1.34h-1.16v4.53Z" transform="translate(-6.39 -24)"/><path class="cls-10" d="M542.41,201a4.69,4.69,0,0,0,2,.51c.84,0,1.28-.35,1.28-.88s-.38-.79-1.35-1.14c-1.35-.47-2.22-1.21-2.22-2.39,0-1.37,1.15-2.43,3.06-2.43a4.88,4.88,0,0,1,2.06.41l-.41,1.47a3.92,3.92,0,0,0-1.69-.38c-.79,0-1.17.36-1.17.78s.45.74,1.49,1.14c1.43.53,2.1,1.27,2.1,2.41,0,1.35-1,2.51-3.26,2.51a5.19,5.19,0,0,1-2.29-.5Z" transform="translate(-6.39 -24)"/><path class="cls-10" d="M548.83,194.88a16,16,0,0,1,2.47-.17,5.18,5.18,0,0,1,3.31.87,3.57,3.57,0,0,1,1.37,3,4.11,4.11,0,0,1-1.34,3.28,5.85,5.85,0,0,1-3.73,1,15.94,15.94,0,0,1-2.08-.12Zm1.84,6.6a3.9,3.9,0,0,0,.63,0,2.51,2.51,0,0,0,2.74-2.83,2.32,2.32,0,0,0-2.55-2.56,3.52,3.52,0,0,0-.82.07Z" transform="translate(-6.39 -24)"/><path class="cls-10" d="M563.94,202.48a8.87,8.87,0,0,1-2.7.46,4.5,4.5,0,0,1-3.29-1.09,3.94,3.94,0,0,1-1.14-2.94c0-2.69,2-4.22,4.62-4.22a5.6,5.6,0,0,1,2.24.39l-.38,1.47a4.54,4.54,0,0,0-1.88-.35,2.63,2.63,0,0,0-.14,5.26,2.27,2.27,0,0,0,.9-.12v-1.69h-1.25v-1.42h3Z" transform="translate(-6.39 -24)"/><path class="cls-10" d="M565.29,201.26a3.67,3.67,0,0,0,1.58.44c.55,0,.78-.19.78-.49s-.18-.44-.87-.67c-1.21-.41-1.68-1.07-1.66-1.76,0-1.09.93-1.92,2.38-1.92a3.78,3.78,0,0,1,1.66.34l-.33,1.25a2.89,2.89,0,0,0-1.27-.33c-.44,0-.69.18-.69.48s.22.42.94.67c1.12.38,1.59.95,1.6,1.81,0,1.09-.87,1.9-2.54,1.9a4.18,4.18,0,0,1-1.9-.41Z" transform="translate(-6.39 -24)"/><path class="cls-11" d="M126.65,188.31a36.93,36.93,0,1,1,36.92,36.93,36.93,36.93,0,0,1-36.92-36.93Z" transform="translate(-6.39 -24)"/><path class="cls-12" d="M137.49,188.31a26.08,26.08,0,1,1,26.08,26.08,26.08,26.08,0,0,1-26.08-26.08Z" transform="translate(-6.39 -24)"/><path class="cls-7" d="M175.67,201.84H151.49a1.59,1.59,0,0,1-1.59-1.59V176.07a1.59,1.59,0,0,1,1.59-1.59h24.18a1.59,1.59,0,0,1,1.59,1.59v24.18A1.59,1.59,0,0,1,175.67,201.84Zm-24.18-26.22a.45.45,0,0,0-.45.45v24.18a.45.45,0,0,0,.45.45h24.18a.45.45,0,0,0,.45-.45V176.07a.45.45,0,0,0-.45-.45Z" transform="translate(-6.39 -24)"/><path class="cls-7" d="M176.69,179H150.47a.57.57,0,0,1-.57-.57.58.58,0,0,1,.57-.57h26.22a.57.57,0,0,1,.57.57A.56.56,0,0,1,176.69,179Z" transform="translate(-6.39 -24)"/><circle class="cls-7" cx="146.93" cy="152.76" r="0.57"/><circle class="cls-7" cx="149.21" cy="152.76" r="0.57"/><circle class="cls-7" cx="151.49" cy="152.76" r="0.57"/><path class="cls-7" d="M156.46,187a.54.54,0,0,1-.41-.17l-1.14-1.14a.57.57,0,0,1,0-.8.58.58,0,0,1,.81,0l.74.73,1.87-1.87a.58.58,0,0,1,.81,0,.57.57,0,0,1,0,.8l-2.28,2.28A.54.54,0,0,1,156.46,187Z" transform="translate(-6.39 -24)"/><path class="cls-7" d="M157,189.3A4.28,4.28,0,1,1,161.3,185,4.28,4.28,0,0,1,157,189.3Zm0-7.41a3.14,3.14,0,1,0,3.13,3.14A3.15,3.15,0,0,0,157,181.89Z" transform="translate(-6.39 -24)"/><path class="cls-7" d="M156.46,196.71a.54.54,0,0,1-.41-.17l-1.14-1.14a.57.57,0,0,1,0-.8.58.58,0,0,1,.81,0l.74.73,1.87-1.87a.58.58,0,0,1,.81,0,.57.57,0,0,1,0,.8l-2.28,2.28A.54.54,0,0,1,156.46,196.71Z" transform="translate(-6.39 -24)"/><path class="cls-7" d="M157,199a4.28,4.28,0,1,1,4.27-4.27A4.28,4.28,0,0,1,157,199Zm0-7.41a3.14,3.14,0,1,0,3.13,3.14A3.15,3.15,0,0,0,157,191.58Z" transform="translate(-6.39 -24)"/><path class="cls-7" d="M168.71,183h-5.13a.57.57,0,0,1-.57-.57.58.58,0,0,1,.57-.57h5.13a.57.57,0,0,1,.57.57A.56.56,0,0,1,168.71,183Z" transform="translate(-6.39 -24)"/><path class="cls-7" d="M173.84,185.31H163.58a.57.57,0,0,1-.57-.57.58.58,0,0,1,.57-.57h10.26a.57.57,0,0,1,.57.57A.56.56,0,0,1,173.84,185.31Z" transform="translate(-6.39 -24)"/><path class="cls-7" d="M173.84,187.59H163.58A.57.57,0,0,1,163,187a.58.58,0,0,1,.57-.57h10.26a.57.57,0,0,1,.57.57A.56.56,0,0,1,173.84,187.59Z" transform="translate(-6.39 -24)"/><path class="cls-7" d="M168.71,192.72h-5.13a.57.57,0,0,1-.57-.57.58.58,0,0,1,.57-.57h5.13a.57.57,0,0,1,.57.57A.56.56,0,0,1,168.71,192.72Z" transform="translate(-6.39 -24)"/><path class="cls-7" d="M173.84,195H163.58a.57.57,0,0,1-.57-.57.58.58,0,0,1,.57-.57h10.26a.57.57,0,0,1,.57.57A.56.56,0,0,1,173.84,195Z" transform="translate(-6.39 -24)"/><path class="cls-7" d="M173.84,197.28H163.58a.57.57,0,0,1-.57-.57.58.58,0,0,1,.57-.57h10.26a.57.57,0,0,1,.57.57A.56.56,0,0,1,173.84,197.28Z" transform="translate(-6.39 -24)"/><path class="cls-13" d="M361,297.77v8.08h-1.83v-8.08Z" transform="translate(-6.39 -24)"/><path class="cls-13" d="M362.58,301.86c0-.74,0-1.36,0-1.87h1.58l.08.8h0a2.15,2.15,0,0,1,1.81-.94c1.2,0,2.1.8,2.1,2.52v3.48h-1.82V302.6c0-.75-.27-1.27-.93-1.27a1,1,0,0,0-.92.68,1.24,1.24,0,0,0-.07.46v3.38h-1.83Z" transform="translate(-6.39 -24)"/><path class="cls-13" d="M374,305.71a4.59,4.59,0,0,1-1.63.26,2.84,2.84,0,0,1-3.11-3,3.07,3.07,0,0,1,3.36-3.12,4.31,4.31,0,0,1,1.39.23l-.29,1.36a2.41,2.41,0,0,0-1-.18,1.64,1.64,0,0,0,0,3.28,2.74,2.74,0,0,0,1-.18Z" transform="translate(-6.39 -24)"/><path class="cls-13" d="M375,301.92c0-.87,0-1.43,0-1.93h1.57l.06,1.08h.05a1.72,1.72,0,0,1,1.58-1.22,1.58,1.58,0,0,1,.39,0v1.71a3.11,3.11,0,0,0-.5,0,1.17,1.17,0,0,0-1.24.93,1.73,1.73,0,0,0,0,.41v3H375Z" transform="translate(-6.39 -24)"/><path class="cls-13" d="M380.89,303.5c.06.76.81,1.12,1.66,1.12a5.36,5.36,0,0,0,1.62-.24l.24,1.23a5.78,5.78,0,0,1-2.12.36,2.82,2.82,0,0,1-3.14-3,3,3,0,0,1,3-3.13c1.89,0,2.61,1.48,2.61,2.93a3.76,3.76,0,0,1-.06.72Zm2.15-1.25a1.05,1.05,0,0,0-1-1.18,1.19,1.19,0,0,0-1.13,1.18Z" transform="translate(-6.39 -24)"/><path class="cls-13" d="M389.16,305.85l-.11-.59h0a2.12,2.12,0,0,1-1.68.72,1.8,1.8,0,0,1-1.9-1.8c0-1.52,1.37-2.25,3.44-2.24v-.08c0-.32-.16-.76-1.06-.76a3.4,3.4,0,0,0-1.62.44l-.34-1.17a4.81,4.81,0,0,1,2.28-.52,2.28,2.28,0,0,1,2.58,2.53v2a9.12,9.12,0,0,0,.08,1.43Zm-.22-2.77c-.95,0-1.7.22-1.7.92a.66.66,0,0,0,.72.7,1,1,0,0,0,1-.67,1.63,1.63,0,0,0,0-.31Z" transform="translate(-6.39 -24)"/><path class="cls-13" d="M392.15,304.26a3.63,3.63,0,0,0,1.57.44c.55,0,.78-.19.78-.49s-.18-.45-.86-.67c-1.21-.41-1.68-1.07-1.67-1.77,0-1.09.94-1.92,2.39-1.92a3.91,3.91,0,0,1,1.65.34l-.32,1.26a3,3,0,0,0-1.27-.34c-.45,0-.7.18-.7.48s.23.42.95.68c1.11.38,1.58.94,1.59,1.81,0,1.09-.86,1.89-2.54,1.89a4.11,4.11,0,0,1-1.89-.41Z" transform="translate(-6.39 -24)"/><path class="cls-13" d="M399.25,298.36a.91.91,0,0,1-1,.91.92.92,0,1,1,0-1.84A.91.91,0,0,1,399.25,298.36Zm-1.88,7.49V300h1.82v5.86Z" transform="translate(-6.39 -24)"/><path class="cls-13" d="M400.66,301.86c0-.74,0-1.36-.05-1.87h1.58l.09.8h0a2.15,2.15,0,0,1,1.81-.94c1.2,0,2.1.8,2.1,2.52v3.48H404.4V302.6c0-.75-.26-1.27-.92-1.27a1,1,0,0,0-.93.68,1.24,1.24,0,0,0-.07.46v3.38h-1.82Z" transform="translate(-6.39 -24)"/><path class="cls-13" d="M413.29,300c0,.37-.05.86-.05,1.74V305a3.37,3.37,0,0,1-.88,2.64,3.65,3.65,0,0,1-2.39.72,4.57,4.57,0,0,1-2.11-.46l.36-1.38a3.55,3.55,0,0,0,1.7.45,1.4,1.4,0,0,0,1.53-1.55V305h0a1.87,1.87,0,0,1-1.58.76,2.58,2.58,0,0,1-2.48-2.86,2.81,2.81,0,0,1,2.66-3.09,1.75,1.75,0,0,1,1.6.83h0l.06-.69Zm-1.87,2.38a1.61,1.61,0,0,0,0-.33,1,1,0,0,0-1-.81c-.66,0-1.2.6-1.2,1.67,0,.88.43,1.56,1.2,1.56a1,1,0,0,0,1-.74,1.54,1.54,0,0,0,.06-.48Z" transform="translate(-6.39 -24)"/><path class="cls-13" d="M420.47,305.85l-.11-.59h0a2.12,2.12,0,0,1-1.68.72,1.8,1.8,0,0,1-1.9-1.8c0-1.52,1.37-2.25,3.44-2.24v-.08c0-.32-.16-.76-1.06-.76a3.4,3.4,0,0,0-1.62.44l-.34-1.17a4.81,4.81,0,0,1,2.28-.52,2.29,2.29,0,0,1,2.58,2.53v2a9.12,9.12,0,0,0,.08,1.43Zm-.22-2.77c-1,0-1.7.22-1.7.92a.66.66,0,0,0,.72.7,1,1,0,0,0,1-.67,1.63,1.63,0,0,0,0-.31Z" transform="translate(-6.39 -24)"/><path class="cls-13" d="M427.87,305.71a4.51,4.51,0,0,1-1.63.26,2.85,2.85,0,0,1-3.11-3,3.07,3.07,0,0,1,3.36-3.12,4.31,4.31,0,0,1,1.39.23l-.28,1.36a2.44,2.44,0,0,0-1-.18,1.64,1.64,0,0,0,0,3.28,2.83,2.83,0,0,0,1.05-.18Z" transform="translate(-6.39 -24)"/><path class="cls-13" d="M433.15,305.71a4.51,4.51,0,0,1-1.63.26,2.85,2.85,0,0,1-3.11-3,3.07,3.07,0,0,1,3.36-3.12,4.31,4.31,0,0,1,1.39.23l-.28,1.36a2.44,2.44,0,0,0-1-.18,1.64,1.64,0,0,0,0,3.28,2.83,2.83,0,0,0,1.05-.18Z" transform="translate(-6.39 -24)"/><path class="cls-13" d="M435.43,303.5c.06.76.81,1.12,1.66,1.12a5.36,5.36,0,0,0,1.62-.24l.24,1.23a5.78,5.78,0,0,1-2.12.36,2.81,2.81,0,0,1-3.13-3,2.94,2.94,0,0,1,3-3.13c1.89,0,2.61,1.48,2.61,2.93a3.76,3.76,0,0,1-.06.72Zm2.15-1.25a1.05,1.05,0,0,0-1-1.18,1.19,1.19,0,0,0-1.13,1.18Z" transform="translate(-6.39 -24)"/><path class="cls-13" d="M440.36,304.26a3.59,3.59,0,0,0,1.57.44c.55,0,.78-.19.78-.49s-.18-.45-.87-.67c-1.21-.41-1.68-1.07-1.66-1.77,0-1.09.93-1.92,2.38-1.92a3.93,3.93,0,0,1,1.66.34l-.33,1.26a2.88,2.88,0,0,0-1.27-.34c-.44,0-.69.18-.69.48s.22.42.94.68c1.12.38,1.59.94,1.6,1.81,0,1.09-.86,1.89-2.54,1.89a4.18,4.18,0,0,1-1.9-.41Z" transform="translate(-6.39 -24)"/><path class="cls-13" d="M445.56,304.26a3.63,3.63,0,0,0,1.57.44c.56,0,.78-.19.78-.49s-.18-.45-.86-.67c-1.21-.41-1.68-1.07-1.67-1.77,0-1.09.94-1.92,2.39-1.92a3.91,3.91,0,0,1,1.65.34l-.32,1.26a2.92,2.92,0,0,0-1.27-.34c-.44,0-.7.18-.7.48s.23.42.95.68c1.12.38,1.58.94,1.6,1.81,0,1.09-.87,1.89-2.55,1.89a4.14,4.14,0,0,1-1.89-.41Z" transform="translate(-6.39 -24)"/><path class="cls-13" d="M455.25,298.31V300h1.3v1.34h-1.3v2.12c0,.71.16,1,.72,1a3.48,3.48,0,0,0,.53,0l0,1.37a3.45,3.45,0,0,1-1.19.16,1.9,1.9,0,0,1-1.37-.5,2.46,2.46,0,0,1-.5-1.74v-2.4h-.78V300h.78v-1.28Z" transform="translate(-6.39 -24)"/><path class="cls-13" d="M463.34,302.85a2.94,2.94,0,0,1-3.09,3.13,2.87,2.87,0,0,1-3-3,2.94,2.94,0,0,1,3.14-3.11A2.85,2.85,0,0,1,463.34,302.85Zm-4.24.06c0,1,.42,1.77,1.2,1.77s1.16-.71,1.16-1.77c0-.87-.34-1.76-1.16-1.76S459.1,302.05,459.1,302.91Z" transform="translate(-6.39 -24)"/><path class="cls-13" d="M340.18,315.5c.06.76.8,1.12,1.65,1.12a5.31,5.31,0,0,0,1.62-.24l.24,1.23a5.78,5.78,0,0,1-2.12.36,2.81,2.81,0,0,1-3.13-3,2.94,2.94,0,0,1,3-3.13c1.9,0,2.62,1.48,2.62,2.93a4.83,4.83,0,0,1-.06.72Zm2.15-1.25a1.06,1.06,0,0,0-1-1.18,1.18,1.18,0,0,0-1.12,1.18Z" transform="translate(-6.39 -24)"/><path class="cls-13" d="M346.36,312l.57,1c.17.3.33.6.49.87h0q.22-.46.45-.9l.52-.94h2l-1.93,2.79,2,3.07h-2.06l-.59-1.05c-.17-.29-.31-.59-.45-.89h0c-.14.31-.3.6-.44.89l-.55,1.05h-2l2-3L344.32,312Z" transform="translate(-6.39 -24)"/><path class="cls-13" d="M353.39,310.31V312h1.31v1.34h-1.31v2.12c0,.71.17,1,.72,1a3.51,3.51,0,0,0,.54,0v1.37a3.45,3.45,0,0,1-1.19.16,1.88,1.88,0,0,1-1.36-.5,2.41,2.41,0,0,1-.51-1.74v-2.4h-.78V312h.78v-1.28Z" transform="translate(-6.39 -24)"/><path class="cls-13" d="M357.1,315.5c.06.76.8,1.12,1.65,1.12a5.31,5.31,0,0,0,1.62-.24l.24,1.23a5.78,5.78,0,0,1-2.12.36,2.81,2.81,0,0,1-3.13-3,2.94,2.94,0,0,1,3-3.13c1.9,0,2.62,1.48,2.62,2.93a4.83,4.83,0,0,1-.06.72Zm2.15-1.25a1.06,1.06,0,0,0-1-1.18,1.18,1.18,0,0,0-1.12,1.18Z" transform="translate(-6.39 -24)"/><path class="cls-13" d="M362,313.92c0-.87,0-1.43,0-1.93h1.57l.06,1.08h.05a1.72,1.72,0,0,1,1.59-1.22,1.5,1.5,0,0,1,.38,0v1.71a3,3,0,0,0-.49,0,1.18,1.18,0,0,0-1.25.93,2.48,2.48,0,0,0,0,.41v3H362Z" transform="translate(-6.39 -24)"/><path class="cls-13" d="M366.59,313.86c0-.74,0-1.36,0-1.87h1.59l.08.8h0a2.15,2.15,0,0,1,1.81-.94c1.2,0,2.1.8,2.1,2.52v3.48h-1.83V314.6c0-.75-.26-1.27-.92-1.27a1,1,0,0,0-.92.68,1.22,1.22,0,0,0-.08.46v3.38h-1.82Z" transform="translate(-6.39 -24)"/><path class="cls-13" d="M377,317.85l-.11-.59h0a2.1,2.1,0,0,1-1.68.72,1.8,1.8,0,0,1-1.89-1.8c0-1.52,1.37-2.25,3.44-2.24v-.08c0-.32-.17-.76-1.07-.76a3.36,3.36,0,0,0-1.61.44l-.34-1.17a4.81,4.81,0,0,1,2.28-.52,2.29,2.29,0,0,1,2.58,2.53v2a9.12,9.12,0,0,0,.08,1.43Zm-.22-2.77c-1,0-1.7.22-1.7.92a.66.66,0,0,0,.72.7,1,1,0,0,0,.95-.67,1.63,1.63,0,0,0,0-.31Z" transform="translate(-6.39 -24)"/><path class="cls-13" d="M380,309.34h1.82v8.51H380Z" transform="translate(-6.39 -24)"/><path class="cls-13" d="M385.89,317.85v-4.52h-.77V312h.77v-.23a2.67,2.67,0,0,1,.74-2,2.39,2.39,0,0,1,1.62-.59,3.54,3.54,0,0,1,1,.12l-.07,1.41a1.93,1.93,0,0,0-.59-.09c-.6,0-.85.47-.85,1.05v.3h1.17v1.34h-1.16v4.52Z" transform="translate(-6.39 -24)"/><path class="cls-13" d="M395.3,316c0,.77,0,1.39.05,1.88h-1.58l-.09-.83h0a2.1,2.1,0,0,1-1.84,1c-1.18,0-2.06-.74-2.06-2.55V312h1.84v3.15c0,.85.27,1.37.91,1.37a1,1,0,0,0,.91-.64,1,1,0,0,0,.06-.39V312h1.83Z" transform="translate(-6.39 -24)"/><path class="cls-13" d="M396.77,313.86c0-.74,0-1.36,0-1.87h1.59l.08.8h0a2.15,2.15,0,0,1,1.81-.94c1.2,0,2.1.8,2.1,2.52v3.48h-1.83V314.6c0-.75-.26-1.27-.92-1.27a1,1,0,0,0-.92.68,1.22,1.22,0,0,0-.08.46v3.38h-1.82Z" transform="translate(-6.39 -24)"/><path class="cls-13" d="M409.49,309.34v6.76c0,.66,0,1.36.05,1.75h-1.62l-.09-.86h0a2,2,0,0,1-1.84,1c-1.39,0-2.5-1.18-2.5-3,0-2,1.22-3.12,2.62-3.12a1.81,1.81,0,0,1,1.55.66h0v-3.17Zm-1.82,5.13c0-.1,0-.23,0-.33a1.09,1.09,0,0,0-1.07-.89c-.82,0-1.26.74-1.26,1.66s.5,1.62,1.25,1.62a1.07,1.07,0,0,0,1.06-.87,1.93,1.93,0,0,0,.05-.42Z" transform="translate(-6.39 -24)"/><path class="cls-13" d="M412.84,310.36a.92.92,0,0,1-1,.91.92.92,0,1,1,0-1.84A.92.92,0,0,1,412.84,310.36ZM411,317.85V312h1.82v5.86Z" transform="translate(-6.39 -24)"/><path class="cls-13" d="M414.24,313.86c0-.74,0-1.36,0-1.87h1.58l.08.8h0a2.15,2.15,0,0,1,1.81-.94c1.2,0,2.1.8,2.1,2.52v3.48H418V314.6c0-.75-.27-1.27-.93-1.27a1,1,0,0,0-.92.68,1.24,1.24,0,0,0-.07.46v3.38h-1.83Z" transform="translate(-6.39 -24)"/><path class="cls-13" d="M426.88,312c0,.37-.05.86-.05,1.74V317a3.37,3.37,0,0,1-.89,2.64,3.63,3.63,0,0,1-2.39.72,4.59,4.59,0,0,1-2.11-.46l.36-1.38a3.56,3.56,0,0,0,1.71.45,1.4,1.4,0,0,0,1.52-1.55V317h0a1.89,1.89,0,0,1-1.59.76,2.58,2.58,0,0,1-2.48-2.86,2.81,2.81,0,0,1,2.66-3.09,1.77,1.77,0,0,1,1.61.83h0l.06-.69ZM425,314.37a1.57,1.57,0,0,0,0-.33,1,1,0,0,0-1-.81c-.66,0-1.2.6-1.2,1.67,0,.88.43,1.56,1.2,1.56a1,1,0,0,0,1-.74,1.91,1.91,0,0,0,.06-.48Z" transform="translate(-6.39 -24)"/><path class="cls-13" d="M430.71,316.26a3.59,3.59,0,0,0,1.57.44c.55,0,.78-.19.78-.49s-.18-.45-.87-.67c-1.21-.41-1.68-1.07-1.66-1.77,0-1.09.93-1.92,2.38-1.92a3.93,3.93,0,0,1,1.66.34l-.32,1.26a3,3,0,0,0-1.28-.34c-.44,0-.69.18-.69.48s.23.42,1,.68c1.11.38,1.58.94,1.59,1.81,0,1.09-.86,1.89-2.54,1.89a4.18,4.18,0,0,1-1.9-.41Z" transform="translate(-6.39 -24)"/><path class="cls-13" d="M441.72,314.85a2.94,2.94,0,0,1-3.1,3.13,2.87,2.87,0,0,1-3-3,2.93,2.93,0,0,1,3.13-3.11A2.86,2.86,0,0,1,441.72,314.85Zm-4.25.06c0,1,.42,1.77,1.2,1.77s1.17-.71,1.17-1.77c0-.87-.34-1.76-1.17-1.76S437.47,314.05,437.47,314.91Z" transform="translate(-6.39 -24)"/><path class="cls-13" d="M448.38,316c0,.77,0,1.39.05,1.88h-1.59l-.08-.83h0a2.06,2.06,0,0,1-1.83,1c-1.19,0-2.06-.74-2.06-2.55V312h1.83v3.15c0,.85.28,1.37.91,1.37a1,1,0,0,0,1-1V312h1.84Z" transform="translate(-6.39 -24)"/><path class="cls-13" d="M449.85,313.92c0-.87,0-1.43-.05-1.93h1.57l.06,1.08h.05a1.72,1.72,0,0,1,1.58-1.22,1.58,1.58,0,0,1,.39,0v1.71a3.11,3.11,0,0,0-.5,0,1.17,1.17,0,0,0-1.24.93,1.73,1.73,0,0,0,0,.41v3h-1.82Z" transform="translate(-6.39 -24)"/><path class="cls-13" d="M458.71,317.71a4.51,4.51,0,0,1-1.63.26,2.85,2.85,0,0,1-3.11-3,3.07,3.07,0,0,1,3.36-3.12,4.31,4.31,0,0,1,1.39.23l-.28,1.36a2.44,2.44,0,0,0-1-.18,1.64,1.64,0,0,0,0,3.28,2.83,2.83,0,0,0,1.05-.18Z" transform="translate(-6.39 -24)"/><path class="cls-13" d="M461,315.5c.06.76.81,1.12,1.66,1.12a5.36,5.36,0,0,0,1.62-.24l.24,1.23a5.78,5.78,0,0,1-2.12.36,2.82,2.82,0,0,1-3.14-3,3,3,0,0,1,3-3.13c1.89,0,2.61,1.48,2.61,2.93a3.76,3.76,0,0,1-.06.72Zm2.15-1.25a1.05,1.05,0,0,0-1-1.18,1.19,1.19,0,0,0-1.13,1.18Z" transform="translate(-6.39 -24)"/><path class="cls-13" d="M465.92,316.26a3.59,3.59,0,0,0,1.57.44c.55,0,.78-.19.78-.49s-.18-.45-.87-.67c-1.21-.41-1.68-1.07-1.66-1.77,0-1.09.93-1.92,2.38-1.92a3.93,3.93,0,0,1,1.66.34l-.33,1.26a2.88,2.88,0,0,0-1.27-.34c-.44,0-.69.18-.69.48s.22.42.94.68c1.12.38,1.59.94,1.6,1.81,0,1.09-.86,1.89-2.54,1.89a4.18,4.18,0,0,1-1.9-.41Z" transform="translate(-6.39 -24)"/><path class="cls-13" d="M475.6,310.31V312h1.31v1.34H475.6v2.12c0,.71.17,1,.72,1a3.74,3.74,0,0,0,.54,0v1.37a3.45,3.45,0,0,1-1.19.16,1.9,1.9,0,0,1-1.37-.5,2.46,2.46,0,0,1-.5-1.74v-2.4H473V312h.78v-1.28Z" transform="translate(-6.39 -24)"/><path class="cls-13" d="M483.7,314.85a3,3,0,0,1-3.1,3.13,2.87,2.87,0,0,1-3-3,2.93,2.93,0,0,1,3.13-3.11A2.86,2.86,0,0,1,483.7,314.85Zm-4.25.06c0,1,.42,1.77,1.2,1.77s1.16-.71,1.16-1.77c0-.87-.33-1.76-1.16-1.76S479.45,314.05,479.45,314.91Z" transform="translate(-6.39 -24)"/><path class="cls-13" d="M339.29,329.85c0-.38,0-1.09,0-1.75v-6.76h1.83v3.34h0a2.08,2.08,0,0,1,1.78-.83c1.4,0,2.43,1.17,2.42,3,0,2.11-1.34,3.16-2.69,3.16a2,2,0,0,1-1.76-.94h0l-.08.81Zm1.87-2.49a1.58,1.58,0,0,0,0,.32,1.1,1.1,0,0,0,1.07.86c.78,0,1.26-.6,1.26-1.65s-.41-1.63-1.26-1.63a1.13,1.13,0,0,0-1.07.9,1.76,1.76,0,0,0,0,.33Z" transform="translate(-6.39 -24)"/><path class="cls-13" d="M352.34,326.85a2.94,2.94,0,0,1-3.1,3.13,2.87,2.87,0,0,1-3-3,2.93,2.93,0,0,1,3.13-3.11A2.86,2.86,0,0,1,352.34,326.85Zm-4.25.06c0,1,.42,1.77,1.2,1.77s1.17-.71,1.17-1.77c0-.87-.34-1.76-1.17-1.76S348.09,326.05,348.09,326.91Z" transform="translate(-6.39 -24)"/><path class="cls-13" d="M353.47,321.34h1.82v8.51h-1.82Z" transform="translate(-6.39 -24)"/><path class="cls-13" d="M356.76,328.26a3.59,3.59,0,0,0,1.57.44c.55,0,.78-.19.78-.49s-.18-.45-.86-.67c-1.22-.41-1.68-1.07-1.67-1.77,0-1.09.93-1.92,2.38-1.92a3.93,3.93,0,0,1,1.66.34l-.32,1.26a3,3,0,0,0-1.28-.34c-.44,0-.69.18-.69.48s.23.42.95.68c1.11.38,1.58.94,1.59,1.81,0,1.09-.86,1.89-2.54,1.89a4.18,4.18,0,0,1-1.9-.41Z" transform="translate(-6.39 -24)"/><path class="cls-13" d="M364,322.31V324h1.3v1.34H364v2.12c0,.71.16,1,.72,1a3.74,3.74,0,0,0,.54,0v1.37a3.45,3.45,0,0,1-1.19.16,1.9,1.9,0,0,1-1.37-.5,2.46,2.46,0,0,1-.5-1.74v-2.4h-.78V324h.78v-1.28Z" transform="translate(-6.39 -24)"/><path class="cls-13" d="M367.72,327.5c.06.76.81,1.12,1.66,1.12a5.36,5.36,0,0,0,1.62-.24l.24,1.23a5.78,5.78,0,0,1-2.12.36,2.81,2.81,0,0,1-3.13-3,2.94,2.94,0,0,1,3-3.13c1.89,0,2.61,1.48,2.61,2.93a3.76,3.76,0,0,1-.06.72Zm2.15-1.25a1.05,1.05,0,0,0-1-1.18,1.19,1.19,0,0,0-1.13,1.18Z" transform="translate(-6.39 -24)"/><path class="cls-13" d="M372.66,325.92c0-.87,0-1.43-.05-1.93h1.57l.06,1.08h.05a1.72,1.72,0,0,1,1.58-1.22,1.58,1.58,0,0,1,.39,0v1.71a3.11,3.11,0,0,0-.5,0,1.17,1.17,0,0,0-1.24.93,1.73,1.73,0,0,0,0,.41v3h-1.82Z" transform="translate(-6.39 -24)"/><path class="cls-13" d="M379.64,325.86c0-.74,0-1.36-.05-1.87h1.59l.08.8h0a2.15,2.15,0,0,1,1.81-.94c1.2,0,2.1.8,2.1,2.52v3.48h-1.83V326.6c0-.75-.26-1.27-.92-1.27a1,1,0,0,0-.92.68,1.22,1.22,0,0,0-.08.46v3.38h-1.82Z" transform="translate(-6.39 -24)"/><path class="cls-13" d="M390,329.85l-.11-.59h0a2.1,2.1,0,0,1-1.68.72,1.8,1.8,0,0,1-1.89-1.8c0-1.52,1.37-2.25,3.44-2.24v-.08c0-.32-.17-.76-1.07-.76a3.43,3.43,0,0,0-1.62.44l-.33-1.17a4.81,4.81,0,0,1,2.28-.52,2.29,2.29,0,0,1,2.58,2.53v2a9.12,9.12,0,0,0,.08,1.43Zm-.22-2.77c-1,0-1.7.22-1.7.92a.66.66,0,0,0,.72.7,1,1,0,0,0,.94-.67,1.1,1.1,0,0,0,0-.31Z" transform="translate(-6.39 -24)"/><path class="cls-13" d="M395,322.31V324h1.31v1.34H395v2.12c0,.71.17,1,.72,1a3.51,3.51,0,0,0,.54,0v1.37A3.43,3.43,0,0,1,395,330a1.9,1.9,0,0,1-1.37-.5,2.41,2.41,0,0,1-.5-1.74v-2.4h-.78V324h.78v-1.28Z" transform="translate(-6.39 -24)"/><path class="cls-13" d="M399.2,322.36a.91.91,0,0,1-1,.91.92.92,0,1,1,0-1.84A.91.91,0,0,1,399.2,322.36Zm-1.88,7.49V324h1.82v5.86Z" transform="translate(-6.39 -24)"/><path class="cls-13" d="M406.4,326.85a2.94,2.94,0,0,1-3.1,3.13,2.87,2.87,0,0,1-3-3,2.93,2.93,0,0,1,3.13-3.11A2.86,2.86,0,0,1,406.4,326.85Zm-4.25.06c0,1,.42,1.77,1.2,1.77s1.17-.71,1.17-1.77c0-.87-.34-1.76-1.17-1.76S402.15,326.05,402.15,326.91Z" transform="translate(-6.39 -24)"/><path class="cls-13" d="M407.53,325.86c0-.74,0-1.36,0-1.87h1.58l.09.8h0a2.16,2.16,0,0,1,1.82-.94c1.2,0,2.09.8,2.09,2.52v3.48h-1.82V326.6c0-.75-.26-1.27-.92-1.27a1,1,0,0,0-.93.68,1.48,1.48,0,0,0-.07.46v3.38h-1.82Z" transform="translate(-6.39 -24)"/><path class="cls-13" d="M417.9,329.85l-.11-.59h0a2.1,2.1,0,0,1-1.68.72,1.8,1.8,0,0,1-1.89-1.8c0-1.52,1.36-2.25,3.44-2.24v-.08c0-.32-.17-.76-1.07-.76a3.43,3.43,0,0,0-1.62.44l-.33-1.17a4.81,4.81,0,0,1,2.28-.52,2.29,2.29,0,0,1,2.58,2.53v2a9.12,9.12,0,0,0,.08,1.43Zm-.22-2.77c-1,0-1.7.22-1.7.92a.66.66,0,0,0,.72.7,1,1,0,0,0,.94-.67,1.1,1.1,0,0,0,0-.31Z" transform="translate(-6.39 -24)"/><path class="cls-13" d="M420.9,321.34h1.82v8.51H420.9Z" transform="translate(-6.39 -24)"/><path class="cls-13" d="M428,327.5c.06.76.81,1.12,1.66,1.12a5.36,5.36,0,0,0,1.62-.24l.24,1.23a5.78,5.78,0,0,1-2.12.36,2.81,2.81,0,0,1-3.13-3,2.94,2.94,0,0,1,3-3.13c1.89,0,2.61,1.48,2.61,2.93a3.76,3.76,0,0,1-.06.72Zm2.15-1.25a1.05,1.05,0,0,0-1-1.18,1.19,1.19,0,0,0-1.13,1.18Z" transform="translate(-6.39 -24)"/><path class="cls-13" d="M437.36,329.71a4.55,4.55,0,0,1-1.63.26,2.84,2.84,0,0,1-3.11-3,3.07,3.07,0,0,1,3.36-3.12,4.31,4.31,0,0,1,1.39.23l-.29,1.36a2.41,2.41,0,0,0-1-.18,1.64,1.64,0,0,0,0,3.28,2.74,2.74,0,0,0,1-.18Z" transform="translate(-6.39 -24)"/><path class="cls-13" d="M444,326.85a2.94,2.94,0,0,1-3.09,3.13,2.87,2.87,0,0,1-3-3,2.93,2.93,0,0,1,3.13-3.11A2.86,2.86,0,0,1,444,326.85Zm-4.25.06c0,1,.42,1.77,1.2,1.77s1.17-.71,1.17-1.77c0-.87-.34-1.76-1.17-1.76S439.78,326.05,439.78,326.91Z" transform="translate(-6.39 -24)"/><path class="cls-13" d="M445.16,325.86c0-.74,0-1.36-.05-1.87h1.59l.08.8h0a2.15,2.15,0,0,1,1.81-.94c1.2,0,2.1.8,2.1,2.52v3.48H448.9V326.6c0-.75-.26-1.27-.92-1.27a1,1,0,0,0-.92.68,1.22,1.22,0,0,0-.08.46v3.38h-1.82Z" transform="translate(-6.39 -24)"/><path class="cls-13" d="M458,326.85a3,3,0,0,1-3.1,3.13,2.87,2.87,0,0,1-3-3,2.93,2.93,0,0,1,3.13-3.11A2.86,2.86,0,0,1,458,326.85Zm-4.25.06c0,1,.42,1.77,1.2,1.77s1.16-.71,1.16-1.77c0-.87-.33-1.76-1.16-1.76S453.74,326.05,453.74,326.91Z" transform="translate(-6.39 -24)"/><path class="cls-13" d="M459.12,325.86c0-.74,0-1.36-.05-1.87h1.53l.09.79h0a2.06,2.06,0,0,1,1.78-.93,1.69,1.69,0,0,1,1.61,1h0a2.67,2.67,0,0,1,.76-.71,2.11,2.11,0,0,1,1.11-.29c1.13,0,2,.8,2,2.55v3.45h-1.77v-3.19c0-.85-.28-1.34-.87-1.34a.9.9,0,0,0-.84.63,1.49,1.49,0,0,0-.07.47v3.43h-1.77v-3.29c0-.74-.27-1.24-.84-1.24a.94.94,0,0,0-.86.66,1.18,1.18,0,0,0-.07.45v3.42h-1.77Z" transform="translate(-6.39 -24)"/><path class="cls-13" d="M471.32,322.36a.91.91,0,0,1-1,.91.92.92,0,1,1,0-1.84A.91.91,0,0,1,471.32,322.36Zm-1.88,7.49V324h1.82v5.86Z" transform="translate(-6.39 -24)"/><path class="cls-13" d="M474.13,327.5c.06.76.8,1.12,1.65,1.12a5.31,5.31,0,0,0,1.62-.24l.24,1.23a5.78,5.78,0,0,1-2.12.36,2.81,2.81,0,0,1-3.13-3,2.94,2.94,0,0,1,3-3.13c1.9,0,2.62,1.48,2.62,2.93a4.83,4.83,0,0,1-.06.72Zm2.15-1.25a1.06,1.06,0,0,0-1-1.18,1.19,1.19,0,0,0-1.12,1.18Z" transform="translate(-6.39 -24)"/><path class="cls-13" d="M479.05,328.26a3.63,3.63,0,0,0,1.57.44c.55,0,.78-.19.78-.49s-.18-.45-.86-.67c-1.21-.41-1.68-1.07-1.67-1.77,0-1.09.94-1.92,2.39-1.92a3.91,3.91,0,0,1,1.65.34l-.32,1.26a3,3,0,0,0-1.27-.34c-.45,0-.7.18-.7.48s.23.42.95.68c1.11.38,1.58.94,1.59,1.81,0,1.09-.86,1.89-2.54,1.89a4.11,4.11,0,0,1-1.89-.41Z" transform="translate(-6.39 -24)"/><path class="cls-7" d="M409.31,197.77l-.14,0-2.54-.73-2.53.73a.57.57,0,0,1-.49-.11l-2-1.71-2.6-.38a.52.52,0,0,1-.41-.29l-1.16-2.4-2.23-1.42a.52.52,0,0,1-.25-.42l-.1-2.67-1.47-2.22a.56.56,0,0,1-.05-.49l1-2.48-.45-2.63a.52.52,0,0,1,.16-.47l1.89-1.86.64-2.58a.52.52,0,0,1,.33-.37l2.48-.93,1.63-2.09a.55.55,0,0,1,.45-.21l2.63.18,2.33-1.24a.5.5,0,0,1,.5,0l2.33,1.24,2.63-.18a.56.56,0,0,1,.46.21l1.63,2.09,2.47.93a.5.5,0,0,1,.33.37l.65,2.58,1.89,1.86a.54.54,0,0,1,.15.47l-.45,2.63,1,2.48a.5.5,0,0,1-.05.49l-1.47,2.22-.1,2.67a.52.52,0,0,1-.25.42l-2.23,1.42-1.16,2.4a.52.52,0,0,1-.4.29l-2.61.38-2,1.71A.56.56,0,0,1,409.31,197.77Zm-9.9-3.23,2.48.36a.48.48,0,0,1,.26.12l1.93,1.62,2.41-.69a.48.48,0,0,1,.29,0l2.41.69,1.92-1.62a.55.55,0,0,1,.27-.12l2.48-.36,1.1-2.28a.51.51,0,0,1,.2-.21l2.12-1.35.09-2.54.09-.28,1.4-2.11-.93-2.35,0-.29.42-2.5-1.8-1.77a.52.52,0,0,1-.14-.25l-.61-2.46-2.36-.88-.23-.17-1.55-2-2.5.16a.48.48,0,0,1-.28-.06L406.63,172l-2.21,1.18a.49.49,0,0,1-.29.06l-2.5-.16-1.54,2-.24.17-2.35.88-.62,2.46-.14.25-1.8,1.77.43,2.5,0,.29-.94,2.35,1.4,2.11.09.28.1,2.54,2.12,1.35a.48.48,0,0,1,.19.21Zm8.86-.72a9.65,9.65,0,1,1,7.87-7.87A9.67,9.67,0,0,1,408.27,193.82Zm-.18-18a8.58,8.58,0,1,0,7,7A8.6,8.6,0,0,0,408.09,175.85Z" transform="translate(-6.39 -24)"/><path class="cls-7" d="M403,190a.5.5,0,0,1-.31-.1.53.53,0,0,1-.22-.52l.66-3.81-2.77-2.7a.54.54,0,0,1-.14-.55.53.53,0,0,1,.43-.36l3.83-.56,1.71-3.47a.55.55,0,0,1,.48-.3h0a.53.53,0,0,1,.48.3l1.71,3.47,3.83.56a.53.53,0,0,1,.43.36.54.54,0,0,1-.13.55l-2.77,2.7.65,3.81a.55.55,0,0,1-.21.52.52.52,0,0,1-.56,0l-3.43-1.8-3.42,1.8A.57.57,0,0,1,403,190Zm-1.13-7.14L404,185a.52.52,0,0,1,.15.47l-.51,3,2.71-1.43a.55.55,0,0,1,.5,0l2.72,1.43-.52-3a.54.54,0,0,1,.15-.47l2.2-2.14-3-.44a.56.56,0,0,1-.4-.3l-1.36-2.75-1.36,2.75a.49.49,0,0,1-.4.29Z" transform="translate(-6.39 -24)"/><path class="cls-7" d="M399.8,204.6h-.05a.51.51,0,0,1-.43-.3l-2.09-4.36-3.72.19a.48.48,0,0,1-.49-.27.53.53,0,0,1,0-.57l4.63-6.49.87.61-4,5.6,3-.15a.51.51,0,0,1,.5.3l1.86,3.87,4.56-6.36.86.62-5.08,7.09A.54.54,0,0,1,399.8,204.6Z" transform="translate(-6.39 -24)"/><path class="cls-7" d="M413.46,204.6a.54.54,0,0,1-.43-.23L408,197.28l.86-.62,4.56,6.36,1.86-3.87a.52.52,0,0,1,.51-.3l3,.15-4-5.6.87-.61,4.63,6.49a.53.53,0,0,1,0,.57.47.47,0,0,1-.49.27l-3.72-.19-2.09,4.36a.51.51,0,0,1-.43.3Z" transform="translate(-6.39 -24)"/><path class="cls-14" d="M271.65,24V94.94c0,32.62-27.41,49.67-54.22,63.93" transform="translate(-6.39 -24)"/><polygon class="cls-3" points="208.45 122.58 195.8 142.89 219.72 143.7 208.45 122.58"/><path class="cls-15" d="M299.49,24V94.94c0,32.62,27.41,49.67,54.22,63.93" transform="translate(-6.39 -24)"/><polygon class="cls-16" points="338.63 143.7 362.55 142.89 349.9 122.58 338.63 143.7"/><path class="cls-17" d="M290.5,24v77.94c0,31.21,9.75,73.9,21.35,98.86" transform="translate(-6.39 -24)"/><polygon class="cls-18" points="293.57 179.56 314.26 191.6 314.35 167.67 293.57 179.56"/><path class="cls-19" d="M280.65,24v77.94c0,31.21-9.75,73.9-21.34,98.86" transform="translate(-6.39 -24)"/><polygon class="cls-4" points="244.02 167.67 244.11 191.6 264.79 179.56 244.02 167.67"/></svg>