<?xml version="1.0" encoding="utf-8"?>
<!-- Generator: Adobe Illustrator 25.4.2, SVG Export Plug-In . SVG Version: 6.00 Build 0)  -->
<svg version="1.1" id="Layer_1" xmlns="http://www.w3.org/2000/svg" xmlns:xlink="http://www.w3.org/1999/xlink" x="0px" y="0px"
	 viewBox="0 0 250 250" style="enable-background:new 0 0 250 250;" xml:space="preserve">
<style type="text/css">
	.st0{fill:#129D94;}
	.st1{fill:#FFFFFF;}
</style>
<circle class="st0" cx="125" cy="125" r="116.7"/>
<g>
	<rect x="78.5" y="83.9" class="st1" width="52.6" height="9.9"/>
	<rect x="78.5" y="132.8" class="st1" width="33.5" height="9.9"/>
	<polygon class="st1" points="78.5,108.4 78.5,118.2 112.5,118.2 122.4,108.4 	"/>
	<path class="st1" d="M96,165.5c0,0-2,21.1-15.6,21.1h-0.8c-8.1,0-14.1-4.4-14.1-16.5V71.7c0.1-5.4,4.6-9.7,10-9.7h74.9
		c4.9,0,9.1,3.6,9.9,8.5l12.1-12.2c-1.7-4.7-6.2-7.8-11.2-7.8H64.6c-6.6,0-12,5.4-12,12v106.3c0,25.4,11.1,30.6,25.4,30.6h89.4
		c0,0,22.8-2.5,22.8-33.9H96z"/>
	<polygon class="st1" points="160.4,143.1 160.4,156.3 173.3,156.3 173.3,130.2 	"/>
	<path class="st1" d="M175.2,69.8L127,118l-5.5,27.7l27.7-5.5L197.3,92L175.2,69.8z M131,136.1l2.4-11.6l9,9.3L131,136.1z"/>
</g>
</svg>
