<?xml version="1.0" encoding="utf-8"?>
<!-- Generator: Adobe Illustrator 25.4.2, SVG Export Plug-In . SVG Version: 6.00 Build 0)  -->
<svg version="1.1" id="Layer_1" xmlns="http://www.w3.org/2000/svg" xmlns:xlink="http://www.w3.org/1999/xlink" x="0px" y="0px"
	 viewBox="0 0 250 250" style="enable-background:new 0 0 250 250;" xml:space="preserve">
<style type="text/css">
	.st0{fill:#602888;}
	.st1{fill:#FFFFFF;}
</style>
<circle class="st0" cx="125" cy="125" r="116.7"/>
<g>
	<path class="st1" d="M193.1,174.6l-21.9-22l-1.4-1.1c11.9-18.6,13.1-42.1,3.3-61.9l-9.6,14.9c1.2,4.3,1.8,8.7,1.8,13.2
		c0,27.1-21.9,49.2-49.1,49.2S67.1,144.9,67,117.7c0-27.1,21.9-49.2,49.1-49.2c10.1,0,19.9,3.1,28.2,8.9l7.7-12.1
		c-28.9-19.8-68.3-12.5-88.2,16.4c-19.8,28.9-12.5,68.3,16.4,88.2c20.9,14.3,48.3,14.9,69.7,1.3l1.1,1.3l22,21.9
		c5.5,5.5,14.4,5.5,19.9,0C198.6,189,198.6,180.1,193.1,174.6L193.1,174.6L193.1,174.6z"/>
	<path class="st1" d="M139.6,106.1c-0.8-0.1-1.6-0.1-2.5,0c-2,0-4,0.5-5.8,1.5l-7.6-6.9c0.6-1.4,0.9-3,0.9-4.5
		c0-6.6-5.3-11.9-11.9-11.9s-11.9,5.3-11.9,11.9c0,3,1.2,6,3.3,8.2l-8.8,17.5h-1.5c-6.6,0-11.9,5.3-11.9,11.8
		c0,6.6,5.3,11.9,11.8,11.9c6.6,0,11.9-5.3,11.9-11.8c0,0,0-0.1,0-0.1c0-3-1.1-5.9-3.3-8.1l8.9-17.5h1.5c2,0,3.9-0.5,5.7-1.4
		l7.7,6.9c-0.6,1.4-0.8,2.9-0.8,4.3c-0.5,6.5,4.4,12.2,11,12.7c6.5,0.5,12.2-4.4,12.7-11c0-0.6,0-1.2,0-1.7c0-2.7-0.9-5.4-2.6-7.5
		l22.5-35.2c0.9,0.1,1.8,0.1,2.7,0c6.6,0,11.9-5.3,11.9-11.9s-5.3-11.9-11.9-11.9c-6.6,0-11.9,5.3-11.9,11.9c0,2.6,0.9,5.2,2.5,7.3
		L139.6,106.1z"/>
</g>
</svg>
