<svg id="Layer_1" data-name="Layer 1" xmlns="http://www.w3.org/2000/svg" xmlns:xlink="http://www.w3.org/1999/xlink" viewBox="0 0 580.11 332"><defs><clipPath id="clip-path" transform="translate(-391 382)"><path d="M527.18-338.26" style="fill:none"/></clipPath><clipPath id="clip-path-2" transform="translate(-391 382)"><path d="M423.38-301.24,557.3-261.47,448.55-331.92a155.54,155.54,0,0,0-25.17,30.68" style="fill:none"/></clipPath><linearGradient id="linear-gradient" x1="72.66" y1="-144.84" x2="76.7" y2="-144.84" gradientTransform="matrix(-0.49, -81.9, 81.9, -0.49, 11999.69, 6245.83)" gradientUnits="userSpaceOnUse"><stop offset="0" stop-color="#fff"/><stop offset="0.18" stop-color="#fff"/><stop offset="0.28" stop-color="#f0f9fe"/><stop offset="0.47" stop-color="#d2eefc"/><stop offset="0.72" stop-color="#9ddcf9"/><stop offset="0.99" stop-color="#49c8f5"/><stop offset="1" stop-color="#49c8f5"/></linearGradient><clipPath id="clip-path-3" transform="translate(-391 382)"><path d="M403.45-183.21a157.58,157.58,0,0,0,11,32.06L535.81-195Z" style="fill:none"/></clipPath><linearGradient id="linear-gradient-2" x1="72.66" y1="-145.04" x2="76.71" y2="-145.04" gradientTransform="matrix(-0.49, -81.9, 81.9, -0.49, 11994.44, 6245.83)" xlink:href="#linear-gradient"/><clipPath id="clip-path-4" transform="translate(-391 382)"><path d="M399.59-222.52c0,1.47-.09,3-.09,4.5a163.63,163.63,0,0,0,3,31L535.72-213l-136.13-9.55Z" style="fill:none"/></clipPath><linearGradient id="linear-gradient-3" x1="72.66" y1="-145.06" x2="76.69" y2="-145.06" gradientTransform="matrix(-0.49, -81.9, 81.9, -0.49, 11993.45, 6244.57)" xlink:href="#linear-gradient"/><clipPath id="clip-path-5" transform="translate(-391 382)"><path d="M449.84-333.11,570.72-273.5,482.9-356.72a159.08,159.08,0,0,0-33.06,23.61" style="fill:none"/></clipPath><linearGradient id="linear-gradient-4" x1="72.66" y1="-144.66" x2="76.7" y2="-144.66" gradientTransform="matrix(-0.49, -81.9, 81.9, -0.49, 12004.63, 6245.83)" xlink:href="#linear-gradient"/><clipPath id="clip-path-6" transform="translate(-391 382)"><path d="M406.48-264.5,546.83-247,422.37-299.59a155.47,155.47,0,0,0-15.89,35.09" style="fill:none"/></clipPath><linearGradient id="linear-gradient-5" x1="72.67" y1="-144.97" x2="76.71" y2="-144.97" gradientTransform="matrix(-0.49, -81.9, 81.9, -0.49, 11996.07, 6246.19)" xlink:href="#linear-gradient"/><clipPath id="clip-path-7" transform="translate(-391 382)"><path d="M525.52-372l77.9,84-37.21-86.62c-3.21-.19-6.42-.37-9.64-.37a164,164,0,0,0-31.05,3" style="fill:none"/></clipPath><linearGradient id="linear-gradient-6" x1="72.66" y1="-144.16" x2="76.7" y2="-144.16" gradientTransform="matrix(-0.49, -81.9, 81.9, -0.49, 12018.13, 6245.7)" xlink:href="#linear-gradient"/><clipPath id="clip-path-8" transform="translate(-391 382)"><path d="M484.56-357.55,586.33-282.5l-63.1-88.92a155.39,155.39,0,0,0-38.67,13.87" style="fill:none"/></clipPath><linearGradient id="linear-gradient-7" x1="72.66" y1="-144.43" x2="76.7" y2="-144.43" gradientTransform="matrix(-0.49, -81.9, 81.9, -0.49, 12010.88, 6245.76)" xlink:href="#linear-gradient"/><clipPath id="clip-path-9" transform="translate(-391 382)"><path d="M399.68-225.65h0l139.81-4.86L405.84-262.2a160.39,160.39,0,0,0-6.16,36.55" style="fill:none"/></clipPath><linearGradient id="linear-gradient-8" x1="72.67" y1="-145.04" x2="76.7" y2="-145.04" gradientTransform="matrix(-0.49, -81.91, 81.91, -0.49, 11995.54, 6246.31)" xlink:href="#linear-gradient"/><clipPath id="clip-path-10" transform="translate(-391 382)"><path d="M547.75-241.35c-8.54,23.7-9.55,81.38,63.2,94.24-8.91-9.09-12.22-20.67-11.39-27.1,3.49-26.73,28.75-36,34.81-92.22,34.26,29.21,46.29,64.48,45.84,88.73-.1,5.7-2.76,13.41-5.33,18.92,44.64-29.11,36.46-96.53,27.83-116.47-28.57-66.59-82.94-95.8-139.43-99.47,63.47,44.64,1.47,86.25-15.53,133.37" style="fill:none"/></clipPath><radialGradient id="radial-gradient" cx="73.55" cy="-139.58" r="4.04" gradientTransform="translate(6585.91 3862.02) rotate(-88.06) scale(46.41)" gradientUnits="userSpaceOnUse"><stop offset="0" stop-color="#97daf8"/><stop offset="0.1" stop-color="#97daf8"/><stop offset="0.5" stop-color="#00bdf2"/><stop offset="0.81" stop-color="#006ab6"/><stop offset="1" stop-color="#006ab6"/></radialGradient><clipPath id="clip-path-11" transform="translate(-391 382)"><path d="M575.58-198.82c-1,10.65,9.92,39.58,36.56,52.9-10.1-9.09-9.37-23.24-8.54-29.94,3.49-26.73,26.45-30.13,32.52-86.25,31.41,29.3,43.17,62.09,42.71,86.25a40,40,0,0,1-4.59,18.65c18.46-21.5,22.87-56.95,18.64-74.31-11.11-46-38.58-68.44-70.91-93.14,6.06,41.42-43.35,92.31-46.39,125.84" style="fill:none"/></clipPath><linearGradient id="linear-gradient-9" x1="72.33" y1="-134.38" x2="76.37" y2="-134.38" gradientTransform="translate(4370.08 2454.51) rotate(-90) scale(30.7)" gradientUnits="userSpaceOnUse"><stop offset="0" stop-color="#fff"/><stop offset="0.01" stop-color="#fffbf7"/><stop offset="0.16" stop-color="#ffe6c4"/><stop offset="0.31" stop-color="#ffd59c"/><stop offset="0.46" stop-color="#fec77d"/><stop offset="0.6" stop-color="#fdbd64"/><stop offset="0.74" stop-color="#fcb650"/><stop offset="0.88" stop-color="#fcb144"/><stop offset="1" stop-color="#fbb040"/></linearGradient></defs><title>logo</title><circle cx="166" cy="166" r="166" style="fill:#fff"/><g style="clip-path:url(#clip-path)"><path d="M950.07-106.51c.37,2.66,4.23,4.13,8.64,4.13a30.91,30.91,0,0,0,9.09-1.28l1.56,8.08a34.72,34.72,0,0,1-12.49,2.11c-11.76,0-18.37-6.43-18.37-17,0-7.72,5-17.73,17.27-17.73,10.74,0,15.34,7.9,15.34,17.09a23.87,23.87,0,0,1-.46,4.59Zm9.83-8.27c0-1.93-.92-5.42-4.78-5.42-3.58,0-5,3.31-5.23,5.42Z" transform="translate(-391 382)" style="fill:#007ac2"/></g><g style="clip-path:url(#clip-path-2)"><polygon points="32.38 121.36 32.02 50.08 166.4 49.25 166.76 120.53 32.38 121.36" style="fill:url(#linear-gradient)"/></g><g style="clip-path:url(#clip-path-3)"><polygon points="12.45 231.68 12.17 187.03 144.81 186.21 145 230.85 12.45 231.68" style="fill:url(#linear-gradient-2)"/></g><g style="clip-path:url(#clip-path-4)"><polygon points="8.5 195.76 8.32 159.48 144.81 158.65 145 194.93 8.5 195.76" style="fill:url(#linear-gradient-3)"/></g><g style="clip-path:url(#clip-path-5)"><polygon points="58.84 109.23 58.28 25.28 179.72 24.54 180.27 108.5 58.84 109.23" style="fill:url(#linear-gradient-4)"/></g><g style="clip-path:url(#clip-path-6)"><polygon points="15.48 135.87 15.21 82.41 155.83 81.58 156.11 135.04 15.48 135.87" style="fill:url(#linear-gradient-5)"/></g><g style="clip-path:url(#clip-path-7)"><polygon points="134.52 94.44 134.06 7 212.42 6.54 212.97 93.99 134.52 94.44" style="fill:url(#linear-gradient-6)"/></g><g style="clip-path:url(#clip-path-8)"><polygon points="93.56 100.14 93.01 10.58 195.33 9.94 195.88 99.5 93.56 100.14" style="fill:url(#linear-gradient-7)"/></g><g style="clip-path:url(#clip-path-9)"><polygon points="8.68 157.27 8.5 119.8 148.49 118.97 148.76 156.45 8.68 157.27" style="fill:url(#linear-gradient-8)"/></g><g style="clip-path:url(#clip-path-10)"><polygon points="139.48 234.71 147.47 1.12 336.33 7.55 328.43 241.04 139.48 234.71" style="fill:url(#radial-gradient)"/></g><g style="clip-path:url(#clip-path-11)"><rect x="183.67" y="57.34" width="122.35" height="178.75" style="fill:url(#linear-gradient-9)"/></g></svg>