<svg id="Layer_1" data-name="Layer 1" xmlns="http://www.w3.org/2000/svg" viewBox="0 0 893.5 1413.75"><defs><style>.cls-1,.cls-3{fill:none;}.cls-2{fill:aqua;}.cls-3,.cls-4{stroke:#000;stroke-miterlimit:10;}.cls-3{stroke-width:6px;}.cls-4{fill:#999;stroke-width:0.5px;}</style></defs><title>Untitled-1</title><polygon id="star1" class="cls-1" points="102.5 0 118.38 32.18 153.89 37.34 128.2 62.39 134.26 97.75 102.5 81.06 70.74 97.75 76.8 62.39 51.11 37.34 86.62 32.18 102.5 0"/><a href="#" data-placement="auto" data-toggle="tooltip" title="Hooray!"><polygon id="star2" class="cls-2" points="439.5 0 455.38 32.18 490.89 37.34 465.2 62.39 471.26 97.75 439.5 81.06 407.74 97.75 413.8 62.39 388.11 37.34 423.62 32.18 439.5 0"/></a><polygon id="star3" class="cls-2" points="775.5 0 791.38 32.18 826.89 37.34 801.2 62.39 807.26 97.75 775.5 81.06 743.74 97.75 749.8 62.39 724.11 37.34 759.62 32.18 775.5 0"/><polygon id="star4" class="cls-2" points="102.5 230 118.38 262.18 153.89 267.34 128.2 292.39 134.26 327.75 102.5 311.06 70.74 327.75 76.8 292.39 51.11 267.34 86.62 262.18 102.5 230"/><polygon id="star5" class="cls-2" points="439.5 300 455.38 332.18 490.89 337.34 465.2 362.39 471.26 397.75 439.5 381.06 407.74 397.75 413.8 362.39 388.11 337.34 423.62 332.18 439.5 300"/><polygon id="star6" class="cls-2" points="775.5 230 791.38 262.18 826.89 267.34 801.2 292.39 807.26 327.75 775.5 311.06 743.74 327.75 749.8 292.39 724.11 267.34 759.62 262.18 775.5 230"/><polygon id="star7" class="cls-2" points="102.5 440 118.38 472.18 153.89 477.34 128.2 502.39 134.26 537.75 102.5 521.06 70.74 537.75 76.8 502.39 51.11 477.34 86.62 472.18 102.5 440"/><polygon id="star8" class="cls-2" points="102.5 616 118.38 648.18 153.89 653.34 128.2 678.39 134.26 713.75 102.5 697.06 70.74 713.75 76.8 678.39 51.11 653.34 86.62 648.18 102.5 616"/><polygon id="star9" class="cls-2" points="327.5 616 343.38 648.18 378.89 653.34 353.2 678.39 359.26 713.75 327.5 697.06 295.74 713.75 301.8 678.39 276.11 653.34 311.62 648.18 327.5 616"/><polygon id="star10" class="cls-2" points="575.5 616 591.38 648.18 626.89 653.34 601.2 678.39 607.26 713.75 575.5 697.06 543.74 713.75 549.8 678.39 524.11 653.34 559.62 648.18 575.5 616"/><polygon id="star11" class="cls-2" points="775.5 616 791.38 648.18 826.89 653.34 801.2 678.39 807.26 713.75 775.5 697.06 743.74 713.75 749.8 678.39 724.11 653.34 759.62 648.18 775.5 616"/><polygon id="star12" class="cls-2" points="775.5 782 791.38 814.18 826.89 819.34 801.2 844.39 807.26 879.75 775.5 863.06 743.74 879.75 749.8 844.39 724.11 819.34 759.62 814.18 775.5 782"/><polygon id="star13" class="cls-2" points="327.5 966 343.38 998.18 378.89 1003.34 353.2 1028.39 359.26 1063.75 327.5 1047.06 295.74 1063.75 301.8 1028.39 276.11 1003.34 311.62 998.18 327.5 966"/><polygon id="star14" class="cls-2" points="327.5 1136 343.38 1168.18 378.89 1173.34 353.2 1198.39 359.26 1233.75 327.5 1217.06 295.74 1233.75 301.8 1198.39 276.11 1173.34 311.62 1168.18 327.5 1136"/><polygon id="star15" class="cls-2" points="775.5 1136 791.38 1168.18 826.89 1173.34 801.2 1198.39 807.26 1233.75 775.5 1217.06 743.74 1233.75 749.8 1198.39 724.11 1173.34 759.62 1168.18 775.5 1136"/><polygon id="star16" class="cls-2" points="327.5 1316 343.38 1348.18 378.89 1353.34 353.2 1378.39 359.26 1413.75 327.5 1397.06 295.74 1413.75 301.8 1378.39 276.11 1353.34 311.62 1348.18 327.5 1316"/><polygon id="star17" class="cls-2" points="775.5 1316 791.38 1348.18 826.89 1353.34 801.2 1378.39 807.26 1413.75 775.5 1397.06 743.74 1413.75 749.8 1378.39 724.11 1353.34 759.62 1348.18 775.5 1316"/><polyline class="cls-3" points="177.5 80.04 223.5 126.04 320.5 126.04 367.5 79.04"/><polyline class="cls-3" points="858.5 90.04 883 114.54 883 201.04 860.25 223.79"/><polyline class="cls-3" points="189.5 224.04 225.5 188.04 656.5 188.04 692.5 224.04"/><polyline class="cls-3" points="679.5 328.04 657.5 350.04 563.5 350.04"/><polyline class="cls-3" points="199.5 328.04 222.5 351.04 341.5 351.04"/><polyline class="cls-3" points="189.5 340.04 212.5 363.04 212.5 594.04 244.5 626.04"/><polyline class="cls-3" points="33.5 79.04 3 109.54 3 206.04 21.75 224.79"/><polyline class="cls-3" points="33.5 517.04 3 547.54 3 608.04 33.25 638.29"/><polyline class="cls-3" points="176.5 704.04 206 733.54 225.5 733.54 255.25 703.79"/><polyline class="cls-3" points="692.5 339.04 668.5 363.04 668.5 489.54 668.5 600.04 693.5 625.04"/><polyline class="cls-3" points="411.5 625.04 443.5 593.04 443.5 522.04 478 487.54 668.5 487.54"/><polyline class="cls-3" points="849.5 339.04 874.5 364.04 874.5 604.04 853.5 625.04"/><polyline class="cls-3" points="861.5 328.04 890.5 357.04 890.5 767.04 860.5 797.04"/><polyline class="cls-3" points="852.5 776.04 873.5 755.04 873.5 698.04 853 677.54"/><line class="cls-3" x1="710.5" y1="789.04" x2="648.5" y2="727.04"/><polyline class="cls-3" points="852.5 872.04 884.5 904.04 884.5 1119.04 855 1148.54"/><polyline class="cls-3" points="852.5 1224.04 882 1253.54 882 1295.04 854.75 1322.29"/><polyline class="cls-3" points="498.5 727.04 476 749.54 476 841.04 536.25 901.29 668.5 901.29 710.13 859.66"/><polyline class="cls-3" points="489.5 714.04 462.5 741.04 434.5 741.04 409.5 716.04"/><polyline class="cls-3" points="397.5 727.04 420.5 750.04 420.5 941.04 396.5 965.04"/><polyline class="cls-3" points="252.5 1056.04 223.5 1085.04 223.5 1123.04 253 1152.54"/><polyline class="cls-3" points="253.5 1221.04 222 1252.54 222 1293.04 255.25 1326.29"/><text></text><circle class="cls-4" cx="52.95" cy="92.85" r="2.97"/><circle class="cls-4" cx="52.95" cy="92.85" r="1.42"/><circle class="cls-4" cx="52.95" cy="92.85" r="0.47"/><path class="cls-4" d="M167,34.22l-1.49-2.57-2,.95-7,9.05-52.82-28S99,11.26,98.48,10.85s-1.22.54-1.22.54l-5,5.4v.68l-.27.68-.68,2.16v1.35l-.81,1.08-1.35,1.35L88.21,24l-2.84,8h.54v.81L79.7,49.62H78.08l-.68.41v.81l-1.08.27-.14-.41.68-.54h-.81l-.14-.27L74.7,50l-.54-2.84a36.12,36.12,0,0,0-4.19.54,13.25,13.25,0,0,0-3.65,1.35l.14,1.35-2.7,1.08L65,56.38C57.28,59.62,51.6,67.73,51.6,67.73l.68,3.38c.14.68.68.41.68.41l12.56-3.24-.27-.95,1.22-.27.41.68h-.95l.27.54h1.89l1.08,4.05-6.35-.14v-.54l-1.08.68L60,72.59l-17.43,20v3.78H41.47V100H39.31V97.45h-.41V100H38.5v1.08h2.7V111.9h.27V101.36h1.08v-2.7h2.16l-.95.14.14,9.86,3.11.27.54-.14-.14-.81.54-.27,10.27-.27L64,111.23l-.14.41H125l3.11-.41-.41-6.21-.54-.54-3-62.82-.27-6.35s29,15.13,29.45,15.4.14.95.14.95l-6.08,21.48.41.81,1.35-.14s1.22-1.08,2.7-2.3c5.86-4.79,10.94-14.59,12.56-18.37s2.84-13.24,2.84-13.24ZM43.36,96.37v-1l6.35-.11-1.15,1.08ZM66.19,100l-14.72.54-2.31-1.89h17Zm0-3.65H56.85L55,95l.71-1,4.55-3.16,5.94-4.32.14,1.76Zm17.94-9.05.54-12.16h-.54l.14-3-.81.54H79.7V67.19l.81-.68.68-2.3V60.7L90,58.81l-.27-1.08,3.92-1.35-.95-3.92-7.57-2.57,7.7-20.67h.68L94,28,95.1,24.9l1.49-3.78,18.24,9.46.68,9.19L85.92,87.31ZM96,104.61,89.7,87.18l25.67-41.34,3.11,58.76Z"/><polyline class="cls-4" points="66.46 50.44 67.7 55.42 68.08 55.3 66.33 49.08"/><path class="cls-4" d="M70.52,65h0L68.08,55.3S65.92,56,65,56.38L53,65.77l.81,4.12,11.48-2.57,2.57-.68v-.81l1.49-.68.27.68.56-.14L72,72.45l1.62,5.81L74,78Z"/><line class="cls-4" x1="70.55" y1="65.14" x2="70.11" y2="65.7"/><line class="cls-4" x1="71.96" y1="72.31" x2="69.17" y2="72.32"/><circle class="cls-4" cx="78.42" cy="64.82" r="1.69"/><path class="cls-4" d="M80,67.12a2.26,2.26,0,0,1-2.68.47c-1.35-.68-2.16-2.57-1.62-3.51s2.3-3.38,2.3-3.38l12-32-.41-1.35s2.3-6.89,2.7-7.29A2.07,2.07,0,0,1,94,19.36c.68.14,3,.95,2.57,1.76"/><line class="cls-4" x1="68.49" y1="65.43" x2="70.52" y2="72.32"/><path class="cls-4" d="M73.62,78.26l1.89-.54a6.55,6.55,0,0,0,1.22,2.43c.68.54.68.95.68.95v1.08h1.22l-.27-2.3.95,1.89.81-.27-.41-1.22a1.59,1.59,0,0,0,.41-1.76,8.17,8.17,0,0,1-.54-3.24c0-1.35.14-8.11.14-8.11"/><circle class="cls-4" cx="78.08" cy="69.35" r="0.81"/><circle class="cls-4" cx="64.98" cy="79.07" r="2.7"/><circle class="cls-4" cx="65.18" cy="79.14" r="1.42"/><path class="cls-4" d="M67.47,78a2.3,2.3,0,0,1,2-1.39,2.84,2.84,0,0,1,1.62.41l.1-.07,1.74-1.31.33,1.19L72,78s.54,1.89-.41,2.7-2.57,1.22-3.24.54a4.13,4.13,0,0,1-.88-1.18,5.73,5.73,0,0,0,.21-1A6.86,6.86,0,0,0,67.47,78Z"/><path class="cls-4" d="M73.21,76.78l-.26-1.08-3.51,2.7s-.54.54,0,.95.54.68,1.08.14l1.77-1.76"/><line class="cls-4" x1="61.6" y1="72.32" x2="61.6" y2="75.7"/><path class="cls-4" d="M62.28,75.43l-1.08.68s0,3.51.14,4.19a4.14,4.14,0,0,0,2.16,2.16c1.08.54,2.7,1.49,2.7,2.3v1.62"/><line class="cls-4" x1="72.95" y1="75.7" x2="62.28" y2="75.7"/><line class="cls-4" x1="79.57" y1="75.43" x2="84.7" y2="75.43"/><line class="cls-4" x1="62.28" y1="82.86" x2="62.28" y2="75.7"/><line class="cls-4" x1="61.47" y1="82.86" x2="62.28" y2="82.86"/><line class="cls-4" x1="61.6" y1="89.88" x2="61.47" y2="82.86"/><line class="cls-4" x1="92.81" y1="16.66" x2="97.13" y2="20.31"/><line class="cls-4" x1="93.35" y1="16.26" x2="97.4" y2="19.9"/><line class="cls-4" x1="97.94" y1="20.44" x2="154.81" y2="50.3"/><line class="cls-4" x1="128.06" y1="27.6" x2="124.69" y2="34.49"/><line class="cls-4" x1="101.59" y1="16.12" x2="97.94" y2="20.44"/><line class="cls-4" x1="122.93" y1="24.63" x2="119.55" y2="31.39"/><line class="cls-4" x1="157.11" y1="42.06" x2="165.48" y2="31.66"/><line class="cls-4" x1="149" y1="72.59" x2="157.11" y2="42.06"/><line class="cls-4" x1="148.06" y1="73.67" x2="148.87" y2="72.86"/><line class="cls-4" x1="149.14" y1="73.67" x2="149" y2="72.59"/><line class="cls-4" x1="66.6" y1="87.72" x2="67.68" y2="87.45"/><line class="cls-4" x1="67.68" y1="105.28" x2="67.68" y2="87.45"/><line class="cls-4" x1="83.89" y1="87.45" x2="67.68" y2="87.45"/><line class="cls-4" x1="69.98" y1="86.37" x2="83.89" y2="86.37"/><line class="cls-4" x1="84.03" y1="87.85" x2="89.83" y2="87.85"/><line class="cls-4" x1="48.9" y1="96.37" x2="56.47" y2="96.37"/><rect class="cls-4" x="59.71" y="96.23" width="1.49" height="1.49"/><line class="cls-4" x1="58.22" y1="107.44" x2="113.2" y2="105.69"/><line class="cls-4" x1="80.51" y1="100.15" x2="80.51" y2="105.82"/><line class="cls-4" x1="93.35" y1="100.15" x2="93.48" y2="105.28"/><line class="cls-4" x1="102.94" y1="99.61" x2="102.94" y2="104.88"/><line class="cls-4" x1="104.15" y1="99.61" x2="104.15" y2="104.34"/><line class="cls-4" x1="104.83" y1="99.61" x2="105.1" y2="105.28"/><line class="cls-4" x1="107.4" y1="99.61" x2="107.4" y2="105.28"/><line class="cls-4" x1="109.56" y1="99.61" x2="109.69" y2="104.88"/><line class="cls-4" x1="111.99" y1="99.07" x2="112.12" y2="104.88"/><line class="cls-4" x1="62.28" y1="101.5" x2="62.41" y2="106.36"/><line class="cls-4" x1="57.28" y1="101.09" x2="57.41" y2="106.63"/><line class="cls-4" x1="52.01" y1="100.96" x2="60.11" y2="106.5"/><line class="cls-4" x1="49.98" y1="101.23" x2="57.01" y2="106.63"/><line class="cls-4" x1="47.28" y1="98.8" x2="47.42" y2="107.98"/><line class="cls-4" x1="44.31" y1="102.71" x2="46.88" y2="102.71"/><line class="cls-4" x1="44.31" y1="102.17" x2="46.88" y2="102.04"/><line class="cls-4" x1="45.25" y1="102.98" x2="45.25" y2="107.85"/><line class="cls-4" x1="45.93" y1="102.98" x2="45.93" y2="107.85"/><line class="cls-4" x1="45.93" y1="99.34" x2="45.93" y2="102.04"/><line class="cls-4" x1="44.98" y1="99.47" x2="44.98" y2="102.04"/><line class="cls-4" x1="48.09" y1="101.09" x2="48.36" y2="106.9"/><line class="cls-4" x1="53.49" y1="106.77" x2="48.36" y2="106.9"/><line class="cls-4" x1="53.63" y1="103.93" x2="53.77" y2="106.77"/><line class="cls-4" x1="53.77" y1="101.77" x2="57.01" y2="101.63"/><line class="cls-4" x1="57.68" y1="101.63" x2="62.28" y2="101.5"/><line class="cls-4" x1="62.82" y1="101.23" x2="66.73" y2="101.09"/><line class="cls-4" x1="66.87" y1="106.36" x2="66.73" y2="101.09"/><line class="cls-4" x1="66.19" y1="100.01" x2="94.16" y2="99.34"/><line class="cls-4" x1="67.68" y1="100.69" x2="94.43" y2="99.74"/><path class="cls-4" d="M45.25,95.36V92.31s0-.41.68-.41h1.35l.27-.81H48.9l.54.27.41,2.43-1.22.41.14.95L47.82,95V94.2h-.27l-.14-2"/><line class="cls-4" x1="94.43" y1="99.2" x2="112.93" y2="98.66"/><line class="cls-4" x1="94.56" y1="99.74" x2="112.66" y2="99.2"/><line class="cls-4" x1="112.93" y1="98.8" x2="113.07" y2="105.55"/><line class="cls-4" x1="67.14" y1="95.15" x2="67.14" y2="96.37"/><line class="cls-4" x1="66.46" y1="96.37" x2="67.14" y2="96.37"/><line class="cls-4" x1="61.74" y1="107.58" x2="64.03" y2="109.06"/><line class="cls-4" x1="64.03" y1="107.31" x2="64.03" y2="109.06"/><line class="cls-4" x1="65.65" y1="107.31" x2="65.65" y2="111.63"/><line class="cls-4" x1="65.11" y1="109.47" x2="64.03" y2="109.06"/><line class="cls-4" x1="47.55" y1="99.47" x2="49.17" y2="100.69"/><line class="cls-4" x1="51.87" y1="100.55" x2="47.82" y2="100.69"/><line class="cls-4" x1="52.01" y1="100.96" x2="48.09" y2="101.09"/><line class="cls-4" x1="52.68" y1="100.96" x2="67.68" y2="100.69"/><line class="cls-4" x1="84.97" y1="50.03" x2="81.19" y2="60.7"/><line class="cls-4" x1="74.97" y1="50.43" x2="77.68" y2="61.11"/><line class="cls-4" x1="116.85" y1="20.17" x2="119.15" y2="85.56"/><line class="cls-4" x1="120.23" y1="19.36" x2="123.2" y2="85.29"/><line class="cls-4" x1="115.37" y1="20.44" x2="118.07" y2="85.83"/><path class="cls-4" d="M121.72,20.58H120v.68h1.76l1.35-1.08V19l-2.57-.68-3.78.14-2.3,1.35-.81.68.27.68a10.39,10.39,0,0,1,2.84-1.76,27.28,27.28,0,0,1,3.51-.41l2.43.41,2.84,66.19"/><path class="cls-4" d="M114.42,31a10.24,10.24,0,0,1,2.3-1.22,12.54,12.54,0,0,1,3.24-.41,28.14,28.14,0,0,1,3,.27l.81.95s-.54,1.08-1.08,1.22-2.16.68-2.16.68h-.68v-.81s1.35-.14,1.62-.14a4.86,4.86,0,0,0,1.22-.68l.27-.41-2-.27L119,30l-1.8.41-1.85.94-.81.41Z"/><line class="cls-4" x1="119.82" y1="38.95" x2="114.96" y2="46.52"/><line class="cls-4" x1="120.77" y1="104.47" x2="119.82" y2="38.95"/><rect class="cls-4" x="116.18" y="85.96" width="9.32" height="0.81"/><rect class="cls-4" x="115.77" y="74.75" width="8.24" height="0.95"/><rect class="cls-4" x="115.37" y="63.94" width="8.11" height="0.68"/><rect class="cls-4" x="115.1" y="51.52" width="8.51" height="1.35"/><rect class="cls-4" x="115.1" y="41.25" width="7.97" height="1.08"/><line class="cls-4" x1="85.92" y1="87.31" x2="89.7" y2="87.18"/><rect class="cls-4" x="114.83" y="35.3" width="9.19" height="1.35"/><line class="cls-4" x1="119.15" y1="32.74" x2="119.42" y2="34.49"/><line class="cls-4" x1="116.18" y1="39.09" x2="117.39" y2="37.74"/><line class="cls-4" x1="117.93" y1="37.2" x2="118.34" y2="36.66"/><line class="cls-4" x1="119.28" y1="34.76" x2="119.15" y2="35.17"/><line class="cls-4" x1="162.38" y1="58" x2="166.84" y2="60.43"/><line class="cls-4" x1="162.51" y1="55.7" x2="168.73" y2="59.22"/><line class="cls-4" x1="166.84" y1="60.43" x2="168.73" y2="59.22"/><line class="cls-4" x1="167.24" y1="41.25" x2="168.32" y2="89.88"/><line class="cls-4" x1="165.62" y1="49.08" x2="165.62" y2="89.07"/><line class="cls-4" x1="167.78" y1="64.75" x2="167.24" y2="82.18"/><path class="cls-4" d="M167.24,82.32l-.41.27-.27,4.05L166,87l.27.68.14.68.27.81h-1.08v2.7h.54c.14,0,.14-.41.14-.41h1.62v.27h.54V90.42h.27l.14-1.08-1.35-.14V88l.41-.27-.14-1.35-.14-3.65Z"/><line class="cls-4" x1="167.24" y1="91.5" x2="167.24" y2="95.69"/><path class="cls-4" d="M177.64,106.09a39,39,0,0,0-4.19,0l-5.4-.27-.54-.68h1.35v-1.08h-1.08v-8l-.54-.41-.81.68v5.54l.41,1.76-1.22.68.81.95.41,2.43h-1.76l2.16,1.22-2.16.54.54,2.16-1.35.95-.54.41.27.81,1.35.54.27,1.08h-.81V116a13.59,13.59,0,0,0,2.43.54c.68,0,3.11.14,3.11.14l-.41-1.35-1.08-.14v-.41l1.22-.14.27-.41,2.84.27.68.68v-8l1.62-.27,1.22.41.27-.41v10.81a1.49,1.49,0,0,0,.95.41c.54,0,0-6.21,0-6.21v-5S179.4,106.23,177.64,106.09ZM173,111.23l.14,2H171.7l-1.08-.14-.68-.68-1.35-.27-.27-.27H169l.14-.81.95-.14-1.08-.54-.14-1.22-1.08-.27v-.27l.68-.27,1.08-.27-1.35-.81h-.41v-.41H173l.27,2.43Z"/><line class="cls-4" x1="123.2" y1="85.29" x2="124.01" y2="104.61"/><line class="cls-4" x1="124.01" y1="86.77" x2="124.55" y2="104.88"/><line class="cls-4" x1="118.34" y1="90.15" x2="122.93" y2="90.15"/><line class="cls-4" x1="118.41" y1="93.26" x2="123" y2="93.26"/><line class="cls-4" x1="118.54" y1="96.64" x2="123.13" y2="96.64"/><line class="cls-4" x1="118.68" y1="99.88" x2="123.27" y2="99.88"/><line class="cls-4" x1="118.81" y1="103.12" x2="123.4" y2="103.12"/><line class="cls-4" x1="118" y1="87.04" x2="122.59" y2="87.04"/><line class="cls-4" x1="117.73" y1="83.8" x2="122.32" y2="83.8"/><line class="cls-4" x1="117.73" y1="80.56" x2="122.32" y2="80.56"/><line class="cls-4" x1="117.33" y1="77.32" x2="121.92" y2="77.32"/><line class="cls-4" x1="117.19" y1="74.08" x2="121.78" y2="74.08"/><line class="cls-4" x1="117.05" y1="70.83" x2="121.65" y2="70.83"/><line class="cls-4" x1="117.19" y1="67.73" x2="121.78" y2="67.73"/><line class="cls-4" x1="116.78" y1="61.38" x2="120.16" y2="61.38"/><line class="cls-4" x1="116.78" y1="58" x2="120.16" y2="58"/><line class="cls-4" x1="116.78" y1="55.03" x2="120.16" y2="55.03"/><line class="cls-4" x1="116.72" y1="48.54" x2="120.3" y2="48.54"/><line class="cls-4" x1="116.24" y1="45.71" x2="120.03" y2="45.71"/><line class="cls-4" x1="82.13" y1="49.76" x2="79.7" y2="49.62"/></svg>