<?xml version="1.0" encoding="utf-8"?>
<!-- Generator: Adobe Illustrator 21.0.2, SVG Export Plug-In . SVG Version: 6.00 Build 0)  -->
<svg version="1.1" id="Capa_1" xmlns="http://www.w3.org/2000/svg" xmlns:xlink="http://www.w3.org/1999/xlink" x="0px" y="0px"
	 viewBox="0 0 437.6 437.6" style="enable-background:new 0 0 437.6 437.6;" xml:space="preserve">
<path d="M140,302.1l-37.5,17.5l46.9,100.8c1.7,3.6,6,5.2,9.7,3.5l24.3-11.4c1.8-0.8,3.1-2.3,3.7-4.1c0.7-1.8,0.6-3.8-0.2-5.6
	L140,302.1z"/>
<path d="M110.6,160.8l-95.2,44.5c-0.7,0.3-1,0.8-1.1,1.2s-0.2,1,0.1,1.7L65,316.8c0.3,0.7,0.8,1,1.2,1.1c0.4,0.1,1,0.2,1.7-0.1
	l95.3-44.5L110.6,160.8z"/>
<path d="M225.9,46.4L225.9,46.4c-13.2-2.6-29.6,16.8-41.5,31c-3.7,4.4-7.2,8.6-10.4,11.9l-53.2,55l0,0l63,135.3h0.1
	c15.4,3.9,98.2-6.4,113.5-9.9c16.8-3.8,32.5-8.9,33.1-19.6c1.2-19.8-76.4-176.8-93.8-196.4C233.2,49.5,229.5,47.1,225.9,46.4"/>
<path d="M305.7,92.5c-9.8-6.7-19.3-8.9-27.1-6.1c2.9,4.9,11,19.5,25.5,49.9c17.8,37.3,23.3,52.8,25,58.2c7-4.2,11.5-12.9,12.6-24.6
	c1.3-13.1-1.8-28.4-8.6-43.1C326.3,112.2,316.6,100,305.7,92.5"/>
<path d="M341.9,14.3c-3.1-1.1-6.5,0.5-7.7,3.6l-16.9,46.3c-1.1,3.1,0.5,6.5,3.6,7.7c0.7,0.2,1.4,0.4,2.1,0.4c2.4,0,4.7-1.5,5.6-3.9
	L345.5,22C346.6,18.9,345,15.4,341.9,14.3"/>
<path d="M420.1,182.2l-46.3-16.9c-3.1-1.1-6.5,0.5-7.7,3.6c-1.1,3.1,0.5,6.5,3.6,7.7l46.3,16.9c0.7,0.3,1.4,0.4,2.1,0.4
	c2.5,0,4.7-1.5,5.6-3.9C424.8,186.7,423.2,183.3,420.1,182.2"/>
<path d="M412.7,94.7c3-1.4,4.3-5,2.9-8s-5-4.3-8-2.9L363,104.7c-3,1.4-4.3,5-2.9,8c1,2.2,3.2,3.5,5.4,3.5c0.8,0,1.7-0.2,2.5-0.6
	L412.7,94.7z"/>
<polygon points="6.3,226.2 47,313.7 55,310 14.2,222.5 "/>
</svg>
