<?xml version="1.0" encoding="utf-8"?>
<!-- Generator: Adobe Illustrator 21.0.2, SVG Export Plug-In . SVG Version: 6.00 Build 0)  -->
<svg version="1.1" id="Capa_1" xmlns="http://www.w3.org/2000/svg" xmlns:xlink="http://www.w3.org/1999/xlink" x="0px" y="0px"
	 viewBox="0 0 512 512" style="enable-background:new 0 0 512 512;" xml:space="preserve">
<g>
	<g>
		<path d="M227.8,66.7v27.6c38.1,0,69,30.9,69,69h27.6C324.4,110,281.2,66.7,227.8,66.7z"/>
	</g>
</g>
<path d="M433.9,497.6l-14.8,8.8c-12.2,7.3-28,3.1-35.2-9.2L313,358.9c15.4-8.4,29.6-16.9,43.9-26.4l86,129.6
	C450,474.4,446.1,490.4,433.9,497.6 M129.3,232.5c-33.7-57.7-14.8-132,42.3-166S302.3,51.6,336,109.2c33.7,57.7,14.8,132-42.3,166
	C236.6,309.3,163,290.1,129.3,232.5 M304.4,342.2l0.2,0.5c14.7-8.1,28.5-16.2,42.4-25l-0.4-0.6c-6.2-9.3-4.2-21.2,3.6-29.2
	c51.4-52.6,63.6-135.2,24.7-201.8c-52.3-89.4-174.4-111.5-255-37.4C70.5,94.1,53.9,168.2,78.4,231
	c32.7,83.9,120.3,122.7,198.9,100.3C288,328.3,299.3,332.3,304.4,342.2"/>
</svg>
