<?xml version="1.0" encoding="utf-8"?>
<!-- Generator: Adobe Illustrator 21.0.2, SVG Export Plug-In . SVG Version: 6.00 Build 0)  -->
<svg version="1.1" id="Capa_1" xmlns="http://www.w3.org/2000/svg" xmlns:xlink="http://www.w3.org/1999/xlink" x="0px" y="0px"
	 viewBox="0 0 349.2 349.2" style="enable-background:new 0 0 349.2 349.2;" xml:space="preserve">
<style type="text/css">
	.st0{fill:#231F20;}
</style>
<path class="st0" d="M81.9,62.3v37.2c0,3,2.5,5.4,5.6,5.4h8.2c2.3,0.1,4.1,1.9,4,4.1c0,0.8-0.3,1.5-0.7,2.1l-27,39.2
	c-0.8,1.1-2,1.7-3.3,1.8c-1.4,0-2.6-0.7-3.3-1.8L38,111.2c-1.3-1.8-0.8-4.3,1.1-5.6c0.6-0.4,1.4-0.7,2.2-0.7h8.3
	c3.1,0,5.6-2.4,5.6-5.4V49.4c0-7.2,6-12.9,13.4-12.9H149c3.3,0,6,2.6,6,5.8v14.2c0,3.2-2.7,5.8-6,5.8H81.9z M269.9,287.4v-37.2
	c0-3-2.5-5.4-5.6-5.4h-8.2c-2.3-0.1-4.1-1.9-4-4.1c0-0.8,0.3-1.5,0.7-2.1l27.2-39.1c0.7-1.1,2-1.7,3.3-1.8c1.4,0,2.6,0.7,3.3,1.8
	l27.3,39.1c1.3,1.8,0.8,4.3-1.1,5.6c-0.7,0.4-1.4,0.7-2.2,0.7h-8.4c-3.1,0-5.6,2.4-5.6,5.4v50.1c0,7.1-6,12.9-13.4,12.9h-80.3
	c-3.3,0-6-2.6-6-5.8v-14.2c0-3.2,2.7-5.8,6-5.8h67L269.9,287.4L269.9,287.4z"/>
<path class="st0" d="M247.7,146.1c-23.1,0-41.9-18.2-41.9-40.6s18.8-40.6,41.9-40.6c23.2,0,41.9,18.2,41.9,40.6
	S270.9,146.1,247.7,146.1 M332.3,93.8h-12.8c-2.9,0-5.5-2-6.3-4.7c-1.6-6-4-11.6-7.2-16.8c-1.5-2.5-1.1-5.6,1-7.6l8.1-7.8
	c3.5-3.4,3.5-7.4,1-9.8l-7.9-7.6c-2.5-2.5-6.6-2.5-9.2,0l-9.1,8.8c-2.1,2-5.3,2.4-7.9,0.9c-5.4-3-11.2-5.4-17.3-6.9
	c-2.9-0.7-4.9-3.2-4.9-6.1V23.6c0-3.5-2.9-6.3-6.5-6.3h-11.2c-3.6,0-6.5,2.8-6.5,6.3V36c0,2.9-2,5.4-4.9,6.1
	c-6.2,1.5-12,3.9-17.3,6.9c-2.6,1.5-5.8,1.1-7.9-0.9l-8.1-7.8c-3.5-3.4-7.6-3.4-10.2-0.9l-7.9,7.6c-2.5,2.5-2.5,6.4,0,8.9l9.1,8.8
	c2.1,2,2.5,5.2,1,7.6c-3.2,5.2-5.6,10.8-7.2,16.8c-0.7,2.8-3.3,4.7-6.3,4.7h-12.8c-3.6,0-6.5,2.8-6.5,6.3v10.8
	c0,3.5,2.9,6.3,6.5,6.3h12.8c3,0,5.5,2,6.3,4.7c1.6,6,4,11.6,7.2,16.8c1.5,2.5,1.1,5.6-1,7.6l-9.1,8.8c-2.5,2.5-2.5,6.4,0,8.9
	l7.9,7.7c2.5,2.4,6.7,2.4,9.2,0l9.1-8.8c2.1-2,5.3-2.4,7.9-0.9c5.4,3.1,11.2,5.4,17.3,7c2.9,0.7,4.9,3.2,4.9,6.1v12.4
	c0,3.5,2.9,6.3,6.5,6.3h11.2c3.6,0,6.5-2.8,6.5-6.3v-12.4c0-2.9,2-5.4,4.9-6.1c6.1-1.5,12-3.9,17.3-7c2.6-1.4,5.8-1.1,7.9,0.9
	l8.1,7.8c3.5,3.4,7.6,3.4,10.1,1l7.9-7.7c2.5-2.4,2.5-6.4,0-8.9l-9.1-8.8c-2.1-2-2.5-5.2-1-7.6c3.2-5.2,5.6-10.8,7.2-16.8
	c0.7-2.8,3.3-4.7,6.3-4.7h12.8c3.6,0,6.5-2.8,6.5-6.3v-10.8C338.8,96.6,335.9,93.8,332.3,93.8"/>
<path class="st0" d="M104,285.4c-23.1,0-41.9-18.2-41.9-40.6s18.8-40.6,41.9-40.6c23.2,0,41.9,18.2,41.9,40.6S127.1,285.4,104,285.4
	 M188.5,233.1h-12.8c-2.9,0-5.5-2-6.3-4.7c-1.6-6-4-11.6-7.2-16.8c-1.5-2.5-1.1-5.6,1-7.6l8.1-7.8c3.5-3.4,3.5-7.4,1-9.8l-7.9-7.6
	c-2.5-2.5-6.6-2.5-9.2,0l-9.1,8.8c-2.1,2-5.3,2.4-7.9,0.9c-5.4-3-11.2-5.4-17.3-7c-2.9-0.7-4.9-3.2-4.9-6V163c0-3.5-2.9-6.3-6.5-6.3
	H98.4c-3.6,0-6.5,2.8-6.5,6.3v12.4c0,2.9-2,5.4-4.9,6.1c-6.2,1.5-12,3.9-17.3,7c-2.6,1.5-5.8,1.1-7.9-0.9l-8.1-7.8
	c-3.5-3.4-7.6-3.4-10.2-0.9l-7.9,7.6c-2.5,2.5-2.5,6.4,0,8.9l9.1,8.8c2.1,2,2.5,5.2,1,7.6c-3.2,5.2-5.6,10.8-7.2,16.8
	c-0.7,2.8-3.3,4.7-6.3,4.7H19.4c-3.6,0-6.5,2.8-6.5,6.3v10.8c0,3.5,2.9,6.3,6.5,6.3h12.8c3,0,5.5,2,6.3,4.7c1.6,6,4,11.6,7.2,16.8
	c1.5,2.5,1.1,5.6-1,7.6l-9.1,8.8c-2.5,2.5-2.5,6.4,0,8.9l7.9,7.7c2.5,2.4,6.7,2.4,9.2,0l9.1-8.8c2.1-2,5.3-2.4,7.9-0.9
	c5.4,3.1,11.2,5.4,17.3,7c2.9,0.7,4.9,3.2,4.9,6.1V327c0,3.5,2.9,6.3,6.5,6.3h11.2c3.6,0,6.5-2.8,6.5-6.3v-12.4c0-2.9,2-5.4,4.9-6.1
	c6.1-1.5,12-3.9,17.3-7c2.6-1.5,5.8-1.1,7.9,0.9l8.1,7.8c3.5,3.4,7.6,3.4,10.1,1l7.9-7.7c2.5-2.4,2.5-6.4,0-8.9l-9.1-8.8
	c-2.1-2-2.5-5.2-1-7.6c3.2-5.2,5.6-10.8,7.2-16.8c0.7-2.8,3.3-4.7,6.3-4.7h12.8c3.6,0,6.5-2.8,6.5-6.3v-10.8
	C195,236,192.1,233.1,188.5,233.1"/>
</svg>
