<?xml version="1.0" encoding="utf-8"?>
<!-- Generator: Adobe Illustrator 21.0.2, SVG Export Plug-In . SVG Version: 6.00 Build 0)  -->
<svg version="1.1" id="Capa_1" xmlns="http://www.w3.org/2000/svg" xmlns:xlink="http://www.w3.org/1999/xlink" x="0px" y="0px"
	 viewBox="0 0 484.2 484.2" style="enable-background:new 0 0 484.2 484.2;" xml:space="preserve">
<style type="text/css">
	.st0{fill:#231F20;}
</style>
<path class="st0" d="M474.8,282.1c-14.3-12.8-32-4.1-55,10.1c-17.9,11-45.6,34.6-62.2,44.1s-49.7,24.6-85.2,21.9
	c-22.2-2.9-47.4-13.3-72.5-12.3c38.5-9.4,55.3-4.1,72.3-4.1c41.1,0,81.5-16.2,81-39.5c-0.6-30.6-49-28-82.6-26.7
	c-11.2,0.4-34.7,2.8-50,0.7c-25.2-3.4-35-17.8-71.8-17c-18.9,0.3-42.2,10.1-66,15.1c-26.4,5.5-58.9,0-65.5,5.5
	C2.4,292.4,0.3,392.4,22,391.2c51.3-2.7,90.5-2.7,121.5,6c25,7,65.4,19.4,93.8,32.5c29.3,13.5,44.5,18.3,79-3.1
	c38.3-23.8,62.7-35.9,78.6-48.3c35.2-27.5,40.8-33,55.1-45.5C480,306.4,485.2,291.5,474.8,282.1 M368.1,310.2
	c13-8.6,26.2-18.9,42.1-28.4c10.8-6.4,21.9-12,32.5-14.7c-3.2-7.3-13-10.8-21-9.5c-8.9,1.5-31.4,14.6-55.1,29
	C369.3,293.2,370.1,300.9,368.1,310.2 M407.4,249.7c-4.4-4.2-11.3-6.1-17.3-5.4c-8.1,1-25.6,11-46.5,21.8c5.7,2.4,10.7,5.3,14.7,9
	C380.5,262.9,396.1,254.6,407.4,249.7 M279.3,242.5c-2,0-3.7-1.8-3.7-4v-19.6c-19-0.7-37-4.6-46.2-8.2c-2-0.8-3-3.1-2.2-5.2
	l6.5-17.9c0.7-1.9,2.6-3,4.7-2.3c9.7,3.8,24.9,8.3,42.5,8.3c22.9,0,33.3-10,33.3-17.2c0-8.8-10.9-15.7-38.7-24.6
	c-28.5-9.9-47.5-20.9-47.5-42.2c0-27,23.9-39.3,47.5-42.2V48c0-2.2,1.7-4,3.7-4h22.5c2.1,0,3.7,1.8,3.7,4v18c12.8,0.5,24.2,2,37,6.6
	c2,0.8,3.1,3.2,2.3,5.2L338.5,95c-0.7,1.9-2.7,3-4.5,2.3c-8.3-2.8-21.1-6.6-36-6.6c-19.2,0-31.5,9.1-31.5,15.4
	c0,10.3,28.4,18.9,37.8,22.2c35.8,11.8,49.1,24,49.1,45.1c0,30.1-23.8,43.8-47.8,44.1v20.9c0,2.2-1.7,4-3.7,4h-22.6V242.5z"/>
</svg>
