<?xml version="1.0" encoding="utf-8"?>
<!-- Generator: Adobe Illustrator 21.0.2, SVG Export Plug-In . SVG Version: 6.00 Build 0)  -->
<svg version="1.1" id="Layer_1" xmlns="http://www.w3.org/2000/svg" xmlns:xlink="http://www.w3.org/1999/xlink" x="0px" y="0px"
	 viewBox="0 0 512 512" style="enable-background:new 0 0 512 512;" xml:space="preserve">
<path d="M461.7,132.1L461.7,132.1h-35.5l-20.4,35.3L385.4,132h-35.5v0.2c-0.5,0-0.9-0.1-1.4-0.1H239.9c-16.3,0-29.4,13.2-29.4,29.5
	s13.2,29.5,29.4,29.5h108.6c0.5,0,0.9-0.1,1.4-0.2v152.8V371v96c0,16.2,13.2,29.4,29.5,29.4c11.7,0,21.7-6.9,26.5-16.7
	c4.7,9.9,14.8,16.7,26.4,16.7c16.3,0,29.5-13.2,29.5-29.4v-96v-27.5v-17.7c16.3,0,29.5-13.2,29.5-29.5V161.5
	C491.1,145.2,477.9,132.1,461.7,132.1"/>
<path d="M405.8,112.9c26.4,0,47.9-21.5,47.9-47.9s-21.5-48-47.9-48c-26.5,0-47.9,21.5-47.9,47.9S379.3,112.9,405.8,112.9"/>
<path d="M72.5,84.9h226.7V35H47.6c-13.8,0-24.9,11.2-24.9,24.9v303.5c0,13.8,11.2,24.9,24.9,24.9H152l-53,70.5
	c-4.5,5.9-3.3,14.3,2.7,18.7c2.4,1.8,5.2,2.7,8,2.7c4,0,8-1.8,10.7-5.3l60.8-80.7l60.7,80.7c2.6,3.5,6.6,5.3,10.7,5.3
	c2.8,0,5.6-0.9,8-2.7c5.9-4.4,7.1-12.8,2.7-18.7l-53.1-70.5h89.2v-49.9H72.5V84.9z"/>
</svg>
