<svg id="Layer_1" data-name="Layer 1" xmlns="http://www.w3.org/2000/svg" viewBox="0 0 964.46 493"><title>logo</title><path d="M137,201.41q-14.86,0-23.2,12.18t-8.33,33.6q0,44.51,33.85,44.5a69.65,69.65,0,0,0,19.83-2.84,199.3,199.3,0,0,0,19.3-6.86v35.23q-19.29,8.53-43.66,8.54-34.91,0-53.53-20.25T62.63,247q0-23.94,9-42.08A64.51,64.51,0,0,1,97.59,177q16.93-9.76,39.82-9.76a109.67,109.67,0,0,1,47.77,10.86l-12.76,32.8a144,144,0,0,0-17.08-6.75A60,60,0,0,0,137,201.41Z" style="fill:#f2f2f2"/><path d="M340.64,323.65H298.77V260.79H250.36v62.86H208.49V169.46h41.87v57.16h48.41V169.46h41.87Z" style="fill:#f2f2f2"/><path d="M430.37,306H420.31v17.69H395.93V306H359.5V287.84l38-55.56h22.81v55.25h10.06Zm-34.44-18.43V276.9c0-2,.08-4.7.22-8.09a50.57,50.57,0,0,1,.35-5.35h-.69a66.29,66.29,0,0,1-4.81,9l-10.13,15.07Z" style="fill:#f2f2f2"/><rect x="6" y="6" width="481" height="481" style="fill:none;stroke:#f2f2f2;stroke-miterlimit:10;stroke-width:12px"/><path d="M679.69,323.65H625.06L568.74,215h-1q2,25.62,2,39.13v69.5H532.88V169.46H587.3l56.11,107.15H644q-1.47-23.31-1.47-37.44V169.46h37.12Z" style="fill:#f2f2f2"/><path d="M774.93,233.37h66.55v83.11q-27.11,9.28-59.59,9.28-35.64,0-55.11-20.67t-19.45-59q0-37.33,21.3-58.11t59.7-20.78A132,132,0,0,1,815.8,170a116.47,116.47,0,0,1,22.52,7l-13.19,32.7a81.43,81.43,0,0,0-36.59-8.23q-18.25,0-28.22,11.87t-10,33.91q0,21.62,9,32.95t26,11.34a76.11,76.11,0,0,0,17.09-1.79V265.54H774.93Z" style="fill:#f2f2f2"/><path d="M964.46,323.65H872.91V169.46h91.55v33.43H914.57v24.26h46.2v33.43h-46.2v29.11h49.89Z" style="fill:#f2f2f2"/></svg>