<svg id="Layer_1" data-name="Layer 1" xmlns="http://www.w3.org/2000/svg" xmlns:xlink="http://www.w3.org/1999/xlink" viewBox="0 0 622.56 313.04"><defs><clipPath id="clip-path" transform="translate(0.23 6.39)"><rect width="644.72" height="338.7" style="fill:none"/></clipPath><clipPath id="clip-path-2" transform="translate(0.23 6.39)"><path d="M26,80.31l145.85,43.28L53.41,46.88A171.69,171.69,0,0,0,26,80.31" style="fill:none"/></clipPath><linearGradient id="linear-gradient" x1="-3.31" y1="568.76" x2="1.09" y2="568.76" gradientTransform="matrix(0, -81.9, -81.9, 0, 46682.35, 120.89)" gradientUnits="userSpaceOnUse"><stop offset="0" stop-color="#fff"/><stop offset="0.18" stop-color="#fff"/><stop offset="0.27" stop-color="#f4fcfe"/><stop offset="0.43" stop-color="#d6f3fd"/><stop offset="0.64" stop-color="#a6e4fa"/><stop offset="0.9" stop-color="#64d0f7"/><stop offset="0.99" stop-color="#49c8f5"/><stop offset="1" stop-color="#49c8f5"/></linearGradient><clipPath id="clip-path-3" transform="translate(0.23 6.39)"><path d="M4.26,208.78a169.88,169.88,0,0,0,12,34.94L148.36,196Z" style="fill:none"/></clipPath><linearGradient id="linear-gradient-2" x1="-3.31" y1="568.99" x2="1.1" y2="568.99" gradientTransform="matrix(0, -81.9, -81.9, 0, 46677.91, 120.27)" xlink:href="#linear-gradient"/><clipPath id="clip-path-4" transform="translate(0.23 6.39)"><path d="M.13,166c0,1.65-.13,3.27-.13,4.92a171.5,171.5,0,0,0,3.33,33.67l145-28.19L.15,166Z" style="fill:none"/></clipPath><linearGradient id="linear-gradient-3" x1="-3.31" y1="569.01" x2="1.08" y2="569.01" gradientTransform="matrix(0, -81.9, -81.9, 0, 46674.83, 119.96)" xlink:href="#linear-gradient"/><clipPath id="clip-path-5" transform="translate(0.23 6.39)"><path d="M54.78,45.57l131.65,64.92L90.81,19.94a171.48,171.48,0,0,0-36,25.63" style="fill:none"/></clipPath><linearGradient id="linear-gradient-4" x1="-3.31" y1="568.56" x2="1.09" y2="568.56" gradientTransform="matrix(0, -81.9, -81.9, 0, 46687.17, 119.75)" xlink:href="#linear-gradient"/><clipPath id="clip-path-6" transform="translate(0.23 6.39)"><path d="M7.63,120.3l152.75,19.12L24.87,82.11A170.21,170.21,0,0,0,7.63,120.3" style="fill:none"/></clipPath><linearGradient id="linear-gradient-5" x1="-3.3" y1="568.91" x2="1.1" y2="568.91" gradientTransform="matrix(0, -81.9, -81.9, 0, 46677.62, 120.09)" xlink:href="#linear-gradient"/><clipPath id="clip-path-7" transform="translate(0.23 6.39)"><path d="M137.24,3.34,222,94.66,181.49.36C178,.14,174.49,0,170.94,0a171.61,171.61,0,0,0-33.7,3.34" style="fill:none"/></clipPath><linearGradient id="linear-gradient-6" x1="-3.31" y1="568" x2="1.09" y2="568" gradientTransform="matrix(0, -81.9, -81.9, 0, 46700.56, 120.32)" xlink:href="#linear-gradient"/><clipPath id="clip-path-8" transform="translate(0.23 6.39)"><path d="M92.61,19,203.38,100.7,134.7,3.88A169.71,169.71,0,0,0,92.61,19" style="fill:none"/></clipPath><linearGradient id="linear-gradient-7" x1="-3.31" y1="568.3" x2="1.09" y2="568.3" gradientTransform="matrix(0, -81.9, -81.9, 0, 46693.34, 120.34)" xlink:href="#linear-gradient"/><clipPath id="clip-path-9" transform="translate(0.23 6.39)"><path d="M.21,162.61v0l152.22-5.37L6.91,122.84a170.38,170.38,0,0,0-6.7,39.77" style="fill:none"/></clipPath><linearGradient id="linear-gradient-8" x1="-3.3" y1="568.99" x2="1.09" y2="568.99" gradientTransform="matrix(0, -81.91, -81.91, 0, 46680.34, 120.9)" xlink:href="#linear-gradient"/><clipPath id="clip-path-10" transform="translate(0.23 6.39)"><path d="M161.42,145.51c-9.27,25.75-10.4,88.57,68.83,102.64-9.68-9.9-13.28-22.49-12.35-29.5,3.84-29.07,31.31-39.23,37.85-100.39,37.3,31.82,50.44,70.22,49.92,96.55-.12,6.22-3,14.63-5.82,20.58,48.62-31.67,39.69-105.1,30.32-126.85C299,36.09,239.77,4.34,178.32.29c69,48.65,1.58,93.9-16.9,145.22" style="fill:none"/></clipPath><radialGradient id="radial-gradient" cx="-5.45" cy="565.98" r="4.4" gradientTransform="matrix(46.41, 0, 0, -46.41, 383.25, 26385.71)" gradientUnits="userSpaceOnUse"><stop offset="0" stop-color="#97daf8"/><stop offset="0.1" stop-color="#97daf8"/><stop offset="0.5" stop-color="#00bdf2"/><stop offset="0.81" stop-color="#006ab6"/><stop offset="1" stop-color="#006ab6"/></radialGradient><clipPath id="clip-path-11" transform="translate(0.23 6.39)"><path d="M191.71,191.76c-1.05,11.59,10.84,43.09,39.76,57.58-11-9.89-10.24-25.28-9.28-32.59C226,187.68,251,184,257.54,122.84c34.24,31.86,47,67.58,46.46,93.91a43.88,43.88,0,0,1-5,20.3c20.14-23.38,24.86-62,20.28-80.93-12.07-50.05-42-74.5-77.19-101.37,6.67,45.16-47.1,100.5-50.4,137" style="fill:none"/></clipPath><linearGradient id="linear-gradient-9" x1="-9.94" y1="564.37" x2="-5.54" y2="564.37" gradientTransform="matrix(0, -30.7, -30.7, 0, 17582.56, -51.36)" gradientUnits="userSpaceOnUse"><stop offset="0" stop-color="#fff"/><stop offset="0.1" stop-color="#fef0dc"/><stop offset="0.26" stop-color="#fdddac"/><stop offset="0.42" stop-color="#fccd85"/><stop offset="0.57" stop-color="#fcc067"/><stop offset="0.72" stop-color="#fbb751"/><stop offset="0.87" stop-color="#fbb244"/><stop offset="1" stop-color="#fbb040"/></linearGradient></defs><title>gmilogo</title><g style="clip-path:url(#clip-path)"><path d="M397.83,229.15a59.93,59.93,0,0,1-17.19,2.8c-9.74,0-16.38-2.43-20.88-6.71-4.65-4.43-7.08-10.85-7.08-17.93.08-17.34,13-26.12,29.07-26.12,6.71,0,11.8,1.18,14.38,2.44l-2.65,10.7c-2.8-1.25-6.2-2.14-11.8-2.14-8.19,0-15,4.27-15,14.39,0,9.3,6,14.68,14.09,14.68a13.58,13.58,0,0,0,4.21-.45v-8.56h-6.65V201.93h19.48Z" transform="translate(0.23 6.39)" style="fill:#007ac2"/><rect x="406.18" y="185.37" width="13.35" height="52.46" style="fill:#007ac2"/><path d="M445,232.25c-10.85,0-19.26-6.86-19.26-18.67,0-11.58,7.6-19.26,20-19.26,11.37,0,18.89,7.68,18.89,18.59,0,13.21-9.44,19.33-19.55,19.33Zm.36-9.37c3.62,0,5.54-3.76,5.54-9.6,0-5-1.62-9.59-5.54-9.59-4.42,0-5.9,4.79-5.9,9.59,0,5.46,1.77,9.6,5.83,9.6Z" transform="translate(0.23 6.39)" style="fill:#007ac2"/><path d="M471,179h13.35v19.85h.15c2.06-2.73,5.68-4.51,10.33-4.51,8.56,0,14.9,7.09,14.83,18.23,0,13.13-8.26,19.7-16.67,19.7-3.84,0-7.9-1.4-10.33-5.46h-.15l-.52,4.65H470.67c.15-2.36.29-7,.29-11.44Zm13.35,36.67a13.22,13.22,0,0,0,.15,1.85,5.45,5.45,0,0,0,5.24,4.36c3.91,0,6.42-3,6.42-8.71,0-4.94-2-8.63-6.42-8.63a5.36,5.36,0,0,0-5.24,4.5,14.34,14.34,0,0,0-.15,1.77Z" transform="translate(0.23 6.39)" style="fill:#007ac2"/><path d="M548.28,222.58a52.35,52.35,0,0,0,.6,8.85h-12l-.66-3.17h-.3c-2.51,2.88-6.12,4-10,4-7.45,0-12-5.39-12-11.43,0-9.74,8.78-14.1,21.1-14.1v-.29c0-1.48-1.11-3.1-6-3.1A23,23,0,0,0,518.7,206l-2.28-8.33a32.21,32.21,0,0,1,15-3.32c12.46,0,16.82,6.94,16.82,16Zm-12.91-7.75c-5.46,0-8.48,1.47-8.48,4.72,0,2.29,1.47,3.47,3.76,3.47a5,5,0,0,0,4.57-3.32,7.86,7.86,0,0,0,.15-1.92Z" transform="translate(0.23 6.39)" style="fill:#007ac2"/><rect x="556.63" y="185.37" width="13.36" height="52.46" style="fill:#007ac2"/><path d="M57,288c-.22-5.61-.29-12.25-.29-20h-.22c-1.55,6.57-3.62,14-5.24,19.48l-4.94,17.33H35.95l-4.13-17.33c-1.32-5.32-2.8-12.7-4-19.48h-.15c-.29,7-.52,14.38-.73,20l-.81,17.86H13.89L17,256.11H34.91l3.25,13.43c1.4,5.46,2.88,12.1,3.91,18.15h.22c1.4-6.06,3-13.06,4.5-18.3l3.77-13.28H68l2.51,49.73H57.64Z" transform="translate(0.23 6.39)" style="fill:#007ac2"/><path d="M87.6,292.34c.44,2.88,4.65,4.5,9.37,4.5a32.39,32.39,0,0,0,9.89-1.4l1.7,8.85A37.48,37.48,0,0,1,95,306.58c-12.77,0-20-7-20-18.53,0-8.4,5.46-19.33,18.82-19.33,11.73,0,16.74,8.63,16.74,18.6a23.77,23.77,0,0,1-.51,5Zm10.7-9c0-2.06-1-5.9-5.17-5.9-3.91,0-5.46,3.63-5.68,5.9Z" transform="translate(0.23 6.39)" style="fill:#007ac2"/><path d="M131.13,259.21v10.33h7.53v9.74h-7.53v10.4c0,4.28,1,6,4.21,6a10.18,10.18,0,0,0,3.17-.29v10.1a25,25,0,0,1-7.89,1,12.9,12.9,0,0,1-9.07-3.32c-2.21-2.22-3.39-5.76-3.39-11.28V279.28h-4.5v-9.74h4.5v-6.79Z" transform="translate(0.23 6.39)" style="fill:#007ac2"/><path d="M144.78,253.38h13.35v20h.15a12.57,12.57,0,0,1,9.81-4.64c8.19,0,12.76,5.83,12.76,16.08v21H167.51V286.28c0-4.27-1.4-6.86-4.72-6.86a4.53,4.53,0,0,0-4.36,2.87,7.22,7.22,0,0,0-.3,2.14v21.4H144.78Z" transform="translate(0.23 6.39)" style="fill:#007ac2"/><path d="M221.3,297a52.76,52.76,0,0,0,.6,8.86h-12l-.66-3.17h-.29c-2.51,2.87-6.13,4-10,4-7.45,0-12-5.38-12-11.43,0-9.75,8.78-14.1,21.1-14.1v-.3c0-1.48-1.11-3.09-6-3.09a23.09,23.09,0,0,0-10.26,2.65L189.43,272a32.26,32.26,0,0,1,15-3.32c12.46,0,16.82,6.93,16.82,16Zm-12.91-7.75c-5.46,0-8.48,1.47-8.48,4.72,0,2.29,1.48,3.47,3.76,3.47a5,5,0,0,0,4.58-3.32,8.08,8.08,0,0,0,.15-1.92Z" transform="translate(0.23 6.39)" style="fill:#007ac2"/><path d="M229.42,281.94c0-4.86-.15-9-.29-12.4h11.51l.59,4.65h.22a13.19,13.19,0,0,1,10.92-5.46c8.48,0,13.13,5.76,13.13,15.72v21.4H252.14V286.07c0-4.21-1.4-6.64-4.64-6.64a4.59,4.59,0,0,0-4.35,3.17,7.27,7.27,0,0,0-.37,2.66v20.59H229.42Z" transform="translate(0.23 6.39)" style="fill:#007ac2"/><path d="M284.46,292.34c.44,2.88,4.65,4.5,9.37,4.5a32.41,32.41,0,0,0,9.89-1.4l1.69,8.85a37.43,37.43,0,0,1-13.57,2.29c-12.76,0-20-7-20-18.53,0-8.4,5.46-19.33,18.81-19.33,11.73,0,16.74,8.63,16.74,18.6a23.72,23.72,0,0,1-.51,5Zm10.7-9c0-2.06-1-5.9-5.16-5.9-3.92,0-5.47,3.63-5.69,5.9Z" transform="translate(0.23 6.39)" style="fill:#007ac2"/><rect x="325.06" y="262.51" width="13.35" height="49.73" style="fill:#007ac2"/><path d="M346.07,281.94c0-4.86-.15-9-.29-12.4h11.5l.59,4.65h.22A13.19,13.19,0,0,1,369,268.73c8.48,0,13.13,5.76,13.13,15.72v21.4H368.8V286.07c0-4.21-1.4-6.64-4.65-6.64a4.59,4.59,0,0,0-4.36,3.17,7.36,7.36,0,0,0-.37,2.66v20.59H346.07Z" transform="translate(0.23 6.39)" style="fill:#007ac2"/><path d="M395.07,265.78c-4.14,0-6.71-2.8-6.71-6.27,0-3.68,2.66-6.34,6.79-6.34s6.71,2.66,6.79,6.34c0,3.47-2.65,6.27-6.79,6.27Zm-6.27,3.76h13.35v36.31H388.8Z" transform="translate(0.23 6.39)" style="fill:#007ac2"/><path d="M424.95,259.21v10.33h7.53v9.74h-7.53v10.4c0,4.28,1,6,4.21,6a10.2,10.2,0,0,0,3.17-.29v10.1a25,25,0,0,1-7.89,1,12.93,12.93,0,0,1-9.08-3.32C413.14,301,412,297.5,412,292V279.28h-4.5v-9.74H412v-6.79Z" transform="translate(0.23 6.39)" style="fill:#007ac2"/><path d="M444.87,265.78c-4.13,0-6.71-2.8-6.71-6.27,0-3.68,2.66-6.34,6.79-6.34s6.72,2.66,6.79,6.34c0,3.47-2.65,6.27-6.79,6.27Zm-6.27,3.76h13.35v36.31H438.6Z" transform="translate(0.23 6.39)" style="fill:#007ac2"/><path d="M492.46,297a53.83,53.83,0,0,0,.59,8.86H481l-.66-3.17h-.3c-2.51,2.87-6.12,4-10,4-7.45,0-12-5.38-12-11.43,0-9.75,8.78-14.1,21.1-14.1v-.3c0-1.48-1.1-3.09-6-3.09a23.06,23.06,0,0,0-10.26,2.65L460.59,272a32.23,32.23,0,0,1,15-3.32c12.47,0,16.82,6.93,16.82,16Zm-12.91-7.75c-5.45,0-8.49,1.47-8.49,4.72,0,2.29,1.49,3.47,3.77,3.47a5,5,0,0,0,4.58-3.32,8.27,8.27,0,0,0,.14-1.92Z" transform="translate(0.23 6.39)" style="fill:#007ac2"/><path d="M514.52,259.21v10.33H522v9.74h-7.53v10.4c0,4.28,1,6,4.21,6a10.16,10.16,0,0,0,3.17-.29v10.1a24.87,24.87,0,0,1-7.89,1,12.9,12.9,0,0,1-9.08-3.32c-2.21-2.22-3.39-5.76-3.39-11.28V279.28H497v-9.74h4.49v-6.79Z" transform="translate(0.23 6.39)" style="fill:#007ac2"/><path d="M534.45,265.78c-4.13,0-6.71-2.8-6.71-6.27,0-3.68,2.65-6.34,6.78-6.34s6.71,2.66,6.79,6.34c0,3.47-2.66,6.27-6.79,6.27Zm-6.28,3.76h13.36v36.31H528.17Z" transform="translate(0.23 6.39)" style="fill:#007ac2"/><path d="M560.72,269.54l3.9,15.42c.74,2.87,1.25,5.68,1.7,8.55h.22c.45-2.95.89-5.53,1.62-8.55l3.62-15.42h13.94l-13.2,36.3H559.17l-12.91-36.3Z" transform="translate(0.23 6.39)" style="fill:#007ac2"/><path d="M599.38,292.34c.44,2.88,4.64,4.5,9.36,4.5a32.38,32.38,0,0,0,9.89-1.4l1.7,8.85a37.46,37.46,0,0,1-13.57,2.29c-12.77,0-20-7-20-18.53,0-8.4,5.46-19.33,18.81-19.33,11.73,0,16.74,8.63,16.74,18.6a23.52,23.52,0,0,1-.51,5Zm10.7-9c0-2.06-1-5.9-5.16-5.9-3.91,0-5.47,3.63-5.69,5.9Z" transform="translate(0.23 6.39)" style="fill:#007ac2"/></g><g style="clip-path:url(#clip-path-2)"><rect x="25.8" y="46.44" width="146.31" height="77.58" transform="translate(-0.28 6.99) rotate(-0.35)" style="fill:url(#linear-gradient)"/></g><g style="clip-path:url(#clip-path-3)"><rect x="4.12" y="195.57" width="144.39" height="48.58" transform="translate(-1.09 6.86) rotate(-0.34)" style="fill:url(#linear-gradient-2)"/></g><g style="clip-path:url(#clip-path-4)"><rect x="-0.11" y="165.57" width="148.59" height="39.48" transform="translate(-0.88 6.85) rotate(-0.35)" style="fill:url(#linear-gradient-3)"/></g><g style="clip-path:url(#clip-path-5)"><rect x="54.51" y="19.55" width="132.19" height="91.34" transform="translate(-0.16 7.12) rotate(-0.34)" style="fill:url(#linear-gradient-4)"/></g><g style="clip-path:url(#clip-path-6)"><rect x="7.46" y="81.66" width="153.1" height="58.22" transform="translate(-0.43 6.9) rotate(-0.34)" style="fill:url(#linear-gradient-5)"/></g><g style="clip-path:url(#clip-path-7)"><rect x="136.96" y="-0.25" width="85.31" height="95.17" transform="translate(-0.05 7.48) rotate(-0.35)" style="fill:url(#linear-gradient-6)"/></g><g style="clip-path:url(#clip-path-8)"><rect x="92.31" y="3.55" width="111.35" height="97.48" transform="translate(-0.08 7.29) rotate(-0.35)" style="fill:url(#linear-gradient-7)"/></g><g style="clip-path:url(#clip-path-9)"><rect x="0.09" y="122.38" width="152.46" height="40.73" transform="translate(-0.63 6.86) rotate(-0.35)" style="fill:url(#linear-gradient-8)"/></g><g style="clip-path:url(#clip-path-10)"><rect x="122.55" y="21.35" width="254.41" height="205.73" transform="translate(117.38 376.02) rotate(-88.06)" style="fill:url(#radial-gradient)"/></g><g style="clip-path:url(#clip-path-11)"><rect x="190.89" y="61.15" width="133.22" height="194.59" style="fill:url(#linear-gradient-9)"/></g></svg>