<svg id="Layer_1" data-name="Layer 1" xmlns="http://www.w3.org/2000/svg" xmlns:xlink="http://www.w3.org/1999/xlink" viewBox="0 0 885.41 650.28"><defs><linearGradient id="linear-gradient" x1="225.58" y1="497.24" x2="602.63" y2="497.24" gradientUnits="userSpaceOnUse"><stop offset="0" stop-color="#fff"/><stop offset="1" stop-color="#fff" stop-opacity="0"/></linearGradient><linearGradient id="linear-gradient-2" x1="169.37" y1="845.37" x2="541.96" y2="845.37" xlink:href="#linear-gradient"/><linearGradient id="linear-gradient-3" x1="158.35" y1="756.02" x2="541.9" y2="756.02" xlink:href="#linear-gradient"/><linearGradient id="linear-gradient-4" x1="300" y1="445.49" x2="640.41" y2="445.49" xlink:href="#linear-gradient"/><linearGradient id="linear-gradient-5" x1="178.08" y1="563.28" x2="573.06" y2="563.28" xlink:href="#linear-gradient"/><linearGradient id="linear-gradient-6" x1="513.22" y1="399.24" x2="732.38" y2="399.24" xlink:href="#linear-gradient"/><linearGradient id="linear-gradient-7" x1="397.82" y1="412.06" x2="684.22" y2="412.06" xlink:href="#linear-gradient"/><linearGradient id="linear-gradient-8" x1="158.92" y1="645.92" x2="552.5" y2="645.92" xlink:href="#linear-gradient"/><clipPath id="clip-path" transform="translate(-157.74 -275.52)"><path d="M225.58,484.53l377,111.86h.09L296.46,398.08a443.88,443.88,0,0,0-70.88,86.45" style="fill:url(#linear-gradient)"/></clipPath><linearGradient id="linear-gradient-10" x1="224.37" y1="497.24" x2="603.84" y2="497.24" gradientTransform="translate(3.05 -2.52) rotate(0.35)" xlink:href="#linear-gradient"/><clipPath id="clip-path-2" transform="translate(-157.74 -275.52)"><path d="M169.37,816.72a438.54,438.54,0,0,0,31,90.35L542,783.68h0Z" style="fill:url(#linear-gradient-2)"/></clipPath><linearGradient id="linear-gradient-12" x1="168.64" y1="845.37" x2="542.69" y2="845.37" gradientTransform="translate(5.02 -2.1) rotate(0.34)" xlink:href="#linear-gradient"/><clipPath id="clip-path-3" transform="translate(-157.74 -275.52)"><path d="M158.69,706.17c0,4.24-.34,8.41-.34,12.65A443.54,443.54,0,0,0,167,805.89L541.9,733,159.61,706.16Z" style="fill:url(#linear-gradient-3)"/></clipPath><linearGradient id="linear-gradient-14" x1="157.74" y1="756.02" x2="542.51" y2="756.02" gradientTransform="translate(4.62 -2.12) rotate(0.35)" xlink:href="#linear-gradient"/><clipPath id="clip-path-4" transform="translate(-157.74 -275.52)"><path d="M300.08,394.7H300L640.41,562.56,393.17,328.42a443.37,443.37,0,0,0-93.09,66.28" style="fill:url(#linear-gradient-4)"/></clipPath><linearGradient id="linear-gradient-16" x1="298.61" y1="445.49" x2="641.8" y2="445.49" gradientTransform="translate(2.65 -2.78) rotate(0.34)" xlink:href="#linear-gradient"/><clipPath id="clip-path-5" transform="translate(-157.74 -275.52)"><path d="M178.08,587.93l395,49.44L222.66,489.18a440.15,440.15,0,0,0-44.58,98.75" style="fill:url(#linear-gradient-5)"/></clipPath><linearGradient id="linear-gradient-18" x1="177.2" y1="563.28" x2="573.94" y2="563.28" gradientTransform="translate(3.35 -2.22) rotate(0.34)" xlink:href="#linear-gradient"/><clipPath id="clip-path-6" transform="translate(-157.74 -275.52)"><path d="M513.22,285.5,732.38,521.62h0L627.64,277.79c-9-.56-18.1-.93-27.28-.93a443.44,443.44,0,0,0-87.14,8.64" style="fill:url(#linear-gradient-6)"/></clipPath><linearGradient id="linear-gradient-20" x1="511.73" y1="399.24" x2="733.88" y2="399.24" gradientTransform="translate(2.45 -3.8) rotate(0.35)" xlink:href="#linear-gradient"/><clipPath id="clip-path-7" transform="translate(-157.74 -275.52)"><path d="M397.82,326,684.2,537.22h0L506.65,286.9A438.86,438.86,0,0,0,397.82,326" style="fill:url(#linear-gradient-7)"/></clipPath><linearGradient id="linear-gradient-22" x1="396.29" y1="412.06" x2="685.75" y2="412.06" gradientTransform="translate(2.53 -3.3) rotate(0.35)" xlink:href="#linear-gradient"/><clipPath id="clip-path-8" transform="translate(-157.74 -275.52)"><path d="M158.92,696.85v.48L552.5,683.45l-376.28-89a440.4,440.4,0,0,0-17.3,102.35" style="fill:url(#linear-gradient-8)"/></clipPath><linearGradient id="linear-gradient-24" x1="158.29" y1="645.92" x2="553.13" y2="645.92" gradientTransform="translate(3.95 -2.16) rotate(0.35)" xlink:href="#linear-gradient"/></defs><title>gmitiny</title><path d="M225.58,484.53l377,111.86h.09L296.46,398.08a443.88,443.88,0,0,0-70.88,86.45" transform="translate(-157.74 -275.52)" style="fill:url(#linear-gradient)"/><g style="clip-path:url(#clip-path)"><rect x="224.98" y="396.93" width="378.26" height="200.6" transform="translate(-160.76 -272.98) rotate(-0.35)" style="fill:url(#linear-gradient-10)"/></g><path d="M169.37,816.72a438.54,438.54,0,0,0,31,90.35L542,783.68h0Z" transform="translate(-157.74 -275.52)" style="fill:url(#linear-gradient-2)"/><g style="clip-path:url(#clip-path-2)"><rect x="169" y="782.57" width="373.32" height="125.6" transform="translate(-162.75 -273.4) rotate(-0.34)" style="fill:url(#linear-gradient-12)"/></g><path d="M158.69,706.17c0,4.24-.34,8.41-.34,12.65A443.54,443.54,0,0,0,167,805.89L541.9,733,159.61,706.16Z" transform="translate(-157.74 -275.52)" style="fill:url(#linear-gradient-3)"/><g style="clip-path:url(#clip-path-3)"><rect x="158.04" y="704.99" width="384.16" height="102.06" transform="translate(-162.35 -273.37) rotate(-0.35)" style="fill:url(#linear-gradient-14)"/></g><path d="M300.08,394.7H300L640.41,562.56,393.17,328.42a443.37,443.37,0,0,0-93.09,66.28" transform="translate(-157.74 -275.52)" style="fill:url(#linear-gradient-4)"/><g style="clip-path:url(#clip-path-4)"><rect x="299.31" y="327.42" width="341.8" height="236.16" transform="translate(-160.37 -272.72) rotate(-0.34)" style="fill:url(#linear-gradient-16)"/></g><path d="M178.08,587.93l395,49.44L222.66,489.18a440.15,440.15,0,0,0-44.58,98.75" transform="translate(-157.74 -275.52)" style="fill:url(#linear-gradient-5)"/><g style="clip-path:url(#clip-path-5)"><rect x="177.64" y="488.01" width="395.85" height="150.53" transform="translate(-161.07 -273.28) rotate(-0.34)" style="fill:url(#linear-gradient-18)"/></g><path d="M513.22,285.5,732.38,521.62h0L627.64,277.79c-9-.56-18.1-.93-27.28-.93a443.44,443.44,0,0,0-87.14,8.64" transform="translate(-157.74 -275.52)" style="fill:url(#linear-gradient-6)"/><g style="clip-path:url(#clip-path-6)"><rect x="512.48" y="276.19" width="220.65" height="246.09" transform="translate(-160.16 -271.71) rotate(-0.35)" style="fill:url(#linear-gradient-20)"/></g><path d="M397.82,326,684.2,537.22h0L506.65,286.9A438.86,438.86,0,0,0,397.82,326" transform="translate(-157.74 -275.52)" style="fill:url(#linear-gradient-7)"/><g style="clip-path:url(#clip-path-7)"><rect x="397.06" y="286.02" width="287.93" height="252.07" transform="translate(-160.24 -272.21) rotate(-0.35)" style="fill:url(#linear-gradient-22)"/></g><path d="M158.92,696.85v.48L552.5,683.45l-376.28-89a440.4,440.4,0,0,0-17.3,102.35" transform="translate(-157.74 -275.52)" style="fill:url(#linear-gradient-8)"/><g style="clip-path:url(#clip-path-8)"><rect x="158.61" y="593.3" width="394.2" height="105.24" transform="translate(-161.67 -273.34) rotate(-0.35)" style="fill:url(#linear-gradient-24)"/></g><path d="M762.83,913.48c-22.8-25.23-31.3-56-29-73.45,10-75.83,81.68-102.33,98.73-261.87,97.3,83,131.58,183.17,130.22,251.85-.31,16.22-7.82,38.16-15.18,53.68,1-.66,2-1.34,3-2,48.14-61.42,59.24-157,47.7-204.75C966.81,546.38,888.75,482.6,797,412.52h0c17.38,117.8-122.86,262.13-131.46,357.34l0,0c-2.65,29.23,26.27,107,96.39,146.3,1.37.26,2.71.53,4.09.78Q764.35,915.26,762.83,913.48Z" transform="translate(-157.74 -275.52)" style="fill:none;stroke:#fff;stroke-miterlimit:10;stroke-width:10px"/><path d="M764,923.14s-203.63-36-191.4-204.73S706.5,534.57,706.5,393.21c0-47.75-43.94-91.64-78.14-113.22,0,0,252.69-2.25,378.65,254.58,72.08,147,22.47,290.21-64.6,360.42,0,0,57.25-64.58,55.24-188.17-1.87-115.15-150.48-255.73-203-283.74,0,0,4.56,64.68-24.46,126.47s-83.32,136.68-98.3,196.59,17.79,114.21,32.77,130.13S764,923.14,764,923.14Z" transform="translate(-157.74 -275.52)" style="fill:#fff;stroke:#fff;stroke-miterlimit:10;stroke-width:3px"/></svg>