<svg xmlns="http://www.w3.org/2000/svg" xmlns:xlink="http://www.w3.org/1999/xlink" viewBox="0 0 438.25 310.26"><defs><style>.cls-1{fill:none;}.cls-2{clip-path:url(#clip-path);}.cls-3{fill:#007ac2;}.cls-4{clip-path:url(#clip-path-2);}.cls-5{fill:url(#linear-gradient);}.cls-6{clip-path:url(#clip-path-3);}.cls-7{fill:url(#linear-gradient-2);}.cls-8{clip-path:url(#clip-path-4);}.cls-9{fill:url(#linear-gradient-3);}.cls-10{clip-path:url(#clip-path-5);}.cls-11{fill:url(#linear-gradient-4);}.cls-12{clip-path:url(#clip-path-6);}.cls-13{fill:url(#linear-gradient-5);}.cls-14{clip-path:url(#clip-path-7);}.cls-15{fill:url(#linear-gradient-6);}.cls-16{clip-path:url(#clip-path-8);}.cls-17{fill:url(#linear-gradient-7);}.cls-18{clip-path:url(#clip-path-9);}.cls-19{fill:url(#linear-gradient-8);}.cls-20{clip-path:url(#clip-path-10);}.cls-21{fill:url(#radial-gradient);}.cls-22{clip-path:url(#clip-path-11);}.cls-23{fill:url(#linear-gradient-9);}.cls-24{fill:#16c1f3;}</style><clipPath id="clip-path"><rect class="cls-1" x="28.99" y="47.78" width="424" height="222.75"/></clipPath><clipPath id="clip-path-2"><path class="cls-1" d="M46.09,100.6,142,129.06,64.11,78.61a112.61,112.61,0,0,0-18,22"/></clipPath><linearGradient id="linear-gradient" x1="-85.92" y1="-2.73" x2="-82.97" y2="-2.73" gradientTransform="matrix(0, -80.51, 80.51, 0, 314.24, -6611.65)" gradientUnits="userSpaceOnUse"><stop offset="0" stop-color="#fff"/><stop offset="0.18" stop-color="#fff"/><stop offset="0.27" stop-color="#f4fcfe"/><stop offset="0.43" stop-color="#d6f3fd"/><stop offset="0.64" stop-color="#a6e4fa"/><stop offset="0.9" stop-color="#64d0f7"/><stop offset="0.99" stop-color="#49c8f5"/><stop offset="1" stop-color="#49c8f5"/></linearGradient><clipPath id="clip-path-3"><path class="cls-1" d="M31.79,185.09a111.85,111.85,0,0,0,7.89,23l86.88-31.39Z"/></clipPath><linearGradient id="linear-gradient-2" x1="-85.93" y1="-2.86" x2="-82.98" y2="-2.86" gradientTransform="translate(309.22 -6612.86) rotate(-90) scale(80.51)" xlink:href="#linear-gradient"/><clipPath id="clip-path-4"><path class="cls-1" d="M29.07,157c0,1.09-.08,2.15-.08,3.24a112.77,112.77,0,0,0,2.19,22.14l95.36-18.54L29.09,157Z"/></clipPath><linearGradient id="linear-gradient-3" x1="-85.92" y1="-2.84" x2="-82.98" y2="-2.84" gradientTransform="matrix(0, -80.51, 80.51, 0, 306.65, -6612.6)" xlink:href="#linear-gradient"/><clipPath id="clip-path-5"><path class="cls-1" d="M65,77.75l86.58,42.7L88.71,60.9A112.71,112.71,0,0,0,65,77.75"/></clipPath><linearGradient id="linear-gradient-4" x1="-85.93" y1="-2.61" x2="-82.98" y2="-2.61" gradientTransform="translate(318.64 -6613.28) rotate(-90) scale(80.51)" xlink:href="#linear-gradient"/><clipPath id="clip-path-6"><path class="cls-1" d="M34,126.9l100.46,12.57L45.34,101.78A112.45,112.45,0,0,0,34,126.9"/></clipPath><linearGradient id="linear-gradient-5" x1="-85.92" y1="-2.79" x2="-82.98" y2="-2.79" gradientTransform="matrix(0, -80.51, 80.51, 0, 309.23, -6613.01)" xlink:href="#linear-gradient"/><clipPath id="clip-path-7"><path class="cls-1" d="M119.24,50,175,110,148.34,48c-2.29-.15-4.6-.24-6.93-.24A113,113,0,0,0,119.24,50"/></clipPath><linearGradient id="linear-gradient-6" x1="-85.92" y1="-2.3" x2="-82.97" y2="-2.3" gradientTransform="translate(332.2 -6612.06) rotate(-90) scale(80.51)" xlink:href="#linear-gradient"/><clipPath id="clip-path-8"><path class="cls-1" d="M89.89,60.28,162.74,114,117.57,50.33a111.82,111.82,0,0,0-27.68,10"/></clipPath><linearGradient id="linear-gradient-7" x1="-85.92" y1="-2.47" x2="-82.97" y2="-2.47" gradientTransform="matrix(0, -80.51, 80.51, 0, 325.11, -6612.1)" xlink:href="#linear-gradient"/><clipPath id="clip-path-9"><path class="cls-1" d="M29.13,154.72h0l100.1-3.53-95.7-22.62a111.52,111.52,0,0,0-4.4,26.15"/></clipPath><linearGradient id="linear-gradient-8" x1="-85.91" y1="-2.82" x2="-82.98" y2="-2.82" gradientTransform="translate(305.96 -6612.58) rotate(-90) scale(80.52)" xlink:href="#linear-gradient"/><clipPath id="clip-path-10"><path class="cls-1" d="M135.15,143.48c-6.1,16.93-6.84,58.25,45.26,67.5-6.36-6.51-8.73-14.79-8.12-19.4,2.52-19.12,20.59-25.8,24.89-66,24.53,20.92,33.17,46.18,32.83,63.49-.08,4.09-2,9.62-3.83,13.54,32-20.83,26.11-69.12,19.94-83.43C225.62,71.52,186.67,50.64,146.26,48c45.38,32,1,61.76-11.11,95.51"/></clipPath><radialGradient id="radial-gradient" cx="-88.11" cy="-0.21" r="2.94" gradientTransform="translate(4134.63 135.42) scale(45.62)" gradientUnits="userSpaceOnUse"><stop offset="0" stop-color="#97daf8"/><stop offset="0.1" stop-color="#97daf8"/><stop offset="0.5" stop-color="#00bdf2"/><stop offset="0.81" stop-color="#006ab6"/><stop offset="1" stop-color="#006ab6"/></radialGradient><clipPath id="clip-path-11"><path class="cls-1" d="M155.07,173.89c-.7,7.63,7.12,28.34,26.14,37.87-7.23-6.5-6.73-16.62-6.1-21.43,2.51-19.12,18.95-21.54,23.25-61.76,22.52,21,30.91,44.44,30.55,61.76a28.75,28.75,0,0,1-3.29,13.35C238.87,188.3,242,162.9,239,150.46c-7.94-32.92-27.62-49-50.76-66.67,4.38,29.7-31,66.09-33.15,90.1"/></clipPath><linearGradient id="linear-gradient-9" x1="-92.01" y1="1.67" x2="-89.07" y2="1.67" gradientTransform="translate(147.92 -2566.43) rotate(-90) scale(30.18)" gradientUnits="userSpaceOnUse"><stop offset="0" stop-color="#fff"/><stop offset="0.1" stop-color="#fef0dc"/><stop offset="0.26" stop-color="#fdddac"/><stop offset="0.42" stop-color="#fccd85"/><stop offset="0.57" stop-color="#fcc067"/><stop offset="0.72" stop-color="#fbb751"/><stop offset="0.87" stop-color="#fbb244"/><stop offset="1" stop-color="#fbb040"/></linearGradient></defs><g id="Layer_2" data-name="Layer 2"><g id="Layer_1-2" data-name="Layer 1"><g class="cls-2"><path class="cls-3" d="M290.62,198.48a39.48,39.48,0,0,1-11.31,1.84c-6.4,0-10.77-1.59-13.73-4.41a16,16,0,0,1-4.65-11.79c.05-11.4,8.55-17.18,19.12-17.18a23.33,23.33,0,0,1,9.45,1.61l-1.74,7a18,18,0,0,0-7.76-1.4c-5.39,0-9.87,2.8-9.87,9.46,0,6.12,3.95,9.65,9.27,9.65a8.92,8.92,0,0,0,2.77-.29v-5.63H277.8v-6.79h12.81Z"/><rect class="cls-3" x="295.96" y="165.49" width="8.78" height="34.5"/><path class="cls-3" d="M321.64,200.52c-7.13,0-12.67-4.51-12.67-12.28,0-7.61,5-12.66,13.16-12.66,7.48,0,12.42,5,12.42,12.22,0,8.69-6.21,12.72-12.86,12.72Zm.24-6.16c2.38,0,3.64-2.47,3.64-6.31,0-3.29-1.06-6.31-3.64-6.31-2.91,0-3.88,3.15-3.88,6.31,0,3.59,1.16,6.31,3.83,6.31Z"/><path class="cls-3" d="M338.74,165.5h8.78v13.06h.1a8.23,8.23,0,0,1,6.79-3c5.63,0,9.8,4.66,9.76,12,0,8.63-5.44,13-11,13a7.57,7.57,0,0,1-6.79-3.6h-.1L346,200h-7.45c.1-1.55.19-4.6.19-7.52Zm8.78,24.12a8.12,8.12,0,0,0,.1,1.21,3.58,3.58,0,0,0,3.44,2.87c2.58,0,4.23-2,4.23-5.73,0-3.24-1.32-5.67-4.23-5.67a3.51,3.51,0,0,0-3.44,3,8.93,8.93,0,0,0-.1,1.16Z"/><path class="cls-3" d="M389.56,194.16A34.31,34.31,0,0,0,390,200h-7.89l-.44-2.08h-.19a8.42,8.42,0,0,1-6.58,2.63A7.49,7.49,0,0,1,367,193c0-6.4,5.77-9.27,13.87-9.27v-.19c0-1-.73-2-3.94-2a15,15,0,0,0-6.79,1.75l-1.5-5.48a21.22,21.22,0,0,1,9.87-2.18c8.19,0,11.06,4.56,11.06,10.52Zm-8.49-5.09c-3.59,0-5.57,1-5.57,3.1a2.16,2.16,0,0,0,2.47,2.28,3.27,3.27,0,0,0,3-2.18,4.88,4.88,0,0,0,.1-1.26Z"/><rect class="cls-3" x="394.9" y="165.49" width="8.79" height="34.5"/><path class="cls-3" d="M66.47,237.19c-.14-3.69-.19-8.06-.19-13.16h-.14c-1,4.32-2.38,9.21-3.45,12.81l-3.25,11.4H52.63l-2.72-11.4c-.86-3.49-1.84-8.35-2.63-12.81h-.1c-.19,4.61-.34,9.46-.48,13.16l-.53,11.74H38.12l2.05-32.72H52l2.13,8.84C55,228.64,56,233,56.65,237h.15c.92-4,2-8.59,3-12l2.48-8.74H73.71l1.65,32.71H66.89Z"/><path class="cls-3" d="M86.6,240c.29,1.89,3.06,3,6.16,3a21.33,21.33,0,0,0,6.5-.92l1.12,5.82a24.43,24.43,0,0,1-8.92,1.5c-8.39,0-13.15-4.6-13.15-12.18,0-5.53,3.59-12.71,12.38-12.71,7.71,0,11,5.67,11,12.23a15.84,15.84,0,0,1-.34,3.29Zm7-5.92c0-1.35-.65-3.88-3.4-3.88-2.57,0-3.59,2.39-3.73,3.88Z"/><path class="cls-3" d="M115.22,218.25v6.8h5v6.4h-5v6.84c0,2.82.66,4,2.77,4a7,7,0,0,0,2.09-.19v6.64a16.9,16.9,0,0,1-5.19.66,8.49,8.49,0,0,1-6-2.19c-1.45-1.46-2.22-3.79-2.22-7.42v-8.29h-3v-6.4h3v-4.47Z"/><path class="cls-3" d="M124.2,214.42H133v13.15h.1a8.27,8.27,0,0,1,6.45-3c5.39,0,8.39,3.83,8.39,10.57v13.82h-8.77V236.05c0-2.8-.92-4.51-3.1-4.51a3,3,0,0,0-2.87,1.89,4.81,4.81,0,0,0-.2,1.41v14.07H124.2Z"/><path class="cls-3" d="M174.53,243.1a33.48,33.48,0,0,0,.39,5.83H167l-.44-2.08h-.19a8.43,8.43,0,0,1-6.57,2.63,7.49,7.49,0,0,1-7.9-7.52c0-6.41,5.78-9.27,13.88-9.27v-.2c0-1-.73-2-3.94-2a15.11,15.11,0,0,0-6.75,1.74l-1.55-5.54a21.16,21.16,0,0,1,9.86-2.18c8.19,0,11.06,4.56,11.06,10.52ZM166,238c-3.59,0-5.57,1-5.57,3.1a2.17,2.17,0,0,0,2.47,2.28,3.27,3.27,0,0,0,3-2.18A4.84,4.84,0,0,0,166,240Z"/><path class="cls-3" d="M179.87,233.2c0-3.2-.1-5.92-.2-8.15h7.57l.39,3h.15a8.66,8.66,0,0,1,7.18-3.59c5.58,0,8.63,3.79,8.63,10.34v14.07h-8.78v-13c0-2.77-.92-4.37-3.05-4.37a3,3,0,0,0-2.87,2.08,5,5,0,0,0-.24,1.75v13.54h-8.78Z"/><path class="cls-3" d="M216.06,240c.29,1.89,3.06,3,6.16,3a21.4,21.4,0,0,0,6.51-.92l1.11,5.82a24.46,24.46,0,0,1-8.92,1.5c-8.4,0-13.16-4.6-13.16-12.18,0-5.53,3.59-12.71,12.37-12.71,7.72,0,11,5.67,11,12.23a15.83,15.83,0,0,1-.33,3.29Zm7-5.92c0-1.35-.66-3.88-3.39-3.88s-3.6,2.39-3.75,3.88Z"/><rect class="cls-3" x="242.61" y="216.22" width="8.78" height="32.7"/><path class="cls-3" d="M256.58,233.2c0-3.2-.1-5.92-.19-8.15H264l.39,3h.15a8.71,8.71,0,0,1,7.17-3.59c5.58,0,8.63,3.79,8.63,10.34v14.07h-8.76v-13c0-2.77-.92-4.37-3.06-4.37a3,3,0,0,0-2.87,2.08,5,5,0,0,0-.24,1.75v13.54h-8.78Z"/><path class="cls-3" d="M288.8,222.57a4.1,4.1,0,0,1-4.41-4.12c0-2.42,1.75-4.17,4.47-4.17a4.16,4.16,0,1,1,0,8.29Zm-4.12,2.48h8.78v23.87h-8.78Z"/><path class="cls-3" d="M308.46,218.25v6.8h5v6.4h-5v6.84c0,2.82.65,4,2.76,4a7,7,0,0,0,2.09-.19v6.64a16.86,16.86,0,0,1-5.19.66,8.47,8.47,0,0,1-6-2.19c-1.46-1.42-2.21-3.73-2.21-7.34v-8.37h-3v-6.4h3v-4.47Z"/><path class="cls-3" d="M321.56,222.57a4.11,4.11,0,0,1-4.42-4.12c0-2.42,1.75-4.17,4.47-4.17a4.16,4.16,0,1,1,0,8.29Zm-4.13,2.48h8.78v23.87h-8.78Z"/><path class="cls-3" d="M352.85,243.1a35.55,35.55,0,0,0,.39,5.83h-7.92l-.44-2.08h-.19a8.45,8.45,0,0,1-6.58,2.63,7.49,7.49,0,0,1-7.89-7.52c0-6.41,5.77-9.27,13.87-9.27v-.2c0-1-.72-2-3.94-2a15.11,15.11,0,0,0-6.75,1.74l-1.51-5.54a21.22,21.22,0,0,1,9.87-2.18c8.2,0,11.06,4.56,11.06,10.52ZM344.36,238c-3.58,0-5.58,1-5.58,3.1a2.18,2.18,0,0,0,2.48,2.28,3.27,3.27,0,0,0,3-2.18,5.35,5.35,0,0,0,.09-1.26Z"/><path class="cls-3" d="M367.36,218.25v6.8h4.92v6.4h-4.95v6.84c0,2.82.66,4,2.77,4a6.93,6.93,0,0,0,2.08-.19v6.64a16.52,16.52,0,0,1-5.19.66,8.49,8.49,0,0,1-6-2.19c-1.45-1.46-2.23-3.79-2.23-7.42v-8.29h-3v-6.4h3v-4.47Z"/><path class="cls-3" d="M380.47,222.57a4.16,4.16,0,1,1,4.51-4.12,4.15,4.15,0,0,1-4.47,4.12Zm-4.13,2.48h8.78v23.87h-8.78Z"/><path class="cls-3" d="M397.74,225.05l2.57,10.14c.49,1.88.82,3.73,1.12,5.62h.14c.3-1.94.59-3.64,1.07-5.62L405,225.05h9.17l-8.68,23.87h-8.78l-8.49-23.87Z"/><path class="cls-3" d="M423.17,240c.29,1.89,3.05,3,6.16,3a21.38,21.38,0,0,0,6.5-.92L437,247.9a24.52,24.52,0,0,1-8.93,1.5c-8.4,0-13.15-4.6-13.15-12.18,0-5.53,3.59-12.71,12.37-12.71,7.71,0,11,5.67,11,12.23a15.19,15.19,0,0,1-.34,3.29Zm7-5.92c0-1.35-.66-3.88-3.4-3.88-2.57,0-3.59,2.39-3.74,3.88Z"/></g><g class="cls-4"><rect class="cls-5" x="45.96" y="78.32" width="96.22" height="51.02" transform="translate(-0.63 0.58) rotate(-0.35)"/></g><g class="cls-6"><rect class="cls-7" x="31.69" y="176.41" width="94.96" height="31.95" transform="translate(-1.14 0.47) rotate(-0.34)"/></g><g class="cls-8"><rect class="cls-9" x="28.93" y="156.67" width="97.72" height="25.96" transform="translate(-1.04 0.48) rotate(-0.35)"/></g><g class="cls-10"><rect class="cls-11" x="64.83" y="60.65" width="86.93" height="60.07" transform="translate(-0.54 0.64) rotate(-0.34)"/></g><g class="cls-12"><rect class="cls-13" x="33.89" y="101.49" width="100.69" height="38.29" transform="translate(-0.71 0.5) rotate(-0.34)"/></g><g class="cls-14"><rect class="cls-15" x="119.06" y="47.61" width="56.1" height="62.59" transform="translate(-0.48 0.9) rotate(-0.35)"/></g><g class="cls-16"><rect class="cls-17" x="89.7" y="50.11" width="73.23" height="64.11" transform="translate(-0.5 0.77) rotate(-0.35)"/></g><g class="cls-18"><rect class="cls-19" x="29.05" y="128.27" width="100.27" height="26.79" transform="translate(-0.86 0.49) rotate(-0.35)"/></g><g class="cls-20"><rect class="cls-21" x="109.58" y="61.83" width="167.31" height="135.3" transform="translate(57.29 318.22) rotate(-88.06)"/></g><g class="cls-22"><rect class="cls-23" x="154.37" y="83.8" width="87.61" height="127.97"/></g><path class="cls-24" d="M71.7,266.72h11a31,31,0,0,1,7.75.75,8.26,8.26,0,0,1,4.63,3.4,11.07,11.07,0,0,1,1.87,6.56,11.71,11.71,0,0,1-1.51,6.23,8.61,8.61,0,0,1-4.17,3.55q-2.67,1.1-8.21,1.09h-3V301H71.7Zm8.39,5.54v10.17h2.6c2.29,0,3.77-.48,4.43-1.44a6.39,6.39,0,0,0,1-3.72,5.71,5.71,0,0,0-.77-3.13,3.51,3.51,0,0,0-1.79-1.54,9.63,9.63,0,0,0-2.86-.34Z"/><path class="cls-24" d="M99.88,275.63h6.93v6.12q1.88-6.45,6.68-6.45a7.63,7.63,0,0,1,1.34.13v6.9a11.41,11.41,0,0,0-1.31-.1q-5.76,0-5.76,7.83V301H99.88Z"/><path class="cls-24" d="M139.22,288.3q0,13.2-11.44,13.2t-11.47-13.2q0-13.17,11.47-13.18T139.22,288.3Zm-8.13,0q0-4.85-.74-6.56a2.6,2.6,0,0,0-2.57-1.71,2.64,2.64,0,0,0-2.56,1.63q-.78,1.62-.78,6.64a21,21,0,0,0,.67,6.46,2.84,2.84,0,0,0,5.28,0A20.2,20.2,0,0,0,131.09,288.31Z"/><path class="cls-24" d="M143.1,275.63H151v24.52a26.52,26.52,0,0,1-.48,5.87,4.93,4.93,0,0,1-2.26,3.1,8.33,8.33,0,0,1-4.56,1.14,29.65,29.65,0,0,1-4.22-.35v-5.8a8.41,8.41,0,0,0,1,.08c1.15,0,1.88-.26,2.16-.78a8.52,8.52,0,0,0,.44-3.46Zm7.94-2.09h-8v-7h8Z"/><path class="cls-24" d="M177.48,289.48H162.69v1.4c0,2.27.34,3.79,1,4.55a3.45,3.45,0,0,0,2.7,1.15c2.4,0,3.74-1.43,4-4.31l7,.4q-1.87,8.83-11.2,8.83-5.75,0-8.74-3.48t-3-9.34q0-6.6,3.17-10.08a10.92,10.92,0,0,1,8.5-3.48,11.17,11.17,0,0,1,8,3.08Q177.48,281.27,177.48,289.48ZM170,285.39c0-.3,0-.54,0-.7q0-4.9-3.68-4.9c-2.41,0-3.63,1.87-3.64,5.6Z"/><path class="cls-24" d="M202.49,285l-7.33.25a8.73,8.73,0,0,0-.83-3.52,2.39,2.39,0,0,0-2.27-1.19c-2.64,0-4,2.49-4,7.48,0,2.89.32,4.92,1,6.07a3.09,3.09,0,0,0,2.86,1.73q3,0,3.24-4.69l7.33.42q-1,10-11.06,10c-3.63,0-6.4-1.1-8.33-3.3s-2.89-5.47-2.89-9.82,1-7.61,3-9.87,4.85-3.39,8.5-3.39Q201.63,275.12,202.49,285Z"/><path class="cls-24" d="M207.54,267.85l7.66-.23v8h5.2v5.57h-5.2v9.31a25.41,25.41,0,0,0,.13,3.35,1.93,1.93,0,0,0,.83,1.28,4.25,4.25,0,0,0,2.39.52c.6,0,1.35,0,2.24-.05V301a24.62,24.62,0,0,1-4.81.52,10.13,10.13,0,0,1-5.48-1.23,5.48,5.48,0,0,1-2.43-3.08,23.77,23.77,0,0,1-.53-5.9V281.2h-3.13v-5.57h3.13Z"/><path class="cls-24" d="M235,266.72h9.31L254.11,288V266.72h6.48V301H253.1l-11.63-24.8V301H235Z"/><path class="cls-24" d="M287.84,289.48H273.05v1.4c0,2.27.35,3.79,1,4.55a3.45,3.45,0,0,0,2.7,1.15c2.4,0,3.75-1.43,4-4.31l7,.4q-1.87,8.83-11.2,8.83-5.75,0-8.73-3.48t-3-9.34q0-6.6,3.17-10.08a10.92,10.92,0,0,1,8.5-3.48,11.17,11.17,0,0,1,8,3.08Q287.83,281.27,287.84,289.48Zm-7.44-4.09c0-.3,0-.54,0-.7q0-4.9-3.67-4.9c-2.42,0-3.63,1.87-3.65,5.6Z"/><path class="cls-24" d="M292.79,267.85l7.66-.23v8h5.2v5.57h-5.2v9.31a25.41,25.41,0,0,0,.13,3.35,1.9,1.9,0,0,0,.84,1.28,4.21,4.21,0,0,0,2.39.52c.59,0,1.34,0,2.23-.05V301a24.62,24.62,0,0,1-4.81.52,10.07,10.07,0,0,1-5.47-1.23,5.46,5.46,0,0,1-2.44-3.08,23.77,23.77,0,0,1-.53-5.9V281.2h-3.13v-5.57h3.13Z"/><path class="cls-24" d="M306.84,275.63h7.67l3.31,15.43L321,275.63h7.66L331.22,291,335,275.63h6.17L334.12,301h-6.59l-3.64-17.25L320.34,301h-6.4Z"/><path class="cls-24" d="M364.45,288.3q0,13.2-11.45,13.2t-11.47-13.2q0-13.17,11.47-13.18T364.45,288.3Zm-8.14,0c0-3.23-.24-5.42-.74-6.56A2.59,2.59,0,0,0,353,280a2.64,2.64,0,0,0-2.56,1.63q-.78,1.62-.78,6.64a21,21,0,0,0,.67,6.46,2.84,2.84,0,0,0,5.29,0A20.58,20.58,0,0,0,356.31,288.31Z"/><path class="cls-24" d="M368.33,275.63h6.93v6.12q1.88-6.45,6.68-6.45a7.63,7.63,0,0,1,1.34.13v6.9a11.72,11.72,0,0,0-1.31-.1q-5.76,0-5.76,7.83V301h-7.88Z"/><path class="cls-24" d="M385.64,266.72h7.88V285.4l7.94-9.77h7.16l-7.14,8.51L409.32,301h-8.51l-4.41-11.76-2.88,3.55V301h-7.88Z"/><path class="cls-24" d="M0,83.82l5.68-8.89a26.36,26.36,0,0,1,4.68-5.85,8.06,8.06,0,0,1,5.46-1.79,12.73,12.73,0,0,1,6.89,2.26,13.57,13.57,0,0,1,4.83,4.8,8.6,8.6,0,0,1,1.05,5.43q-.39,2.79-3.26,7.27l-1.53,2.4,11.44,7.3-4.34,6.79Zm9.34-3.6,9.17,5.85L19.85,84c1.18-1.86,1.52-3.33,1-4.42A7.55,7.55,0,0,0,18,76.61a6.58,6.58,0,0,0-3.22-1.18,3.43,3.43,0,0,0-2.31.56,8.19,8.19,0,0,0-1.79,2.13Z"/><path class="cls-24" d="M25.15,64.24l4.46-4.94,4.87,4.38q-3.93-6-.83-9.39a7,7,0,0,1,1-.87l5.49,4.95a9.86,9.86,0,0,0-.93.86Q35.47,63.34,41.7,69l8.68,7.82L45.31,82.4Z"/><path class="cls-24" d="M63.44,47.2q8.86,11,.3,17.9T46.29,61Q37.46,50,46,43.13T63.44,47.2Zm-6.08,4.91q-3.26-4-5-5a2.51,2.51,0,0,0-3.07.13,2.56,2.56,0,0,0-.83,2.9q.51,1.82,3.89,6a24.65,24.65,0,0,0,4.84,5,2.63,2.63,0,0,0,4-3.18A24.27,24.27,0,0,0,57.36,52.11Z"/><path class="cls-24" d="M60.75,32.83l6.68-3.56,8.18,15.39a8.52,8.52,0,0,0,2.08,2.88,2.17,2.17,0,0,0,2.27-.2,3.14,3.14,0,0,0,1.64-1.69,3.28,3.28,0,0,0-.12-2.21c-.31-.8-1.08-2.37-2.33-4.71L72.65,26.5l6.68-3.56,12.74,24-6.28,3.34L84.05,47a8.55,8.55,0,0,1-1.18,4.62,8.85,8.85,0,0,1-3,2.43,7.21,7.21,0,0,1-4.53,1,5.43,5.43,0,0,1-3.22-1.76A27,27,0,0,1,69,48.41Z"/><path class="cls-24" d="M96.41,6.86l7.08-2.29,11.28,34.88-6.69,2.16-1.38-4.26c-.1,3.43-1.55,5.61-4.37,6.52A7,7,0,0,1,95,42.25a20.39,20.39,0,0,1-5.12-8.87q-2.17-6.72-.91-10.8a7.67,7.67,0,0,1,5.17-5.35,5.69,5.69,0,0,1,6,1.1Zm6.43,19.87q-1.23-3.8-2.46-4.83a2.75,2.75,0,0,0-2.76-.53A2.57,2.57,0,0,0,95.72,24q-.07,2,1.74,7.61a17.29,17.29,0,0,0,2.62,5.64,2.56,2.56,0,0,0,2.9.91,3,3,0,0,0,1.93-1.87q.54-1.44-.6-4.95Z"/><path class="cls-24" d="M129.27,0l11.81.36,4.49,22.78L152.09.69,163.55,1l-1.12,36.64-7.54-.23.93-30.68L147.4,37.23l-5.85-.18L135.64,6.16l-.93,30.68-6.55-.2Z"/><path class="cls-24" d="M189.07,32.9l-13.68-3.85-.4,1.44c-.66,2.33-.78,4-.37,5a3.16,3.16,0,0,0,2.17,1.88q3.32.95,5-3.39l6.37,2.24q-4.29,8.61-12.91,6.18-5.32-1.48-7.07-5.86t-.06-10.4q1.92-6.8,5.86-9.55a10,10,0,0,1,8.87-1.37,10.15,10.15,0,0,1,6.53,5.26Q191.45,24.45,189.07,32.9Zm-5.69-6.15c.1-.31.18-.55.23-.72q1.42-5-2-6t-5,4.82Z"/><path class="cls-24" d="M200.66,21.08l6.28,3.47-1.8,3.24a6.71,6.71,0,0,1,7.81-.52c2.82,1.56,3.84,3.75,3.06,6.55a6.62,6.62,0,0,1,7.83-.51,8,8,0,0,1,3.23,2.9,5.08,5.08,0,0,1,.64,3.37,21.24,21.24,0,0,1-2.52,5.84l-8.6,15.5L210,57.25l8.21-14.83a11.06,11.06,0,0,0,1.54-3.66c.05-.67-.36-1.24-1.22-1.72a2.25,2.25,0,0,0-2.6-.07,13.8,13.8,0,0,0-2.81,4l-7.66,13.81-6.62-3.67,8.34-15a10.53,10.53,0,0,0,1.45-3.49c0-.64-.37-1.19-1.23-1.67a2.45,2.45,0,0,0-2.74-.09,12.79,12.79,0,0,0-2.84,3.88l-7.65,13.81-6.63-3.67Z"/><path class="cls-24" d="M243,36l5.48,5-8.18,8.9a6.74,6.74,0,0,1,6.13,1.65,7.51,7.51,0,0,1,2.31,6.72q-.45,4.17-5.19,9.34-4.56,5-8.91,6.09a8,8,0,0,1-7.81-2,6.31,6.31,0,0,1-1.88-7.31A17.83,17.83,0,0,0,221.49,66l-3.31-3Zm-11.7,23.74a13.09,13.09,0,0,0-3,4.26,2.52,2.52,0,0,0,.85,2.71,2.68,2.68,0,0,0,3.34.32,22.39,22.39,0,0,0,5.15-4.54A24.14,24.14,0,0,0,241.73,57a2.62,2.62,0,0,0-.44-3.31c-1.62-1.49-3.54-1-5.78,1.42Z"/><path class="cls-24" d="M257.88,88.85l-8.47-11.4-1.21.9c-1.94,1.44-3,2.68-3.31,3.69a3.16,3.16,0,0,0,.56,2.82q2.06,2.77,6,.36l3.67,5.67q-8.65,4.2-14-3-3.3-4.42-2-9t6.31-8.26q5.67-4.22,10.47-4A10,10,0,0,1,263.76,71a10.13,10.13,0,0,1,2,8.15Q264.92,83.61,257.88,88.85Zm-.75-8.34c.27-.18.48-.32.62-.43,2.81-2.08,3.5-4.06,2.1-6s-3.68-1.61-6.9.75Z"/><path class="cls-24" d="M272.86,85.68,276,91.57l-5.79,3.06q6.94-1.63,9.1,2.45a6.24,6.24,0,0,1,.48,1.2l-6.53,3.45a11.61,11.61,0,0,0-.49-1.17q-2.58-4.89-10-1L252.42,105l-3.54-6.69Z"/></g></g></svg>